<svg width="1195" height="410" viewBox="0 0 1195 410" fill="none" xmlns="http://www.w3.org/2000/svg">
<g clip-path="url(#clip0)">
<rect width="1195" height="410" fill="#070785"/>
<path d="M586 -25L338.017 520H-246V-25H586Z" fill="#2436D7"/>
<path d="M99.5547 139H93.6953V126.812H82.2695V139H76.4102V110.562H82.2695V122.086H93.6953V110.562H99.5547V139ZM121.098 133.141H110.824L108.871 139H102.641L113.227 110.562H118.656L129.301 139H123.07L121.098 133.141ZM112.406 128.395H119.516L115.941 117.75L112.406 128.395ZM146.703 131.539C146.703 130.432 146.312 129.586 145.531 129C144.75 128.401 143.344 127.776 141.312 127.125C139.281 126.461 137.673 125.81 136.488 125.172C133.259 123.427 131.645 121.077 131.645 118.121C131.645 116.585 132.074 115.217 132.934 114.02C133.806 112.809 135.049 111.865 136.664 111.188C138.292 110.51 140.115 110.172 142.133 110.172C144.164 110.172 145.974 110.543 147.562 111.285C149.151 112.014 150.382 113.049 151.254 114.391C152.139 115.732 152.582 117.255 152.582 118.961H146.723C146.723 117.659 146.312 116.65 145.492 115.934C144.672 115.204 143.52 114.84 142.035 114.84C140.603 114.84 139.49 115.146 138.695 115.758C137.901 116.357 137.504 117.151 137.504 118.141C137.504 119.065 137.966 119.84 138.891 120.465C139.828 121.09 141.202 121.676 143.012 122.223C146.345 123.225 148.773 124.469 150.297 125.953C151.82 127.438 152.582 129.286 152.582 131.5C152.582 133.961 151.651 135.895 149.789 137.301C147.927 138.694 145.421 139.391 142.27 139.391C140.082 139.391 138.09 138.993 136.293 138.199C134.496 137.392 133.122 136.292 132.172 134.898C131.234 133.505 130.766 131.891 130.766 130.055H136.645C136.645 133.193 138.52 134.762 142.27 134.762C143.663 134.762 144.75 134.482 145.531 133.922C146.312 133.349 146.703 132.555 146.703 131.539ZM171.312 131.539C171.312 130.432 170.922 129.586 170.141 129C169.359 128.401 167.953 127.776 165.922 127.125C163.891 126.461 162.283 125.81 161.098 125.172C157.868 123.427 156.254 121.077 156.254 118.121C156.254 116.585 156.684 115.217 157.543 114.02C158.415 112.809 159.659 111.865 161.273 111.188C162.901 110.51 164.724 110.172 166.742 110.172C168.773 110.172 170.583 110.543 172.172 111.285C173.76 112.014 174.991 113.049 175.863 114.391C176.749 115.732 177.191 117.255 177.191 118.961H171.332C171.332 117.659 170.922 116.65 170.102 115.934C169.281 115.204 168.129 114.84 166.645 114.84C165.212 114.84 164.099 115.146 163.305 115.758C162.51 116.357 162.113 117.151 162.113 118.141C162.113 119.065 162.576 119.84 163.5 120.465C164.438 121.09 165.811 121.676 167.621 122.223C170.954 123.225 173.383 124.469 174.906 125.953C176.43 127.438 177.191 129.286 177.191 131.5C177.191 133.961 176.26 135.895 174.398 137.301C172.536 138.694 170.03 139.391 166.879 139.391C164.691 139.391 162.699 138.993 160.902 138.199C159.105 137.392 157.732 136.292 156.781 134.898C155.844 133.505 155.375 131.891 155.375 130.055H161.254C161.254 133.193 163.129 134.762 166.879 134.762C168.272 134.762 169.359 134.482 170.141 133.922C170.922 133.349 171.312 132.555 171.312 131.539ZM187.035 134.293H199.477V139H181.176V110.562H187.035V134.293ZM219.965 126.676H208.715V134.293H221.918V139H202.855V110.562H221.879V115.309H208.715V122.086H219.965V126.676ZM252.426 127.379H241.176V139H235.316V110.562H253.832V115.309H241.176V122.652H252.426V127.379ZM267.758 128.59H263.09V139H257.23V110.562H267.797C271.156 110.562 273.747 111.311 275.57 112.809C277.393 114.306 278.305 116.422 278.305 119.156C278.305 121.096 277.882 122.717 277.035 124.02C276.202 125.309 274.932 126.337 273.227 127.105L279.379 138.727V139H273.09L267.758 128.59ZM263.09 123.844H267.816C269.288 123.844 270.427 123.473 271.234 122.73C272.042 121.975 272.445 120.94 272.445 119.625C272.445 118.284 272.061 117.229 271.293 116.461C270.538 115.693 269.372 115.309 267.797 115.309H263.09V123.844ZM299.887 126.676H288.637V134.293H301.84V139H282.777V110.562H301.801V115.309H288.637V122.086H299.887V126.676ZM322.387 126.676H311.137V134.293H324.34V139H305.277V110.562H324.301V115.309H311.137V122.086H322.387V126.676ZM343.598 134.293H356.039V139H337.738V110.562H343.598V134.293ZM381.527 125.426C381.527 128.225 381.033 130.68 380.043 132.789C379.053 134.898 377.634 136.526 375.785 137.672C373.949 138.818 371.84 139.391 369.457 139.391C367.1 139.391 364.997 138.824 363.148 137.691C361.299 136.559 359.867 134.944 358.852 132.848C357.836 130.738 357.322 128.316 357.309 125.582V124.176C357.309 121.376 357.81 118.915 358.812 116.793C359.828 114.658 361.254 113.023 363.09 111.891C364.939 110.745 367.048 110.172 369.418 110.172C371.788 110.172 373.891 110.745 375.727 111.891C377.576 113.023 379.001 114.658 380.004 116.793C381.02 118.915 381.527 121.37 381.527 124.156V125.426ZM375.59 124.137C375.59 121.155 375.056 118.889 373.988 117.34C372.921 115.79 371.397 115.016 369.418 115.016C367.452 115.016 365.935 115.784 364.867 117.32C363.799 118.844 363.259 121.083 363.246 124.039V125.426C363.246 128.329 363.78 130.582 364.848 132.184C365.915 133.785 367.452 134.586 369.457 134.586C371.423 134.586 372.934 133.818 373.988 132.281C375.043 130.732 375.577 128.479 375.59 125.523V124.137ZM408.285 135.406C407.23 136.669 405.74 137.652 403.812 138.355C401.885 139.046 399.75 139.391 397.406 139.391C394.945 139.391 392.784 138.857 390.922 137.789C389.073 136.708 387.641 135.146 386.625 133.102C385.622 131.057 385.108 128.655 385.082 125.895V123.961C385.082 121.122 385.557 118.668 386.508 116.598C387.471 114.514 388.852 112.926 390.648 111.832C392.458 110.725 394.574 110.172 396.996 110.172C400.368 110.172 403.005 110.979 404.906 112.594C406.807 114.195 407.934 116.533 408.285 119.605H402.582C402.322 117.978 401.742 116.786 400.844 116.031C399.958 115.276 398.734 114.898 397.172 114.898C395.18 114.898 393.663 115.647 392.621 117.145C391.579 118.642 391.052 120.868 391.039 123.824V125.641C391.039 128.622 391.605 130.875 392.738 132.398C393.871 133.922 395.531 134.684 397.719 134.684C399.919 134.684 401.488 134.215 402.426 133.277V128.375H397.094V124.059H408.285V135.406ZM436.41 125.426C436.41 128.225 435.915 130.68 434.926 132.789C433.936 134.898 432.517 136.526 430.668 137.672C428.832 138.818 426.723 139.391 424.34 139.391C421.983 139.391 419.88 138.824 418.031 137.691C416.182 136.559 414.75 134.944 413.734 132.848C412.719 130.738 412.204 128.316 412.191 125.582V124.176C412.191 121.376 412.693 118.915 413.695 116.793C414.711 114.658 416.137 113.023 417.973 111.891C419.822 110.745 421.931 110.172 424.301 110.172C426.671 110.172 428.773 110.745 430.609 111.891C432.458 113.023 433.884 114.658 434.887 116.793C435.902 118.915 436.41 121.37 436.41 124.156V125.426ZM430.473 124.137C430.473 121.155 429.939 118.889 428.871 117.34C427.803 115.79 426.28 115.016 424.301 115.016C422.335 115.016 420.818 115.784 419.75 117.32C418.682 118.844 418.142 121.083 418.129 124.039V125.426C418.129 128.329 418.663 130.582 419.73 132.184C420.798 133.785 422.335 134.586 424.34 134.586C426.306 134.586 427.816 133.818 428.871 132.281C429.926 130.732 430.46 128.479 430.473 125.523V124.137ZM94.9648 186V157.562H103.715C106.215 157.562 108.448 158.129 110.414 159.262C112.393 160.382 113.936 161.983 115.043 164.066C116.15 166.137 116.703 168.493 116.703 171.137V172.445C116.703 175.089 116.156 177.439 115.062 179.496C113.982 181.553 112.452 183.148 110.473 184.281C108.493 185.414 106.26 185.987 103.773 186H94.9648ZM100.824 162.309V181.293H103.656C105.948 181.293 107.699 180.544 108.91 179.047C110.121 177.549 110.74 175.408 110.766 172.621V171.117C110.766 168.227 110.167 166.039 108.969 164.555C107.771 163.057 106.02 162.309 103.715 162.309H100.824ZM138.09 173.676H126.84V181.293H140.043V186H120.98V157.562H140.004V162.309H126.84V169.086H138.09V173.676ZM158.227 178.539C158.227 177.432 157.836 176.586 157.055 176C156.273 175.401 154.867 174.776 152.836 174.125C150.805 173.461 149.197 172.81 148.012 172.172C144.783 170.427 143.168 168.077 143.168 165.121C143.168 163.585 143.598 162.217 144.457 161.02C145.329 159.809 146.573 158.865 148.188 158.188C149.815 157.51 151.638 157.172 153.656 157.172C155.688 157.172 157.497 157.543 159.086 158.285C160.674 159.014 161.905 160.049 162.777 161.391C163.663 162.732 164.105 164.255 164.105 165.961H158.246C158.246 164.659 157.836 163.65 157.016 162.934C156.195 162.204 155.043 161.84 153.559 161.84C152.126 161.84 151.013 162.146 150.219 162.758C149.424 163.357 149.027 164.151 149.027 165.141C149.027 166.065 149.49 166.84 150.414 167.465C151.352 168.09 152.725 168.676 154.535 169.223C157.868 170.225 160.297 171.469 161.82 172.953C163.344 174.438 164.105 176.286 164.105 178.5C164.105 180.961 163.174 182.895 161.312 184.301C159.451 185.694 156.944 186.391 153.793 186.391C151.605 186.391 149.613 185.993 147.816 185.199C146.02 184.392 144.646 183.292 143.695 181.898C142.758 180.505 142.289 178.891 142.289 177.055H148.168C148.168 180.193 150.043 181.762 153.793 181.762C155.186 181.762 156.273 181.482 157.055 180.922C157.836 180.349 158.227 179.555 158.227 178.539ZM174.32 186H168.461V157.562H174.32V186ZM202.27 182.406C201.215 183.669 199.724 184.652 197.797 185.355C195.87 186.046 193.734 186.391 191.391 186.391C188.93 186.391 186.768 185.857 184.906 184.789C183.057 183.708 181.625 182.146 180.609 180.102C179.607 178.057 179.092 175.655 179.066 172.895V170.961C179.066 168.122 179.542 165.668 180.492 163.598C181.456 161.514 182.836 159.926 184.633 158.832C186.443 157.725 188.559 157.172 190.98 157.172C194.353 157.172 196.99 157.979 198.891 159.594C200.792 161.195 201.918 163.533 202.27 166.605H196.566C196.306 164.978 195.727 163.786 194.828 163.031C193.943 162.276 192.719 161.898 191.156 161.898C189.164 161.898 187.647 162.647 186.605 164.145C185.564 165.642 185.036 167.868 185.023 170.824V172.641C185.023 175.622 185.59 177.875 186.723 179.398C187.855 180.922 189.516 181.684 191.703 181.684C193.904 181.684 195.473 181.215 196.41 180.277V175.375H191.078V171.059H202.27V182.406ZM230.16 186H224.301L212.895 167.289V186H207.035V157.562H212.895L224.32 176.312V157.562H230.16V186ZM251.098 175.98V186H245.238V157.562H256.332C258.467 157.562 260.342 157.953 261.957 158.734C263.585 159.516 264.835 160.629 265.707 162.074C266.579 163.507 267.016 165.141 267.016 166.977C267.016 169.763 266.059 171.964 264.145 173.578C262.243 175.18 259.607 175.98 256.234 175.98H251.098ZM251.098 171.234H256.332C257.882 171.234 259.06 170.87 259.867 170.141C260.688 169.411 261.098 168.37 261.098 167.016C261.098 165.622 260.688 164.496 259.867 163.637C259.047 162.777 257.914 162.335 256.469 162.309H251.098V171.234ZM281.586 175.59H276.918V186H271.059V157.562H281.625C284.984 157.562 287.576 158.311 289.398 159.809C291.221 161.306 292.133 163.422 292.133 166.156C292.133 168.096 291.71 169.717 290.863 171.02C290.03 172.309 288.76 173.337 287.055 174.105L293.207 185.727V186H286.918L281.586 175.59ZM276.918 170.844H281.645C283.116 170.844 284.255 170.473 285.062 169.73C285.87 168.975 286.273 167.94 286.273 166.625C286.273 165.284 285.889 164.229 285.121 163.461C284.366 162.693 283.201 162.309 281.625 162.309H276.918V170.844ZM319.965 172.426C319.965 175.225 319.47 177.68 318.48 179.789C317.491 181.898 316.072 183.526 314.223 184.672C312.387 185.818 310.277 186.391 307.895 186.391C305.538 186.391 303.435 185.824 301.586 184.691C299.737 183.559 298.305 181.944 297.289 179.848C296.273 177.738 295.759 175.316 295.746 172.582V171.176C295.746 168.376 296.247 165.915 297.25 163.793C298.266 161.658 299.691 160.023 301.527 158.891C303.376 157.745 305.486 157.172 307.855 157.172C310.225 157.172 312.328 157.745 314.164 158.891C316.013 160.023 317.439 161.658 318.441 163.793C319.457 165.915 319.965 168.37 319.965 171.156V172.426ZM314.027 171.137C314.027 168.155 313.493 165.889 312.426 164.34C311.358 162.79 309.835 162.016 307.855 162.016C305.889 162.016 304.372 162.784 303.305 164.32C302.237 165.844 301.697 168.083 301.684 171.039V172.426C301.684 175.329 302.217 177.582 303.285 179.184C304.353 180.785 305.889 181.586 307.895 181.586C309.861 181.586 311.371 180.818 312.426 179.281C313.48 177.732 314.014 175.479 314.027 172.523V171.137ZM346.547 176.527C346.326 179.587 345.193 181.996 343.148 183.754C341.117 185.512 338.435 186.391 335.102 186.391C331.456 186.391 328.585 185.167 326.488 182.719C324.405 180.258 323.363 176.885 323.363 172.602V170.863C323.363 168.129 323.845 165.72 324.809 163.637C325.772 161.553 327.146 159.958 328.93 158.852C330.727 157.732 332.81 157.172 335.18 157.172C338.461 157.172 341.104 158.051 343.109 159.809C345.115 161.566 346.273 164.034 346.586 167.211H340.727C340.583 165.375 340.069 164.047 339.184 163.227C338.311 162.393 336.977 161.977 335.18 161.977C333.227 161.977 331.762 162.68 330.785 164.086C329.822 165.479 329.327 167.647 329.301 170.59V172.738C329.301 175.811 329.763 178.057 330.688 179.477C331.625 180.896 333.096 181.605 335.102 181.605C336.911 181.605 338.259 181.195 339.145 180.375C340.043 179.542 340.557 178.259 340.688 176.527H346.547ZM367.504 173.676H356.254V181.293H369.457V186H350.395V157.562H369.418V162.309H356.254V169.086H367.504V173.676ZM387.641 178.539C387.641 177.432 387.25 176.586 386.469 176C385.688 175.401 384.281 174.776 382.25 174.125C380.219 173.461 378.611 172.81 377.426 172.172C374.197 170.427 372.582 168.077 372.582 165.121C372.582 163.585 373.012 162.217 373.871 161.02C374.743 159.809 375.987 158.865 377.602 158.188C379.229 157.51 381.052 157.172 383.07 157.172C385.102 157.172 386.911 157.543 388.5 158.285C390.089 159.014 391.319 160.049 392.191 161.391C393.077 162.732 393.52 164.255 393.52 165.961H387.66C387.66 164.659 387.25 163.65 386.43 162.934C385.609 162.204 384.457 161.84 382.973 161.84C381.54 161.84 380.427 162.146 379.633 162.758C378.839 163.357 378.441 164.151 378.441 165.141C378.441 166.065 378.904 166.84 379.828 167.465C380.766 168.09 382.139 168.676 383.949 169.223C387.283 170.225 389.711 171.469 391.234 172.953C392.758 174.438 393.52 176.286 393.52 178.5C393.52 180.961 392.589 182.895 390.727 184.301C388.865 185.694 386.358 186.391 383.207 186.391C381.02 186.391 379.027 185.993 377.23 185.199C375.434 184.392 374.06 183.292 373.109 181.898C372.172 180.505 371.703 178.891 371.703 177.055H377.582C377.582 180.193 379.457 181.762 383.207 181.762C384.6 181.762 385.688 181.482 386.469 180.922C387.25 180.349 387.641 179.555 387.641 178.539ZM412.25 178.539C412.25 177.432 411.859 176.586 411.078 176C410.297 175.401 408.891 174.776 406.859 174.125C404.828 173.461 403.22 172.81 402.035 172.172C398.806 170.427 397.191 168.077 397.191 165.121C397.191 163.585 397.621 162.217 398.48 161.02C399.353 159.809 400.596 158.865 402.211 158.188C403.839 157.51 405.661 157.172 407.68 157.172C409.711 157.172 411.521 157.543 413.109 158.285C414.698 159.014 415.928 160.049 416.801 161.391C417.686 162.732 418.129 164.255 418.129 165.961H412.27C412.27 164.659 411.859 163.65 411.039 162.934C410.219 162.204 409.066 161.84 407.582 161.84C406.15 161.84 405.036 162.146 404.242 162.758C403.448 163.357 403.051 164.151 403.051 165.141C403.051 166.065 403.513 166.84 404.438 167.465C405.375 168.09 406.749 168.676 408.559 169.223C411.892 170.225 414.32 171.469 415.844 172.953C417.367 174.438 418.129 176.286 418.129 178.5C418.129 180.961 417.198 182.895 415.336 184.301C413.474 185.694 410.967 186.391 407.816 186.391C405.629 186.391 403.637 185.993 401.84 185.199C400.043 184.392 398.669 183.292 397.719 181.898C396.781 180.505 396.312 178.891 396.312 177.055H402.191C402.191 180.193 404.066 181.762 407.816 181.762C409.21 181.762 410.297 181.482 411.078 180.922C411.859 180.349 412.25 179.555 412.25 178.539Z" fill="white"/>
<g clip-path="url(#clip1)">
<path d="M398.229 443.203H389.446L422.353 370.189C422.994 368.747 424.426 367.836 425.972 367.836C428.874 367.836 430.797 370.834 429.59 373.49L398.229 443.203Z" fill="#2436D7"/>
<path d="M491.07 235.962C493.973 235.962 495.895 238.96 494.689 241.617L464.345 308.939C463.704 310.381 462.272 311.292 460.726 311.292C457.824 311.292 455.901 308.294 457.108 305.637L487.452 238.315C488.093 236.873 489.487 235.962 491.07 235.962Z" fill="#2436D7"/>
<path d="M508.598 228.41C499.514 228.41 493.445 218.961 497.215 210.612L595.899 -8.20319H623.379L520.02 221.01C517.984 225.526 513.536 228.41 508.598 228.41Z" fill="#2436D7"/>
<path d="M513.499 273.646C511.916 273.646 510.898 272.014 511.539 270.572L637.251 -8.20319H642L515.459 272.355C515.12 273.152 514.366 273.646 513.499 273.646Z" fill="#2436D7"/>
<path d="M588.775 -8.20319L384.734 443.203" stroke="#2436D7" stroke-miterlimit="10"/>
</g>
<path d="M799.125 132.676H787.875V140.293H801.078V145H782.016V116.562H801.039V121.309H787.875V128.086H799.125V132.676ZM802.875 134.277C802.875 130.983 803.611 128.359 805.082 126.406C806.566 124.453 808.591 123.477 811.156 123.477C813.214 123.477 814.913 124.245 816.254 125.781V115H821.918V145H816.82L816.547 142.754C815.141 144.512 813.331 145.391 811.117 145.391C808.63 145.391 806.632 144.414 805.121 142.461C803.624 140.495 802.875 137.767 802.875 134.277ZM808.52 134.688C808.52 136.667 808.865 138.184 809.555 139.238C810.245 140.293 811.247 140.82 812.562 140.82C814.307 140.82 815.538 140.085 816.254 138.613V130.273C815.551 128.802 814.333 128.066 812.602 128.066C809.88 128.066 808.52 130.273 808.52 134.688ZM832.25 145H826.586V123.867H832.25V145ZM826.254 118.398C826.254 117.552 826.534 116.855 827.094 116.309C827.667 115.762 828.441 115.488 829.418 115.488C830.382 115.488 831.15 115.762 831.723 116.309C832.296 116.855 832.582 117.552 832.582 118.398C832.582 119.258 832.289 119.961 831.703 120.508C831.13 121.055 830.368 121.328 829.418 121.328C828.467 121.328 827.699 121.055 827.113 120.508C826.54 119.961 826.254 119.258 826.254 118.398ZM843.676 118.672V123.867H847.289V128.008H843.676V138.555C843.676 139.336 843.826 139.896 844.125 140.234C844.424 140.573 844.997 140.742 845.844 140.742C846.469 140.742 847.022 140.697 847.504 140.605V144.883C846.397 145.221 845.258 145.391 844.086 145.391C840.128 145.391 838.109 143.392 838.031 139.395V128.008H834.945V123.867H838.031V118.672H843.676ZM872.641 145C872.38 144.492 872.191 143.861 872.074 143.105C870.707 144.629 868.93 145.391 866.742 145.391C864.672 145.391 862.953 144.792 861.586 143.594C860.232 142.396 859.555 140.885 859.555 139.062C859.555 136.823 860.382 135.104 862.035 133.906C863.702 132.708 866.104 132.103 869.242 132.09H871.84V130.879C871.84 129.902 871.586 129.121 871.078 128.535C870.583 127.949 869.796 127.656 868.715 127.656C867.764 127.656 867.016 127.884 866.469 128.34C865.935 128.796 865.668 129.421 865.668 130.215H860.023C860.023 128.991 860.401 127.858 861.156 126.816C861.911 125.775 862.979 124.961 864.359 124.375C865.74 123.776 867.289 123.477 869.008 123.477C871.612 123.477 873.676 124.134 875.199 125.449C876.736 126.751 877.504 128.587 877.504 130.957V140.117C877.517 142.122 877.797 143.639 878.344 144.668V145H872.641ZM867.973 141.074C868.806 141.074 869.574 140.892 870.277 140.527C870.98 140.15 871.501 139.648 871.84 139.023V135.391H869.73C866.905 135.391 865.401 136.367 865.219 138.32L865.199 138.652C865.199 139.355 865.447 139.935 865.941 140.391C866.436 140.846 867.113 141.074 867.973 141.074ZM887.035 123.867L887.211 126.309C888.721 124.421 890.746 123.477 893.285 123.477C895.525 123.477 897.191 124.134 898.285 125.449C899.379 126.764 899.939 128.73 899.965 131.348V145H894.32V131.484C894.32 130.286 894.06 129.421 893.539 128.887C893.018 128.34 892.152 128.066 890.941 128.066C889.353 128.066 888.161 128.743 887.367 130.098V145H881.723V123.867H887.035ZM912.152 137.012L916.059 123.867H922.113L913.617 148.281L913.148 149.395C911.885 152.155 909.802 153.535 906.898 153.535C906.078 153.535 905.245 153.411 904.398 153.164V148.887L905.258 148.906C906.326 148.906 907.12 148.743 907.641 148.418C908.174 148.092 908.591 147.552 908.891 146.797L909.555 145.059L902.152 123.867H908.227L912.152 137.012ZM941.059 118.672V123.867H944.672V128.008H941.059V138.555C941.059 139.336 941.208 139.896 941.508 140.234C941.807 140.573 942.38 140.742 943.227 140.742C943.852 140.742 944.405 140.697 944.887 140.605V144.883C943.78 145.221 942.641 145.391 941.469 145.391C937.51 145.391 935.492 143.392 935.414 139.395V128.008H932.328V123.867H935.414V118.672H941.059ZM953.773 145H948.109V123.867H953.773V145ZM947.777 118.398C947.777 117.552 948.057 116.855 948.617 116.309C949.19 115.762 949.965 115.488 950.941 115.488C951.905 115.488 952.673 115.762 953.246 116.309C953.819 116.855 954.105 117.552 954.105 118.398C954.105 119.258 953.812 119.961 953.227 120.508C952.654 121.055 951.892 121.328 950.941 121.328C949.991 121.328 949.223 121.055 948.637 120.508C948.064 119.961 947.777 119.258 947.777 118.398ZM963.734 123.867L963.91 126.23C965.408 124.395 967.432 123.477 969.984 123.477C972.706 123.477 974.574 124.551 975.59 126.699C977.074 124.551 979.19 123.477 981.938 123.477C984.229 123.477 985.935 124.147 987.055 125.488C988.174 126.816 988.734 128.822 988.734 131.504V145H983.07V131.523C983.07 130.326 982.836 129.453 982.367 128.906C981.898 128.346 981.072 128.066 979.887 128.066C978.194 128.066 977.022 128.874 976.371 130.488L976.391 145H970.746V131.543C970.746 130.319 970.505 129.434 970.023 128.887C969.542 128.34 968.721 128.066 967.562 128.066C965.961 128.066 964.802 128.73 964.086 130.059V145H958.441V123.867H963.734ZM1002.82 145.391C999.717 145.391 997.191 144.44 995.238 142.539C993.298 140.638 992.328 138.105 992.328 134.941V134.395C992.328 132.272 992.738 130.378 993.559 128.711C994.379 127.031 995.538 125.742 997.035 124.844C998.546 123.932 1000.26 123.477 1002.19 123.477C1005.08 123.477 1007.35 124.388 1009.01 126.211C1010.67 128.034 1011.51 130.618 1011.51 133.965V136.27H998.051C998.233 137.65 998.78 138.757 999.691 139.59C1000.62 140.423 1001.78 140.84 1003.19 140.84C1005.36 140.84 1007.06 140.052 1008.29 138.477L1011.06 141.582C1010.21 142.78 1009.07 143.717 1007.62 144.395C1006.18 145.059 1004.57 145.391 1002.82 145.391ZM1002.17 128.047C1001.05 128.047 1000.14 128.424 999.438 129.18C998.747 129.935 998.305 131.016 998.109 132.422H1005.96V131.973C1005.93 130.723 1005.6 129.759 1004.95 129.082C1004.29 128.392 1003.37 128.047 1002.17 128.047ZM889.262 184.344C889.262 183.029 889.626 181.811 890.355 180.691C891.098 179.572 892.452 178.328 894.418 176.961C893.572 175.828 892.908 174.767 892.426 173.777C891.944 172.775 891.703 171.733 891.703 170.652C891.703 168.439 892.4 166.642 893.793 165.262C895.199 163.868 897.087 163.172 899.457 163.172C901.579 163.172 903.318 163.803 904.672 165.066C906.039 166.329 906.723 167.905 906.723 169.793C906.723 172.059 905.577 174.057 903.285 175.789L901.098 177.371L906 183.074C906.768 181.564 907.152 179.897 907.152 178.074H911.957C911.957 181.772 911.104 184.767 909.398 187.059L913.656 192H907.25L905.785 190.32C903.689 191.701 901.28 192.391 898.559 192.391C895.746 192.391 893.493 191.655 891.801 190.184C890.108 188.699 889.262 186.753 889.262 184.344ZM898.832 187.859C900.186 187.859 901.469 187.482 902.68 186.727L897.074 180.242L896.664 180.535C895.505 181.525 894.926 182.69 894.926 184.031C894.926 185.164 895.284 186.089 896 186.805C896.729 187.508 897.673 187.859 898.832 187.859ZM896.762 170.574C896.762 171.551 897.335 172.781 898.48 174.266L899.984 173.27C900.753 172.775 901.28 172.293 901.566 171.824C901.866 171.355 902.016 170.796 902.016 170.145C902.016 169.493 901.775 168.927 901.293 168.445C900.811 167.964 900.193 167.723 899.438 167.723C898.63 167.723 897.979 167.983 897.484 168.504C897.003 169.025 896.762 169.715 896.762 170.574ZM724.945 239C724.685 238.492 724.496 237.861 724.379 237.105C723.012 238.629 721.234 239.391 719.047 239.391C716.977 239.391 715.258 238.792 713.891 237.594C712.536 236.396 711.859 234.885 711.859 233.062C711.859 230.823 712.686 229.104 714.34 227.906C716.007 226.708 718.409 226.103 721.547 226.09H724.145V224.879C724.145 223.902 723.891 223.121 723.383 222.535C722.888 221.949 722.1 221.656 721.02 221.656C720.069 221.656 719.32 221.884 718.773 222.34C718.24 222.796 717.973 223.421 717.973 224.215H712.328C712.328 222.991 712.706 221.858 713.461 220.816C714.216 219.775 715.284 218.961 716.664 218.375C718.044 217.776 719.594 217.477 721.312 217.477C723.917 217.477 725.98 218.134 727.504 219.449C729.04 220.751 729.809 222.587 729.809 224.957V234.117C729.822 236.122 730.102 237.639 730.648 238.668V239H724.945ZM720.277 235.074C721.111 235.074 721.879 234.892 722.582 234.527C723.285 234.15 723.806 233.648 724.145 233.023V229.391H722.035C719.21 229.391 717.706 230.367 717.523 232.32L717.504 232.652C717.504 233.355 717.751 233.935 718.246 234.391C718.741 234.846 719.418 235.074 720.277 235.074ZM739.34 217.867L739.516 220.309C741.026 218.421 743.051 217.477 745.59 217.477C747.829 217.477 749.496 218.134 750.59 219.449C751.684 220.764 752.243 222.73 752.27 225.348V239H746.625V225.484C746.625 224.286 746.365 223.421 745.844 222.887C745.323 222.34 744.457 222.066 743.246 222.066C741.658 222.066 740.466 222.743 739.672 224.098V239H734.027V217.867H739.34ZM764.457 231.012L768.363 217.867H774.418L765.922 242.281L765.453 243.395C764.19 246.155 762.107 247.535 759.203 247.535C758.383 247.535 757.549 247.411 756.703 247.164V242.887L757.562 242.906C758.63 242.906 759.424 242.743 759.945 242.418C760.479 242.092 760.896 241.552 761.195 240.797L761.859 239.059L754.457 217.867H760.531L764.457 231.012ZM791.801 217.867L791.977 220.309C793.487 218.421 795.512 217.477 798.051 217.477C800.29 217.477 801.957 218.134 803.051 219.449C804.145 220.764 804.704 222.73 804.73 225.348V239H799.086V225.484C799.086 224.286 798.826 223.421 798.305 222.887C797.784 222.34 796.918 222.066 795.707 222.066C794.118 222.066 792.927 222.743 792.133 224.098V239H786.488V217.867H791.801ZM821.684 236.852C820.29 238.544 818.363 239.391 815.902 239.391C813.637 239.391 811.905 238.74 810.707 237.438C809.522 236.135 808.917 234.228 808.891 231.715V217.867H814.535V231.52C814.535 233.72 815.538 234.82 817.543 234.82C819.457 234.82 820.772 234.156 821.488 232.828V217.867H827.152V239H821.84L821.684 236.852ZM836.703 217.867L836.879 220.23C838.376 218.395 840.401 217.477 842.953 217.477C845.674 217.477 847.543 218.551 848.559 220.699C850.043 218.551 852.159 217.477 854.906 217.477C857.198 217.477 858.904 218.147 860.023 219.488C861.143 220.816 861.703 222.822 861.703 225.504V239H856.039V225.523C856.039 224.326 855.805 223.453 855.336 222.906C854.867 222.346 854.04 222.066 852.855 222.066C851.163 222.066 849.991 222.874 849.34 224.488L849.359 239H843.715V225.543C843.715 224.319 843.474 223.434 842.992 222.887C842.51 222.34 841.69 222.066 840.531 222.066C838.93 222.066 837.771 222.73 837.055 224.059V239H831.41V217.867H836.703ZM885.102 228.629C885.102 232.014 884.379 234.658 882.934 236.559C881.488 238.447 879.47 239.391 876.879 239.391C874.587 239.391 872.758 238.512 871.391 236.754L871.137 239H866.059V209H871.703V219.762C873.005 218.238 874.717 217.477 876.84 217.477C879.418 217.477 881.436 218.427 882.895 220.328C884.366 222.216 885.102 224.879 885.102 228.316V228.629ZM879.457 228.219C879.457 226.083 879.118 224.527 878.441 223.551C877.764 222.561 876.755 222.066 875.414 222.066C873.617 222.066 872.38 222.802 871.703 224.273V232.613C872.393 234.098 873.643 234.84 875.453 234.84C877.276 234.84 878.474 233.941 879.047 232.145C879.32 231.285 879.457 229.977 879.457 228.219ZM898.324 239.391C895.225 239.391 892.699 238.44 890.746 236.539C888.806 234.638 887.836 232.105 887.836 228.941V228.395C887.836 226.272 888.246 224.378 889.066 222.711C889.887 221.031 891.046 219.742 892.543 218.844C894.053 217.932 895.772 217.477 897.699 217.477C900.59 217.477 902.862 218.388 904.516 220.211C906.182 222.034 907.016 224.618 907.016 227.965V230.27H893.559C893.741 231.65 894.288 232.757 895.199 233.59C896.124 234.423 897.289 234.84 898.695 234.84C900.87 234.84 902.569 234.052 903.793 232.477L906.566 235.582C905.72 236.78 904.574 237.717 903.129 238.395C901.684 239.059 900.082 239.391 898.324 239.391ZM897.68 222.047C896.56 222.047 895.648 222.424 894.945 223.18C894.255 223.935 893.812 225.016 893.617 226.422H901.469V225.973C901.443 224.723 901.104 223.759 900.453 223.082C899.802 222.392 898.878 222.047 897.68 222.047ZM922.113 223.16C921.345 223.056 920.668 223.004 920.082 223.004C917.947 223.004 916.547 223.727 915.883 225.172V239H910.238V217.867H915.57L915.727 220.387C916.859 218.447 918.428 217.477 920.434 217.477C921.059 217.477 921.645 217.561 922.191 217.73L922.113 223.16ZM933.93 228.238C933.93 226.142 934.333 224.273 935.141 222.633C935.948 220.992 937.107 219.723 938.617 218.824C940.141 217.926 941.905 217.477 943.91 217.477C946.762 217.477 949.086 218.349 950.883 220.094C952.693 221.839 953.702 224.208 953.91 227.203L953.949 228.648C953.949 231.891 953.044 234.495 951.234 236.461C949.424 238.414 946.996 239.391 943.949 239.391C940.902 239.391 938.467 238.414 936.645 236.461C934.835 234.508 933.93 231.852 933.93 228.492V228.238ZM939.574 228.648C939.574 230.654 939.952 232.19 940.707 233.258C941.462 234.312 942.543 234.84 943.949 234.84C945.316 234.84 946.384 234.319 947.152 233.277C947.921 232.223 948.305 230.543 948.305 228.238C948.305 226.272 947.921 224.749 947.152 223.668C946.384 222.587 945.303 222.047 943.91 222.047C942.53 222.047 941.462 222.587 940.707 223.668C939.952 224.736 939.574 226.396 939.574 228.648ZM958.969 239V222.008H955.824V217.867H958.969V216.07C958.969 213.701 959.646 211.865 961 210.562C962.367 209.247 964.275 208.59 966.723 208.59C967.504 208.59 968.461 208.72 969.594 208.98L969.535 213.355C969.066 213.238 968.493 213.18 967.816 213.18C965.694 213.18 964.633 214.176 964.633 216.168V217.867H968.832V222.008H964.633V239H958.969ZM988.48 212.672V217.867H992.094V222.008H988.48V232.555C988.48 233.336 988.63 233.896 988.93 234.234C989.229 234.573 989.802 234.742 990.648 234.742C991.273 234.742 991.827 234.697 992.309 234.605V238.883C991.202 239.221 990.062 239.391 988.891 239.391C984.932 239.391 982.914 237.392 982.836 233.395V222.008H979.75V217.867H982.836V212.672H988.48ZM1001.2 239H995.531V217.867H1001.2V239ZM995.199 212.398C995.199 211.552 995.479 210.855 996.039 210.309C996.612 209.762 997.387 209.488 998.363 209.488C999.327 209.488 1000.1 209.762 1000.67 210.309C1001.24 210.855 1001.53 211.552 1001.53 212.398C1001.53 213.258 1001.23 213.961 1000.65 214.508C1000.08 215.055 999.314 215.328 998.363 215.328C997.413 215.328 996.645 215.055 996.059 214.508C995.486 213.961 995.199 213.258 995.199 212.398ZM1011.16 217.867L1011.33 220.23C1012.83 218.395 1014.85 217.477 1017.41 217.477C1020.13 217.477 1022 218.551 1023.01 220.699C1024.5 218.551 1026.61 217.477 1029.36 217.477C1031.65 217.477 1033.36 218.147 1034.48 219.488C1035.6 220.816 1036.16 222.822 1036.16 225.504V239H1030.49V225.523C1030.49 224.326 1030.26 223.453 1029.79 222.906C1029.32 222.346 1028.49 222.066 1027.31 222.066C1025.62 222.066 1024.44 222.874 1023.79 224.488L1023.81 239H1018.17V225.543C1018.17 224.319 1017.93 223.434 1017.45 222.887C1016.96 222.34 1016.14 222.066 1014.98 222.066C1013.38 222.066 1012.22 222.73 1011.51 224.059V239H1005.86V217.867H1011.16ZM1050.24 239.391C1047.14 239.391 1044.61 238.44 1042.66 236.539C1040.72 234.638 1039.75 232.105 1039.75 228.941V228.395C1039.75 226.272 1040.16 224.378 1040.98 222.711C1041.8 221.031 1042.96 219.742 1044.46 218.844C1045.97 217.932 1047.69 217.477 1049.61 217.477C1052.5 217.477 1054.78 218.388 1056.43 220.211C1058.1 222.034 1058.93 224.618 1058.93 227.965V230.27H1045.47C1045.65 231.65 1046.2 232.757 1047.11 233.59C1048.04 234.423 1049.2 234.84 1050.61 234.84C1052.78 234.84 1054.48 234.052 1055.71 232.477L1058.48 235.582C1057.63 236.78 1056.49 237.717 1055.04 238.395C1053.6 239.059 1052 239.391 1050.24 239.391ZM1049.59 222.047C1048.47 222.047 1047.56 222.424 1046.86 223.18C1046.17 223.935 1045.73 225.016 1045.53 226.422H1053.38V225.973C1053.36 224.723 1053.02 223.759 1052.37 223.082C1051.72 222.392 1050.79 222.047 1049.59 222.047ZM1073.6 233.16C1073.6 232.47 1073.25 231.93 1072.56 231.539C1071.89 231.135 1070.79 230.777 1069.28 230.465C1064.26 229.41 1061.74 227.275 1061.74 224.059C1061.74 222.184 1062.52 220.621 1064.07 219.371C1065.63 218.108 1067.67 217.477 1070.18 217.477C1072.86 217.477 1075 218.108 1076.61 219.371C1078.22 220.634 1079.03 222.275 1079.03 224.293H1073.38C1073.38 223.486 1073.12 222.822 1072.6 222.301C1072.08 221.767 1071.27 221.5 1070.16 221.5C1069.21 221.5 1068.47 221.715 1067.95 222.145C1067.43 222.574 1067.17 223.121 1067.17 223.785C1067.17 224.41 1067.46 224.918 1068.05 225.309C1068.65 225.686 1069.65 226.018 1071.06 226.305C1072.46 226.578 1073.65 226.891 1074.61 227.242C1077.6 228.336 1079.09 230.23 1079.09 232.926C1079.09 234.853 1078.26 236.415 1076.61 237.613C1074.95 238.798 1072.82 239.391 1070.2 239.391C1068.43 239.391 1066.85 239.078 1065.47 238.453C1064.11 237.815 1063.03 236.949 1062.25 235.855C1061.47 234.749 1061.08 233.557 1061.08 232.281H1066.43C1066.48 233.284 1066.85 234.052 1067.54 234.586C1068.23 235.12 1069.16 235.387 1070.32 235.387C1071.4 235.387 1072.21 235.185 1072.76 234.781C1073.32 234.365 1073.6 233.824 1073.6 233.16ZM1088.48 230.27H1083.79L1083.13 210.562H1089.14L1088.48 230.27ZM1086.14 233.355C1087.09 233.355 1087.85 233.635 1088.42 234.195C1089.01 234.755 1089.3 235.471 1089.3 236.344C1089.3 237.203 1089.01 237.913 1088.42 238.473C1087.85 239.033 1087.09 239.312 1086.14 239.312C1085.2 239.312 1084.44 239.033 1083.85 238.473C1083.28 237.913 1082.99 237.203 1082.99 236.344C1082.99 235.484 1083.28 234.775 1083.85 234.215C1084.44 233.642 1085.2 233.355 1086.14 233.355Z" fill="white"/>
</g>
<defs>
<clipPath id="clip0">
<rect width="1195" height="410" fill="white"/>
</clipPath>
<clipPath id="clip1">
<rect x="383" y="-9" width="259" height="453" fill="white"/>
</clipPath>
</defs>
</svg>
