<svg width="113" height="50" viewBox="0 0 113 50" fill="none" xmlns="http://www.w3.org/2000/svg">
<path d="M12.1 22.4C13.456 22.4 14.482 22.754 15.178 23.462C15.886 24.158 16.24 25.184 16.24 26.54V30.86C16.24 32.216 15.886 33.248 15.178 33.956C14.482 34.652 13.456 35 12.1 35H5.08V22.4H12.1ZM13 26.54C13 25.46 12.46 24.92 11.38 24.92H8.32V32.48H11.38C12.46 32.48 13 31.94 13 30.86V26.54ZM28.0251 35H18.0351V22.4H28.0251V24.92H21.2751V27.35H26.5851V29.87H21.2751V32.48H28.0251V35ZM39.1809 34.82C36.5049 35.06 34.2849 35.18 32.5209 35.18C31.3449 35.18 30.4809 34.904 29.9289 34.352C29.3769 33.8 29.1009 32.936 29.1009 31.76V26C29.1009 24.74 29.3829 23.828 29.9469 23.264C30.5229 22.688 31.4409 22.4 32.7009 22.4H39.1809V24.92H33.4209C32.7009 24.92 32.3409 25.28 32.3409 26V31.76C32.3409 32.036 32.4189 32.258 32.5749 32.426C32.7429 32.582 32.9529 32.66 33.2049 32.66C33.4569 32.66 33.7329 32.66 34.0329 32.66C34.3329 32.648 34.6449 32.636 34.9689 32.624C35.2929 32.612 35.6169 32.6 35.9409 32.588C36.2769 32.576 36.7029 32.552 37.2189 32.516C37.7469 32.48 38.4009 32.438 39.1809 32.39V34.82ZM42.873 35H39.363L44.133 22.4H47.733L52.503 35H48.993L48.183 32.75H43.683L42.873 35ZM44.493 30.41H47.373L45.933 26.18L44.493 30.41ZM53.4023 22.4H60.6023C61.7783 22.4 62.6423 22.67 63.1943 23.21C63.7463 23.738 64.0223 24.548 64.0223 25.64C64.0223 26.36 63.8663 26.948 63.5543 27.404C63.2423 27.848 62.8583 28.16 62.4023 28.34C63.3743 28.604 64.0343 29.252 64.3823 30.284C64.5023 30.656 64.5623 31.088 64.5623 31.58C64.5623 32.756 64.2863 33.62 63.7343 34.172C63.1823 34.724 62.3183 35 61.1423 35H53.4023V22.4ZM61.3223 31.04C61.3223 30.32 60.9623 29.96 60.2423 29.96H56.6423V32.48H60.2423C60.9623 32.48 61.3223 32.12 61.3223 31.4V31.04ZM60.7823 26C60.7823 25.28 60.4223 24.92 59.7023 24.92H56.6423V27.44H59.7023C60.4223 27.44 60.7823 27.08 60.7823 26.36V26Z" fill="#555555"/>
<path d="M80.2 35H76.96V24.92H73.18V22.4H83.98V24.92H80.2V35ZM84.8641 32.39C88.1521 32.57 90.3781 32.66 91.5421 32.66C91.8181 32.66 92.0341 32.582 92.1901 32.426C92.3581 32.258 92.4421 32.036 92.4421 31.76V30.14H88.3021C87.0421 30.14 86.1241 29.858 85.5481 29.294C84.9841 28.718 84.7021 27.8 84.7021 26.54V26C84.7021 24.74 84.9841 23.828 85.5481 23.264C86.1241 22.688 87.0421 22.4 88.3021 22.4H94.6201V24.92H89.0221C88.3021 24.92 87.9421 25.28 87.9421 26V26.36C87.9421 27.08 88.3021 27.44 89.0221 27.44H92.2621C93.4381 27.44 94.3021 27.716 94.8541 28.268C95.4061 28.82 95.6821 29.684 95.6821 30.86V31.76C95.6821 32.936 95.4061 33.8 94.8541 34.352C94.3021 34.904 93.4381 35.18 92.2621 35.18C91.6501 35.18 91.0021 35.168 90.3181 35.144L88.6621 35.072C87.4381 35.012 86.1721 34.928 84.8641 34.82V32.39Z" fill="#070785"/>
<path d="M67.5 22C67.7761 22 68 21.7761 68 21.5C68 21.2239 67.7761 21 67.5 21C67.2239 21 67 21.2239 67 21.5C67 21.7761 67.2239 22 67.5 22Z" fill="black"/>
<path d="M67 20C67.5523 20 68 19.5523 68 19C68 18.4477 67.5523 18 67 18C66.4477 18 66 18.4477 66 19C66 19.5523 66.4477 20 67 20Z" fill="#070785"/>
<path d="M69 18C69.5523 18 70 17.5523 70 17C70 16.4477 69.5523 16 69 16C68.4477 16 68 16.4477 68 17C68 17.5523 68.4477 18 69 18Z" fill="black"/>
<path d="M69.5 21C69.2239 21 69 20.7761 69 20.5C69 20.2239 69.2239 20 69.5 20C69.7761 20 70 20.2239 70 20.5C70 20.7761 69.7761 21 69.5 21Z" fill="#070785"/>
<path d="M68.6027 27.0598C68.6966 27.0598 68.7728 26.9471 68.7728 26.8082C68.7728 26.6692 68.6966 26.5565 68.6027 26.5565C68.5088 26.5565 68.4326 26.6692 68.4326 26.8082C68.4326 26.9471 68.5088 27.0598 68.6027 27.0598Z" fill="black"/>
<path d="M68.5048 27.7069C68.5048 27.5272 68.4077 27.3834 68.2862 27.3834C68.1647 27.3834 68.0675 27.5272 68.0675 27.7069C68.0675 27.4732 67.9339 27.2755 67.7759 27.2755C67.618 27.2755 67.4844 27.4732 67.4844 27.7069V32.8657C67.4844 33.4589 67.8124 33.9442 68.2133 33.9442C68.6142 33.9442 68.9422 33.4589 68.9422 32.8657V27.7069H68.5048ZM68.0311 29.4684C67.9217 29.4684 67.8245 29.3247 67.8245 29.1629C67.8245 29.0011 67.9217 28.8573 68.0311 28.8573C68.1404 28.8573 68.2376 29.0011 68.2376 29.1629C68.2376 29.3247 68.1404 29.4684 68.0311 29.4684ZM68.4198 30.8345C68.3348 30.8345 68.274 30.7447 68.274 30.6188C68.274 30.493 68.3348 30.4031 68.4198 30.4031C68.5048 30.4031 68.5656 30.493 68.5656 30.6188C68.5656 30.7267 68.5048 30.8345 68.4198 30.8345Z" fill="#070785"/>
<path d="M69.508 22.2992H66.7381C66.4952 22.2992 66.3008 22.6227 66.3008 23.0362C66.3008 23.3238 66.398 23.5754 66.5437 23.7012V32.6887C66.5437 33.9649 67.2484 35.0074 68.1109 35.0074C68.9734 35.0074 69.678 33.9649 69.6659 32.7067V23.7192C69.836 23.6114 69.9453 23.3417 69.9453 23.0362C69.9453 22.6227 69.7509 22.2992 69.508 22.2992ZM69.4958 23.144H69.2407V32.7067C69.2407 33.6414 68.7305 34.3963 68.0987 34.3963C67.467 34.3963 66.9568 33.6414 66.9568 32.7067V23.144H66.7503C66.7381 23.144 66.7138 23.0901 66.7017 23.0362C66.7017 22.9643 66.7138 22.9283 66.7138 22.9283H69.4837C69.4837 22.9283 69.508 22.9643 69.508 23.0362C69.508 23.1081 69.4958 23.144 69.4958 23.144Z" fill="black"/>
</svg>
