<svg width="350" height="350" viewBox="0 0 350 350" fill="none" xmlns="http://www.w3.org/2000/svg">
<path fill-rule="evenodd" clip-rule="evenodd" d="M211.077 216.12L203.616 229.384L202.8 224.928L208.609 214.6L211.077 216.12Z" fill="#110235"/>
<path fill-rule="evenodd" clip-rule="evenodd" d="M204.697 208.948C204.685 207.44 204.504 205.951 204.165 204.569C203.825 203.188 203.334 201.94 202.719 200.901C201.737 199.061 200.439 197.851 199.03 197.459C189.304 192.964 185.104 182.455 197.207 204.054C197.485 203.788 197.805 203.689 198.118 203.774C198.43 203.859 198.719 204.122 198.94 204.524C199.219 205.026 199.376 205.703 199.376 206.408C199.376 207.114 199.219 207.791 198.94 208.293C198.802 208.543 198.637 208.742 198.455 208.878C198.273 209.014 198.078 209.084 197.88 209.084C197.683 209.084 197.488 209.014 197.306 208.878C197.124 208.742 196.959 208.543 196.82 208.293C196.583 207.888 196.43 207.353 196.386 206.774C196.342 206.195 196.409 205.607 196.576 205.104C184.18 181.476 191.133 193.47 193.009 209.129C193.345 211.695 194.143 213.996 195.28 215.685C196.418 217.374 197.834 218.359 199.314 218.492L201.944 224.215L207.876 213.63L204.697 208.948Z" fill="#110235"/>
<path d="M81.4426 244.385C84.826 244.385 86.9624 245.581 88.4517 248.099C89.6275 250.147 90.4916 253.132 90.4916 257.228C90.4916 262.222 89.3395 266.276 87.4911 268.749C85.6426 271.221 83.3385 272.122 80.3817 272.122H74.7708V270.926C76.8343 270.602 76.9309 270.278 76.9309 266.788V249.771C76.9309 246.102 76.6429 245.931 74.7708 245.59V244.385H81.4426ZM79.0181 266.444C79.0181 269.646 79.7856 270.541 81.5866 270.541C85.9069 270.541 88.1145 265.294 88.1145 257.827C88.1145 253.174 87.2267 249.635 85.3309 247.587C84.2262 246.349 82.8353 245.879 81.2257 245.879C80.1465 245.879 79.5705 246.135 79.3299 246.475C79.1148 246.731 79.0181 247.201 79.0181 248.867V266.444Z" fill="#FFA008"/>
<path d="M101.46 268.531C99.9232 271.946 98.2443 272.672 97.475 272.672C94.5474 272.672 92.7719 268.404 92.7719 263.498C92.7491 260.754 93.3052 258.095 94.3305 256.044C95.3386 254.041 96.6602 252.93 97.9071 252.93C99.9961 252.93 101.58 256.132 101.58 259.544C101.557 260.396 101.484 260.782 101.099 260.954C100.62 261.122 97.548 261.508 94.6914 261.676C94.6185 267.396 96.5873 269.743 98.2917 269.743C99.2761 269.743 100.188 269.017 101.075 267.568L101.46 268.531ZM97.331 254.537C96.2373 254.537 95.1435 256.371 94.8118 259.826C96.1552 259.826 97.4987 259.826 98.9151 259.7C99.3472 259.7 99.4912 259.486 99.4912 258.847C99.5149 256.585 98.6763 254.537 97.331 254.537V254.537Z" fill="#FFA008"/>
<path d="M112.355 268.333C111.3 270.809 109.692 272.688 108.252 272.688C105.204 272.688 103.403 268.291 103.403 263.725C103.403 260.354 104.22 257.538 105.828 255.363C107.104 253.613 108.54 252.93 109.473 252.93C110.554 252.93 111.346 253.529 111.706 254.083C112.042 254.553 112.091 254.851 112.091 255.321C112.091 256.345 111.49 257.24 111.227 257.24C111.107 257.24 111.01 257.156 110.769 256.812C110.026 255.62 109.209 255.02 108.345 255.02C106.761 255.02 105.37 257.412 105.37 261.848C105.346 267.779 107.625 269.743 109.016 269.743C110.024 269.743 110.839 269.273 111.945 267.396L112.355 268.333Z" fill="#FFA008"/>
<path d="M121.26 272.708C120.842 272.684 120.442 272.396 120.132 271.895C119.844 271.362 119.645 270.698 119.556 269.976C118.597 271.127 117.42 272.708 116.676 272.708C115.897 272.699 115.151 272.142 114.603 271.158C114.054 270.174 113.748 268.843 113.75 267.458C113.75 265.368 114.397 264 115.719 263.19C117.177 262.296 118.982 261.184 119.51 260.416V259.564C119.51 256.533 118.646 254.783 117.398 254.783C117.18 254.778 116.965 254.863 116.769 255.032C116.573 255.201 116.402 255.448 116.269 255.756C116.007 256.355 115.837 257.292 115.622 258.53C115.502 259.214 115.287 259.502 114.926 259.502C114.47 259.502 113.87 258.65 113.87 257.626C113.87 257.026 114.182 256.514 114.661 255.918C115.358 255.02 116.751 253.442 118.125 252.93C118.847 252.923 119.551 253.334 120.13 254.103C120.971 255.399 121.355 256.832 121.355 259.052V267.286C121.355 269.25 121.764 269.846 122.196 269.846C122.501 269.815 122.797 269.654 123.06 269.377L123.298 270.572L121.26 272.708ZM119.509 261.91C118.98 262.38 117.828 263.277 117.276 263.702C116.364 264.428 115.817 265.238 115.817 266.82C115.817 269.088 116.778 270.102 117.545 270.102C118.282 270.012 118.978 269.469 119.514 268.566L119.509 261.91Z" fill="#FFA008"/>
<path d="M129.086 253.3C129.419 253.039 129.778 252.894 130.142 252.872C132.71 252.872 134.87 256.842 134.87 261.92C134.87 267.679 132.087 272.631 128.942 272.631C127.662 272.597 126.401 272.073 125.245 271.095V247.113C125.245 244.466 125.174 244.197 123.637 243.999V242.887C124.827 242.6 126 242.12 127.141 241.455V254.81L129.086 253.3ZM127.141 267.125C127.123 267.632 127.164 268.141 127.261 268.619C127.549 269.685 128.366 270.923 129.518 270.923C131.511 270.923 132.734 267.809 132.734 262.987C132.734 258.164 131.079 255.264 129.088 255.264C128.414 255.279 127.75 255.556 127.143 256.074L127.141 267.125Z" fill="#FFA008"/>
<path d="M136.549 272.023V270.827C138.062 270.571 138.23 270.357 138.23 267.457V258.665C138.23 256.02 138.159 255.848 136.719 255.424V254.4C137.887 254.063 139.029 253.493 140.126 252.702V267.466C140.126 270.383 140.295 270.581 141.854 270.837V272.033L136.549 272.023ZM139.046 248.511C138.711 248.494 138.392 248.25 138.155 247.828C137.918 247.406 137.78 246.839 137.77 246.243C137.767 245.937 137.798 245.632 137.862 245.348C137.925 245.063 138.02 244.804 138.141 244.585C138.262 244.367 138.406 244.193 138.565 244.075C138.724 243.957 138.894 243.896 139.067 243.896C139.739 243.896 140.292 244.869 140.292 246.243C140.292 246.835 140.161 247.404 139.929 247.828C139.696 248.252 139.38 248.497 139.046 248.511V248.511Z" fill="#FFA008"/>
<path d="M147.656 271.916C147.34 272.237 146.988 272.428 146.624 272.473C145.088 272.473 144.271 270.808 144.271 267.395V254.977H142.616L142.519 254.465L143.168 253.227H144.271V249.642C144.727 248.79 145.423 247.698 145.879 246.826L146.244 246.914C146.196 248.706 146.171 251.178 146.171 253.227H148.905C149.122 253.654 149.049 254.594 148.761 254.977H146.174V265.901C146.174 269.356 146.944 269.997 147.567 269.997C148.076 269.965 148.574 269.731 149.025 269.314L149.242 270.425L147.656 271.916Z" fill="#FFA008"/>
<path d="M156.567 258.305C156.135 255.829 155.473 254.124 154 254.124C153.794 254.113 153.59 254.178 153.399 254.314C153.208 254.45 153.035 254.655 152.891 254.915C152.747 255.175 152.634 255.486 152.561 255.827C152.487 256.169 152.454 256.533 152.463 256.899C152.463 258.775 153.254 259.673 154.552 260.693C156.519 262.23 157.651 263.61 157.651 266.527C157.651 270.455 155.635 272.461 153.739 272.461C152.745 272.459 151.766 272.035 150.883 271.223C150.762 269.985 150.547 267.551 150.451 266.144L151.147 265.93C151.579 268.662 152.423 271.009 154.098 271.009C155.01 271.009 155.826 269.897 155.826 268.092C155.826 266.174 155.179 265.149 153.86 264.125C152.299 262.845 150.761 261.436 150.761 258.195C150.761 255.08 152.297 252.686 154.554 252.686C155.56 252.686 156.424 253.113 156.906 253.24C156.977 254.264 157.144 256.954 157.27 257.978L156.567 258.305Z" fill="#FFA008"/>
<path d="M177.136 265.048C176.992 266.37 176.272 270.807 176.034 272.132H164.872V270.936C167.059 270.551 167.242 270.337 167.242 266.723V249.771C167.242 246.144 167.003 245.931 165.081 245.59V244.385H171.515V245.581C169.595 245.905 169.327 246.093 169.327 249.761V267.128C169.327 269.721 169.518 270.327 170.887 270.369C170.911 270.411 172.639 270.411 172.783 270.411C174.006 270.411 174.367 270.155 174.92 269.089C175.519 267.977 176.024 266.273 176.378 264.694L177.136 265.048Z" fill="#110235"/>
<path d="M184.457 252.93C187.458 252.93 189.689 256.984 189.689 262.49C189.689 269.402 186.809 272.688 184.457 272.688C181.145 272.688 179.129 267.951 179.129 263.17C179.129 256.216 182.177 252.93 184.457 252.93ZM184.169 254.382C182.711 254.382 181.384 256.9 181.384 261.835C181.384 267.254 182.729 271.182 184.696 271.182C186.185 271.182 187.43 269.26 187.43 263.404C187.432 258.436 186.28 254.382 184.169 254.382Z" fill="#110235"/>
<path d="M194.85 265.83C194.274 266.64 194.057 267.45 194.057 267.962C194.057 268.73 194.465 269.583 195.546 269.583C196.434 269.583 197.442 269.541 198.233 269.541C199.77 269.541 201.739 270.435 201.739 274.661C201.739 279.098 198.785 283.278 195.594 283.278C192.881 283.278 191.417 280.462 191.37 277.947C191.372 277.49 191.426 277.039 191.529 276.62C191.632 276.202 191.782 275.825 191.97 275.513C192.592 274.423 193.248 273.397 193.937 272.441C193.198 272.09 192.558 271.27 192.137 270.137C191.957 269.578 191.858 268.947 191.849 268.303C192.724 267.703 193.489 266.683 194.057 265.357L194.85 265.83ZM196.002 266.258C193.769 266.258 191.92 263.824 191.92 259.815C191.92 254.954 194.369 252.686 196.241 252.686C197.047 252.7 197.839 253.066 198.547 253.752C199.628 253.729 200.705 253.512 201.762 253.104L201.906 253.489C201.762 254.173 201.378 255.366 201.019 255.758C200.654 255.758 199.866 255.586 199.529 255.544C199.987 256.676 200.231 258.038 200.226 259.433C200.226 264.083 198.065 266.258 196.002 266.258ZM196.549 272.574C195.371 272.574 194.844 272.83 194.412 273.468C193.74 274.441 193.26 275.737 193.26 276.968C193.26 279.315 194.627 281.065 196.476 281.065C198.756 281.065 200.052 278.974 200.052 276.242C200.052 274.791 199.668 273.65 198.997 273.128C198.403 272.658 197.562 272.574 196.554 272.574H196.549ZM196.002 254.053C194.921 254.053 193.962 255.803 193.962 259.173C193.962 262.544 194.921 264.893 196.241 264.893C197.298 264.806 198.233 263.228 198.233 259.773C198.233 256.442 197.345 254.053 196.002 254.053V254.053Z" fill="#110235"/>
<path d="M207.955 252.93C210.955 252.93 213.186 256.984 213.186 262.49C213.186 269.402 210.306 272.688 207.955 272.688C204.642 272.688 202.626 267.951 202.626 263.17C202.626 256.216 205.674 252.93 207.955 252.93ZM207.667 254.382C206.208 254.382 204.883 256.9 204.883 261.835C204.883 267.254 206.226 271.182 208.195 271.182C209.683 271.182 210.93 269.26 210.93 263.404C210.931 258.436 209.779 254.382 207.667 254.382Z" fill="#110235"/>
<path d="M227.996 272.059V270.863C229.412 270.607 229.58 270.435 229.58 267.45V260.321C229.58 257.291 229.004 255.369 227.516 255.369C226.605 255.369 225.765 256.267 224.851 257.589C224.894 258.197 224.919 258.81 224.924 259.423V267.703C224.924 270.39 225.139 270.604 226.461 270.86V272.055H221.324V270.86C222.811 270.604 223.028 270.432 223.028 267.619V260.279C223.028 257.122 222.481 255.372 221.012 255.372C220.051 255.372 219.116 256.526 218.371 257.592V267.619C218.371 270.435 218.54 270.607 219.907 270.86V272.055H214.74V270.86C216.324 270.604 216.468 270.432 216.468 267.619V258.788C216.468 256.056 216.373 255.871 215.028 255.46V254.39C216.178 254.092 217.3 253.519 218.363 252.686V256.14C218.929 255.334 219.522 254.594 220.141 253.923C220.741 253.24 221.269 252.812 222.037 252.812C223.189 252.812 224.173 254.092 224.653 256.312C225.325 255.372 225.949 254.646 226.548 253.923C227.11 253.247 227.766 252.862 228.444 252.812C230.316 252.812 231.468 255.204 231.468 259.384V267.619C231.468 270.477 231.612 270.607 232.981 270.86V272.055L227.996 272.059Z" fill="#110235"/>
<path d="M242.062 272.464C241.643 272.44 241.243 272.152 240.933 271.651C240.645 271.118 240.446 270.454 240.357 269.732C239.397 270.883 238.221 272.464 237.477 272.464C236.697 272.457 235.951 271.9 235.403 270.915C234.854 269.931 234.547 268.6 234.549 267.214C234.549 265.124 235.196 263.756 236.516 262.946C237.975 262.052 239.781 260.94 240.31 260.172V259.32C240.31 256.29 239.446 254.54 238.197 254.54C237.979 254.534 237.764 254.619 237.568 254.788C237.372 254.957 237.201 255.205 237.069 255.512C236.804 256.112 236.637 257.048 236.421 258.286C236.301 258.97 236.084 259.258 235.725 259.258C235.269 259.258 234.67 258.406 234.67 257.382C234.67 256.782 234.981 256.27 235.461 255.674C236.157 254.776 237.55 253.198 238.924 252.686C239.649 252.669 240.357 253.074 240.941 253.84C241.781 255.136 242.166 256.568 242.166 258.788V267.023C242.166 268.987 242.574 269.583 243.004 269.583C243.309 269.552 243.606 269.391 243.868 269.113L244.109 270.309L242.062 272.464ZM240.31 261.666C239.781 262.136 238.629 263.034 238.077 263.458C237.165 264.184 236.618 264.994 236.618 266.576C236.618 268.844 237.579 269.859 238.346 269.859C238.97 269.859 239.834 269.178 240.315 268.323L240.31 261.666Z" fill="#110235"/>
<path d="M256.774 272.135C255.478 272.135 254.062 272.177 253.559 272.219C253.415 271.921 249.671 263.985 249.503 263.729C249.191 263.045 249.022 262.831 248.806 262.831C248.661 262.822 248.515 262.85 248.374 262.915V267.653C248.374 270.512 248.495 270.683 250.055 270.939V272.135H244.75V270.939C246.358 270.683 246.479 270.385 246.479 267.653V247.256C246.479 244.482 246.311 244.398 244.822 244.015V242.904C246.035 242.68 247.228 242.193 248.374 241.455V261.807C248.962 261.606 249.499 261.084 249.911 260.313C250.572 259.115 251.181 257.831 251.734 256.473C252.239 255.235 252.046 254.894 250.894 254.723V253.53L255.839 253.144V254.298C254.159 254.768 253.679 255.108 252.647 257.027C252.19 257.882 251.134 259.943 250.631 261.039C251.111 262.235 253.559 267.196 254.35 268.677C255.502 270.725 255.839 270.855 256.774 270.946V272.135Z" fill="#110235"/>
<path d="M265.823 268.531C264.286 271.946 262.607 272.672 261.838 272.672C258.91 272.672 257.135 268.404 257.135 263.498C257.112 260.754 257.668 258.095 258.694 256.044C259.702 254.041 261.023 252.93 262.27 252.93C264.359 252.93 265.943 256.132 265.943 259.544C265.92 260.396 265.847 260.782 265.462 260.954C264.983 261.122 261.911 261.508 259.054 261.676C258.982 267.396 260.95 269.743 262.655 269.743C263.639 269.743 264.551 269.017 265.438 267.568L265.823 268.531ZM261.694 254.537C260.6 254.537 259.507 256.371 259.175 259.826C260.518 259.826 261.862 259.826 263.278 259.7C263.71 259.7 263.854 259.486 263.854 258.847C263.878 256.585 263.047 254.537 261.694 254.537Z" fill="#110235"/>
<path d="M272.903 271.994H267.384V270.802C268.895 270.547 269.039 270.334 269.039 267.572V258.723C269.039 255.913 268.944 255.787 267.551 255.493V254.43C268.718 254.116 269.855 253.529 270.935 252.686V257.363C271.775 255.15 272.783 252.812 273.984 252.812C274.872 252.812 275.375 253.781 275.375 254.853C275.362 255.333 275.28 255.8 275.138 256.209C274.995 256.618 274.797 256.956 274.56 257.192C274.468 257.315 274.354 257.374 274.239 257.359C274.124 257.343 274.016 257.254 273.935 257.108C273.57 256.462 273.288 256.045 272.856 256.045C272.351 256.045 271.463 257.363 270.935 259.534V267.53C270.935 270.337 271.055 270.55 272.903 270.806V271.994Z" fill="#110235"/>
<path d="M209.176 125.38C209.176 127.373 209.121 172.303 192.608 189.002C191.497 190.13 190.339 191.105 189.144 191.919C192.739 177.737 196.901 155.49 196.058 128.692C195.63 115.081 194.875 96.8193 187.56 82.2489C185.563 78.2892 183.245 74.8814 180.682 72.1378C174.863 65.611 167.599 62.9697 159.235 62.7397L159.206 54.4434C177.895 54.4434 189.691 61.0415 197.91 74.9443C204.404 86.2642 209.176 102.756 209.176 125.38Z" fill="#FFA008"/>
<path d="M182.259 207.617H120.621V201.019C132.683 198.896 133.746 197.72 133.746 177.685V84.135C133.746 64.104 132.42 62.9244 121.816 61.0415V54.4434H157.338V61.0415C146.734 62.9244 145.276 63.8674 145.276 84.135V180.061C145.276 194.437 146.336 197.736 153.892 197.973C154.026 198.206 163.569 198.206 164.363 198.206C171.125 198.206 173.113 196.793 176.161 190.901C179.475 184.773 182.259 175.346 184.248 166.628C184.248 166.612 183.584 200.312 182.259 207.617Z" fill="#110235"/>
<path fill-rule="evenodd" clip-rule="evenodd" d="M68.9063 258.057L14.1824 262.046L68.9063 266.042V258.057Z" fill="#110235"/>
<path fill-rule="evenodd" clip-rule="evenodd" d="M281.823 258.789L336.547 262.778L281.823 266.774V258.789Z" fill="#110235"/>
</svg>
