<svg width="1440" height="623" viewBox="0 0 1440 623" fill="none" xmlns="http://www.w3.org/2000/svg">
<g clip-path="url(#clip0)">
<ellipse cx="1231.22" cy="485.156" rx="412.487" ry="420.855" transform="rotate(70.3126 1231.22 485.156)" fill="#E6FCFF" fill-opacity="0.3"/>
<g clip-path="url(#clip1)">
<path d="M1012.19 566.433C1012.19 575.948 1006.53 579.271 999.542 579.271C999.379 579.271 999.218 579.269 999.057 579.265C998.733 579.257 998.412 579.243 998.096 579.221C991.791 578.775 986.893 575.282 986.893 566.433C986.893 557.277 998.606 545.723 999.489 544.865L999.491 544.864C999.524 544.831 999.542 544.814 999.542 544.814C999.542 544.814 1012.19 556.918 1012.19 566.433Z" fill="#3F3D56"/>
<path d="M999.08 577.815L1003.71 571.359L999.069 578.524L999.056 579.265C998.733 579.258 998.412 579.244 998.095 579.221L998.594 569.702L998.59 569.628L998.599 569.614L998.646 568.715L993.996 561.531L998.66 568.04L998.671 568.231L999.048 561.039L995.068 553.617L999.097 559.775L999.489 544.865L999.491 544.814V544.864L999.425 556.622L1003.39 551.961L999.409 557.635L999.304 564.074L1003 557.895L999.288 565.023L999.23 568.602L1004.6 560L999.21 569.852L999.08 577.815Z" fill="#F2F2F2"/>
<path d="M1172.9 511.416C1169.52 499.163 1150.75 490.133 1136.11 487.802V481.916C1136.38 481.816 1136.65 481.712 1136.92 481.605C1136.84 480.429 1136.6 479.269 1136.22 478.156C1142.47 475.617 1147.87 471.35 1151.78 465.856C1155.91 461.55 1159.01 456.378 1160.87 450.718C1162.74 445.059 1163.31 439.056 1162.55 433.147C1161.79 427.238 1159.72 421.573 1156.49 416.565C1153.26 411.558 1148.95 407.334 1143.88 404.204C1145.27 403.327 1146.35 402.037 1146.97 400.514C1147.59 398.991 1147.71 397.313 1147.32 395.716C1146.93 394.119 1146.05 392.684 1144.81 391.613C1143.56 390.543 1142 389.891 1140.37 389.749C1141.7 386.593 1141.94 383.08 1141.05 379.772C1140.15 376.464 1138.17 373.552 1135.42 371.502C1132.67 369.452 1129.31 368.383 1125.88 368.466C1122.45 368.548 1119.14 369.777 1116.49 371.957C1118.83 370.716 1121.45 370.099 1124.09 370.168C1126.74 370.237 1129.32 370.988 1131.59 372.35C1133.86 373.711 1135.74 375.635 1137.04 377.936C1138.34 380.237 1139.02 382.835 1139.02 385.478C1139.02 385.612 1139.02 385.745 1139.01 385.878C1138.95 383.661 1138.4 381.486 1137.41 379.501C1136.41 377.517 1135 375.771 1133.27 374.385C1131.54 372.999 1129.52 372.006 1127.37 371.474C1125.21 370.942 1122.96 370.885 1120.78 371.305C1118.6 371.725 1116.54 372.613 1114.74 373.908C1112.93 375.203 1111.44 376.874 1110.34 378.804C1109.25 380.735 1108.59 382.88 1108.41 385.09C1108.23 387.301 1108.53 389.524 1109.29 391.607C1108.12 391.859 1107.03 392.383 1106.09 393.135C1105.16 393.887 1104.42 394.847 1103.93 395.938C1103.43 397.028 1103.2 398.219 1103.25 399.415C1103.3 400.61 1103.63 401.778 1104.22 402.823C1098.67 405.734 1093.88 409.906 1090.24 415.002C1086.6 420.099 1084.21 425.977 1083.26 432.165C1082.31 438.353 1082.83 444.676 1084.78 450.628C1086.72 456.579 1090.03 461.992 1094.45 466.43C1098.18 471.442 1103.16 475.384 1108.89 477.86V487.67C1094.1 489.782 1074.61 498.98 1071.21 511.534C1068.24 522.475 1065.07 534.49 1063.5 541.544C1077.01 551.024 1105.35 556.59 1123.11 556.59C1139.99 556.59 1167.57 551.566 1180.68 542.934C1179.26 535.183 1175.99 522.641 1172.9 511.416ZM1145.84 398.24C1145.84 398.38 1145.83 398.518 1145.83 398.655C1145.73 396.925 1145.04 395.28 1143.89 393.988C1142.73 392.696 1141.17 391.834 1139.46 391.543C1139.61 391.292 1139.75 391.037 1139.88 390.777C1141.58 391.164 1143.09 392.113 1144.17 393.469C1145.25 394.825 1145.84 396.507 1145.84 398.24Z" fill="url(#paint0_linear)"/>
<path d="M1125.13 553.628C1143.86 553.628 1174.46 548.776 1189 540.441C1187.42 532.955 1183.8 520.843 1180.37 510.003C1175.99 496.198 1148.38 486.628 1131.91 486.628H1116.04C1099.52 486.628 1071.87 496.254 1067.55 510.118C1064.26 520.683 1060.75 532.286 1059 539.098C1073.98 548.253 1105.43 553.628 1125.13 553.628Z" fill="#F2B616"/>
<path d="M1122.82 477.772C1144.3 477.772 1161.71 460.378 1161.71 438.922C1161.71 417.465 1144.3 400.072 1122.82 400.072C1101.34 400.072 1083.92 417.465 1083.92 438.922C1083.92 460.378 1101.34 477.772 1122.82 477.772Z" fill="#CE3475"/>
<path d="M1112.32 465.926H1132.67C1133.47 465.926 1134.25 466.247 1134.82 466.817C1135.39 467.387 1135.71 468.161 1135.71 468.968V489.751C1135.71 491.391 1135.39 493.015 1134.76 494.53C1134.13 496.045 1133.21 497.422 1132.05 498.581C1130.89 499.741 1129.51 500.661 1127.99 501.288C1126.48 501.916 1124.85 502.239 1123.21 502.239H1121.77C1120.13 502.239 1118.51 501.916 1116.99 501.288C1115.47 500.661 1114.09 499.741 1112.93 498.581C1111.77 497.422 1110.85 496.045 1110.22 494.53C1109.59 493.015 1109.27 491.391 1109.27 489.751V468.968C1109.27 468.568 1109.35 468.173 1109.5 467.804C1109.66 467.435 1109.88 467.099 1110.16 466.817C1110.45 466.535 1110.78 466.311 1111.15 466.158C1111.52 466.005 1111.92 465.926 1112.32 465.926Z" fill="#FFCCB5"/>
<path opacity="0.05" d="M1123.71 483.522C1128.09 483.525 1132.43 482.689 1136.5 481.062C1136.29 477.855 1134.87 474.848 1132.52 472.65C1130.17 470.453 1127.08 469.229 1123.86 469.227H1122.78C1119.61 469.228 1116.56 470.41 1114.23 472.542C1111.89 474.674 1110.44 477.6 1110.15 480.747C1114.44 482.583 1119.05 483.527 1123.71 483.522Z" fill="black"/>
<path d="M1122.89 480.221C1141.89 480.221 1157.3 464.833 1157.3 445.85C1157.3 426.868 1141.89 411.48 1122.89 411.48C1103.88 411.48 1088.47 426.868 1088.47 445.85C1088.47 464.833 1103.88 480.221 1122.89 480.221Z" fill="#FFE5DA"/>
<path d="M1111.23 408.338C1115.34 408.338 1118.68 405.007 1118.68 400.898C1118.68 396.789 1115.34 393.459 1111.23 393.459C1107.12 393.459 1103.78 396.789 1103.78 400.898C1103.78 405.007 1107.12 408.338 1111.23 408.338Z" fill="#CE3475"/>
<path d="M1137.71 408.338C1141.83 408.338 1145.16 405.007 1145.16 400.898C1145.16 396.789 1141.83 393.459 1137.71 393.459C1133.6 393.459 1130.27 396.789 1130.27 400.898C1130.27 405.007 1133.6 408.338 1137.71 408.338Z" fill="#CE3475"/>
<path d="M1123.64 403.378C1131.87 403.378 1138.54 396.716 1138.54 388.499C1138.54 380.282 1131.87 373.62 1123.64 373.62C1115.42 373.62 1108.75 380.282 1108.75 388.499C1108.75 396.716 1115.42 403.378 1123.64 403.378Z" fill="#CE3475"/>
<path d="M1139.37 391.805C1137.89 391.803 1136.44 392.244 1135.21 393.071C1136.92 392.461 1138.79 392.496 1140.48 393.168C1142.16 393.841 1143.55 395.105 1144.36 396.723C1145.18 398.341 1145.38 400.201 1144.92 401.955C1144.46 403.708 1143.38 405.234 1141.87 406.245C1143.52 405.657 1144.92 404.504 1145.8 402.991C1146.69 401.477 1147.01 399.7 1146.71 397.973C1146.41 396.246 1145.51 394.68 1144.17 393.551C1142.82 392.423 1141.12 391.804 1139.37 391.805Z" fill="#C23952"/>
<path d="M1126.13 371.141C1122.67 371.135 1119.32 372.337 1116.65 374.537C1119.91 372.806 1123.7 372.346 1127.28 373.246C1130.86 374.146 1133.98 376.343 1136.03 379.409C1138.08 382.476 1138.92 386.194 1138.38 389.843C1137.84 393.491 1135.97 396.81 1133.12 399.155C1136.05 397.597 1138.38 395.104 1139.74 392.071C1141.09 389.038 1141.39 385.641 1140.58 382.42C1139.78 379.198 1137.92 376.338 1135.3 374.294C1132.68 372.25 1129.45 371.14 1126.13 371.141Z" fill="#CE3475"/>
<path d="M1097.99 414.95C1097.99 414.95 1102.13 442.228 1154.27 427.349L1128.61 405.031L1097.99 414.95Z" fill="#CE3475"/>
<path d="M1010.46 571.166H989.033C985.049 571.166 981.819 574.391 981.819 578.371V579.198C981.819 583.177 985.049 586.403 989.033 586.403H1010.46C1014.44 586.403 1017.67 583.177 1017.67 579.198V578.371C1017.67 574.391 1014.44 571.166 1010.46 571.166Z" fill="#FFC107"/>
<g opacity="0.7">
<path opacity="0.7" d="M1259.27 561.432V555.941H1231.79V581.335C1231.79 582.755 1232.35 584.116 1233.36 585.12C1234.36 586.124 1235.73 586.688 1237.15 586.688H1253.91C1255.34 586.688 1256.7 586.124 1257.7 585.12C1258.71 584.116 1259.27 582.755 1259.27 581.335V575.707C1261.17 575.707 1262.99 574.955 1264.33 573.617C1265.67 572.278 1266.42 570.463 1266.42 568.57C1266.42 566.677 1265.67 564.861 1264.33 563.523C1262.99 562.184 1261.17 561.432 1259.27 561.432ZM1259.27 572.962V564.177C1260.44 564.178 1261.56 564.642 1262.38 565.465C1263.2 566.289 1263.67 567.405 1263.67 568.57C1263.67 569.734 1263.2 570.85 1262.38 571.674C1261.56 572.497 1260.44 572.961 1259.27 572.962Z" fill="url(#paint1_linear)"/>
</g>
<path d="M1258.39 562.291C1257.1 562.291 1255.84 562.673 1254.77 563.39C1253.69 564.106 1252.86 565.123 1252.36 566.314C1251.87 567.505 1251.74 568.815 1251.99 570.08C1252.24 571.344 1252.86 572.505 1253.78 573.416C1254.69 574.328 1255.85 574.949 1257.12 575.2C1258.38 575.452 1259.69 575.322 1260.89 574.829C1262.08 574.336 1263.1 573.501 1263.82 572.429C1264.53 571.357 1264.91 570.097 1264.91 568.808C1264.91 567.952 1264.75 567.105 1264.42 566.314C1264.09 565.524 1263.61 564.805 1263 564.2C1262.4 563.595 1261.68 563.115 1260.89 562.787C1260.1 562.46 1259.25 562.291 1258.39 562.291ZM1258.39 572.819C1257.6 572.819 1256.82 572.584 1256.16 572.143C1255.5 571.702 1254.98 571.076 1254.68 570.343C1254.38 569.61 1254.3 568.804 1254.45 568.026C1254.61 567.248 1254.99 566.533 1255.55 565.972C1256.11 565.412 1256.83 565.03 1257.61 564.875C1258.39 564.72 1259.19 564.8 1259.93 565.103C1260.66 565.407 1261.29 565.921 1261.73 566.58C1262.17 567.24 1262.41 568.015 1262.41 568.808C1262.41 569.872 1261.98 570.892 1261.23 571.644C1260.48 572.396 1259.45 572.819 1258.39 572.819Z" fill="#6C63FF"/>
<path opacity="0.1" d="M1258.39 562.291C1257.1 562.291 1255.84 562.673 1254.77 563.39C1253.69 564.106 1252.86 565.123 1252.36 566.314C1251.87 567.505 1251.74 568.815 1251.99 570.08C1252.24 571.344 1252.86 572.505 1253.78 573.416C1254.69 574.328 1255.85 574.949 1257.12 575.2C1258.38 575.452 1259.69 575.322 1260.89 574.829C1262.08 574.336 1263.1 573.501 1263.82 572.429C1264.53 571.357 1264.91 570.097 1264.91 568.808C1264.91 567.952 1264.75 567.105 1264.42 566.314C1264.09 565.524 1263.61 564.805 1263 564.2C1262.4 563.595 1261.68 563.115 1260.89 562.787C1260.1 562.46 1259.25 562.291 1258.39 562.291ZM1258.39 572.819C1257.6 572.819 1256.82 572.584 1256.16 572.143C1255.5 571.702 1254.98 571.076 1254.68 570.343C1254.38 569.61 1254.3 568.804 1254.45 568.026C1254.61 567.248 1254.99 566.533 1255.55 565.972C1256.11 565.412 1256.83 565.03 1257.61 564.875C1258.39 564.72 1259.19 564.8 1259.93 565.103C1260.66 565.407 1261.29 565.921 1261.73 566.58C1262.17 567.24 1262.41 568.015 1262.41 568.808C1262.41 569.872 1261.98 570.892 1261.23 571.644C1260.48 572.396 1259.45 572.819 1258.39 572.819Z" fill="#00C3CF"/>
<path d="M1233.29 557.278H1258.39V580.438C1258.39 581.741 1257.87 582.991 1256.95 583.913C1256.03 584.834 1254.78 585.352 1253.47 585.352H1238.21C1236.91 585.352 1235.66 584.834 1234.74 583.913C1233.81 582.991 1233.29 581.741 1233.29 580.438V557.278Z" fill="#00C3CF"/>
<path d="M1284.74 585.352H959V596.38H1284.74V585.352Z" fill="white"/>
<g opacity="0.7">
<path opacity="0.7" d="M1183.82 505.677H1059.92C1055.88 505.677 1052.61 508.949 1052.61 512.984V578.044C1052.61 582.08 1055.88 585.352 1059.92 585.352H1183.82C1187.86 585.352 1191.13 582.08 1191.13 578.044V512.984C1191.13 508.949 1187.86 505.677 1183.82 505.677Z" fill="url(#paint2_linear)"/>
</g>
<path d="M1175.08 507.147H1068.66C1061.18 507.147 1055.12 513.202 1055.12 520.671V571.828C1055.12 579.297 1061.18 585.351 1068.66 585.351H1175.08C1182.56 585.351 1188.62 579.297 1188.62 571.828V520.671C1188.62 513.202 1182.56 507.147 1175.08 507.147Z" fill="#535461"/>
<path d="M1123 557.628C1129.63 557.628 1135 552.255 1135 545.628C1135 539.001 1129.63 533.628 1123 533.628C1116.37 533.628 1111 539.001 1111 545.628C1111 552.255 1116.37 557.628 1123 557.628Z" fill="white"/>
<path d="M1270.94 596.38H972.803V600.892H1270.94V596.38Z" fill="white"/>
<path opacity="0.1" d="M1270.94 596.38H972.803V597.884H1270.94V596.38Z" fill="black"/>
<path opacity="0.1" d="M1253.87 557.278V580.464C1253.87 581.76 1253.36 583.003 1252.44 583.92C1251.52 584.837 1250.28 585.352 1248.98 585.352H1251.49C1252.79 585.352 1254.03 584.837 1254.95 583.92C1255.87 583.003 1256.38 581.76 1256.38 580.464V557.278H1253.87Z" fill="black"/>
<path d="M1238.25 538.591C1238.03 538.598 1237.82 538.652 1237.63 538.749C1237.44 538.846 1237.27 538.984 1237.14 539.153C1236.81 539.749 1237.41 540.421 1237.95 540.831C1238.96 541.587 1240.02 542.331 1240.7 543.387C1241.38 544.443 1241.6 545.917 1240.85 546.929C1239.87 548.25 1237.55 548.535 1237.32 550.161C1237.18 551.205 1238.08 552.096 1239 552.62C1241.26 553.914 1244.17 554.259 1245.81 556.283C1246.49 554.891 1248 554.087 1249.51 553.744C1251.02 553.4 1252.59 553.426 1254.12 553.193C1254.37 553.188 1254.62 553.125 1254.84 553.008C1255.06 552.891 1255.25 552.723 1255.39 552.519C1255.82 551.652 1254.6 550.611 1255.02 549.74C1255.34 549.077 1256.28 549.129 1256.97 548.863C1258.09 548.431 1258.55 546.992 1258.23 545.836C1257.92 544.68 1257.02 543.777 1256.08 543.036C1253.53 541.041 1250.48 539.867 1247.38 539.022C1245.94 538.63 1244.26 538.014 1242.76 537.954C1241.32 537.897 1239.67 538.347 1238.25 538.591Z" fill="white"/>
<path opacity="0.1" d="M1385.35 311.628H1184.13C1179.16 311.628 1175.13 315.657 1175.13 320.628V452.636C1175.13 457.607 1179.16 461.636 1184.13 461.636H1385.35C1390.32 461.636 1394.35 457.607 1394.35 452.636V320.628C1394.35 315.657 1390.32 311.628 1385.35 311.628Z" fill="#6C63FF"/>
<g opacity="0.5">
<path opacity="0.5" d="M1244.45 326.401H1197.39C1196.14 326.401 1195.12 327.417 1195.12 328.669V371.687C1195.12 372.939 1196.14 373.955 1197.39 373.955H1244.45C1245.71 373.955 1246.72 372.939 1246.72 371.687V328.669C1246.72 327.417 1245.71 326.401 1244.45 326.401Z" fill="url(#paint3_linear)"/>
</g>
<path d="M1243.89 326.77H1198.02C1196.77 326.77 1195.75 327.786 1195.75 329.038V370.903C1195.75 372.155 1196.77 373.17 1198.02 373.17H1243.89C1245.15 373.17 1246.16 372.155 1246.16 370.903V329.038C1246.16 327.786 1245.15 326.77 1243.89 326.77Z" fill="#F5F5F5"/>
<path d="M1205.87 334.413H1201.91C1200.65 334.413 1199.64 335.428 1199.64 336.68V339.787C1199.64 341.04 1200.65 342.055 1201.91 342.055H1205.87C1207.12 342.055 1208.14 341.04 1208.14 339.787V336.68C1208.14 335.428 1207.12 334.413 1205.87 334.413Z" fill="#6C63FF"/>
<path d="M1244.08 334.413H1211.09C1210.87 334.413 1210.69 334.592 1210.69 334.814V334.86C1210.69 335.082 1210.87 335.262 1211.09 335.262H1244.08C1244.31 335.262 1244.49 335.082 1244.49 334.86V334.814C1244.49 334.592 1244.31 334.413 1244.08 334.413Z" fill="#E0E0E0"/>
<path d="M1244.08 336.96H1211.09C1210.87 336.96 1210.69 337.14 1210.69 337.362V337.408C1210.69 337.63 1210.87 337.809 1211.09 337.809H1244.08C1244.31 337.809 1244.49 337.63 1244.49 337.408V337.362C1244.49 337.14 1244.31 336.96 1244.08 336.96Z" fill="#E0E0E0"/>
<path d="M1244.08 346.207H1199.19C1198.97 346.207 1198.79 346.386 1198.79 346.608V346.654C1198.79 346.876 1198.97 347.056 1199.19 347.056H1244.08C1244.31 347.056 1244.49 346.876 1244.49 346.654V346.608C1244.49 346.386 1244.31 346.207 1244.08 346.207Z" fill="#E0E0E0"/>
<path d="M1244.08 348.754H1199.19C1198.97 348.754 1198.79 348.934 1198.79 349.156V349.202C1198.79 349.424 1198.97 349.603 1199.19 349.603H1244.08C1244.31 349.603 1244.49 349.424 1244.49 349.202V349.156C1244.49 348.934 1244.31 348.754 1244.08 348.754Z" fill="#E0E0E0"/>
<path d="M1244.08 352.151H1199.19C1198.97 352.151 1198.79 352.331 1198.79 352.552V352.599C1198.79 352.82 1198.97 353 1199.19 353H1244.08C1244.31 353 1244.49 352.82 1244.49 352.599V352.552C1244.49 352.331 1244.31 352.151 1244.08 352.151Z" fill="#E0E0E0"/>
<path d="M1224.74 354.698H1199.19C1198.97 354.698 1198.79 354.878 1198.79 355.1V355.146C1198.79 355.368 1198.97 355.547 1199.19 355.547H1224.74C1224.96 355.547 1225.14 355.368 1225.14 355.146V355.1C1225.14 354.878 1224.96 354.698 1224.74 354.698Z" fill="#E0E0E0"/>
<path d="M1244.08 358.087H1199.19C1198.97 358.087 1198.79 358.266 1198.79 358.488V358.534C1198.79 358.756 1198.97 358.936 1199.19 358.936H1244.08C1244.31 358.936 1244.49 358.756 1244.49 358.534V358.488C1244.49 358.266 1244.31 358.087 1244.08 358.087Z" fill="#E0E0E0"/>
<path d="M1244.08 360.634H1199.19C1198.97 360.634 1198.79 360.814 1198.79 361.036V361.082C1198.79 361.304 1198.97 361.483 1199.19 361.483H1244.08C1244.31 361.483 1244.49 361.304 1244.49 361.082V361.036C1244.49 360.814 1244.31 360.634 1244.08 360.634Z" fill="#E0E0E0"/>
<path d="M1244.08 364.031H1199.19C1198.97 364.031 1198.79 364.211 1198.79 364.433V364.479C1198.79 364.7 1198.97 364.88 1199.19 364.88H1244.08C1244.31 364.88 1244.49 364.7 1244.49 364.479V364.433C1244.49 364.211 1244.31 364.031 1244.08 364.031Z" fill="#E0E0E0"/>
<path d="M1224.74 366.578H1199.19C1198.97 366.578 1198.79 366.758 1198.79 366.98V367.026C1198.79 367.248 1198.97 367.428 1199.19 367.428H1224.74C1224.96 367.428 1225.14 367.248 1225.14 367.026V366.98C1225.14 366.758 1224.96 366.578 1224.74 366.578Z" fill="#E0E0E0"/>
<g opacity="0.5">
<path opacity="0.5" d="M1252.24 337.39H1205.18C1203.92 337.39 1202.91 338.406 1202.91 339.658V382.676C1202.91 383.928 1203.92 384.944 1205.18 384.944H1252.24C1253.49 384.944 1254.51 383.928 1254.51 382.676V339.658C1254.51 338.406 1253.49 337.39 1252.24 337.39Z" fill="url(#paint4_linear)"/>
</g>
<path d="M1251.68 337.759H1205.81C1204.56 337.759 1203.54 338.774 1203.54 340.027V381.891C1203.54 383.144 1204.56 384.159 1205.81 384.159H1251.68C1252.94 384.159 1253.95 383.144 1253.95 381.891V340.027C1253.95 338.774 1252.94 337.759 1251.68 337.759Z" fill="white"/>
<path d="M1213.66 345.401H1209.69C1208.44 345.401 1207.42 346.417 1207.42 347.669V350.776C1207.42 352.029 1208.44 353.044 1209.69 353.044H1213.66C1214.91 353.044 1215.93 352.029 1215.93 350.776V347.669C1215.93 346.417 1214.91 345.401 1213.66 345.401Z" fill="#6C63FF"/>
<path d="M1251.87 345.401H1218.88C1218.66 345.401 1218.48 345.581 1218.48 345.803V345.849C1218.48 346.071 1218.66 346.251 1218.88 346.251H1251.87C1252.09 346.251 1252.27 346.071 1252.27 345.849V345.803C1252.27 345.581 1252.09 345.401 1251.87 345.401Z" fill="#E0E0E0"/>
<path d="M1251.87 347.949H1218.88C1218.66 347.949 1218.48 348.129 1218.48 348.351V348.397C1218.48 348.618 1218.66 348.798 1218.88 348.798H1251.87C1252.09 348.798 1252.27 348.618 1252.27 348.397V348.351C1252.27 348.129 1252.09 347.949 1251.87 347.949Z" fill="#E0E0E0"/>
<path d="M1251.87 357.196H1206.98C1206.75 357.196 1206.57 357.375 1206.57 357.597V357.643C1206.57 357.865 1206.75 358.045 1206.98 358.045H1251.87C1252.09 358.045 1252.27 357.865 1252.27 357.643V357.597C1252.27 357.375 1252.09 357.196 1251.87 357.196Z" fill="#E0E0E0"/>
<path d="M1251.87 359.743H1206.98C1206.75 359.743 1206.57 359.923 1206.57 360.144V360.191C1206.57 360.412 1206.75 360.592 1206.98 360.592H1251.87C1252.09 360.592 1252.27 360.412 1252.27 360.191V360.144C1252.27 359.923 1252.09 359.743 1251.87 359.743Z" fill="#E0E0E0"/>
<path d="M1251.87 363.14H1206.98C1206.75 363.14 1206.57 363.319 1206.57 363.541V363.587C1206.57 363.809 1206.75 363.989 1206.98 363.989H1251.87C1252.09 363.989 1252.27 363.809 1252.27 363.587V363.541C1252.27 363.319 1252.09 363.14 1251.87 363.14Z" fill="#E0E0E0"/>
<path d="M1232.53 365.687H1206.98C1206.75 365.687 1206.57 365.867 1206.57 366.089V366.135C1206.57 366.356 1206.75 366.536 1206.98 366.536H1232.53C1232.75 366.536 1232.93 366.356 1232.93 366.135V366.089C1232.93 365.867 1232.75 365.687 1232.53 365.687Z" fill="#E0E0E0"/>
<path d="M1251.87 369.075H1206.98C1206.75 369.075 1206.57 369.255 1206.57 369.477V369.523C1206.57 369.745 1206.75 369.925 1206.98 369.925H1251.87C1252.09 369.925 1252.27 369.745 1252.27 369.523V369.477C1252.27 369.255 1252.09 369.075 1251.87 369.075Z" fill="#E0E0E0"/>
<path d="M1251.87 371.623H1206.98C1206.75 371.623 1206.57 371.803 1206.57 372.025V372.071C1206.57 372.292 1206.75 372.472 1206.98 372.472H1251.87C1252.09 372.472 1252.27 372.292 1252.27 372.071V372.025C1252.27 371.803 1252.09 371.623 1251.87 371.623Z" fill="#E0E0E0"/>
<path d="M1251.87 375.02H1206.98C1206.75 375.02 1206.57 375.2 1206.57 375.421V375.467C1206.57 375.689 1206.75 375.869 1206.98 375.869H1251.87C1252.09 375.869 1252.27 375.689 1252.27 375.467V375.421C1252.27 375.2 1252.09 375.02 1251.87 375.02Z" fill="#E0E0E0"/>
<path d="M1232.53 377.567H1206.98C1206.75 377.567 1206.57 377.747 1206.57 377.969V378.015C1206.57 378.237 1206.75 378.416 1206.98 378.416H1232.53C1232.75 378.416 1232.93 378.237 1232.93 378.015V377.969C1232.93 377.747 1232.75 377.567 1232.53 377.567Z" fill="#E0E0E0"/>
<path d="M1304.26 344.584H1275.84V371.858H1304.26V344.584Z" fill="url(#paint5_linear)"/>
<path d="M1303.82 345.252H1276.29V371.302H1303.82V345.252Z" fill="#F5F5F5"/>
<g opacity="0.6">
<path opacity="0.6" d="M1295.23 360.726H1285.31V362.062H1295.23V360.726Z" fill="#6C63FF"/>
</g>
<path d="M1298.52 363.175H1281.58V364.511H1298.52V363.175Z" fill="#BDBDBD"/>
<g opacity="0.5">
<path opacity="0.5" d="M1379.25 320.719H1317.28V393.451H1379.25V320.719Z" fill="url(#paint6_linear)"/>
</g>
<path d="M1377.94 321.89H1319.18V391.841H1377.94V321.89Z" fill="white"/>
<path d="M1369.29 352.58H1327.97V354.336H1369.29V352.58Z" fill="#E0E0E0"/>
<path d="M1369.29 364.141H1327.97V365.897H1369.29V364.141Z" fill="#E0E0E0"/>
<path d="M1369.29 367.214H1327.97V368.97H1369.29V367.214Z" fill="#E0E0E0"/>
<path d="M1345.41 361.068H1327.97V362.824H1345.41V361.068Z" fill="#E0E0E0"/>
<path opacity="0.6" d="M1369.29 361.068H1356.25V362.824H1369.29V361.068Z" fill="#3AD29F"/>
<path d="M1355.52 374.385H1342.48V376.141H1355.52V374.385Z" fill="#6C63FF"/>
<g opacity="0.5">
<path opacity="0.5" d="M1317.94 413.906H1281.12V444.117H1317.94V413.906Z" fill="url(#paint7_linear)"/>
</g>
<path d="M1317.44 414.478H1281.55V443.617H1317.44V414.478Z" fill="#F2F2F2"/>
<path d="M1317.44 414.478H1281.55V420.977H1317.44V414.478Z" fill="#6C63FF"/>
<path opacity="0.1" d="M1317.44 414.478H1281.55V420.977H1317.44V414.478Z" fill="black"/>
<path d="M1314.58 423.334H1284.41V427.119H1314.58V423.334Z" fill="#E0E0E0"/>
<path d="M1306.43 429.976H1284.41V431.261H1306.43V429.976Z" fill="#E0E0E0"/>
<path d="M1298.71 432.19H1284.41V433.475H1298.71V432.19Z" fill="#E0E0E0"/>
<path d="M1303.28 434.404H1284.41V435.689H1303.28V434.404Z" fill="#E0E0E0"/>
<path d="M1306.43 436.618H1284.41V437.903H1306.43V436.618Z" fill="#E0E0E0"/>
<path d="M1291.77 438.832H1284.41V440.117H1291.77V438.832Z" fill="#E0E0E0"/>
<g opacity="0.5">
<path opacity="0.5" d="M1303.7 402.826H1258.06V440.271H1303.7V402.826Z" fill="url(#paint8_linear)"/>
</g>
<path d="M1303.08 403.534H1258.59V439.651H1303.08V403.534Z" fill="white"/>
<path d="M1303.08 403.534H1258.59V411.59H1303.08V403.534Z" fill="#6C63FF"/>
<path d="M1299.54 414.511H1262.14V419.203H1299.54V414.511Z" fill="#F5F5F5"/>
<path d="M1289.43 422.743H1262.14V424.337H1289.43V422.743Z" fill="#E0E0E0"/>
<path d="M1279.86 425.488H1262.14V427.081H1279.86V425.488Z" fill="#E0E0E0"/>
<path d="M1285.53 428.232H1262.14V429.825H1285.53V428.232Z" fill="#E0E0E0"/>
<path d="M1289.43 430.976H1262.14V432.569H1289.43V430.976Z" fill="#E0E0E0"/>
<path d="M1271.27 433.72H1262.14V435.314H1271.27V433.72Z" fill="#E0E0E0"/>
<path d="M1274.72 416.104H1264.09V417.521H1274.72V416.104Z" fill="#69F0AE"/>
<path opacity="0.1" d="M1195.82 502.263C1199.23 502.263 1201.98 499.507 1201.98 496.108C1201.98 492.708 1199.23 489.953 1195.82 489.953C1192.42 489.953 1189.66 492.708 1189.66 496.108C1189.66 499.507 1192.42 502.263 1195.82 502.263Z" fill="#99D8FF"/>
<path opacity="0.1" d="M1207.27 482.478C1210.67 482.478 1213.43 479.723 1213.43 476.323C1213.43 472.924 1210.67 470.168 1207.27 470.168C1203.86 470.168 1201.1 472.924 1201.1 476.323C1201.1 479.723 1203.86 482.478 1207.27 482.478Z" fill="#99D8FF"/>
</g>
<circle cx="-155.161" cy="265.595" r="223.682" transform="rotate(121.781 -155.161 265.595)" fill="#8ED2FF" fill-opacity="0.8"/>
<path d="M-200.967 528.742C-305.982 463.679 -338.369 325.804 -273.307 220.79C-208.244 115.775 -70.3696 83.3873 34.6451 148.45C139.66 213.512 172.047 351.387 106.985 456.402C41.9225 561.416 -95.9523 593.804 -200.967 528.742Z" fill="#D0F9FF" fill-opacity="0.5"/>
</g>
<defs>
<linearGradient id="paint0_linear" x1="1122.09" y1="556.59" x2="1122.09" y2="368.461" gradientUnits="userSpaceOnUse">
<stop stop-color="#808080" stop-opacity="0.25"/>
<stop offset="0.53514" stop-color="#808080" stop-opacity="0.12"/>
<stop offset="1" stop-color="#808080" stop-opacity="0.1"/>
</linearGradient>
<linearGradient id="paint1_linear" x1="26982.5" y1="22349.8" x2="26982.5" y2="20473.9" gradientUnits="userSpaceOnUse">
<stop stop-color="#808080" stop-opacity="0.25"/>
<stop offset="0.53514" stop-color="#808080" stop-opacity="0.12"/>
<stop offset="1" stop-color="#808080" stop-opacity="0.1"/>
</linearGradient>
<linearGradient id="paint2_linear" x1="45769.7" y1="43781.7" x2="45769.7" y2="31185.1" gradientUnits="userSpaceOnUse">
<stop stop-color="#808080" stop-opacity="0.25"/>
<stop offset="0.53514" stop-color="#808080" stop-opacity="0.12"/>
<stop offset="1" stop-color="#808080" stop-opacity="0.1"/>
</linearGradient>
<linearGradient id="paint3_linear" x1="27983.5" y1="6207.71" x2="27983.5" y2="1720.47" gradientUnits="userSpaceOnUse">
<stop stop-color="#808080" stop-opacity="0.25"/>
<stop offset="0.53514" stop-color="#808080" stop-opacity="0.12"/>
<stop offset="1" stop-color="#808080" stop-opacity="0.1"/>
</linearGradient>
<linearGradient id="paint4_linear" x1="28787.8" y1="7255.62" x2="28787.8" y2="2768.38" gradientUnits="userSpaceOnUse">
<stop stop-color="#808080" stop-opacity="0.25"/>
<stop offset="0.53514" stop-color="#808080" stop-opacity="0.12"/>
<stop offset="1" stop-color="#808080" stop-opacity="0.1"/>
</linearGradient>
<linearGradient id="paint5_linear" x1="19924.1" y1="3604.36" x2="19924.1" y2="2128.23" gradientUnits="userSpaceOnUse">
<stop stop-color="#808080" stop-opacity="0.25"/>
<stop offset="0.53514" stop-color="#808080" stop-opacity="0.12"/>
<stop offset="1" stop-color="#808080" stop-opacity="0.1"/>
</linearGradient>
<linearGradient id="paint6_linear" x1="49132.9" y1="12129.7" x2="49132.9" y2="1632.83" gradientUnits="userSpaceOnUse">
<stop stop-color="#808080" stop-opacity="0.25"/>
<stop offset="0.53514" stop-color="#808080" stop-opacity="0.12"/>
<stop offset="1" stop-color="#808080" stop-opacity="0.1"/>
</linearGradient>
<linearGradient id="paint7_linear" x1="26135" y1="8356.3" x2="26135" y2="6545.26" gradientUnits="userSpaceOnUse">
<stop stop-color="#808080" stop-opacity="0.25"/>
<stop offset="0.53514" stop-color="#808080" stop-opacity="0.12"/>
<stop offset="1" stop-color="#808080" stop-opacity="0.1"/>
</linearGradient>
<linearGradient id="paint8_linear" x1="30376.9" y1="9961.45" x2="30376.9" y2="7179.17" gradientUnits="userSpaceOnUse">
<stop stop-color="#808080" stop-opacity="0.25"/>
<stop offset="0.53514" stop-color="#808080" stop-opacity="0.12"/>
<stop offset="1" stop-color="#808080" stop-opacity="0.1"/>
</linearGradient>
<clipPath id="clip0">
<rect width="1440" height="623" fill="white"/>
</clipPath>
<clipPath id="clip1">
<rect x="959" y="311.628" width="435.348" height="289.264" fill="white"/>
</clipPath>
</defs>
</svg>
