<svg width="1195" height="410" viewBox="0 0 1195 410" fill="none" xmlns="http://www.w3.org/2000/svg">
<g clip-path="url(#clip0)">
<rect width="1195" height="410" fill="#2B0E9B" fill-opacity="0.86"/>
<path d="M601.5 477.5L-113 52L-6.5 501L601.5 477.5Z" fill="#3D239F"/>
<path d="M579 439.5L11 -104L-15 226L507 410.5L579 439.5Z" fill="#3F23EC"/>
<path d="M1089 582L767 208L1410.5 510.5L1089 582Z" fill="#3F23EC"/>
<path d="M162.223 159H156.949L146.684 142.16V159H141.41V133.406H146.684L156.967 150.281V133.406H162.223V159ZM175.248 159.352C172.459 159.352 170.186 158.496 168.428 156.785C166.682 155.074 165.809 152.795 165.809 149.947V149.455C165.809 147.545 166.178 145.84 166.916 144.34C167.654 142.828 168.697 141.668 170.045 140.859C171.404 140.039 172.951 139.629 174.686 139.629C177.287 139.629 179.332 140.449 180.82 142.09C182.32 143.73 183.07 146.057 183.07 149.068V151.143H170.959C171.123 152.385 171.615 153.381 172.436 154.131C173.268 154.881 174.316 155.256 175.582 155.256C177.539 155.256 179.068 154.547 180.17 153.129L182.666 155.924C181.904 157.002 180.873 157.846 179.572 158.455C178.271 159.053 176.83 159.352 175.248 159.352ZM174.668 143.742C173.66 143.742 172.84 144.082 172.207 144.762C171.586 145.441 171.188 146.414 171.012 147.68H178.078V147.275C178.055 146.15 177.75 145.283 177.164 144.674C176.578 144.053 175.746 143.742 174.668 143.742ZM194.725 159.352C191.936 159.352 189.662 158.496 187.904 156.785C186.158 155.074 185.285 152.795 185.285 149.947V149.455C185.285 147.545 185.654 145.84 186.393 144.34C187.131 142.828 188.174 141.668 189.521 140.859C190.881 140.039 192.428 139.629 194.162 139.629C196.764 139.629 198.809 140.449 200.297 142.09C201.797 143.73 202.547 146.057 202.547 149.068V151.143H190.436C190.6 152.385 191.092 153.381 191.912 154.131C192.744 154.881 193.793 155.256 195.059 155.256C197.016 155.256 198.545 154.547 199.646 153.129L202.143 155.924C201.381 157.002 200.35 157.846 199.049 158.455C197.748 159.053 196.307 159.352 194.725 159.352ZM194.145 143.742C193.137 143.742 192.316 144.082 191.684 144.762C191.062 145.441 190.664 146.414 190.488 147.68H197.555V147.275C197.531 146.15 197.227 145.283 196.641 144.674C196.055 144.053 195.223 143.742 194.145 143.742ZM204.656 149.35C204.656 146.385 205.318 144.023 206.643 142.266C207.979 140.508 209.801 139.629 212.109 139.629C213.961 139.629 215.49 140.32 216.697 141.703V132H221.795V159H217.207L216.961 156.979C215.695 158.561 214.066 159.352 212.074 159.352C209.836 159.352 208.037 158.473 206.678 156.715C205.33 154.945 204.656 152.49 204.656 149.35ZM209.736 149.719C209.736 151.5 210.047 152.865 210.668 153.814C211.289 154.764 212.191 155.238 213.375 155.238C214.945 155.238 216.053 154.576 216.697 153.252V145.746C216.064 144.422 214.969 143.76 213.41 143.76C210.961 143.76 209.736 145.746 209.736 149.719ZM240.305 149.982V159H235.031V133.406H245.016C246.938 133.406 248.625 133.758 250.078 134.461C251.543 135.164 252.668 136.166 253.453 137.467C254.238 138.756 254.631 140.227 254.631 141.879C254.631 144.387 253.77 146.367 252.047 147.82C250.336 149.262 247.963 149.982 244.928 149.982H240.305ZM240.305 145.711H245.016C246.41 145.711 247.471 145.383 248.197 144.727C248.936 144.07 249.305 143.133 249.305 141.914C249.305 140.66 248.936 139.646 248.197 138.873C247.459 138.1 246.439 137.701 245.139 137.678H240.305V145.711ZM268.623 144.744C267.932 144.65 267.322 144.604 266.795 144.604C264.873 144.604 263.613 145.254 263.016 146.555V159H257.936V139.98H262.734L262.875 142.248C263.895 140.502 265.307 139.629 267.111 139.629C267.674 139.629 268.201 139.705 268.693 139.857L268.623 144.744ZM269.66 149.314C269.66 147.428 270.023 145.746 270.75 144.27C271.477 142.793 272.52 141.65 273.879 140.842C275.25 140.033 276.838 139.629 278.643 139.629C281.209 139.629 283.301 140.414 284.918 141.984C286.547 143.555 287.455 145.688 287.643 148.383L287.678 149.684C287.678 152.602 286.863 154.945 285.234 156.715C283.605 158.473 281.42 159.352 278.678 159.352C275.936 159.352 273.744 158.473 272.104 156.715C270.475 154.957 269.66 152.566 269.66 149.543V149.314ZM274.74 149.684C274.74 151.488 275.08 152.871 275.76 153.832C276.439 154.781 277.412 155.256 278.678 155.256C279.908 155.256 280.869 154.787 281.561 153.85C282.252 152.9 282.598 151.389 282.598 149.314C282.598 147.545 282.252 146.174 281.561 145.201C280.869 144.229 279.896 143.742 278.643 143.742C277.4 143.742 276.439 144.229 275.76 145.201C275.08 146.162 274.74 147.656 274.74 149.684ZM292.195 159V143.707H289.365V139.98H292.195V138.363C292.195 136.23 292.805 134.578 294.023 133.406C295.254 132.223 296.971 131.631 299.174 131.631C299.877 131.631 300.738 131.748 301.758 131.982L301.705 135.92C301.283 135.814 300.768 135.762 300.158 135.762C298.248 135.762 297.293 136.658 297.293 138.451V139.98H301.072V143.707H297.293V159H292.195ZM312.041 159.352C309.252 159.352 306.979 158.496 305.221 156.785C303.475 155.074 302.602 152.795 302.602 149.947V149.455C302.602 147.545 302.971 145.84 303.709 144.34C304.447 142.828 305.49 141.668 306.838 140.859C308.197 140.039 309.744 139.629 311.479 139.629C314.08 139.629 316.125 140.449 317.613 142.09C319.113 143.73 319.863 146.057 319.863 149.068V151.143H307.752C307.916 152.385 308.408 153.381 309.229 154.131C310.061 154.881 311.109 155.256 312.375 155.256C314.332 155.256 315.861 154.547 316.963 153.129L319.459 155.924C318.697 157.002 317.666 157.846 316.365 158.455C315.064 159.053 313.623 159.352 312.041 159.352ZM311.461 143.742C310.453 143.742 309.633 144.082 309 144.762C308.379 145.441 307.98 146.414 307.805 147.68H314.871V147.275C314.848 146.15 314.543 145.283 313.957 144.674C313.371 144.053 312.539 143.742 311.461 143.742ZM333.064 153.744C333.064 153.123 332.754 152.637 332.133 152.285C331.523 151.922 330.539 151.6 329.18 151.318C324.656 150.369 322.395 148.447 322.395 145.553C322.395 143.865 323.092 142.459 324.486 141.334C325.893 140.197 327.727 139.629 329.988 139.629C332.402 139.629 334.33 140.197 335.771 141.334C337.225 142.471 337.951 143.947 337.951 145.764H332.871C332.871 145.037 332.637 144.439 332.168 143.971C331.699 143.49 330.967 143.25 329.971 143.25C329.115 143.25 328.453 143.443 327.984 143.83C327.516 144.217 327.281 144.709 327.281 145.307C327.281 145.869 327.545 146.326 328.072 146.678C328.611 147.018 329.514 147.316 330.779 147.574C332.045 147.82 333.111 148.102 333.979 148.418C336.662 149.402 338.004 151.107 338.004 153.533C338.004 155.268 337.26 156.674 335.771 157.752C334.283 158.818 332.361 159.352 330.006 159.352C328.412 159.352 326.994 159.07 325.752 158.508C324.521 157.934 323.555 157.154 322.852 156.17C322.148 155.174 321.797 154.102 321.797 152.953H326.613C326.66 153.855 326.994 154.547 327.615 155.027C328.236 155.508 329.068 155.748 330.111 155.748C331.084 155.748 331.816 155.566 332.309 155.203C332.812 154.828 333.064 154.342 333.064 153.744ZM351.592 153.744C351.592 153.123 351.281 152.637 350.66 152.285C350.051 151.922 349.066 151.6 347.707 151.318C343.184 150.369 340.922 148.447 340.922 145.553C340.922 143.865 341.619 142.459 343.014 141.334C344.42 140.197 346.254 139.629 348.516 139.629C350.93 139.629 352.857 140.197 354.299 141.334C355.752 142.471 356.479 143.947 356.479 145.764H351.398C351.398 145.037 351.164 144.439 350.695 143.971C350.227 143.49 349.494 143.25 348.498 143.25C347.643 143.25 346.98 143.443 346.512 143.83C346.043 144.217 345.809 144.709 345.809 145.307C345.809 145.869 346.072 146.326 346.6 146.678C347.139 147.018 348.041 147.316 349.307 147.574C350.572 147.82 351.639 148.102 352.506 148.418C355.189 149.402 356.531 151.107 356.531 153.533C356.531 155.268 355.787 156.674 354.299 157.752C352.811 158.818 350.889 159.352 348.533 159.352C346.939 159.352 345.521 159.07 344.279 158.508C343.049 157.934 342.082 157.154 341.379 156.17C340.676 155.174 340.324 154.102 340.324 152.953H345.141C345.188 153.855 345.521 154.547 346.143 155.027C346.764 155.508 347.596 155.748 348.639 155.748C349.611 155.748 350.344 155.566 350.836 155.203C351.34 154.828 351.592 154.342 351.592 153.744ZM365.18 159H360.082V139.98H365.18V159ZM359.783 135.059C359.783 134.297 360.035 133.67 360.539 133.178C361.055 132.686 361.752 132.439 362.631 132.439C363.498 132.439 364.189 132.686 364.705 133.178C365.221 133.67 365.479 134.297 365.479 135.059C365.479 135.832 365.215 136.465 364.688 136.957C364.172 137.449 363.486 137.695 362.631 137.695C361.775 137.695 361.084 137.449 360.557 136.957C360.041 136.465 359.783 135.832 359.783 135.059ZM368.59 149.314C368.59 147.428 368.953 145.746 369.68 144.27C370.406 142.793 371.449 141.65 372.809 140.842C374.18 140.033 375.768 139.629 377.572 139.629C380.139 139.629 382.23 140.414 383.848 141.984C385.477 143.555 386.385 145.688 386.572 148.383L386.607 149.684C386.607 152.602 385.793 154.945 384.164 156.715C382.535 158.473 380.35 159.352 377.607 159.352C374.865 159.352 372.674 158.473 371.033 156.715C369.404 154.957 368.59 152.566 368.59 149.543V149.314ZM373.67 149.684C373.67 151.488 374.01 152.871 374.689 153.832C375.369 154.781 376.342 155.256 377.607 155.256C378.838 155.256 379.799 154.787 380.49 153.85C381.182 152.9 381.527 151.389 381.527 149.314C381.527 147.545 381.182 146.174 380.49 145.201C379.799 144.229 378.826 143.742 377.572 143.742C376.33 143.742 375.369 144.229 374.689 145.201C374.01 146.162 373.67 147.656 373.67 149.684ZM394.412 139.98L394.57 142.178C395.93 140.479 397.752 139.629 400.037 139.629C402.053 139.629 403.553 140.221 404.537 141.404C405.521 142.588 406.025 144.357 406.049 146.713V159H400.969V146.836C400.969 145.758 400.734 144.979 400.266 144.498C399.797 144.006 399.018 143.76 397.928 143.76C396.498 143.76 395.426 144.369 394.711 145.588V159H389.631V139.98H394.412ZM420.938 159C420.703 158.543 420.533 157.975 420.428 157.295C419.197 158.666 417.598 159.352 415.629 159.352C413.766 159.352 412.219 158.812 410.988 157.734C409.77 156.656 409.16 155.297 409.16 153.656C409.16 151.641 409.904 150.094 411.393 149.016C412.893 147.938 415.055 147.393 417.879 147.381H420.217V146.291C420.217 145.412 419.988 144.709 419.531 144.182C419.086 143.654 418.377 143.391 417.404 143.391C416.549 143.391 415.875 143.596 415.383 144.006C414.902 144.416 414.662 144.979 414.662 145.693H409.582C409.582 144.592 409.922 143.572 410.602 142.635C411.281 141.697 412.242 140.965 413.484 140.438C414.727 139.898 416.121 139.629 417.668 139.629C420.012 139.629 421.869 140.221 423.24 141.404C424.623 142.576 425.314 144.229 425.314 146.361V154.605C425.326 156.41 425.578 157.775 426.07 158.701V159H420.938ZM416.736 155.467C417.486 155.467 418.178 155.303 418.811 154.975C419.443 154.635 419.912 154.184 420.217 153.621V150.352H418.318C415.775 150.352 414.422 151.23 414.258 152.988L414.24 153.287C414.24 153.92 414.463 154.441 414.908 154.852C415.354 155.262 415.963 155.467 416.736 155.467ZM434.578 159H429.48V132H434.578V159ZM452.701 142.055C454.049 140.438 455.742 139.629 457.781 139.629C461.906 139.629 463.998 142.025 464.057 146.818V159H458.977V146.959C458.977 145.869 458.742 145.066 458.273 144.551C457.805 144.023 457.025 143.76 455.936 143.76C454.447 143.76 453.369 144.334 452.701 145.482V159H447.621V132H452.701V142.055ZM476.643 159.352C473.854 159.352 471.58 158.496 469.822 156.785C468.076 155.074 467.203 152.795 467.203 149.947V149.455C467.203 147.545 467.572 145.84 468.311 144.34C469.049 142.828 470.092 141.668 471.439 140.859C472.799 140.039 474.346 139.629 476.08 139.629C478.682 139.629 480.727 140.449 482.215 142.09C483.715 143.73 484.465 146.057 484.465 149.068V151.143H472.354C472.518 152.385 473.01 153.381 473.83 154.131C474.662 154.881 475.711 155.256 476.977 155.256C478.934 155.256 480.463 154.547 481.564 153.129L484.061 155.924C483.299 157.002 482.268 157.846 480.967 158.455C479.666 159.053 478.225 159.352 476.643 159.352ZM476.062 143.742C475.055 143.742 474.234 144.082 473.602 144.762C472.98 145.441 472.582 146.414 472.406 147.68H479.473V147.275C479.449 146.15 479.145 145.283 478.559 144.674C477.973 144.053 477.141 143.742 476.062 143.742ZM492.727 159H487.629V132H492.727V159ZM514.049 149.666C514.049 152.596 513.381 154.945 512.045 156.715C510.721 158.473 508.928 159.352 506.666 159.352C504.744 159.352 503.191 158.684 502.008 157.348V166.312H496.928V139.98H501.639L501.814 141.844C503.045 140.367 504.65 139.629 506.631 139.629C508.975 139.629 510.797 140.496 512.098 142.23C513.398 143.965 514.049 146.355 514.049 149.402V149.666ZM508.969 149.297C508.969 147.527 508.652 146.162 508.02 145.201C507.398 144.24 506.49 143.76 505.295 143.76C503.701 143.76 502.605 144.369 502.008 145.588V153.375C502.629 154.629 503.736 155.256 505.33 155.256C507.756 155.256 508.969 153.27 508.969 149.297ZM527.566 159V143.707H524.736V139.98H527.566V138.363C527.566 136.23 528.176 134.578 529.395 133.406C530.625 132.223 532.342 131.631 534.545 131.631C535.248 131.631 536.109 131.748 537.129 131.982L537.076 135.92C536.654 135.814 536.139 135.762 535.529 135.762C533.619 135.762 532.664 136.658 532.664 138.451V139.98H536.443V143.707H532.664V159H527.566ZM538.289 149.314C538.289 147.428 538.652 145.746 539.379 144.27C540.105 142.793 541.148 141.65 542.508 140.842C543.879 140.033 545.467 139.629 547.271 139.629C549.838 139.629 551.93 140.414 553.547 141.984C555.176 143.555 556.084 145.688 556.271 148.383L556.307 149.684C556.307 152.602 555.492 154.945 553.863 156.715C552.234 158.473 550.049 159.352 547.307 159.352C544.564 159.352 542.373 158.473 540.732 156.715C539.104 154.957 538.289 152.566 538.289 149.543V149.314ZM543.369 149.684C543.369 151.488 543.709 152.871 544.389 153.832C545.068 154.781 546.041 155.256 547.307 155.256C548.537 155.256 549.498 154.787 550.189 153.85C550.881 152.9 551.227 151.389 551.227 149.314C551.227 147.545 550.881 146.174 550.189 145.201C549.498 144.229 548.525 143.742 547.271 143.742C546.029 143.742 545.068 144.229 544.389 145.201C543.709 146.162 543.369 147.656 543.369 149.684ZM570.123 144.744C569.432 144.65 568.822 144.604 568.295 144.604C566.373 144.604 565.113 145.254 564.516 146.555V159H559.436V139.98H564.234L564.375 142.248C565.395 140.502 566.807 139.629 568.611 139.629C569.174 139.629 569.701 139.705 570.193 139.857L570.123 144.744ZM580.758 149.35C580.758 146.385 581.42 144.023 582.744 142.266C584.08 140.508 585.902 139.629 588.211 139.629C590.062 139.629 591.592 140.32 592.799 141.703V132H597.896V159H593.309L593.062 156.979C591.797 158.561 590.168 159.352 588.176 159.352C585.938 159.352 584.139 158.473 582.779 156.715C581.432 154.945 580.758 152.49 580.758 149.35ZM585.838 149.719C585.838 151.5 586.148 152.865 586.77 153.814C587.391 154.764 588.293 155.238 589.477 155.238C591.047 155.238 592.154 154.576 592.799 153.252V145.746C592.166 144.422 591.07 143.76 589.512 143.76C587.062 143.76 585.838 145.746 585.838 149.719ZM610.588 159.352C607.799 159.352 605.525 158.496 603.768 156.785C602.021 155.074 601.148 152.795 601.148 149.947V149.455C601.148 147.545 601.518 145.84 602.256 144.34C602.994 142.828 604.037 141.668 605.385 140.859C606.744 140.039 608.291 139.629 610.025 139.629C612.627 139.629 614.672 140.449 616.16 142.09C617.66 143.73 618.41 146.057 618.41 149.068V151.143H606.299C606.463 152.385 606.955 153.381 607.775 154.131C608.607 154.881 609.656 155.256 610.922 155.256C612.879 155.256 614.408 154.547 615.51 153.129L618.006 155.924C617.244 157.002 616.213 157.846 614.912 158.455C613.611 159.053 612.17 159.352 610.588 159.352ZM610.008 143.742C609 143.742 608.18 144.082 607.547 144.762C606.926 145.441 606.527 146.414 606.352 147.68H613.418V147.275C613.395 146.15 613.09 145.283 612.504 144.674C611.918 144.053 611.086 143.742 610.008 143.742ZM631.611 153.744C631.611 153.123 631.301 152.637 630.68 152.285C630.07 151.922 629.086 151.6 627.727 151.318C623.203 150.369 620.941 148.447 620.941 145.553C620.941 143.865 621.639 142.459 623.033 141.334C624.439 140.197 626.273 139.629 628.535 139.629C630.949 139.629 632.877 140.197 634.318 141.334C635.771 142.471 636.498 143.947 636.498 145.764H631.418C631.418 145.037 631.184 144.439 630.715 143.971C630.246 143.49 629.514 143.25 628.518 143.25C627.662 143.25 627 143.443 626.531 143.83C626.062 144.217 625.828 144.709 625.828 145.307C625.828 145.869 626.092 146.326 626.619 146.678C627.158 147.018 628.061 147.316 629.326 147.574C630.592 147.82 631.658 148.102 632.525 148.418C635.209 149.402 636.551 151.107 636.551 153.533C636.551 155.268 635.807 156.674 634.318 157.752C632.83 158.818 630.908 159.352 628.553 159.352C626.959 159.352 625.541 159.07 624.299 158.508C623.068 157.934 622.102 157.154 621.398 156.17C620.695 155.174 620.344 154.102 620.344 152.953H625.16C625.207 153.855 625.541 154.547 626.162 155.027C626.783 155.508 627.615 155.748 628.658 155.748C629.631 155.748 630.363 155.566 630.855 155.203C631.359 154.828 631.611 154.342 631.611 153.744ZM645.199 159H640.102V139.98H645.199V159ZM639.803 135.059C639.803 134.297 640.055 133.67 640.559 133.178C641.074 132.686 641.771 132.439 642.65 132.439C643.518 132.439 644.209 132.686 644.725 133.178C645.24 133.67 645.498 134.297 645.498 135.059C645.498 135.832 645.234 136.465 644.707 136.957C644.191 137.449 643.506 137.695 642.65 137.695C641.795 137.695 641.104 137.449 640.576 136.957C640.061 136.465 639.803 135.832 639.803 135.059ZM648.662 149.35C648.662 146.432 649.354 144.082 650.736 142.301C652.131 140.52 654.006 139.629 656.361 139.629C658.447 139.629 660.07 140.344 661.23 141.773L661.441 139.98H666.047V158.367C666.047 160.031 665.666 161.479 664.904 162.709C664.154 163.939 663.094 164.877 661.723 165.521C660.352 166.166 658.746 166.488 656.906 166.488C655.512 166.488 654.152 166.207 652.828 165.645C651.504 165.094 650.502 164.379 649.822 163.5L652.072 160.406C653.338 161.824 654.873 162.533 656.678 162.533C658.025 162.533 659.074 162.17 659.824 161.443C660.574 160.729 660.949 159.709 660.949 158.385V157.365C659.777 158.689 658.236 159.352 656.326 159.352C654.041 159.352 652.189 158.461 650.771 156.68C649.365 154.887 648.662 152.514 648.662 149.561V149.35ZM653.742 149.719C653.742 151.441 654.088 152.795 654.779 153.779C655.471 154.752 656.42 155.238 657.627 155.238C659.174 155.238 660.281 154.658 660.949 153.498V145.5C660.27 144.34 659.174 143.76 657.662 143.76C656.443 143.76 655.482 144.258 654.779 145.254C654.088 146.25 653.742 147.738 653.742 149.719ZM674.643 139.98L674.801 142.178C676.16 140.479 677.982 139.629 680.268 139.629C682.283 139.629 683.783 140.221 684.768 141.404C685.752 142.588 686.256 144.357 686.279 146.713V159H681.199V146.836C681.199 145.758 680.965 144.979 680.496 144.498C680.027 144.006 679.248 143.76 678.158 143.76C676.729 143.76 675.656 144.369 674.941 145.588V159H669.861V139.98H674.643ZM695.508 159H690.41V139.98H695.508V159ZM690.111 135.059C690.111 134.297 690.363 133.67 690.867 133.178C691.383 132.686 692.08 132.439 692.959 132.439C693.826 132.439 694.518 132.686 695.033 133.178C695.549 133.67 695.807 134.297 695.807 135.059C695.807 135.832 695.543 136.465 695.016 136.957C694.5 137.449 693.814 137.695 692.959 137.695C692.104 137.695 691.412 137.449 690.885 136.957C690.369 136.465 690.111 135.832 690.111 135.059ZM704.385 139.98L704.543 142.178C705.902 140.479 707.725 139.629 710.01 139.629C712.025 139.629 713.525 140.221 714.51 141.404C715.494 142.588 715.998 144.357 716.021 146.713V159H710.941V146.836C710.941 145.758 710.707 144.979 710.238 144.498C709.77 144.006 708.99 143.76 707.9 143.76C706.471 143.76 705.398 144.369 704.684 145.588V159H699.604V139.98H704.385ZM719.15 149.35C719.15 146.432 719.842 144.082 721.225 142.301C722.619 140.52 724.494 139.629 726.85 139.629C728.936 139.629 730.559 140.344 731.719 141.773L731.93 139.98H736.535V158.367C736.535 160.031 736.154 161.479 735.393 162.709C734.643 163.939 733.582 164.877 732.211 165.521C730.84 166.166 729.234 166.488 727.395 166.488C726 166.488 724.641 166.207 723.316 165.645C721.992 165.094 720.99 164.379 720.311 163.5L722.561 160.406C723.826 161.824 725.361 162.533 727.166 162.533C728.514 162.533 729.562 162.17 730.312 161.443C731.062 160.729 731.438 159.709 731.438 158.385V157.365C730.266 158.689 728.725 159.352 726.814 159.352C724.529 159.352 722.678 158.461 721.26 156.68C719.854 154.887 719.15 152.514 719.15 149.561V149.35ZM724.23 149.719C724.23 151.441 724.576 152.795 725.268 153.779C725.959 154.752 726.908 155.238 728.115 155.238C729.662 155.238 730.77 154.658 731.438 153.498V145.5C730.758 144.34 729.662 143.76 728.15 143.76C726.932 143.76 725.971 144.258 725.268 145.254C724.576 146.25 724.23 147.738 724.23 149.719ZM756.521 151.811L760.037 139.98H765.486L757.84 161.953L757.418 162.955C756.281 165.439 754.406 166.682 751.793 166.682C751.055 166.682 750.305 166.57 749.543 166.348V162.498L750.316 162.516C751.277 162.516 751.992 162.369 752.461 162.076C752.941 161.783 753.316 161.297 753.586 160.617L754.184 159.053L747.521 139.98H752.988L756.521 151.811ZM766.418 149.314C766.418 147.428 766.781 145.746 767.508 144.27C768.234 142.793 769.277 141.65 770.637 140.842C772.008 140.033 773.596 139.629 775.4 139.629C777.967 139.629 780.059 140.414 781.676 141.984C783.305 143.555 784.213 145.688 784.4 148.383L784.436 149.684C784.436 152.602 783.621 154.945 781.992 156.715C780.363 158.473 778.178 159.352 775.436 159.352C772.693 159.352 770.502 158.473 768.861 156.715C767.232 154.957 766.418 152.566 766.418 149.543V149.314ZM771.498 149.684C771.498 151.488 771.838 152.871 772.518 153.832C773.197 154.781 774.17 155.256 775.436 155.256C776.666 155.256 777.627 154.787 778.318 153.85C779.01 152.9 779.355 151.389 779.355 149.314C779.355 147.545 779.01 146.174 778.318 145.201C777.627 144.229 776.654 143.742 775.4 143.742C774.158 143.742 773.197 144.229 772.518 145.201C771.838 146.162 771.498 147.656 771.498 149.684ZM798.955 157.066C797.701 158.59 795.967 159.352 793.752 159.352C791.713 159.352 790.154 158.766 789.076 157.594C788.01 156.422 787.465 154.705 787.441 152.443V139.98H792.521V152.268C792.521 154.248 793.424 155.238 795.229 155.238C796.951 155.238 798.135 154.641 798.779 153.445V139.98H803.877V159H799.096L798.955 157.066ZM822.035 159H816.938V132H822.035V159ZM825.445 149.314C825.445 147.428 825.809 145.746 826.535 144.27C827.262 142.793 828.305 141.65 829.664 140.842C831.035 140.033 832.623 139.629 834.428 139.629C836.994 139.629 839.086 140.414 840.703 141.984C842.332 143.555 843.24 145.688 843.428 148.383L843.463 149.684C843.463 152.602 842.648 154.945 841.02 156.715C839.391 158.473 837.205 159.352 834.463 159.352C831.721 159.352 829.529 158.473 827.889 156.715C826.26 154.957 825.445 152.566 825.445 149.543V149.314ZM830.525 149.684C830.525 151.488 830.865 152.871 831.545 153.832C832.225 154.781 833.197 155.256 834.463 155.256C835.693 155.256 836.654 154.787 837.346 153.85C838.037 152.9 838.383 151.389 838.383 149.314C838.383 147.545 838.037 146.174 837.346 145.201C836.654 144.229 835.682 143.742 834.428 143.742C833.186 143.742 832.225 144.229 831.545 145.201C830.865 146.162 830.525 147.656 830.525 149.684ZM845.854 149.35C845.854 146.432 846.545 144.082 847.928 142.301C849.322 140.52 851.197 139.629 853.553 139.629C855.639 139.629 857.262 140.344 858.422 141.773L858.633 139.98H863.238V158.367C863.238 160.031 862.857 161.479 862.096 162.709C861.346 163.939 860.285 164.877 858.914 165.521C857.543 166.166 855.938 166.488 854.098 166.488C852.703 166.488 851.344 166.207 850.02 165.645C848.695 165.094 847.693 164.379 847.014 163.5L849.264 160.406C850.529 161.824 852.064 162.533 853.869 162.533C855.217 162.533 856.266 162.17 857.016 161.443C857.766 160.729 858.141 159.709 858.141 158.385V157.365C856.969 158.689 855.428 159.352 853.518 159.352C851.232 159.352 849.381 158.461 847.963 156.68C846.557 154.887 845.854 152.514 845.854 149.561V149.35ZM850.934 149.719C850.934 151.441 851.279 152.795 851.971 153.779C852.662 154.752 853.611 155.238 854.818 155.238C856.365 155.238 857.473 154.658 858.141 153.498V145.5C857.461 144.34 856.365 143.76 854.854 143.76C853.635 143.76 852.674 144.258 851.971 145.254C851.279 146.25 850.934 147.738 850.934 149.719ZM866.367 149.314C866.367 147.428 866.73 145.746 867.457 144.27C868.184 142.793 869.227 141.65 870.586 140.842C871.957 140.033 873.545 139.629 875.35 139.629C877.916 139.629 880.008 140.414 881.625 141.984C883.254 143.555 884.162 145.688 884.35 148.383L884.385 149.684C884.385 152.602 883.57 154.945 881.941 156.715C880.312 158.473 878.127 159.352 875.385 159.352C872.643 159.352 870.451 158.473 868.811 156.715C867.182 154.957 866.367 152.566 866.367 149.543V149.314ZM871.447 149.684C871.447 151.488 871.787 152.871 872.467 153.832C873.146 154.781 874.119 155.256 875.385 155.256C876.615 155.256 877.576 154.787 878.268 153.85C878.959 152.9 879.305 151.389 879.305 149.314C879.305 147.545 878.959 146.174 878.268 145.201C877.576 144.229 876.604 143.742 875.35 143.742C874.107 143.742 873.146 144.229 872.467 145.201C871.787 146.162 871.447 147.656 871.447 149.684ZM888.832 165.416L886.178 164.027L886.811 162.885C887.596 161.455 888 160.031 888.023 158.613V154.676H892.312L892.295 158.191C892.283 159.492 891.955 160.805 891.311 162.129C890.666 163.453 889.84 164.549 888.832 165.416ZM915.076 149.631H910.875V159H905.602V133.406H915.111C918.135 133.406 920.467 134.08 922.107 135.428C923.748 136.775 924.568 138.68 924.568 141.141C924.568 142.887 924.188 144.346 923.426 145.518C922.676 146.678 921.533 147.604 919.998 148.295L925.535 158.754V159H919.875L915.076 149.631ZM910.875 145.359H915.129C916.453 145.359 917.479 145.025 918.205 144.357C918.932 143.678 919.295 142.746 919.295 141.562C919.295 140.355 918.949 139.406 918.258 138.715C917.578 138.023 916.529 137.678 915.111 137.678H910.875V145.359ZM937.014 159.352C934.225 159.352 931.951 158.496 930.193 156.785C928.447 155.074 927.574 152.795 927.574 149.947V149.455C927.574 147.545 927.943 145.84 928.682 144.34C929.42 142.828 930.463 141.668 931.811 140.859C933.17 140.039 934.717 139.629 936.451 139.629C939.053 139.629 941.098 140.449 942.586 142.09C944.086 143.73 944.836 146.057 944.836 149.068V151.143H932.725C932.889 152.385 933.381 153.381 934.201 154.131C935.033 154.881 936.082 155.256 937.348 155.256C939.305 155.256 940.834 154.547 941.936 153.129L944.432 155.924C943.67 157.002 942.639 157.846 941.338 158.455C940.037 159.053 938.596 159.352 937.014 159.352ZM936.434 143.742C935.426 143.742 934.605 144.082 933.973 144.762C933.352 145.441 932.953 146.414 932.777 147.68H939.844V147.275C939.82 146.15 939.516 145.283 938.93 144.674C938.344 144.053 937.512 143.742 936.434 143.742ZM958.758 159C958.523 158.543 958.354 157.975 958.248 157.295C957.018 158.666 955.418 159.352 953.449 159.352C951.586 159.352 950.039 158.812 948.809 157.734C947.59 156.656 946.98 155.297 946.98 153.656C946.98 151.641 947.725 150.094 949.213 149.016C950.713 147.938 952.875 147.393 955.699 147.381H958.037V146.291C958.037 145.412 957.809 144.709 957.352 144.182C956.906 143.654 956.197 143.391 955.225 143.391C954.369 143.391 953.695 143.596 953.203 144.006C952.723 144.416 952.482 144.979 952.482 145.693H947.402C947.402 144.592 947.742 143.572 948.422 142.635C949.102 141.697 950.062 140.965 951.305 140.438C952.547 139.898 953.941 139.629 955.488 139.629C957.832 139.629 959.689 140.221 961.061 141.404C962.443 142.576 963.135 144.229 963.135 146.361V154.605C963.146 156.41 963.398 157.775 963.891 158.701V159H958.758ZM954.557 155.467C955.307 155.467 955.998 155.303 956.631 154.975C957.264 154.635 957.732 154.184 958.037 153.621V150.352H956.139C953.596 150.352 952.242 151.23 952.078 152.988L952.061 153.287C952.061 153.92 952.283 154.441 952.729 154.852C953.174 155.262 953.783 155.467 954.557 155.467ZM974.947 155.256C975.885 155.256 976.646 154.998 977.232 154.482C977.818 153.967 978.123 153.281 978.146 152.426H982.91C982.898 153.715 982.547 154.898 981.855 155.977C981.164 157.043 980.215 157.875 979.008 158.473C977.812 159.059 976.488 159.352 975.035 159.352C972.316 159.352 970.172 158.49 968.602 156.768C967.031 155.033 966.246 152.643 966.246 149.596V149.262C966.246 146.332 967.025 143.994 968.584 142.248C970.143 140.502 972.281 139.629 975 139.629C977.379 139.629 979.283 140.309 980.713 141.668C982.154 143.016 982.887 144.814 982.91 147.064H978.146C978.123 146.08 977.818 145.283 977.232 144.674C976.646 144.053 975.873 143.742 974.912 143.742C973.729 143.742 972.832 144.176 972.223 145.043C971.625 145.898 971.326 147.293 971.326 149.227V149.754C971.326 151.711 971.625 153.117 972.223 153.973C972.82 154.828 973.729 155.256 974.947 155.256ZM990.768 142.055C992.115 140.438 993.809 139.629 995.848 139.629C999.973 139.629 1002.06 142.025 1002.12 146.818V159H997.043V146.959C997.043 145.869 996.809 145.066 996.34 144.551C995.871 144.023 995.092 143.76 994.002 143.76C992.514 143.76 991.436 144.334 990.768 145.482V159H985.688V132H990.768V142.055ZM1034.62 133.406V150.264C1034.62 153.064 1033.75 155.279 1031.99 156.908C1030.24 158.537 1027.85 159.352 1024.82 159.352C1021.83 159.352 1019.46 158.561 1017.7 156.979C1015.94 155.396 1015.04 153.223 1015.01 150.457V133.406H1020.28V150.299C1020.28 151.975 1020.68 153.199 1021.48 153.973C1022.29 154.734 1023.4 155.115 1024.82 155.115C1027.78 155.115 1029.29 153.557 1029.33 150.439V133.406H1034.62ZM1048.92 153.744C1048.92 153.123 1048.61 152.637 1047.98 152.285C1047.38 151.922 1046.39 151.6 1045.03 151.318C1040.51 150.369 1038.25 148.447 1038.25 145.553C1038.25 143.865 1038.94 142.459 1040.34 141.334C1041.74 140.197 1043.58 139.629 1045.84 139.629C1048.25 139.629 1050.18 140.197 1051.62 141.334C1053.08 142.471 1053.8 143.947 1053.8 145.764H1048.72C1048.72 145.037 1048.49 144.439 1048.02 143.971C1047.55 143.49 1046.82 143.25 1045.82 143.25C1044.97 143.25 1044.3 143.443 1043.84 143.83C1043.37 144.217 1043.13 144.709 1043.13 145.307C1043.13 145.869 1043.4 146.326 1043.92 146.678C1044.46 147.018 1045.37 147.316 1046.63 147.574C1047.9 147.82 1048.96 148.102 1049.83 148.418C1052.51 149.402 1053.86 151.107 1053.86 153.533C1053.86 155.268 1053.11 156.674 1051.62 157.752C1050.13 158.818 1048.21 159.352 1045.86 159.352C1044.26 159.352 1042.85 159.07 1041.6 158.508C1040.37 157.934 1039.41 157.154 1038.7 156.17C1038 155.174 1037.65 154.102 1037.65 152.953H1042.46C1042.51 153.855 1042.85 154.547 1043.47 155.027C1044.09 155.508 1044.92 155.748 1045.96 155.748C1046.94 155.748 1047.67 155.566 1048.16 155.203C1048.66 154.828 1048.92 154.342 1048.92 153.744ZM1062.31 151.143H1058.09L1057.49 133.406H1062.91L1062.31 151.143ZM1060.2 153.92C1061.06 153.92 1061.74 154.172 1062.26 154.676C1062.79 155.18 1063.05 155.824 1063.05 156.609C1063.05 157.383 1062.79 158.021 1062.26 158.525C1061.74 159.029 1061.06 159.281 1060.2 159.281C1059.36 159.281 1058.67 159.029 1058.14 158.525C1057.63 158.021 1057.37 157.383 1057.37 156.609C1057.37 155.836 1057.63 155.197 1058.14 154.693C1058.67 154.178 1059.36 153.92 1060.2 153.92Z" fill="white"/>
</g>
<defs>
<clipPath id="clip0">
<rect width="1195" height="410" fill="white"/>
</clipPath>
</defs>
</svg>
