<svg width="1195" height="410" viewBox="0 0 1195 410" fill="none" xmlns="http://www.w3.org/2000/svg">
<g clip-path="url(#clip0)">
<rect width="1195" height="410" fill="white"/>
<rect y="-12" width="855" height="450" fill="#3530FD"/>
<path d="M641.856 450C488.317 298.163 543.301 106.258 618.514 -5.5102L1213.74 -46L1228 441.143L641.856 450Z" fill="#21264D"/>
<path d="M119.406 104.5L124.141 94.25H129.266L121.797 108.75V117H117.031V108.75L109.562 94.25H114.703L119.406 104.5ZM129.312 108.391C129.312 106.714 129.635 105.219 130.281 103.906C130.927 102.594 131.854 101.578 133.062 100.859C134.281 100.141 135.693 99.7812 137.297 99.7812C139.578 99.7812 141.438 100.479 142.875 101.875C144.323 103.271 145.13 105.167 145.297 107.562L145.328 108.719C145.328 111.312 144.604 113.396 143.156 114.969C141.708 116.531 139.766 117.312 137.328 117.312C134.891 117.312 132.943 116.531 131.484 114.969C130.036 113.406 129.312 111.281 129.312 108.594V108.391ZM133.828 108.719C133.828 110.323 134.13 111.552 134.734 112.406C135.339 113.25 136.203 113.672 137.328 113.672C138.422 113.672 139.276 113.255 139.891 112.422C140.505 111.578 140.812 110.234 140.812 108.391C140.812 106.818 140.505 105.599 139.891 104.734C139.276 103.87 138.411 103.438 137.297 103.438C136.193 103.438 135.339 103.87 134.734 104.734C134.13 105.589 133.828 106.917 133.828 108.719ZM158.234 115.281C157.12 116.635 155.578 117.312 153.609 117.312C151.797 117.312 150.411 116.792 149.453 115.75C148.505 114.708 148.021 113.182 148 111.172V100.094H152.516V111.016C152.516 112.776 153.318 113.656 154.922 113.656C156.453 113.656 157.505 113.125 158.078 112.062V100.094H162.609V117H158.359L158.234 115.281ZM181.016 113.672C181.849 113.672 182.526 113.443 183.047 112.984C183.568 112.526 183.839 111.917 183.859 111.156H188.094C188.083 112.302 187.771 113.354 187.156 114.312C186.542 115.26 185.698 116 184.625 116.531C183.562 117.052 182.385 117.312 181.094 117.312C178.677 117.312 176.771 116.547 175.375 115.016C173.979 113.474 173.281 111.349 173.281 108.641V108.344C173.281 105.74 173.974 103.661 175.359 102.109C176.745 100.557 178.646 99.7812 181.062 99.7812C183.177 99.7812 184.87 100.385 186.141 101.594C187.422 102.792 188.073 104.391 188.094 106.391H183.859C183.839 105.516 183.568 104.807 183.047 104.266C182.526 103.714 181.839 103.438 180.984 103.438C179.932 103.438 179.135 103.823 178.594 104.594C178.062 105.354 177.797 106.594 177.797 108.312V108.781C177.797 110.521 178.062 111.771 178.594 112.531C179.125 113.292 179.932 113.672 181.016 113.672ZM200.172 104.328C199.557 104.245 199.016 104.203 198.547 104.203C196.839 104.203 195.719 104.781 195.188 105.938V117H190.672V100.094H194.938L195.062 102.109C195.969 100.557 197.224 99.7812 198.828 99.7812C199.328 99.7812 199.797 99.849 200.234 99.9844L200.172 104.328ZM209.828 117.312C207.349 117.312 205.328 116.552 203.766 115.031C202.214 113.51 201.438 111.484 201.438 108.953V108.516C201.438 106.818 201.766 105.302 202.422 103.969C203.078 102.625 204.005 101.594 205.203 100.875C206.411 100.146 207.786 99.7812 209.328 99.7812C211.641 99.7812 213.458 100.51 214.781 101.969C216.115 103.427 216.781 105.495 216.781 108.172V110.016H206.016C206.161 111.12 206.599 112.005 207.328 112.672C208.068 113.339 209 113.672 210.125 113.672C211.865 113.672 213.224 113.042 214.203 111.781L216.422 114.266C215.745 115.224 214.828 115.974 213.672 116.516C212.516 117.047 211.234 117.312 209.828 117.312ZM209.312 103.438C208.417 103.438 207.688 103.74 207.125 104.344C206.573 104.948 206.219 105.812 206.062 106.938H212.344V106.578C212.323 105.578 212.052 104.807 211.531 104.266C211.01 103.714 210.271 103.438 209.312 103.438ZM229.156 117C228.948 116.594 228.797 116.089 228.703 115.484C227.609 116.703 226.188 117.312 224.438 117.312C222.781 117.312 221.406 116.833 220.312 115.875C219.229 114.917 218.688 113.708 218.688 112.25C218.688 110.458 219.349 109.083 220.672 108.125C222.005 107.167 223.927 106.682 226.438 106.672H228.516V105.703C228.516 104.922 228.312 104.297 227.906 103.828C227.51 103.359 226.88 103.125 226.016 103.125C225.255 103.125 224.656 103.307 224.219 103.672C223.792 104.036 223.578 104.536 223.578 105.172H219.062C219.062 104.193 219.365 103.286 219.969 102.453C220.573 101.62 221.427 100.969 222.531 100.5C223.635 100.021 224.875 99.7812 226.25 99.7812C228.333 99.7812 229.984 100.307 231.203 101.359C232.432 102.401 233.047 103.87 233.047 105.766V113.094C233.057 114.698 233.281 115.911 233.719 116.734V117H229.156ZM225.422 113.859C226.089 113.859 226.703 113.714 227.266 113.422C227.828 113.12 228.245 112.719 228.516 112.219V109.312H226.828C224.568 109.312 223.365 110.094 223.219 111.656L223.203 111.922C223.203 112.484 223.401 112.948 223.797 113.312C224.193 113.677 224.734 113.859 225.422 113.859ZM241.922 95.9375V100.094H244.812V103.406H241.922V111.844C241.922 112.469 242.042 112.917 242.281 113.188C242.521 113.458 242.979 113.594 243.656 113.594C244.156 113.594 244.599 113.557 244.984 113.484V116.906C244.099 117.177 243.188 117.312 242.25 117.312C239.083 117.312 237.469 115.714 237.406 112.516V103.406H234.938V100.094H237.406V95.9375H241.922ZM255.109 117.312C252.63 117.312 250.609 116.552 249.047 115.031C247.495 113.51 246.719 111.484 246.719 108.953V108.516C246.719 106.818 247.047 105.302 247.703 103.969C248.359 102.625 249.286 101.594 250.484 100.875C251.693 100.146 253.068 99.7812 254.609 99.7812C256.922 99.7812 258.74 100.51 260.062 101.969C261.396 103.427 262.062 105.495 262.062 108.172V110.016H251.297C251.443 111.12 251.88 112.005 252.609 112.672C253.349 113.339 254.281 113.672 255.406 113.672C257.146 113.672 258.505 113.042 259.484 111.781L261.703 114.266C261.026 115.224 260.109 115.974 258.953 116.516C257.797 117.047 256.516 117.312 255.109 117.312ZM254.594 103.438C253.698 103.438 252.969 103.74 252.406 104.344C251.854 104.948 251.5 105.812 251.344 106.938H257.625V106.578C257.604 105.578 257.333 104.807 256.812 104.266C256.292 103.714 255.552 103.438 254.594 103.438ZM265.812 122.703L263.453 121.469L264.016 120.453C264.714 119.182 265.073 117.917 265.094 116.656V113.156H268.906L268.891 116.281C268.88 117.438 268.589 118.604 268.016 119.781C267.443 120.958 266.708 121.932 265.812 122.703ZM295.125 110.859L297.344 100.094H301.703L297.391 117H293.609L290.406 106.359L287.203 117H283.438L279.125 100.094H283.484L285.688 110.844L288.781 100.094H292.047L295.125 110.859ZM311.734 117.312C309.255 117.312 307.234 116.552 305.672 115.031C304.12 113.51 303.344 111.484 303.344 108.953V108.516C303.344 106.818 303.672 105.302 304.328 103.969C304.984 102.625 305.911 101.594 307.109 100.875C308.318 100.146 309.693 99.7812 311.234 99.7812C313.547 99.7812 315.365 100.51 316.688 101.969C318.021 103.427 318.688 105.495 318.688 108.172V110.016H307.922C308.068 111.12 308.505 112.005 309.234 112.672C309.974 113.339 310.906 113.672 312.031 113.672C313.771 113.672 315.13 113.042 316.109 111.781L318.328 114.266C317.651 115.224 316.734 115.974 315.578 116.516C314.422 117.047 313.141 117.312 311.734 117.312ZM311.219 103.438C310.323 103.438 309.594 103.74 309.031 104.344C308.479 104.948 308.125 105.812 307.969 106.938H314.25V106.578C314.229 105.578 313.958 104.807 313.438 104.266C312.917 103.714 312.177 103.438 311.219 103.438ZM338.391 112.328C338.391 111.776 338.115 111.344 337.562 111.031C337.021 110.708 336.146 110.422 334.938 110.172C330.917 109.328 328.906 107.62 328.906 105.047C328.906 103.547 329.526 102.297 330.766 101.297C332.016 100.286 333.646 99.7812 335.656 99.7812C337.802 99.7812 339.516 100.286 340.797 101.297C342.089 102.307 342.734 103.62 342.734 105.234H338.219C338.219 104.589 338.01 104.057 337.594 103.641C337.177 103.214 336.526 103 335.641 103C334.88 103 334.292 103.172 333.875 103.516C333.458 103.859 333.25 104.297 333.25 104.828C333.25 105.328 333.484 105.734 333.953 106.047C334.432 106.349 335.234 106.615 336.359 106.844C337.484 107.062 338.432 107.312 339.203 107.594C341.589 108.469 342.781 109.984 342.781 112.141C342.781 113.682 342.12 114.932 340.797 115.891C339.474 116.839 337.766 117.312 335.672 117.312C334.255 117.312 332.995 117.062 331.891 116.562C330.797 116.052 329.938 115.359 329.312 114.484C328.688 113.599 328.375 112.646 328.375 111.625H332.656C332.698 112.427 332.995 113.042 333.547 113.469C334.099 113.896 334.839 114.109 335.766 114.109C336.63 114.109 337.281 113.948 337.719 113.625C338.167 113.292 338.391 112.859 338.391 112.328ZM355.5 117C355.292 116.594 355.141 116.089 355.047 115.484C353.953 116.703 352.531 117.312 350.781 117.312C349.125 117.312 347.75 116.833 346.656 115.875C345.573 114.917 345.031 113.708 345.031 112.25C345.031 110.458 345.693 109.083 347.016 108.125C348.349 107.167 350.271 106.682 352.781 106.672H354.859V105.703C354.859 104.922 354.656 104.297 354.25 103.828C353.854 103.359 353.224 103.125 352.359 103.125C351.599 103.125 351 103.307 350.562 103.672C350.135 104.036 349.922 104.536 349.922 105.172H345.406C345.406 104.193 345.708 103.286 346.312 102.453C346.917 101.62 347.771 100.969 348.875 100.5C349.979 100.021 351.219 99.7812 352.594 99.7812C354.677 99.7812 356.328 100.307 357.547 101.359C358.776 102.401 359.391 103.87 359.391 105.766V113.094C359.401 114.698 359.625 115.911 360.062 116.734V117H355.5ZM351.766 113.859C352.432 113.859 353.047 113.714 353.609 113.422C354.172 113.12 354.589 112.719 354.859 112.219V109.312H353.172C350.911 109.312 349.708 110.094 349.562 111.656L349.547 111.922C349.547 112.484 349.745 112.948 350.141 113.312C350.536 113.677 351.078 113.859 351.766 113.859ZM368.938 111.484L372.078 100.094H376.797L371.094 117H366.781L361.078 100.094H365.797L368.938 111.484ZM386.359 117.312C383.88 117.312 381.859 116.552 380.297 115.031C378.745 113.51 377.969 111.484 377.969 108.953V108.516C377.969 106.818 378.297 105.302 378.953 103.969C379.609 102.625 380.536 101.594 381.734 100.875C382.943 100.146 384.318 99.7812 385.859 99.7812C388.172 99.7812 389.99 100.51 391.312 101.969C392.646 103.427 393.312 105.495 393.312 108.172V110.016H382.547C382.693 111.12 383.13 112.005 383.859 112.672C384.599 113.339 385.531 113.672 386.656 113.672C388.396 113.672 389.755 113.042 390.734 111.781L392.953 114.266C392.276 115.224 391.359 115.974 390.203 116.516C389.047 117.047 387.766 117.312 386.359 117.312ZM385.844 103.438C384.948 103.438 384.219 103.74 383.656 104.344C383.104 104.948 382.75 105.812 382.594 106.938H388.875V106.578C388.854 105.578 388.583 104.807 388.062 104.266C387.542 103.714 386.802 103.438 385.844 103.438ZM396.125 114.781C396.125 114.062 396.365 113.479 396.844 113.031C397.333 112.583 397.943 112.359 398.672 112.359C399.411 112.359 400.021 112.583 400.5 113.031C400.99 113.479 401.234 114.062 401.234 114.781C401.234 115.49 400.995 116.068 400.516 116.516C400.036 116.953 399.422 117.172 398.672 117.172C397.932 117.172 397.323 116.953 396.844 116.516C396.365 116.068 396.125 115.49 396.125 114.781Z" fill="black"/>
<path d="M123.441 161.093H116.878V168H114.815V152.359H124.505V154.057H116.878V159.406H123.441V161.093ZM128.823 168H126.836V156.377H128.823V168ZM126.675 153.294C126.675 152.972 126.771 152.7 126.965 152.478C127.165 152.256 127.459 152.145 127.846 152.145C128.232 152.145 128.526 152.256 128.727 152.478C128.927 152.7 129.027 152.972 129.027 153.294C129.027 153.616 128.927 153.885 128.727 154.1C128.526 154.314 128.232 154.422 127.846 154.422C127.459 154.422 127.165 154.314 126.965 154.1C126.771 153.885 126.675 153.616 126.675 153.294ZM133.894 156.377L133.958 157.838C134.846 156.721 136.006 156.162 137.438 156.162C139.895 156.162 141.134 157.548 141.155 160.319V168H139.168V160.309C139.161 159.471 138.967 158.851 138.588 158.45C138.215 158.049 137.632 157.849 136.837 157.849C136.192 157.849 135.627 158.021 135.14 158.364C134.653 158.708 134.273 159.159 134.001 159.718V168H132.014V156.377H133.894ZM143.669 162.092C143.669 160.309 144.091 158.876 144.937 157.795C145.782 156.706 146.888 156.162 148.256 156.162C149.617 156.162 150.694 156.628 151.489 157.559V151.5H153.477V168H151.65L151.554 166.754C150.759 167.728 149.652 168.215 148.234 168.215C146.888 168.215 145.789 167.663 144.937 166.561C144.091 165.458 143.669 164.018 143.669 162.242V162.092ZM145.656 162.317C145.656 163.635 145.928 164.666 146.473 165.411C147.017 166.156 147.769 166.528 148.729 166.528C149.989 166.528 150.909 165.963 151.489 164.831V159.492C150.895 158.396 149.982 157.849 148.75 157.849C147.776 157.849 147.017 158.225 146.473 158.977C145.928 159.729 145.656 160.842 145.656 162.317ZM165.83 165.089L168.537 156.377H170.664L165.991 169.794C165.268 171.728 164.118 172.694 162.543 172.694L162.167 172.662L161.426 172.522V170.911L161.963 170.954C162.636 170.954 163.159 170.818 163.531 170.546C163.911 170.274 164.222 169.776 164.466 169.053L164.906 167.871L160.76 156.377H162.93L165.83 165.089ZM171.749 162.081C171.749 160.942 171.971 159.918 172.415 159.009C172.866 158.099 173.489 157.397 174.284 156.903C175.086 156.409 175.999 156.162 177.023 156.162C178.606 156.162 179.884 156.71 180.858 157.806C181.84 158.901 182.33 160.359 182.33 162.178V162.317C182.33 163.449 182.112 164.466 181.675 165.368C181.245 166.263 180.626 166.962 179.816 167.463C179.014 167.964 178.09 168.215 177.045 168.215C175.469 168.215 174.191 167.667 173.21 166.571C172.236 165.476 171.749 164.025 171.749 162.221V162.081ZM173.747 162.317C173.747 163.606 174.044 164.641 174.639 165.422C175.24 166.202 176.042 166.593 177.045 166.593C178.055 166.593 178.857 166.199 179.451 165.411C180.046 164.616 180.343 163.506 180.343 162.081C180.343 160.806 180.038 159.775 179.43 158.987C178.828 158.192 178.026 157.795 177.023 157.795C176.042 157.795 175.251 158.185 174.649 158.966C174.048 159.746 173.747 160.864 173.747 162.317ZM191.998 166.851C191.225 167.76 190.09 168.215 188.593 168.215C187.354 168.215 186.409 167.857 185.757 167.141C185.112 166.417 184.786 165.35 184.779 163.939V156.377H186.767V163.886C186.767 165.647 187.483 166.528 188.915 166.528C190.433 166.528 191.443 165.963 191.944 164.831V156.377H193.932V168H192.041L191.998 166.851ZM202.579 158.16C202.278 158.11 201.952 158.085 201.602 158.085C200.298 158.085 199.414 158.64 198.948 159.75V168H196.961V156.377H198.895L198.927 157.72C199.578 156.681 200.502 156.162 201.698 156.162C202.085 156.162 202.379 156.212 202.579 156.312V158.16ZM212.032 168H210.045V151.5H212.032V168ZM214.696 162.081C214.696 160.942 214.918 159.918 215.362 159.009C215.813 158.099 216.437 157.397 217.231 156.903C218.034 156.409 218.947 156.162 219.971 156.162C221.553 156.162 222.832 156.71 223.806 157.806C224.787 158.901 225.277 160.359 225.277 162.178V162.317C225.277 163.449 225.059 164.466 224.622 165.368C224.192 166.263 223.573 166.962 222.764 167.463C221.962 167.964 221.038 168.215 219.992 168.215C218.417 168.215 217.138 167.667 216.157 166.571C215.183 165.476 214.696 164.025 214.696 162.221V162.081ZM216.694 162.317C216.694 163.606 216.992 164.641 217.586 165.422C218.188 166.202 218.99 166.593 219.992 166.593C221.002 166.593 221.804 166.199 222.398 165.411C222.993 164.616 223.29 163.506 223.29 162.081C223.29 160.806 222.986 159.775 222.377 158.987C221.775 158.192 220.973 157.795 219.971 157.795C218.99 157.795 218.198 158.185 217.597 158.966C216.995 159.746 216.694 160.864 216.694 162.317ZM227.297 162.092C227.297 160.28 227.716 158.84 228.554 157.773C229.392 156.699 230.502 156.162 231.884 156.162C233.302 156.162 234.408 156.663 235.203 157.666L235.3 156.377H237.115V167.721C237.115 169.225 236.668 170.41 235.772 171.276C234.884 172.143 233.688 172.576 232.185 172.576C231.347 172.576 230.527 172.397 229.725 172.039C228.923 171.681 228.31 171.19 227.888 170.567L228.919 169.375C229.771 170.428 230.813 170.954 232.045 170.954C233.012 170.954 233.764 170.682 234.301 170.138C234.845 169.593 235.117 168.827 235.117 167.839V166.84C234.322 167.757 233.237 168.215 231.862 168.215C230.502 168.215 229.399 167.667 228.554 166.571C227.716 165.476 227.297 163.982 227.297 162.092ZM229.295 162.317C229.295 163.628 229.563 164.659 230.101 165.411C230.638 166.156 231.39 166.528 232.356 166.528C233.61 166.528 234.53 165.959 235.117 164.82V159.514C234.508 158.404 233.595 157.849 232.378 157.849C231.411 157.849 230.656 158.225 230.111 158.977C229.567 159.729 229.295 160.842 229.295 162.317ZM239.597 162.081C239.597 160.942 239.819 159.918 240.263 159.009C240.714 158.099 241.337 157.397 242.132 156.903C242.934 156.409 243.847 156.162 244.871 156.162C246.454 156.162 247.732 156.71 248.706 157.806C249.687 158.901 250.178 160.359 250.178 162.178V162.317C250.178 163.449 249.959 164.466 249.522 165.368C249.093 166.263 248.473 166.962 247.664 167.463C246.862 167.964 245.938 168.215 244.893 168.215C243.317 168.215 242.039 167.667 241.058 166.571C240.084 165.476 239.597 164.025 239.597 162.221V162.081ZM241.595 162.317C241.595 163.606 241.892 164.641 242.486 165.422C243.088 166.202 243.89 166.593 244.893 166.593C245.902 166.593 246.704 166.199 247.299 165.411C247.893 164.616 248.19 163.506 248.19 162.081C248.19 160.806 247.886 159.775 247.277 158.987C246.676 158.192 245.874 157.795 244.871 157.795C243.89 157.795 243.099 158.185 242.497 158.966C241.896 159.746 241.595 160.864 241.595 162.317ZM260.286 168H258.299V156.377H260.286V168ZM258.138 153.294C258.138 152.972 258.234 152.7 258.428 152.478C258.628 152.256 258.922 152.145 259.309 152.145C259.695 152.145 259.989 152.256 260.189 152.478C260.39 152.7 260.49 152.972 260.49 153.294C260.49 153.616 260.39 153.885 260.189 154.1C259.989 154.314 259.695 154.422 259.309 154.422C258.922 154.422 258.628 154.314 258.428 154.1C258.234 153.885 258.138 153.616 258.138 153.294ZM265.356 156.377L265.421 157.838C266.309 156.721 267.469 156.162 268.901 156.162C271.358 156.162 272.597 157.548 272.618 160.319V168H270.631V160.309C270.624 159.471 270.43 158.851 270.051 158.45C269.678 158.049 269.095 157.849 268.3 157.849C267.655 157.849 267.09 158.021 266.603 158.364C266.116 158.708 265.736 159.159 265.464 159.718V168H263.477V156.377H265.356ZM280.6 162.092C280.6 160.28 281.019 158.84 281.856 157.773C282.694 156.699 283.804 156.162 285.187 156.162C286.604 156.162 287.711 156.663 288.506 157.666L288.603 156.377H290.418V167.721C290.418 169.225 289.97 170.41 289.075 171.276C288.187 172.143 286.991 172.576 285.487 172.576C284.649 172.576 283.829 172.397 283.027 172.039C282.225 171.681 281.613 171.19 281.19 170.567L282.222 169.375C283.074 170.428 284.116 170.954 285.348 170.954C286.314 170.954 287.066 170.682 287.604 170.138C288.148 169.593 288.42 168.827 288.42 167.839V166.84C287.625 167.757 286.54 168.215 285.165 168.215C283.804 168.215 282.701 167.667 281.856 166.571C281.019 165.476 280.6 163.982 280.6 162.092ZM282.598 162.317C282.598 163.628 282.866 164.659 283.403 165.411C283.94 166.156 284.692 166.528 285.659 166.528C286.912 166.528 287.833 165.959 288.42 164.82V159.514C287.811 158.404 286.898 157.849 285.681 157.849C284.714 157.849 283.958 158.225 283.414 158.977C282.87 159.729 282.598 160.842 282.598 162.317ZM300.602 168C300.487 167.771 300.394 167.363 300.322 166.775C299.398 167.735 298.296 168.215 297.014 168.215C295.868 168.215 294.926 167.893 294.188 167.248C293.458 166.596 293.093 165.773 293.093 164.777C293.093 163.567 293.551 162.629 294.468 161.963C295.392 161.29 296.688 160.953 298.356 160.953H300.29V160.04C300.29 159.345 300.082 158.794 299.667 158.386C299.252 157.97 298.639 157.763 297.83 157.763C297.121 157.763 296.527 157.942 296.047 158.3C295.567 158.658 295.327 159.091 295.327 159.6H293.329C293.329 159.02 293.533 158.461 293.941 157.924C294.357 157.38 294.915 156.95 295.617 156.635C296.326 156.32 297.103 156.162 297.948 156.162C299.287 156.162 300.337 156.499 301.096 157.172C301.855 157.838 302.249 158.758 302.277 159.933V165.282C302.277 166.349 302.413 167.198 302.686 167.828V168H300.602ZM297.304 166.485C297.927 166.485 298.518 166.324 299.076 166.002C299.635 165.68 300.039 165.261 300.29 164.745V162.36H298.732C296.298 162.36 295.08 163.073 295.08 164.498C295.08 165.121 295.288 165.608 295.703 165.959C296.118 166.31 296.652 166.485 297.304 166.485ZM307.552 168H305.564V151.5H307.552V168ZM312.901 168H310.914V151.5H312.901V168ZM320.915 168.215C319.34 168.215 318.058 167.699 317.069 166.668C316.081 165.63 315.587 164.244 315.587 162.511V162.146C315.587 160.993 315.805 159.965 316.242 159.062C316.686 158.153 317.302 157.444 318.09 156.936C318.885 156.42 319.744 156.162 320.668 156.162C322.179 156.162 323.354 156.66 324.191 157.655C325.029 158.651 325.448 160.076 325.448 161.931V162.758H317.574C317.603 163.904 317.936 164.831 318.573 165.54C319.218 166.242 320.034 166.593 321.022 166.593C321.724 166.593 322.319 166.45 322.806 166.163C323.293 165.877 323.719 165.497 324.084 165.024L325.298 165.97C324.324 167.466 322.863 168.215 320.915 168.215ZM320.668 157.795C319.866 157.795 319.193 158.089 318.648 158.676C318.104 159.256 317.768 160.072 317.639 161.125H323.461V160.975C323.404 159.965 323.132 159.184 322.645 158.633C322.158 158.074 321.499 157.795 320.668 157.795ZM333.376 158.16C333.075 158.11 332.749 158.085 332.398 158.085C331.095 158.085 330.211 158.64 329.745 159.75V168H327.758V156.377H329.691L329.724 157.72C330.375 156.681 331.299 156.162 332.495 156.162C332.882 156.162 333.175 156.212 333.376 156.312V158.16ZM339.209 165.089L341.916 156.377H344.043L339.37 169.794C338.647 171.728 337.497 172.694 335.922 172.694L335.546 172.662L334.805 172.522V170.911L335.342 170.954C336.015 170.954 336.538 170.818 336.91 170.546C337.29 170.274 337.601 169.776 337.845 169.053L338.285 167.871L334.139 156.377H336.309L339.209 165.089ZM350.757 162.081C350.757 160.942 350.979 159.918 351.423 159.009C351.874 158.099 352.497 157.397 353.292 156.903C354.094 156.409 355.007 156.162 356.031 156.162C357.614 156.162 358.892 156.71 359.866 157.806C360.847 158.901 361.338 160.359 361.338 162.178V162.317C361.338 163.449 361.119 164.466 360.683 165.368C360.253 166.263 359.633 166.962 358.824 167.463C358.022 167.964 357.098 168.215 356.053 168.215C354.477 168.215 353.199 167.667 352.218 166.571C351.244 165.476 350.757 164.025 350.757 162.221V162.081ZM352.755 162.317C352.755 163.606 353.052 164.641 353.646 165.422C354.248 166.202 355.05 166.593 356.053 166.593C357.062 166.593 357.865 166.199 358.459 165.411C359.053 164.616 359.351 163.506 359.351 162.081C359.351 160.806 359.046 159.775 358.438 158.987C357.836 158.192 357.034 157.795 356.031 157.795C355.05 157.795 354.259 158.185 353.657 158.966C353.056 159.746 352.755 160.864 352.755 162.317ZM365.71 156.377L365.774 157.838C366.662 156.721 367.823 156.162 369.255 156.162C371.711 156.162 372.95 157.548 372.972 160.319V168H370.984V160.309C370.977 159.471 370.784 158.851 370.404 158.45C370.032 158.049 369.448 157.849 368.653 157.849C368.009 157.849 367.443 158.021 366.956 158.364C366.469 158.708 366.09 159.159 365.817 159.718V168H363.83V156.377H365.71ZM380.899 162.081C380.899 160.942 381.121 159.918 381.565 159.009C382.017 158.099 382.64 157.397 383.435 156.903C384.237 156.409 385.15 156.162 386.174 156.162C387.757 156.162 389.035 156.71 390.009 157.806C390.99 158.901 391.48 160.359 391.48 162.178V162.317C391.48 163.449 391.262 164.466 390.825 165.368C390.396 166.263 389.776 166.962 388.967 167.463C388.165 167.964 387.241 168.215 386.195 168.215C384.62 168.215 383.341 167.667 382.36 166.571C381.386 165.476 380.899 164.025 380.899 162.221V162.081ZM382.897 162.317C382.897 163.606 383.195 164.641 383.789 165.422C384.391 166.202 385.193 166.593 386.195 166.593C387.205 166.593 388.007 166.199 388.602 165.411C389.196 164.616 389.493 163.506 389.493 162.081C389.493 160.806 389.189 159.775 388.58 158.987C387.979 158.192 387.176 157.795 386.174 157.795C385.193 157.795 384.401 158.185 383.8 158.966C383.198 159.746 382.897 160.864 382.897 162.317ZM401.148 166.851C400.375 167.76 399.24 168.215 397.743 168.215C396.504 168.215 395.559 167.857 394.907 167.141C394.263 166.417 393.937 165.35 393.93 163.939V156.377H395.917V163.886C395.917 165.647 396.633 166.528 398.065 166.528C399.584 166.528 400.593 165.963 401.095 164.831V156.377H403.082V168H401.191L401.148 166.851ZM411.729 158.16C411.429 158.11 411.103 158.085 410.752 158.085C409.449 158.085 408.564 158.64 408.099 159.75V168H406.111V156.377H408.045L408.077 157.72C408.729 156.681 409.653 156.162 410.849 156.162C411.235 156.162 411.529 156.212 411.729 156.312V158.16ZM429.314 165.261L431.549 156.377H433.536L430.152 168H428.541L425.716 159.191L422.966 168H421.354L417.981 156.377H419.958L422.246 165.078L424.953 156.377H426.554L429.314 165.261ZM440.39 168.215C438.814 168.215 437.532 167.699 436.544 166.668C435.556 165.63 435.062 164.244 435.062 162.511V162.146C435.062 160.993 435.28 159.965 435.717 159.062C436.161 158.153 436.777 157.444 437.564 156.936C438.359 156.42 439.219 156.162 440.143 156.162C441.654 156.162 442.828 156.66 443.666 157.655C444.504 158.651 444.923 160.076 444.923 161.931V162.758H437.049C437.077 163.904 437.41 164.831 438.048 165.54C438.692 166.242 439.509 166.593 440.497 166.593C441.199 166.593 441.793 166.45 442.28 166.163C442.767 165.877 443.193 165.497 443.559 165.024L444.772 165.97C443.799 167.466 442.338 168.215 440.39 168.215ZM440.143 157.795C439.34 157.795 438.667 158.089 438.123 158.676C437.579 159.256 437.242 160.072 437.113 161.125H442.936V160.975C442.878 159.965 442.606 159.184 442.119 158.633C441.632 158.074 440.973 157.795 440.143 157.795ZM457.072 162.317C457.072 164.093 456.664 165.522 455.848 166.604C455.031 167.678 453.936 168.215 452.561 168.215C451.092 168.215 449.957 167.696 449.155 166.657L449.059 168H447.232V151.5H449.22V157.655C450.022 156.66 451.128 156.162 452.539 156.162C453.95 156.162 455.056 156.696 455.858 157.763C456.668 158.83 457.072 160.291 457.072 162.146V162.317ZM455.085 162.092C455.085 160.738 454.824 159.693 454.301 158.955C453.778 158.217 453.026 157.849 452.045 157.849C450.734 157.849 449.793 158.457 449.22 159.675V164.702C449.828 165.92 450.777 166.528 452.066 166.528C453.019 166.528 453.76 166.16 454.29 165.422C454.82 164.684 455.085 163.574 455.085 162.092ZM466.354 164.917C466.354 164.38 466.149 163.965 465.741 163.671C465.34 163.37 464.635 163.112 463.625 162.897C462.622 162.683 461.824 162.425 461.229 162.124C460.642 161.823 460.205 161.465 459.919 161.05C459.64 160.634 459.5 160.14 459.5 159.567C459.5 158.615 459.901 157.809 460.703 157.15C461.512 156.492 462.544 156.162 463.797 156.162C465.115 156.162 466.182 156.502 466.998 157.183C467.822 157.863 468.233 158.733 468.233 159.793H466.235C466.235 159.249 466.003 158.78 465.537 158.386C465.079 157.992 464.499 157.795 463.797 157.795C463.074 157.795 462.508 157.952 462.1 158.268C461.691 158.583 461.487 158.994 461.487 159.503C461.487 159.983 461.677 160.344 462.057 160.588C462.436 160.831 463.12 161.064 464.108 161.286C465.104 161.508 465.91 161.773 466.525 162.081C467.141 162.389 467.596 162.761 467.89 163.198C468.19 163.628 468.341 164.154 468.341 164.777C468.341 165.816 467.925 166.65 467.095 167.28C466.264 167.903 465.186 168.215 463.861 168.215C462.93 168.215 462.107 168.05 461.391 167.721C460.674 167.391 460.112 166.933 459.704 166.346C459.303 165.751 459.103 165.11 459.103 164.423H461.09C461.126 165.089 461.391 165.619 461.885 166.013C462.386 166.399 463.045 166.593 463.861 166.593C464.613 166.593 465.215 166.442 465.666 166.142C466.124 165.834 466.354 165.425 466.354 164.917ZM473.089 168H471.102V156.377H473.089V168ZM470.94 153.294C470.94 152.972 471.037 152.7 471.23 152.478C471.431 152.256 471.725 152.145 472.111 152.145C472.498 152.145 472.792 152.256 472.992 152.478C473.193 152.7 473.293 152.972 473.293 153.294C473.293 153.616 473.193 153.885 472.992 154.1C472.792 154.314 472.498 154.422 472.111 154.422C471.725 154.422 471.431 154.314 471.23 154.1C471.037 153.885 470.94 153.616 470.94 153.294ZM478.976 153.562V156.377H481.146V157.913H478.976V165.121C478.976 165.587 479.072 165.938 479.266 166.174C479.459 166.403 479.788 166.518 480.254 166.518C480.483 166.518 480.798 166.475 481.199 166.389V168C480.676 168.143 480.168 168.215 479.674 168.215C478.786 168.215 478.116 167.946 477.665 167.409C477.214 166.872 476.988 166.109 476.988 165.121V157.913H474.872V156.377H476.988V153.562H478.976ZM488.3 168.215C486.724 168.215 485.442 167.699 484.454 166.668C483.466 165.63 482.972 164.244 482.972 162.511V162.146C482.972 160.993 483.19 159.965 483.627 159.062C484.071 158.153 484.687 157.444 485.475 156.936C486.27 156.42 487.129 156.162 488.053 156.162C489.564 156.162 490.738 156.66 491.576 157.655C492.414 158.651 492.833 160.076 492.833 161.931V162.758H484.959C484.988 163.904 485.321 164.831 485.958 165.54C486.603 166.242 487.419 166.593 488.407 166.593C489.109 166.593 489.703 166.45 490.19 166.163C490.677 165.877 491.104 165.497 491.469 165.024L492.683 165.97C491.709 167.466 490.248 168.215 488.3 168.215ZM488.053 157.795C487.251 157.795 486.577 158.089 486.033 158.676C485.489 159.256 485.152 160.072 485.023 161.125H490.846V160.975C490.788 159.965 490.516 159.184 490.029 158.633C489.542 158.074 488.883 157.795 488.053 157.795ZM495.078 171.115L493.95 170.342C494.623 169.404 494.974 168.437 495.003 167.441V165.647H496.947V167.205C496.947 167.928 496.768 168.652 496.41 169.375C496.059 170.098 495.615 170.678 495.078 171.115ZM121.68 194C121.565 193.771 121.472 193.363 121.4 192.775C120.477 193.735 119.374 194.215 118.092 194.215C116.946 194.215 116.004 193.893 115.267 193.248C114.536 192.596 114.171 191.773 114.171 190.777C114.171 189.567 114.629 188.629 115.546 187.963C116.47 187.29 117.766 186.953 119.435 186.953H121.368V186.04C121.368 185.345 121.16 184.794 120.745 184.386C120.33 183.97 119.717 183.763 118.908 183.763C118.199 183.763 117.605 183.942 117.125 184.3C116.645 184.658 116.405 185.091 116.405 185.6H114.407C114.407 185.02 114.611 184.461 115.02 183.924C115.435 183.38 115.993 182.95 116.695 182.635C117.404 182.32 118.181 182.162 119.026 182.162C120.366 182.162 121.415 182.499 122.174 183.172C122.933 183.838 123.327 184.758 123.355 185.933V191.282C123.355 192.349 123.492 193.198 123.764 193.828V194H121.68ZM118.382 192.485C119.005 192.485 119.596 192.324 120.154 192.002C120.713 191.68 121.118 191.261 121.368 190.745V188.36H119.811C117.376 188.36 116.158 189.073 116.158 190.498C116.158 191.121 116.366 191.608 116.781 191.959C117.197 192.31 117.73 192.485 118.382 192.485ZM128.351 182.377L128.415 183.838C129.303 182.721 130.463 182.162 131.896 182.162C134.352 182.162 135.591 183.548 135.612 186.319V194H133.625V186.309C133.618 185.471 133.424 184.851 133.045 184.45C132.673 184.049 132.089 183.849 131.294 183.849C130.649 183.849 130.084 184.021 129.597 184.364C129.11 184.708 128.73 185.159 128.458 185.718V194H126.471V182.377H128.351ZM142.412 191.089L145.119 182.377H147.246L142.573 195.794C141.85 197.728 140.701 198.694 139.125 198.694L138.749 198.662L138.008 198.522V196.911L138.545 196.954C139.218 196.954 139.741 196.818 140.113 196.546C140.493 196.274 140.804 195.776 141.048 195.053L141.488 193.871L137.342 182.377H139.512L142.412 191.089ZM151.726 179.562V182.377H153.896V183.913H151.726V191.121C151.726 191.587 151.822 191.938 152.016 192.174C152.209 192.403 152.538 192.518 153.004 192.518C153.233 192.518 153.548 192.475 153.949 192.389V194C153.426 194.143 152.918 194.215 152.424 194.215C151.536 194.215 150.866 193.946 150.415 193.409C149.964 192.872 149.738 192.109 149.738 191.121V183.913H147.622V182.377H149.738V179.562H151.726ZM158.386 194H156.398V182.377H158.386V194ZM156.237 179.294C156.237 178.972 156.334 178.7 156.527 178.478C156.728 178.256 157.021 178.145 157.408 178.145C157.795 178.145 158.089 178.256 158.289 178.478C158.49 178.7 158.59 178.972 158.59 179.294C158.59 179.616 158.49 179.885 158.289 180.1C158.089 180.314 157.795 180.422 157.408 180.422C157.021 180.422 156.728 180.314 156.527 180.1C156.334 179.885 156.237 179.616 156.237 179.294ZM163.445 182.377L163.499 183.666C164.351 182.663 165.501 182.162 166.947 182.162C168.573 182.162 169.679 182.785 170.267 184.031C170.653 183.473 171.155 183.021 171.771 182.678C172.394 182.334 173.128 182.162 173.973 182.162C176.522 182.162 177.818 183.512 177.861 186.212V194H175.874V186.33C175.874 185.499 175.684 184.88 175.305 184.472C174.925 184.056 174.288 183.849 173.393 183.849C172.655 183.849 172.043 184.071 171.556 184.515C171.069 184.951 170.786 185.542 170.707 186.287V194H168.709V186.384C168.709 184.694 167.882 183.849 166.228 183.849C164.924 183.849 164.033 184.404 163.553 185.514V194H161.565V182.377H163.445ZM185.692 194.215C184.117 194.215 182.835 193.699 181.847 192.668C180.858 191.63 180.364 190.244 180.364 188.511V188.146C180.364 186.993 180.583 185.965 181.02 185.062C181.464 184.153 182.079 183.444 182.867 182.936C183.662 182.42 184.521 182.162 185.445 182.162C186.956 182.162 188.131 182.66 188.969 183.655C189.807 184.651 190.226 186.076 190.226 187.931V188.758H182.352C182.38 189.904 182.713 190.831 183.351 191.54C183.995 192.242 184.812 192.593 185.8 192.593C186.502 192.593 187.096 192.45 187.583 192.163C188.07 191.877 188.496 191.497 188.861 191.024L190.075 191.97C189.101 193.466 187.64 194.215 185.692 194.215ZM185.445 183.795C184.643 183.795 183.97 184.089 183.426 184.676C182.882 185.256 182.545 186.072 182.416 187.125H188.238V186.975C188.181 185.965 187.909 185.184 187.422 184.633C186.935 184.074 186.276 183.795 185.445 183.795ZM192.471 197.115L191.343 196.342C192.016 195.404 192.367 194.437 192.396 193.441V191.647H194.34V193.205C194.34 193.928 194.161 194.652 193.803 195.375C193.452 196.098 193.008 196.678 192.471 197.115ZM204.029 194C203.915 193.771 203.822 193.363 203.75 192.775C202.826 193.735 201.723 194.215 200.441 194.215C199.296 194.215 198.354 193.893 197.616 193.248C196.886 192.596 196.521 191.773 196.521 190.777C196.521 189.567 196.979 188.629 197.896 187.963C198.819 187.29 200.116 186.953 201.784 186.953H203.718V186.04C203.718 185.345 203.51 184.794 203.095 184.386C202.679 183.97 202.067 183.763 201.258 183.763C200.549 183.763 199.954 183.942 199.475 184.3C198.995 184.658 198.755 185.091 198.755 185.6H196.757C196.757 185.02 196.961 184.461 197.369 183.924C197.785 183.38 198.343 182.95 199.045 182.635C199.754 182.32 200.531 182.162 201.376 182.162C202.715 182.162 203.764 182.499 204.523 183.172C205.283 183.838 205.676 184.758 205.705 185.933V191.282C205.705 192.349 205.841 193.198 206.113 193.828V194H204.029ZM200.731 192.485C201.354 192.485 201.945 192.324 202.504 192.002C203.062 191.68 203.467 191.261 203.718 190.745V188.36H202.16C199.725 188.36 198.508 189.073 198.508 190.498C198.508 191.121 198.715 191.608 199.131 191.959C199.546 192.31 200.08 192.485 200.731 192.485ZM210.7 182.377L210.765 183.838C211.653 182.721 212.813 182.162 214.245 182.162C216.701 182.162 217.94 183.548 217.962 186.319V194H215.975V186.309C215.967 185.471 215.774 184.851 215.395 184.45C215.022 184.049 214.438 183.849 213.644 183.849C212.999 183.849 212.433 184.021 211.946 184.364C211.459 184.708 211.08 185.159 210.808 185.718V194H208.82V182.377H210.7ZM224.762 191.089L227.469 182.377H229.596L224.923 195.794C224.2 197.728 223.05 198.694 221.475 198.694L221.099 198.662L220.357 198.522V196.911L220.895 196.954C221.568 196.954 222.09 196.818 222.463 196.546C222.842 196.274 223.154 195.776 223.397 195.053L223.838 193.871L219.691 182.377H221.861L224.762 191.089ZM241.67 191.261L243.904 182.377H245.892L242.508 194H240.896L238.071 185.191L235.321 194H233.71L230.337 182.377H232.313L234.602 191.078L237.309 182.377H238.909L241.67 191.261ZM249.909 183.784C250.79 182.703 251.936 182.162 253.347 182.162C255.803 182.162 257.042 183.548 257.063 186.319V194H255.076V186.309C255.069 185.471 254.876 184.851 254.496 184.45C254.124 184.049 253.54 183.849 252.745 183.849C252.101 183.849 251.535 184.021 251.048 184.364C250.561 184.708 250.181 185.159 249.909 185.718V194H247.922V177.5H249.909V183.784ZM264.862 194.215C263.287 194.215 262.005 193.699 261.017 192.668C260.028 191.63 259.534 190.244 259.534 188.511V188.146C259.534 186.993 259.753 185.965 260.189 185.062C260.633 184.153 261.249 183.444 262.037 182.936C262.832 182.42 263.691 182.162 264.615 182.162C266.126 182.162 267.301 182.66 268.139 183.655C268.977 184.651 269.396 186.076 269.396 187.931V188.758H261.521C261.55 189.904 261.883 190.831 262.521 191.54C263.165 192.242 263.981 192.593 264.97 192.593C265.672 192.593 266.266 192.45 266.753 192.163C267.24 191.877 267.666 191.497 268.031 191.024L269.245 191.97C268.271 193.466 266.81 194.215 264.862 194.215ZM264.615 183.795C263.813 183.795 263.14 184.089 262.596 184.676C262.051 185.256 261.715 186.072 261.586 187.125H267.408V186.975C267.351 185.965 267.079 185.184 266.592 184.633C266.105 184.074 265.446 183.795 264.615 183.795ZM277.323 184.16C277.022 184.11 276.697 184.085 276.346 184.085C275.042 184.085 274.158 184.64 273.692 185.75V194H271.705V182.377H273.639L273.671 183.72C274.323 182.681 275.246 182.162 276.442 182.162C276.829 182.162 277.123 182.212 277.323 182.312V184.16ZM283.769 194.215C282.193 194.215 280.911 193.699 279.923 192.668C278.935 191.63 278.44 190.244 278.44 188.511V188.146C278.44 186.993 278.659 185.965 279.096 185.062C279.54 184.153 280.156 183.444 280.943 182.936C281.738 182.42 282.598 182.162 283.521 182.162C285.033 182.162 286.207 182.66 287.045 183.655C287.883 184.651 288.302 186.076 288.302 187.931V188.758H280.428C280.456 189.904 280.789 190.831 281.427 191.54C282.071 192.242 282.888 192.593 283.876 192.593C284.578 192.593 285.172 192.45 285.659 192.163C286.146 191.877 286.572 191.497 286.938 191.024L288.151 191.97C287.177 193.466 285.716 194.215 283.769 194.215ZM283.521 183.795C282.719 183.795 282.046 184.089 281.502 184.676C280.958 185.256 280.621 186.072 280.492 187.125H286.314V186.975C286.257 185.965 285.985 185.184 285.498 184.633C285.011 184.074 284.352 183.795 283.521 183.795ZM290.654 192.958C290.654 192.614 290.755 192.328 290.955 192.099C291.163 191.869 291.471 191.755 291.879 191.755C292.287 191.755 292.595 191.869 292.803 192.099C293.018 192.328 293.125 192.614 293.125 192.958C293.125 193.287 293.018 193.563 292.803 193.785C292.595 194.007 292.287 194.118 291.879 194.118C291.471 194.118 291.163 194.007 290.955 193.785C290.755 193.563 290.654 193.287 290.654 192.958Z" fill="black"/>
<path d="M988.741 258.967L983.742 254.733L984.211 254.17L984.681 254.568C984.609 254.308 984.596 254.035 984.642 253.769C984.702 253.5 984.828 253.251 985.011 253.045C985.249 252.748 985.572 252.532 985.935 252.424C986.304 252.321 986.694 252.332 987.057 252.455C987.462 252.587 987.837 252.799 988.159 253.079C988.507 253.364 988.791 253.721 988.991 254.126C989.171 254.483 989.238 254.888 989.185 255.285C989.138 255.655 988.988 256.003 988.751 256.289C988.593 256.485 988.39 256.637 988.159 256.734C987.949 256.822 987.724 256.865 987.497 256.86L989.256 258.35L988.741 258.967ZM986.036 255.722C986.377 256.061 986.826 256.27 987.304 256.311C987.476 256.317 987.648 256.284 987.805 256.213C987.963 256.143 988.102 256.037 988.213 255.904C988.326 255.767 988.407 255.607 988.449 255.434C988.491 255.261 988.493 255.081 988.455 254.907C988.327 254.422 988.035 253.998 987.63 253.707C987.285 253.368 986.836 253.16 986.356 253.117C986.184 253.107 986.012 253.137 985.853 253.205C985.695 253.274 985.554 253.378 985.442 253.51C985.331 253.65 985.254 253.813 985.217 253.988C985.179 254.163 985.182 254.344 985.225 254.518C985.349 255.002 985.635 255.427 986.036 255.722Z" fill="#3F3D56"/>
<path d="M990.271 254.3L989.503 251.379L986.74 251.14L987.384 250.368L988.698 250.527C988.946 250.558 989.152 250.588 989.314 250.616C989.248 250.389 989.193 250.184 989.148 250.001L988.806 248.664L989.421 247.927L990.072 250.627L993.115 250.892L992.483 251.65L990.736 251.446L990.267 251.388L990.895 253.553L990.271 254.3Z" fill="#3F3D56"/>
<path d="M975.512 264.125L972.206 268.088L976.139 271.419L979.445 267.456L975.512 264.125Z" fill="#3F3D56"/>
<path d="M980.802 257.786L977.496 261.748L981.428 265.079L984.734 261.117L980.802 257.786Z" fill="#3F3D56"/>
<path d="M988.741 258.967L983.742 254.733L984.211 254.17L984.681 254.568C984.609 254.308 984.596 254.035 984.642 253.769C984.702 253.5 984.828 253.251 985.011 253.045C985.249 252.748 985.572 252.532 985.935 252.424C986.304 252.321 986.694 252.332 987.057 252.455C987.462 252.587 987.837 252.799 988.159 253.079C988.507 253.364 988.791 253.721 988.991 254.126C989.171 254.483 989.238 254.888 989.185 255.285C989.138 255.655 988.988 256.003 988.751 256.289C988.593 256.485 988.39 256.637 988.159 256.734C987.949 256.822 987.724 256.865 987.497 256.86L989.256 258.35L988.741 258.967ZM986.036 255.722C986.377 256.061 986.826 256.27 987.304 256.311C987.476 256.317 987.648 256.284 987.805 256.213C987.963 256.143 988.102 256.037 988.213 255.904C988.326 255.767 988.407 255.607 988.449 255.434C988.491 255.261 988.493 255.081 988.455 254.907C988.327 254.422 988.035 253.998 987.63 253.707C987.285 253.368 986.836 253.16 986.356 253.117C986.184 253.107 986.012 253.137 985.853 253.205C985.695 253.274 985.554 253.378 985.442 253.51C985.331 253.65 985.254 253.813 985.217 253.988C985.179 254.163 985.182 254.344 985.225 254.518C985.349 255.002 985.635 255.427 986.036 255.722Z" fill="#3F3D56"/>
<path d="M990.271 254.3L989.503 251.379L986.74 251.14L987.384 250.368L988.698 250.527C988.946 250.558 989.152 250.588 989.314 250.616C989.248 250.389 989.193 250.184 989.148 250.001L988.806 248.664L989.421 247.927L990.072 250.627L993.115 250.892L992.483 251.65L990.736 251.446L990.267 251.388L990.895 253.553L990.271 254.3Z" fill="#3F3D56"/>
<path d="M975.512 264.125L972.206 268.088L976.139 271.419L979.445 267.456L975.512 264.125Z" fill="#3F3D56"/>
<path d="M980.802 257.786L977.496 261.748L981.428 265.079L984.734 261.117L980.802 257.786Z" fill="#3F3D56"/>
<path d="M1088 380.965H621V382H1088V380.965Z" fill="#3F3D56"/>
<path d="M869.178 142.567C872.415 142.567 875.039 139.923 875.039 136.662C875.039 133.4 872.415 130.756 869.178 130.756C865.941 130.756 863.316 133.4 863.316 136.662C863.316 139.923 865.941 142.567 869.178 142.567Z" fill="white"/>
<path d="M724.904 154.472C724.871 152.178 724.152 149.948 722.841 148.072C721.53 146.196 719.688 144.763 717.556 143.958C720 142.963 722.022 141.138 723.272 138.8C724.522 136.461 724.922 133.756 724.401 131.152C723.881 128.548 722.473 126.209 720.422 124.54C718.371 122.871 715.806 121.977 713.17 122.013C710.534 122.048 707.993 123.011 705.987 124.735C703.981 126.458 702.636 128.834 702.185 131.451C701.734 134.068 702.205 136.762 703.517 139.066C704.829 141.37 706.899 143.14 709.368 144.069C707.256 144.928 705.452 146.41 704.191 148.321C702.929 150.232 702.271 152.482 702.301 154.777C702.332 157.071 703.05 159.303 704.361 161.179C705.673 163.055 707.516 164.488 709.65 165.29C707.206 166.285 705.184 168.11 703.934 170.449C702.684 172.787 702.284 175.493 702.805 178.097C703.325 180.701 704.733 183.04 706.784 184.708C708.835 186.377 711.4 187.271 714.036 187.236C716.672 187.2 719.213 186.237 721.219 184.514C723.225 182.79 724.57 180.414 725.021 177.797C725.472 175.18 725.001 172.487 723.689 170.182C722.377 167.878 720.307 166.109 717.837 165.18C719.948 164.318 721.751 162.835 723.012 160.925C724.272 159.015 724.932 156.766 724.904 154.472ZM703.047 133.542C703.019 131.594 703.538 129.678 704.542 128.014C705.547 126.35 706.997 125.005 708.726 124.134C710.455 123.263 712.393 122.901 714.317 123.09C716.241 123.279 718.073 124.011 719.603 125.202C721.133 126.392 722.298 127.994 722.965 129.822C723.632 131.65 723.774 133.631 723.374 135.536C722.974 137.442 722.048 139.195 720.704 140.595C719.359 141.994 717.65 142.983 715.773 143.448C714.24 143.146 712.661 143.167 711.137 143.51C708.87 143.012 706.837 141.755 705.369 139.945C703.9 138.136 703.082 135.879 703.047 133.542ZM724.159 175.707C724.186 177.655 723.668 179.571 722.663 181.235C721.659 182.899 720.209 184.243 718.48 185.114C716.751 185.985 714.813 186.347 712.889 186.158C710.965 185.97 709.133 185.238 707.603 184.047C706.073 182.856 704.908 181.255 704.241 179.427C703.574 177.599 703.432 175.618 703.832 173.712C704.232 171.807 705.157 170.054 706.502 168.654C707.846 167.255 709.555 166.266 711.433 165.801C712.966 166.103 714.545 166.081 716.069 165.738C718.336 166.237 720.369 167.493 721.837 169.303C723.306 171.113 724.124 173.37 724.159 175.707ZM716.055 164.669C714.522 164.367 712.943 164.389 711.418 164.732C709.15 164.236 707.115 162.981 705.646 161.171C704.177 159.36 703.36 157.101 703.329 154.763C703.298 152.424 704.054 150.144 705.475 148.295C706.895 146.445 708.896 145.136 711.151 144.579C712.684 144.881 714.263 144.86 715.787 144.517C718.056 145.012 720.091 146.267 721.56 148.078C723.029 149.889 723.846 152.147 723.877 154.486C723.908 156.824 723.152 159.104 721.731 160.954C720.31 162.803 718.31 164.113 716.055 164.669H716.055Z" fill="white"/>
<path d="M675.558 196.92H667.063V296.653V305.212H675.558H720.987V296.653H675.558V196.92Z" fill="white"/>
<path d="M750.535 196.92H742.04V305.212H795.964V196.92H750.535ZM787.469 296.653H750.535V205.479H787.469V296.653Z" fill="white"/>
<path d="M944.993 197.106H899.564V305.398H953.488V197.106H944.993ZM944.993 296.839H908.059V205.665H944.993V296.839Z" fill="white"/>
<path d="M861.891 251.066H854.873V259.625H861.891V296.839H824.957V205.665H870.386V197.106H824.957H816.462V205.665V296.839V305.398H824.957H861.891H870.386V296.839V259.625H877.404V251.066H870.386H861.891Z" fill="white"/>
<path d="M701.247 187.288H698.516V188.205H701.247V187.288Z" fill="#3F3D56"/>
<path d="M913.713 188.205H908.122V187.288H913.713V188.205ZM902.531 188.205H896.94V187.288H902.531V188.205ZM891.348 188.205H885.757V187.288H891.348V188.205ZM880.166 188.205H874.575V187.288H880.166V188.205ZM868.984 188.205H863.392V187.288H868.984V188.205ZM857.801 188.205H852.21V187.288H857.801V188.205ZM846.618 188.205H841.028V187.288H846.618V188.205ZM835.436 188.205H829.845V187.288H835.436V188.205ZM824.254 188.205H818.662V187.288H824.254V188.205ZM813.072 188.205H807.48V187.288H813.072L813.072 188.205ZM801.889 188.205H796.298V187.288H801.889V188.205ZM790.707 188.205H785.115V187.288H790.707V188.205ZM779.524 188.205H773.933V187.288H779.524V188.205ZM768.342 188.205H762.75V187.288H768.342V188.205ZM757.159 188.205H751.568V187.288H757.159V188.205ZM745.977 188.205H740.386V187.288H745.977L745.977 188.205ZM734.794 188.205H729.203V187.288H734.794V188.205ZM723.612 188.205H718.021V187.288H723.612V188.205ZM712.429 188.205H706.838V187.288H712.429V188.205Z" fill="#3F3D56"/>
<path d="M922.036 187.288H919.305V188.205H922.036V187.288Z" fill="#3F3D56"/>
<path d="M963.121 211.139H962.21V213.891H963.121V211.139Z" fill="#3F3D56"/>
<path d="M963.121 282.693H962.21V276.96H963.121V282.693ZM963.121 271.226H962.21V265.493H963.121V271.226ZM963.121 259.759H962.21V254.026H963.121V259.759ZM963.121 248.292H962.21V242.559H963.121V248.292ZM963.121 236.825H962.21V231.092H963.121V236.825ZM963.121 225.358H962.21V219.625H963.121V225.358Z" fill="#3F3D56"/>
<path d="M963.121 288.427H962.21V291.179H963.121V288.427Z" fill="#3F3D56"/>
<path d="M667.673 155.753H666.763V346.565H667.673V155.753Z" fill="white"/>
<path d="M954.016 155.639H953.106V346.45H954.016V155.639Z" fill="#F2F2F2"/>
<path d="M999.198 304.71H621.353V305.627H999.198V304.71Z" fill="#F2F2F2"/>
<path d="M999.085 196.461H621.239V197.379H999.085V196.461Z" fill="white"/>
<path d="M1027.92 151.192C1027.95 151.839 1027.83 152.484 1027.56 153.074C1027.2 153.626 1026.72 154.085 1026.14 154.411L1021.99 157.231C1020.77 158.063 1019.39 159.537 1020.17 160.796C1020.48 161.203 1020.89 161.516 1021.36 161.699C1025.61 163.755 1030.46 164.146 1035.17 164.07C1038.18 164.022 1041.32 163.754 1043.87 162.142C1045.08 161.374 1046.12 160.318 1047.45 159.786C1048.37 159.418 1049.57 159.148 1049.81 158.179C1050.13 156.866 1048.41 156.138 1047.17 155.617C1044.52 154.503 1042.68 151.928 1041.82 149.167C1040.95 146.407 1040.95 143.454 1041.08 140.563C1041.12 140.357 1041.12 140.145 1041.07 139.941C1041.03 139.737 1040.94 139.543 1040.82 139.373C1040.55 139.147 1040.2 139.025 1039.85 139.028C1036.99 138.738 1034.11 138.689 1031.25 138.882C1030.18 138.871 1029.13 139.146 1028.21 139.68C1026.46 140.883 1027.45 142.922 1027.64 144.615C1027.87 146.799 1027.96 148.996 1027.92 151.192Z" fill="#9F616A"/>
<path d="M1045.87 94C1044.27 95.7998 1042.08 96.9566 1039.7 97.2575C1035.58 97.8497 1038.82 104.365 1038.82 104.365C1038.82 104.365 1037.64 101.996 1039.99 99.9227C1042.34 97.8497 1045.87 96.6652 1045.87 94Z" fill="#2F2E41"/>
<path d="M1037.94 110.839C1040.74 110.839 1043.01 108.55 1043.01 105.727C1043.01 102.904 1040.74 100.615 1037.94 100.615C1035.13 100.615 1032.86 102.904 1032.86 105.727C1032.86 108.55 1035.13 110.839 1037.94 110.839Z" fill="#2F2E41"/>
<path d="M1043.86 110.76C1039.94 108.698 1033.2 107.075 1029.61 107.191L1030.52 103.7C1033.69 105.871 1040.4 107.524 1044.76 107.269L1043.86 110.76Z" fill="#F1F1ED"/>
<path d="M1032.56 143.614C1042.62 143.614 1050.77 135.402 1050.77 125.272C1050.77 115.142 1042.62 106.93 1032.56 106.93C1022.51 106.93 1014.36 115.142 1014.36 125.272C1014.36 135.402 1022.51 143.614 1032.56 143.614Z" fill="#2F2E41"/>
<path d="M1027.04 354.848H1018.69V369.282H1027.04V354.848Z" fill="#9F616A"/>
<path d="M1051.22 354.848H1042.86V369.282H1051.22V354.848Z" fill="#9F616A"/>
<path d="M1016.6 205.406L1012.55 219.011L1053.6 219.839L1050.32 205.406L1039.58 198.189L1016.6 205.406Z" fill="#9F616A"/>
<path d="M1030.92 146.47C1038.17 146.47 1044.05 140.547 1044.05 133.24C1044.05 125.933 1038.17 120.01 1030.92 120.01C1023.67 120.01 1017.79 125.933 1017.79 133.24C1017.79 140.547 1023.67 146.47 1030.92 146.47Z" fill="#9F616A"/>
<path d="M1006.88 187.84C1005.95 190.194 1005.5 192.715 1005.56 195.249C1005.68 198.187 1006.58 201.946 1006.02 204.495C1003.83 214.357 1000.58 229 994.71 236.986C993.331 238.861 990.635 239.895 988.591 241.315C986.546 242.735 984.6 244.288 983.492 246.801C982.631 248.756 982.66 251.13 982.725 253.349C982.762 254.573 982.879 255.97 983.932 256.777C984.151 256.685 984.336 256.527 984.462 256.324C984.588 256.122 984.649 255.886 984.637 255.647C984.69 255.144 984.59 254.631 984.675 254.112C984.775 253.655 984.975 253.226 985.261 252.857C985.547 252.488 985.91 252.187 986.326 251.978C991.121 248.993 996.251 246.388 998.791 241.191C1001.33 235.994 1003.26 231.359 1006.7 226.783C1007.67 225.627 1008.57 224.413 1009.4 223.15C1010.74 220.836 1011.75 218.344 1012.39 215.746C1013.8 210.304 1014.43 204.574 1014.86 199.022C1015.08 196.185 1015.06 193.146 1012.92 191.311C1010.95 189.614 1008.54 189.829 1006.88 187.84Z" fill="#9F616A"/>
<path d="M1066.23 181.474C1066.92 183.974 1067.15 186.58 1066.91 189.164C1066.63 192.294 1065.65 195.412 1066.09 198.524C1067.78 210.564 1065.94 223.021 1066.89 235.143C1067.11 237.989 1068.02 241.139 1068.18 243.989C1068.34 246.839 1068.01 249.813 1066.57 252.272C1065.45 254.185 1063.74 255.659 1062.06 257.096C1061.13 257.889 1059.91 258.732 1058.8 258.231C1058.71 258.007 1058.68 257.758 1058.73 257.519C1058.79 257.28 1058.91 257.064 1059.09 256.902C1059.42 256.545 1059.86 256.296 1060.17 255.916C1060.75 255.184 1060.73 254.145 1060.66 253.206C1060.27 247.623 1059.46 241.9 1060.97 236.515C1062.48 231.146 1061.55 225.283 1060.01 219.923C1059.6 218.49 1059.07 217.094 1058.71 215.647C1058.09 213.137 1058.02 210.527 1057.95 207.941L1057.53 191.988C1057.46 189.27 1057.62 186.066 1059.87 184.563C1061.95 183.174 1064.59 183.371 1066.23 181.474Z" fill="#9F616A"/>
<path d="M1053.6 213.948C1050.92 215.42 1048.2 216.905 1045.26 217.726C1042.18 218.586 1038.95 218.691 1035.75 218.79C1031.94 219.173 1028.09 218.624 1024.53 217.19L1012.92 213.199C1004.71 233.064 1001.49 255.076 1005.94 276.121C1007.56 283.783 1005.87 291.72 1005.87 299.554C1005.82 302.331 1005.92 305.108 1006.17 307.874C1006.4 310.008 1006.8 312.118 1007.08 314.246C1008.78 327.205 1005.72 340.466 1007.63 353.395C1007.89 355.17 1010.03 356.153 1011.73 356.692C1012.58 356.939 1013.46 357.116 1014.34 357.223C1018.84 357.886 1023.4 358.551 1027.92 358.116C1029.03 358.009 1030.34 357.667 1030.68 356.6C1030.95 355.75 1030.46 354.732 1030.92 353.97C1033.86 349.102 1031.67 342.433 1031.97 336.744C1032.77 321.693 1031.79 306.563 1033.17 291.555C1033.43 288.682 1033.06 286.146 1033.31 283.273L1033.49 281.321L1034.02 275.393C1034.34 283.656 1034.68 291.721 1035 299.985C1035.09 302.388 1035.19 304.822 1035.89 307.121C1036.26 308.338 1036.8 309.503 1037.1 310.739C1037.38 312.075 1037.52 313.436 1037.53 314.802L1038.89 351.206C1038.88 352.516 1038.79 353.824 1038.61 355.122C1038.48 356.611 1038.45 358.366 1039.61 359.295C1040.22 359.714 1040.93 359.948 1041.67 359.97C1043.88 360.179 1046.1 359.785 1048.29 359.392C1050.51 358.994 1055.11 358.597 1057.33 358.199C1057.66 358.156 1057.99 358.063 1058.3 357.923C1059.3 357.408 1059.54 356.076 1059.45 354.949C1059.35 353.823 1059.04 352.661 1059.39 351.586C1063.87 337.64 1058.43 322.328 1059.44 307.704C1060.34 294.68 1060.21 281.61 1060.09 268.556C1060.01 260.836 1059.49 253.285 1059.65 245.566C1059.85 236.162 1060.54 226.311 1056.59 217.791C1055.89 216.286 1054.98 214.844 1053.6 213.948Z" fill="#3530FD"/>
<path d="M1028.24 363.869C1028.24 363.869 1019.58 359.659 1018.09 363.869C1016.6 368.079 1013.61 378.002 1016.9 380.407C1017.96 381.187 1019.2 381.676 1020.51 381.828C1021.81 381.98 1023.13 381.788 1024.34 381.272C1026.46 380.364 1028.54 379.217 1028.24 378.302C1027.64 376.498 1028.24 363.869 1028.24 363.869Z" fill="#2F2E41"/>
<path d="M1041.67 363.869C1041.67 363.869 1050.32 359.659 1051.81 363.869C1053.3 368.079 1056.29 378.002 1053.01 380.407C1051.94 381.187 1050.7 381.676 1049.4 381.828C1048.09 381.98 1046.77 381.788 1045.56 381.272C1043.44 380.364 1041.36 379.217 1041.67 378.302C1042.26 376.498 1041.67 363.869 1041.67 363.869Z" fill="#2F2E41"/>
<path d="M1052.39 157.944C1039.88 157.72 1027.36 158.199 1014.91 159.378C1013.98 159.406 1013.06 159.619 1012.22 160.005C1011.51 160.437 1010.89 161.002 1010.39 161.669C1004.82 168.412 1001.59 176.81 1001.2 185.578C1001.15 186.711 1001.19 187.966 1001.95 188.801C1005.41 192.585 1009.79 195.347 1012.52 199.687C1013.16 200.858 1013.93 201.95 1014.82 202.941C1014.31 206.042 1014.23 209.198 1014.59 212.32C1016.41 209.93 1019.12 208.361 1021.96 207.429C1024.79 206.497 1027.78 206.15 1030.75 205.807C1035.08 205.308 1039.71 204.861 1043.57 206.903C1046.59 208.505 1048.8 211.491 1051.98 212.748C1052.41 210.061 1052.66 207.346 1052.72 204.625C1052.81 200.813 1055.65 197.999 1057.15 194.497C1057.56 193.463 1058.05 192.467 1058.63 191.52C1060.15 189.193 1062.61 187.628 1065.22 186.708C1067.83 185.787 1070.6 185.45 1073.34 185.119C1074.59 183.351 1074.18 181.089 1073.32 179.103C1072.45 177.117 1071 175.459 1069.75 173.695C1067.31 170.269 1065.57 166.362 1062.89 163.123C1061.63 161.535 1060.03 160.247 1058.21 159.352C1056.4 158.457 1054.41 157.976 1052.39 157.944Z" fill="#3530FD"/>
<path d="M1036.23 112.491C1036.23 112.491 1030.06 120.492 1017.7 122.27C1005.35 124.048 1015.06 143.606 1015.06 143.606C1015.06 143.606 1011.53 136.494 1018.59 130.271C1025.64 124.048 1036.23 120.492 1036.23 112.491Z" fill="#2F2E41"/>
<path d="M1036.23 112.491C1036.23 112.491 1039.76 124.937 1045.06 126.715C1050.35 128.493 1047.7 147.162 1038.88 148.94C1038.88 148.94 1046.38 138.716 1041.97 130.715C1037.56 122.715 1034.91 116.492 1036.23 112.491Z" fill="#2F2E41"/>
<path d="M1036.23 112.491C1036.23 112.491 1030.06 120.492 1017.7 122.27C1005.35 124.048 1015.06 143.606 1015.06 143.606C1015.06 143.606 1011.53 136.494 1018.59 130.271C1025.64 124.048 1036.23 120.492 1036.23 112.491Z" fill="#2F2E41"/>
<path d="M1036.23 112.491C1036.23 112.491 1039.76 124.937 1045.06 126.715C1050.35 128.493 1047.7 147.162 1038.88 148.94C1038.88 148.94 1046.38 138.716 1041.97 130.715C1037.56 122.715 1034.91 116.492 1036.23 112.491Z" fill="#2F2E41"/>
<path d="M818.696 180.178V173.598H819.425V174.216C819.576 173.993 819.775 173.807 820.007 173.672C820.25 173.544 820.521 173.482 820.794 173.49C821.173 173.483 821.545 173.592 821.861 173.804C822.176 174.021 822.419 174.33 822.559 174.688C822.719 175.086 822.799 175.511 822.794 175.94C822.801 176.392 822.713 176.84 822.534 177.255C822.378 177.624 822.115 177.936 821.779 178.151C821.468 178.353 821.106 178.461 820.736 178.462C820.486 178.466 820.24 178.408 820.018 178.292C819.816 178.187 819.638 178.04 819.496 177.862V180.178L818.696 180.178ZM819.42 176.003C819.382 176.485 819.513 176.965 819.789 177.36C819.895 177.497 820.031 177.608 820.186 177.684C820.34 177.76 820.51 177.799 820.683 177.799C820.859 177.799 821.034 177.757 821.192 177.679C821.35 177.6 821.489 177.486 821.596 177.345C821.882 176.934 822.016 176.436 821.976 175.936C822.012 175.452 821.881 174.971 821.605 174.574C821.502 174.435 821.368 174.322 821.214 174.243C821.061 174.165 820.891 174.123 820.718 174.122C820.541 174.126 820.367 174.172 820.21 174.256C820.053 174.339 819.917 174.458 819.814 174.603C819.525 175.01 819.386 175.505 819.42 176.003Z" fill="#3F3D56"/>
<path d="M823.226 178.355L824.951 175.882L823.355 173.598H824.355L825.08 174.713C825.216 174.925 825.326 175.103 825.409 175.246C825.539 175.049 825.659 174.874 825.769 174.722L826.564 173.598H827.52L825.889 175.837L827.645 178.355H826.662L825.693 176.876L825.435 176.478L824.195 178.355L823.226 178.355Z" fill="#3F3D56"/>
<path d="M798.044 173.295H792.907V178.471H798.044V173.295Z" fill="#3F3D56"/>
<path d="M806.264 173.295H801.127V178.471H806.264V173.295Z" fill="#3F3D56"/>
<path d="M814.484 173.295H809.347V178.471H814.484V173.295Z" fill="#3F3D56"/>
</g>
<defs>
<clipPath id="clip0">
<rect width="1195" height="410" fill="white"/>
</clipPath>
</defs>
</svg>
