<svg width="1195" height="410" viewBox="0 0 1195 410" fill="none" xmlns="http://www.w3.org/2000/svg">
<g clip-path="url(#clip0)">
<rect width="1195" height="410" fill="url(#paint0_linear)" fill-opacity="0.86"/>
<path d="M299.55 149C299.55 299.221 177.771 421 27.5498 421C-122.672 421 -244.45 299.221 -244.45 149C-244.45 -1.22145 -122.672 -123 27.5498 -123C177.771 -123 299.55 -1.22145 299.55 149Z" fill="#5E97EC" fill-opacity="0.43"/>
<circle cx="1080" cy="461" r="272" fill="#5E97EC" fill-opacity="0.43"/>
<path d="M261.328 147.926L266.496 120.609H274.38L265.863 159H257.9L251.651 133.318L245.402 159H237.439L228.923 120.609H236.807L242.001 147.873L248.329 120.609H255.026L261.328 147.926ZM301.775 142.362H286.588V152.646H304.412V159H278.678V120.609H304.359V127.017H286.588V136.166H301.775V142.362ZM316.963 152.646H333.759V159H309.053V120.609H316.963V152.646ZM366.771 146.212C366.472 150.343 364.942 153.595 362.183 155.968C359.44 158.341 355.819 159.527 351.319 159.527C346.397 159.527 342.521 157.875 339.691 154.57C336.879 151.248 335.473 146.695 335.473 140.912V138.565C335.473 134.874 336.123 131.622 337.424 128.81C338.725 125.997 340.579 123.844 342.987 122.35C345.413 120.838 348.226 120.082 351.425 120.082C355.854 120.082 359.423 121.269 362.13 123.642C364.837 126.015 366.401 129.346 366.823 133.635H358.913C358.72 131.156 358.025 129.363 356.83 128.256C355.652 127.131 353.851 126.568 351.425 126.568C348.788 126.568 346.811 127.518 345.492 129.416C344.191 131.297 343.523 134.224 343.488 138.196V141.097C343.488 145.245 344.112 148.277 345.36 150.193C346.626 152.109 348.612 153.067 351.319 153.067C353.763 153.067 355.582 152.514 356.777 151.406C357.99 150.281 358.685 148.55 358.86 146.212H366.771ZM403.5 140.675C403.5 144.454 402.832 147.768 401.496 150.615C400.16 153.463 398.244 155.66 395.748 157.207C393.27 158.754 390.422 159.527 387.205 159.527C384.023 159.527 381.185 158.763 378.688 157.233C376.192 155.704 374.259 153.524 372.888 150.694C371.517 147.847 370.822 144.577 370.805 140.886V138.987C370.805 135.208 371.481 131.886 372.835 129.021C374.206 126.138 376.131 123.932 378.609 122.402C381.105 120.855 383.953 120.082 387.152 120.082C390.352 120.082 393.19 120.855 395.669 122.402C398.165 123.932 400.09 126.138 401.443 129.021C402.814 131.886 403.5 135.199 403.5 138.961V140.675ZM395.484 138.935C395.484 134.909 394.764 131.851 393.322 129.759C391.881 127.667 389.824 126.621 387.152 126.621C384.498 126.621 382.45 127.658 381.009 129.732C379.567 131.789 378.838 134.812 378.82 138.803V140.675C378.82 144.595 379.541 147.636 380.982 149.798C382.424 151.96 384.498 153.041 387.205 153.041C389.859 153.041 391.898 152.004 393.322 149.93C394.746 147.838 395.467 144.797 395.484 140.807V138.935ZM419.584 120.609L429.445 148.453L439.254 120.609H449.643V159H441.706V148.506L442.497 130.392L432.135 159H426.703L416.367 130.418L417.158 148.506V159H409.248V120.609H419.584ZM479.648 142.362H464.461V152.646H482.285V159H456.551V120.609H482.232V127.017H464.461V136.166H479.648V142.362ZM527.689 127.017H515.93V159H508.02V127.017H496.418V120.609H527.689V127.017ZM563.021 140.675C563.021 144.454 562.354 147.768 561.018 150.615C559.682 153.463 557.766 155.66 555.27 157.207C552.791 158.754 549.943 159.527 546.727 159.527C543.545 159.527 540.706 158.763 538.21 157.233C535.714 155.704 533.78 153.524 532.409 150.694C531.038 147.847 530.344 144.577 530.326 140.886V138.987C530.326 135.208 531.003 131.886 532.356 129.021C533.728 126.138 535.652 123.932 538.131 122.402C540.627 120.855 543.475 120.082 546.674 120.082C549.873 120.082 552.712 120.855 555.19 122.402C557.687 123.932 559.611 126.138 560.965 129.021C562.336 131.886 563.021 135.199 563.021 138.961V140.675ZM555.006 138.935C555.006 134.909 554.285 131.851 552.844 129.759C551.402 127.667 549.346 126.621 546.674 126.621C544.02 126.621 541.972 127.658 540.53 129.732C539.089 131.789 538.359 134.812 538.342 138.803V140.675C538.342 144.595 539.062 147.636 540.504 149.798C541.945 151.96 544.02 153.041 546.727 153.041C549.381 153.041 551.42 152.004 552.844 149.93C554.268 147.838 554.988 144.797 555.006 140.807V138.935ZM590.127 152.646H606.923V159H582.217V120.609H590.127V152.646ZM633.686 151.09H619.816L617.18 159H608.769L623.06 120.609H630.39L644.76 159H636.349L633.686 151.09ZM621.952 144.683H631.55L626.725 130.312L621.952 144.683ZM648.346 159V120.609H661.793C666.451 120.609 669.984 121.506 672.393 123.299C674.801 125.074 676.005 127.685 676.005 131.13C676.005 133.011 675.521 134.672 674.555 136.113C673.588 137.537 672.243 138.583 670.521 139.251C672.489 139.743 674.036 140.736 675.161 142.23C676.304 143.725 676.875 145.553 676.875 147.715C676.875 151.406 675.697 154.201 673.342 156.1C670.986 157.998 667.629 158.965 663.27 159H648.346ZM656.256 142.283V152.646H663.032C664.896 152.646 666.346 152.206 667.383 151.327C668.438 150.431 668.965 149.2 668.965 147.636C668.965 144.12 667.146 142.336 663.507 142.283H656.256ZM656.256 136.693H662.109C666.1 136.623 668.095 135.032 668.095 131.921C668.095 130.181 667.585 128.933 666.565 128.177C665.563 127.403 663.973 127.017 661.793 127.017H656.256V136.693ZM696.281 159V120.609H708.094C711.469 120.609 714.483 121.374 717.138 122.903C719.81 124.415 721.893 126.577 723.387 129.39C724.881 132.185 725.628 135.366 725.628 138.935V140.701C725.628 144.27 724.89 147.442 723.413 150.22C721.954 152.997 719.889 155.15 717.217 156.68C714.545 158.209 711.53 158.982 708.173 159H696.281ZM704.191 127.017V152.646H708.015C711.108 152.646 713.473 151.635 715.107 149.613C716.742 147.592 717.577 144.7 717.612 140.938V138.908C717.612 135.006 716.804 132.053 715.187 130.049C713.569 128.027 711.205 127.017 708.094 127.017H704.191ZM754.5 142.362H739.312V152.646H757.137V159H731.402V120.609H757.084V127.017H739.312V136.166H754.5V142.362ZM791.915 146.212C791.616 150.343 790.087 153.595 787.327 155.968C784.585 158.341 780.964 159.527 776.464 159.527C771.542 159.527 767.666 157.875 764.836 154.57C762.023 151.248 760.617 146.695 760.617 140.912V138.565C760.617 134.874 761.268 131.622 762.568 128.81C763.869 125.997 765.724 123.844 768.132 122.35C770.558 120.838 773.37 120.082 776.569 120.082C780.999 120.082 784.567 121.269 787.274 123.642C789.981 126.015 791.546 129.346 791.968 133.635H784.058C783.864 131.156 783.17 129.363 781.975 128.256C780.797 127.131 778.995 126.568 776.569 126.568C773.933 126.568 771.955 127.518 770.637 129.416C769.336 131.297 768.668 134.224 768.633 138.196V141.097C768.633 145.245 769.257 148.277 770.505 150.193C771.771 152.109 773.757 153.067 776.464 153.067C778.907 153.067 780.727 152.514 781.922 151.406C783.135 150.281 783.829 148.55 784.005 146.212H791.915ZM818.783 151.09H804.914L802.277 159H793.866L808.157 120.609H815.487L829.857 159H821.446L818.783 151.09ZM807.05 144.683H816.647L811.822 130.312L807.05 144.683ZM833.443 159V120.609H846.891C851.549 120.609 855.082 121.506 857.49 123.299C859.898 125.074 861.103 127.685 861.103 131.13C861.103 133.011 860.619 134.672 859.652 136.113C858.686 137.537 857.341 138.583 855.618 139.251C857.587 139.743 859.134 140.736 860.259 142.23C861.401 143.725 861.973 145.553 861.973 147.715C861.973 151.406 860.795 154.201 858.439 156.1C856.084 157.998 852.727 158.965 848.367 159H833.443ZM841.354 142.283V152.646H848.13C849.993 152.646 851.443 152.206 852.48 151.327C853.535 150.431 854.062 149.2 854.062 147.636C854.062 144.12 852.243 142.336 848.604 142.283H841.354ZM841.354 136.693H847.207C851.197 136.623 853.192 135.032 853.192 131.921C853.192 130.181 852.683 128.933 851.663 128.177C850.661 127.403 849.07 127.017 846.891 127.017H841.354V136.693ZM876.343 159H868.433V120.609H876.343V159ZM911.807 127.017H900.047V159H892.137V127.017H880.535V120.609H911.807V127.017ZM935.827 148.928C935.827 147.434 935.3 146.291 934.245 145.5C933.19 144.691 931.292 143.848 928.55 142.969C925.808 142.072 923.637 141.193 922.037 140.332C917.678 137.977 915.498 134.804 915.498 130.813C915.498 128.739 916.078 126.894 917.238 125.276C918.416 123.642 920.095 122.367 922.274 121.453C924.472 120.539 926.933 120.082 929.657 120.082C932.399 120.082 934.843 120.583 936.987 121.585C939.132 122.569 940.793 123.967 941.971 125.777C943.166 127.588 943.764 129.645 943.764 131.947H935.854C935.854 130.189 935.3 128.827 934.192 127.86C933.085 126.876 931.529 126.384 929.525 126.384C927.592 126.384 926.089 126.797 925.017 127.623C923.944 128.432 923.408 129.504 923.408 130.84C923.408 132.088 924.032 133.134 925.28 133.978C926.546 134.821 928.4 135.612 930.844 136.351C935.344 137.704 938.622 139.383 940.679 141.387C942.735 143.391 943.764 145.887 943.764 148.875C943.764 152.197 942.507 154.808 939.993 156.706C937.479 158.587 934.096 159.527 929.842 159.527C926.889 159.527 924.199 158.991 921.773 157.919C919.348 156.829 917.493 155.344 916.21 153.463C914.944 151.582 914.312 149.402 914.312 146.924H922.248C922.248 151.16 924.779 153.278 929.842 153.278C931.723 153.278 933.19 152.9 934.245 152.145C935.3 151.371 935.827 150.299 935.827 148.928Z" fill="white"/>
<path d="M249.726 199.55H241.271V223H237.82V199.55H229.383V196.695H249.726V199.55ZM259.41 223.361C256.76 223.361 254.604 222.494 252.942 220.76C251.28 219.013 250.449 216.683 250.449 213.768V213.154C250.449 211.215 250.816 209.486 251.551 207.969C252.298 206.439 253.333 205.247 254.658 204.392C255.995 203.524 257.44 203.091 258.994 203.091C261.535 203.091 263.511 203.928 264.92 205.602C266.329 207.276 267.034 209.673 267.034 212.792V214.184H253.791C253.839 216.111 254.399 217.67 255.471 218.863C256.555 220.043 257.928 220.633 259.59 220.633C260.771 220.633 261.77 220.392 262.589 219.911C263.408 219.429 264.125 218.791 264.739 217.996L266.781 219.585C265.143 222.103 262.686 223.361 259.41 223.361ZM258.994 205.837C257.645 205.837 256.513 206.331 255.598 207.318C254.682 208.294 254.116 209.667 253.899 211.438H263.691V211.185C263.595 209.486 263.137 208.174 262.318 207.246C261.499 206.307 260.391 205.837 258.994 205.837ZM282.3 217.815C282.3 216.912 281.957 216.213 281.27 215.719C280.596 215.213 279.409 214.78 277.711 214.418C276.025 214.057 274.682 213.624 273.682 213.118C272.694 212.612 271.96 212.01 271.478 211.311C271.008 210.612 270.773 209.781 270.773 208.818C270.773 207.216 271.448 205.861 272.797 204.753C274.158 203.645 275.892 203.091 278 203.091C280.216 203.091 282.011 203.663 283.384 204.807C284.769 205.951 285.461 207.415 285.461 209.197H282.101C282.101 208.282 281.71 207.493 280.927 206.831C280.156 206.168 279.18 205.837 278 205.837C276.784 205.837 275.832 206.102 275.146 206.632C274.459 207.162 274.116 207.854 274.116 208.709C274.116 209.516 274.435 210.125 275.073 210.534C275.712 210.944 276.862 211.335 278.524 211.708C280.198 212.082 281.553 212.528 282.589 213.045C283.625 213.563 284.389 214.19 284.883 214.924C285.389 215.647 285.642 216.532 285.642 217.58C285.642 219.326 284.944 220.73 283.546 221.79C282.149 222.837 280.337 223.361 278.108 223.361C276.543 223.361 275.158 223.084 273.953 222.53C272.749 221.976 271.803 221.205 271.117 220.218C270.442 219.218 270.105 218.14 270.105 216.984H273.447C273.507 218.104 273.953 218.995 274.784 219.658C275.627 220.308 276.735 220.633 278.108 220.633C279.373 220.633 280.385 220.38 281.144 219.875C281.914 219.357 282.3 218.67 282.3 217.815ZM294.531 198.719V203.452H298.18V206.036H294.531V218.158C294.531 218.941 294.693 219.531 295.019 219.929C295.344 220.314 295.898 220.507 296.681 220.507C297.066 220.507 297.596 220.435 298.271 220.29V223C297.391 223.241 296.536 223.361 295.705 223.361C294.212 223.361 293.085 222.91 292.327 222.006C291.568 221.103 291.188 219.82 291.188 218.158V206.036H287.629V203.452H291.188V198.719H294.531ZM301.992 228.239L300.095 226.938C301.227 225.361 301.818 223.735 301.866 222.061V219.043H305.136V221.663C305.136 222.88 304.835 224.096 304.232 225.312C303.642 226.529 302.896 227.505 301.992 228.239ZM326.653 223.361C324.003 223.361 321.847 222.494 320.185 220.76C318.523 219.013 317.692 216.683 317.692 213.768V213.154C317.692 211.215 318.059 209.486 318.794 207.969C319.541 206.439 320.576 205.247 321.901 204.392C323.238 203.524 324.684 203.091 326.237 203.091C328.779 203.091 330.754 203.928 332.163 205.602C333.572 207.276 334.277 209.673 334.277 212.792V214.184H321.034C321.082 216.111 321.642 217.67 322.714 218.863C323.798 220.043 325.171 220.633 326.833 220.633C328.014 220.633 329.014 220.392 329.833 219.911C330.652 219.429 331.368 218.791 331.982 217.996L334.024 219.585C332.386 222.103 329.929 223.361 326.653 223.361ZM326.237 205.837C324.888 205.837 323.756 206.331 322.841 207.318C321.925 208.294 321.359 209.667 321.143 211.438H330.935V211.185C330.838 209.486 330.381 208.174 329.562 207.246C328.743 206.307 327.634 205.837 326.237 205.837ZM344.719 210.588L349.055 203.452H352.958L346.562 213.118L353.156 223H349.29L344.773 215.683L340.257 223H336.373L342.967 213.118L336.571 203.452H340.438L344.719 210.588ZM373.029 213.443C373.029 216.418 372.349 218.815 370.988 220.633C369.627 222.452 367.784 223.361 365.459 223.361C363.087 223.361 361.22 222.609 359.859 221.103V230.516H356.517V203.452H359.57L359.732 205.62C361.093 203.934 362.984 203.091 365.405 203.091C367.754 203.091 369.609 203.976 370.97 205.747C372.343 207.517 373.029 209.98 373.029 213.136V213.443ZM369.687 213.063C369.687 210.859 369.217 209.119 368.278 207.842C367.338 206.566 366.05 205.927 364.412 205.927C362.388 205.927 360.871 206.825 359.859 208.619V217.959C360.859 219.742 362.388 220.633 364.448 220.633C366.05 220.633 367.32 220.001 368.26 218.736C369.211 217.46 369.687 215.569 369.687 213.063ZM385.405 223.361C382.755 223.361 380.599 222.494 378.937 220.76C377.275 219.013 376.444 216.683 376.444 213.768V213.154C376.444 211.215 376.811 209.486 377.546 207.969C378.293 206.439 379.328 205.247 380.653 204.392C381.99 203.524 383.436 203.091 384.989 203.091C387.531 203.091 389.506 203.928 390.915 205.602C392.324 207.276 393.029 209.673 393.029 212.792V214.184H379.786C379.834 216.111 380.394 217.67 381.466 218.863C382.55 220.043 383.923 220.633 385.585 220.633C386.766 220.633 387.765 220.392 388.584 219.911C389.403 219.429 390.12 218.791 390.734 217.996L392.776 219.585C391.138 222.103 388.681 223.361 385.405 223.361ZM384.989 205.837C383.64 205.837 382.508 206.331 381.593 207.318C380.677 208.294 380.111 209.667 379.895 211.438H389.687V211.185C389.59 209.486 389.132 208.174 388.313 207.246C387.494 206.307 386.386 205.837 384.989 205.837ZM406.362 206.451C405.856 206.367 405.308 206.325 404.718 206.325C402.526 206.325 401.038 207.258 400.255 209.125V223H396.913V203.452H400.165L400.219 205.71C401.315 203.964 402.869 203.091 404.88 203.091C405.531 203.091 406.025 203.175 406.362 203.344V206.451ZM413.083 223H409.74V203.452H413.083V223ZM409.469 198.267C409.469 197.725 409.632 197.267 409.957 196.894C410.294 196.521 410.788 196.334 411.438 196.334C412.089 196.334 412.583 196.521 412.92 196.894C413.257 197.267 413.426 197.725 413.426 198.267C413.426 198.809 413.257 199.261 412.92 199.622C412.583 199.983 412.089 200.164 411.438 200.164C410.788 200.164 410.294 199.983 409.957 199.622C409.632 199.261 409.469 198.809 409.469 198.267ZM421.592 203.452L421.682 205.62C423.115 203.934 425.049 203.091 427.481 203.091C430.215 203.091 432.076 204.139 433.064 206.234C433.714 205.295 434.557 204.536 435.593 203.958C436.641 203.38 437.876 203.091 439.297 203.091C443.585 203.091 445.765 205.361 445.837 209.902V223H442.495V210.101C442.495 208.703 442.175 207.662 441.537 206.975C440.899 206.277 439.827 205.927 438.321 205.927C437.081 205.927 436.051 206.301 435.232 207.047C434.413 207.782 433.937 208.776 433.805 210.028V223H430.444V210.191C430.444 207.348 429.053 205.927 426.271 205.927C424.079 205.927 422.579 206.861 421.772 208.728V223H418.43V203.452H421.592ZM459.007 223.361C456.358 223.361 454.202 222.494 452.54 220.76C450.877 219.013 450.046 216.683 450.046 213.768V213.154C450.046 211.215 450.414 209.486 451.148 207.969C451.895 206.439 452.931 205.247 454.256 204.392C455.593 203.524 457.038 203.091 458.592 203.091C461.133 203.091 463.108 203.928 464.518 205.602C465.927 207.276 466.631 209.673 466.631 212.792V214.184H453.389C453.437 216.111 453.997 217.67 455.069 218.863C456.153 220.043 457.526 220.633 459.188 220.633C460.368 220.633 461.368 220.392 462.187 219.911C463.006 219.429 463.723 218.791 464.337 217.996L466.378 219.585C464.74 222.103 462.283 223.361 459.007 223.361ZM458.592 205.837C457.243 205.837 456.111 206.331 455.195 207.318C454.28 208.294 453.714 209.667 453.497 211.438H463.289V211.185C463.193 209.486 462.735 208.174 461.916 207.246C461.097 206.307 459.989 205.837 458.592 205.837ZM473.677 203.452L473.786 205.909C475.279 204.03 477.23 203.091 479.639 203.091C483.77 203.091 485.854 205.421 485.89 210.083V223H482.548V210.064C482.536 208.655 482.211 207.613 481.572 206.939C480.946 206.264 479.964 205.927 478.627 205.927C477.543 205.927 476.592 206.216 475.773 206.794C474.954 207.373 474.316 208.131 473.858 209.071V223H470.516V203.452H473.677ZM495.465 198.719V203.452H499.115V206.036H495.465V218.158C495.465 218.941 495.628 219.531 495.953 219.929C496.278 220.314 496.832 220.507 497.615 220.507C498.001 220.507 498.531 220.435 499.205 220.29V223C498.326 223.241 497.471 223.361 496.64 223.361C495.146 223.361 494.02 222.91 493.261 222.006C492.502 221.103 492.123 219.82 492.123 218.158V206.036H488.564V203.452H492.123V198.719H495.465ZM520.686 215.936C520.686 214.671 521.035 213.509 521.734 212.449C522.444 211.389 523.793 210.155 525.781 208.746C524.612 207.324 523.83 206.18 523.432 205.313C523.035 204.446 522.836 203.585 522.836 202.729C522.836 200.73 523.426 199.164 524.606 198.032C525.787 196.9 527.389 196.334 529.412 196.334C531.219 196.334 532.712 196.864 533.893 197.924C535.073 198.972 535.663 200.297 535.663 201.898C535.663 202.958 535.392 203.94 534.85 204.843C534.32 205.735 533.387 206.674 532.05 207.662L530.117 209.089L535.97 216.081C536.789 214.515 537.199 212.774 537.199 210.859H540.216C540.216 213.931 539.475 216.478 537.994 218.501L541.751 223H537.741L535.988 220.922C535.097 221.717 534.049 222.326 532.845 222.747C531.652 223.157 530.436 223.361 529.195 223.361C526.63 223.361 524.57 222.681 523.017 221.32C521.463 219.959 520.686 218.164 520.686 215.936ZM529.195 220.633C530.966 220.633 532.586 219.959 534.055 218.61L527.642 210.932L527.045 211.365C525.034 212.847 524.028 214.37 524.028 215.936C524.028 217.357 524.486 218.495 525.401 219.351C526.329 220.206 527.593 220.633 529.195 220.633ZM526.178 202.621C526.178 203.777 526.889 205.223 528.31 206.957L530.442 205.458C531.261 204.879 531.821 204.331 532.122 203.813C532.423 203.284 532.574 202.645 532.574 201.898C532.574 201.091 532.273 200.423 531.67 199.893C531.068 199.351 530.309 199.08 529.394 199.08C528.406 199.08 527.624 199.417 527.045 200.092C526.467 200.754 526.178 201.597 526.178 202.621ZM552.772 213.063C552.772 210.064 553.483 207.656 554.904 205.837C556.325 204.006 558.186 203.091 560.486 203.091C562.775 203.091 564.587 203.874 565.924 205.439V195.25H569.267V223H566.195L566.033 220.904C564.696 222.542 562.835 223.361 560.45 223.361C558.186 223.361 556.337 222.434 554.904 220.579C553.483 218.724 552.772 216.303 552.772 213.316V213.063ZM556.114 213.443C556.114 215.659 556.572 217.393 557.487 218.646C558.403 219.899 559.667 220.525 561.281 220.525C563.401 220.525 564.949 219.573 565.924 217.67V208.691C564.925 206.849 563.389 205.927 561.317 205.927C559.679 205.927 558.403 206.56 557.487 207.824C556.572 209.089 556.114 210.962 556.114 213.443ZM578.101 223H574.759V203.452H578.101V223ZM574.488 198.267C574.488 197.725 574.65 197.267 574.976 196.894C575.313 196.521 575.807 196.334 576.457 196.334C577.107 196.334 577.601 196.521 577.938 196.894C578.276 197.267 578.444 197.725 578.444 198.267C578.444 198.809 578.276 199.261 577.938 199.622C577.601 199.983 577.107 200.164 576.457 200.164C575.807 200.164 575.313 199.983 574.976 199.622C574.65 199.261 574.488 198.809 574.488 198.267ZM594.849 217.815C594.849 216.912 594.505 216.213 593.819 215.719C593.144 215.213 591.958 214.78 590.26 214.418C588.574 214.057 587.231 213.624 586.231 213.118C585.243 212.612 584.509 212.01 584.027 211.311C583.557 210.612 583.322 209.781 583.322 208.818C583.322 207.216 583.997 205.861 585.346 204.753C586.707 203.645 588.441 203.091 590.549 203.091C592.765 203.091 594.56 203.663 595.933 204.807C597.318 205.951 598.01 207.415 598.01 209.197H594.65C594.65 208.282 594.258 207.493 593.476 206.831C592.705 206.168 591.729 205.837 590.549 205.837C589.332 205.837 588.381 206.102 587.694 206.632C587.008 207.162 586.665 207.854 586.665 208.709C586.665 209.516 586.984 210.125 587.622 210.534C588.26 210.944 589.411 211.335 591.073 211.708C592.747 212.082 594.102 212.528 595.138 213.045C596.174 213.563 596.938 214.19 597.432 214.924C597.938 215.647 598.191 216.532 598.191 217.58C598.191 219.326 597.492 220.73 596.095 221.79C594.698 222.837 592.885 223.361 590.657 223.361C589.091 223.361 587.706 223.084 586.502 222.53C585.298 221.976 584.352 221.205 583.666 220.218C582.991 219.218 582.654 218.14 582.654 216.984H585.996C586.056 218.104 586.502 218.995 587.333 219.658C588.176 220.308 589.284 220.633 590.657 220.633C591.922 220.633 592.934 220.38 593.692 219.875C594.463 219.357 594.849 218.67 594.849 217.815ZM610.386 220.633C611.578 220.633 612.62 220.272 613.511 219.549C614.403 218.827 614.896 217.923 614.993 216.839H618.154C618.094 217.959 617.709 219.025 616.998 220.037C616.287 221.049 615.336 221.856 614.144 222.458C612.963 223.06 611.711 223.361 610.386 223.361C607.724 223.361 605.604 222.476 604.026 220.706C602.461 218.923 601.678 216.49 601.678 213.407V212.847C601.678 210.944 602.027 209.251 602.726 207.77C603.424 206.289 604.424 205.138 605.725 204.319C607.037 203.5 608.585 203.091 610.368 203.091C612.56 203.091 614.378 203.747 615.824 205.06C617.281 206.373 618.058 208.077 618.154 210.173H614.993C614.896 208.908 614.415 207.872 613.547 207.065C612.692 206.246 611.632 205.837 610.368 205.837C608.669 205.837 607.351 206.451 606.411 207.68C605.484 208.896 605.02 210.661 605.02 212.973V213.605C605.02 215.858 605.484 217.592 606.411 218.809C607.339 220.025 608.663 220.633 610.386 220.633ZM621.027 213.045C621.027 211.13 621.4 209.408 622.147 207.878C622.906 206.349 623.954 205.168 625.291 204.337C626.639 203.506 628.175 203.091 629.897 203.091C632.559 203.091 634.709 204.012 636.347 205.855C637.997 207.698 638.822 210.149 638.822 213.208V213.443C638.822 215.346 638.455 217.056 637.72 218.574C636.998 220.079 635.956 221.254 634.595 222.097C633.246 222.94 631.692 223.361 629.934 223.361C627.284 223.361 625.134 222.44 623.484 220.597C621.846 218.754 621.027 216.315 621.027 213.28V213.045ZM624.387 213.443C624.387 215.611 624.887 217.351 625.887 218.664C626.898 219.977 628.247 220.633 629.934 220.633C631.632 220.633 632.981 219.971 633.98 218.646C634.98 217.309 635.48 215.442 635.48 213.045C635.48 210.902 634.968 209.167 633.944 207.842C632.933 206.505 631.584 205.837 629.897 205.837C628.247 205.837 626.917 206.493 625.905 207.806C624.893 209.119 624.387 210.998 624.387 213.443ZM649.174 218.465L654.016 203.452H657.431L650.421 223H647.874L640.792 203.452H644.206L649.174 218.465ZM668.505 223.361C665.856 223.361 663.7 222.494 662.038 220.76C660.375 219.013 659.544 216.683 659.544 213.768V213.154C659.544 211.215 659.912 209.486 660.646 207.969C661.393 206.439 662.429 205.247 663.754 204.392C665.091 203.524 666.536 203.091 668.09 203.091C670.631 203.091 672.606 203.928 674.016 205.602C675.425 207.276 676.129 209.673 676.129 212.792V214.184H662.887C662.935 216.111 663.495 217.67 664.567 218.863C665.651 220.043 667.024 220.633 668.686 220.633C669.866 220.633 670.866 220.392 671.685 219.911C672.504 219.429 673.221 218.791 673.835 217.996L675.876 219.585C674.238 222.103 671.781 223.361 668.505 223.361ZM668.09 205.837C666.741 205.837 665.609 206.331 664.693 207.318C663.778 208.294 663.212 209.667 662.995 211.438H672.787V211.185C672.691 209.486 672.233 208.174 671.414 207.246C670.595 206.307 669.487 205.837 668.09 205.837ZM689.462 206.451C688.957 206.367 688.409 206.325 687.818 206.325C685.626 206.325 684.139 207.258 683.356 209.125V223H680.014V203.452H683.266L683.32 205.71C684.416 203.964 685.97 203.091 687.981 203.091C688.631 203.091 689.125 203.175 689.462 203.344V206.451ZM700.844 213.045C700.844 211.13 701.218 209.408 701.964 207.878C702.723 206.349 703.771 205.168 705.108 204.337C706.457 203.506 707.993 203.091 709.715 203.091C712.377 203.091 714.527 204.012 716.165 205.855C717.815 207.698 718.64 210.149 718.64 213.208V213.443C718.64 215.346 718.272 217.056 717.538 218.574C716.815 220.079 715.773 221.254 714.412 222.097C713.063 222.94 711.509 223.361 709.751 223.361C707.101 223.361 704.951 222.44 703.301 220.597C701.663 218.754 700.844 216.315 700.844 213.28V213.045ZM704.205 213.443C704.205 215.611 704.704 217.351 705.704 218.664C706.716 219.977 708.065 220.633 709.751 220.633C711.449 220.633 712.798 219.971 713.798 218.646C714.798 217.309 715.297 215.442 715.297 213.045C715.297 210.902 714.785 209.167 713.762 207.842C712.75 206.505 711.401 205.837 709.715 205.837C708.065 205.837 706.734 206.493 705.722 207.806C704.71 209.119 704.205 210.998 704.205 213.443ZM734.899 221.067C733.599 222.597 731.69 223.361 729.172 223.361C727.089 223.361 725.499 222.759 724.403 221.555C723.319 220.338 722.771 218.544 722.759 216.171V203.452H726.101V216.081C726.101 219.043 727.306 220.525 729.714 220.525C732.268 220.525 733.966 219.573 734.809 217.67V203.452H738.151V223H734.972L734.899 221.067ZM752.695 206.451C752.189 206.367 751.641 206.325 751.051 206.325C748.859 206.325 747.371 207.258 746.588 209.125V223H743.246V203.452H746.498L746.552 205.71C747.648 203.964 749.202 203.091 751.213 203.091C751.864 203.091 752.358 203.175 752.695 203.344V206.451ZM776.344 217.815C776.344 216.912 776 216.213 775.314 215.719C774.639 215.213 773.453 214.78 771.755 214.418C770.069 214.057 768.726 213.624 767.726 213.118C766.738 212.612 766.004 212.01 765.522 211.311C765.052 210.612 764.817 209.781 764.817 208.818C764.817 207.216 765.492 205.861 766.841 204.753C768.202 203.645 769.936 203.091 772.044 203.091C774.26 203.091 776.055 203.663 777.428 204.807C778.813 205.951 779.505 207.415 779.505 209.197H776.145C776.145 208.282 775.754 207.493 774.971 206.831C774.2 206.168 773.224 205.837 772.044 205.837C770.827 205.837 769.876 206.102 769.189 206.632C768.503 207.162 768.16 207.854 768.16 208.709C768.16 209.516 768.479 210.125 769.117 210.534C769.756 210.944 770.906 211.335 772.568 211.708C774.242 212.082 775.597 212.528 776.633 213.045C777.669 213.563 778.433 214.19 778.927 214.924C779.433 215.647 779.686 216.532 779.686 217.58C779.686 219.326 778.987 220.73 777.59 221.79C776.193 222.837 774.381 223.361 772.152 223.361C770.587 223.361 769.201 223.084 767.997 222.53C766.793 221.976 765.847 221.205 765.161 220.218C764.486 219.218 764.149 218.14 764.149 216.984H767.491C767.551 218.104 767.997 218.995 768.828 219.658C769.671 220.308 770.779 220.633 772.152 220.633C773.417 220.633 774.429 220.38 775.188 219.875C775.958 219.357 776.344 218.67 776.344 217.815ZM792.152 223.361C789.502 223.361 787.346 222.494 785.684 220.76C784.022 219.013 783.191 216.683 783.191 213.768V213.154C783.191 211.215 783.558 209.486 784.293 207.969C785.04 206.439 786.076 205.247 787.4 204.392C788.737 203.524 790.183 203.091 791.736 203.091C794.278 203.091 796.253 203.928 797.662 205.602C799.071 207.276 799.776 209.673 799.776 212.792V214.184H786.533C786.581 216.111 787.141 217.67 788.213 218.863C789.297 220.043 790.67 220.633 792.333 220.633C793.513 220.633 794.513 220.392 795.332 219.911C796.151 219.429 796.867 218.791 797.481 217.996L799.523 219.585C797.885 222.103 795.428 223.361 792.152 223.361ZM791.736 205.837C790.387 205.837 789.255 206.331 788.34 207.318C787.424 208.294 786.858 209.667 786.642 211.438H796.434V211.185C796.337 209.486 795.88 208.174 795.061 207.246C794.242 206.307 793.133 205.837 791.736 205.837ZM807.292 223H803.949V195.25H807.292V223ZM814.301 223V206.036H811.212V203.452H814.301V201.447C814.301 199.351 814.861 197.731 815.981 196.587C817.102 195.443 818.685 194.871 820.733 194.871C821.504 194.871 822.269 194.973 823.027 195.178L822.847 197.888C822.281 197.779 821.678 197.725 821.04 197.725C819.956 197.725 819.119 198.044 818.529 198.683C817.939 199.309 817.644 200.212 817.644 201.393V203.452H821.817V206.036H817.644V223H814.301ZM842.539 220.633C843.731 220.633 844.773 220.272 845.665 219.549C846.556 218.827 847.05 217.923 847.146 216.839H850.308C850.247 217.959 849.862 219.025 849.151 220.037C848.441 221.049 847.489 221.856 846.297 222.458C845.117 223.06 843.864 223.361 842.539 223.361C839.877 223.361 837.757 222.476 836.18 220.706C834.614 218.923 833.831 216.49 833.831 213.407V212.847C833.831 210.944 834.18 209.251 834.879 207.77C835.577 206.289 836.577 205.138 837.878 204.319C839.191 203.5 840.738 203.091 842.521 203.091C844.713 203.091 846.532 203.747 847.977 205.06C849.434 206.373 850.211 208.077 850.308 210.173H847.146C847.05 208.908 846.568 207.872 845.701 207.065C844.846 206.246 843.786 205.837 842.521 205.837C840.823 205.837 839.504 206.451 838.564 207.68C837.637 208.896 837.173 210.661 837.173 212.973V213.605C837.173 215.858 837.637 217.592 838.564 218.809C839.492 220.025 840.817 220.633 842.539 220.633ZM866.134 221.067C864.833 222.597 862.924 223.361 860.407 223.361C858.323 223.361 856.733 222.759 855.637 221.555C854.553 220.338 854.005 218.544 853.993 216.171V203.452H857.335V216.081C857.335 219.043 858.54 220.525 860.949 220.525C863.502 220.525 865.2 219.573 866.043 217.67V203.452H869.386V223H866.206L866.134 221.067ZM883.929 206.451C883.423 206.367 882.875 206.325 882.285 206.325C880.093 206.325 878.606 207.258 877.823 209.125V223H874.48V203.452H877.732L877.787 205.71C878.883 203.964 880.436 203.091 882.448 203.091C883.098 203.091 883.592 203.175 883.929 203.344V206.451ZM898.364 223C898.172 222.615 898.015 221.928 897.895 220.94C896.341 222.554 894.486 223.361 892.33 223.361C890.403 223.361 888.819 222.819 887.579 221.735C886.35 220.639 885.736 219.254 885.736 217.58C885.736 215.545 886.507 213.967 888.048 212.847C889.602 211.715 891.782 211.148 894.588 211.148H897.84V209.613C897.84 208.444 897.491 207.517 896.792 206.831C896.094 206.132 895.064 205.783 893.703 205.783C892.511 205.783 891.511 206.084 890.704 206.686C889.897 207.288 889.494 208.017 889.494 208.872H886.133C886.133 207.896 886.477 206.957 887.163 206.054C887.862 205.138 888.801 204.416 889.981 203.886C891.174 203.356 892.481 203.091 893.902 203.091C896.154 203.091 897.919 203.657 899.195 204.789C900.472 205.909 901.134 207.457 901.183 209.432V218.429C901.183 220.224 901.411 221.651 901.869 222.711V223H898.364ZM892.818 220.453C893.866 220.453 894.859 220.182 895.799 219.64C896.738 219.098 897.419 218.393 897.84 217.526V213.515H895.221C891.126 213.515 889.078 214.714 889.078 217.11C889.078 218.158 889.427 218.977 890.126 219.567C890.825 220.158 891.722 220.453 892.818 220.453ZM910.957 198.719V203.452H914.606V206.036H910.957V218.158C910.957 218.941 911.119 219.531 911.444 219.929C911.77 220.314 912.324 220.507 913.106 220.507C913.492 220.507 914.022 220.435 914.696 220.29V223C913.817 223.241 912.962 223.361 912.131 223.361C910.637 223.361 909.511 222.91 908.752 222.006C907.994 221.103 907.614 219.82 907.614 218.158V206.036H904.055V203.452H907.614V198.719H910.957ZM926.638 223.361C923.988 223.361 921.833 222.494 920.17 220.76C918.508 219.013 917.677 216.683 917.677 213.768V213.154C917.677 211.215 918.045 209.486 918.779 207.969C919.526 206.439 920.562 205.247 921.887 204.392C923.224 203.524 924.669 203.091 926.223 203.091C928.764 203.091 930.739 203.928 932.148 205.602C933.558 207.276 934.262 209.673 934.262 212.792V214.184H921.02C921.068 216.111 921.628 217.67 922.7 218.863C923.784 220.043 925.157 220.633 926.819 220.633C927.999 220.633 928.999 220.392 929.818 219.911C930.637 219.429 931.354 218.791 931.968 217.996L934.009 219.585C932.371 222.103 929.914 223.361 926.638 223.361ZM926.223 205.837C924.874 205.837 923.742 206.331 922.826 207.318C921.911 208.294 921.345 209.667 921.128 211.438H930.92V211.185C930.824 209.486 930.366 208.174 929.547 207.246C928.728 206.307 927.62 205.837 926.223 205.837ZM937.333 213.063C937.333 210.064 938.044 207.656 939.465 205.837C940.887 204.006 942.747 203.091 945.048 203.091C947.336 203.091 949.149 203.874 950.486 205.439V195.25H953.828V223H950.757L950.594 220.904C949.257 222.542 947.396 223.361 945.012 223.361C942.747 223.361 940.899 222.434 939.465 220.579C938.044 218.724 937.333 216.303 937.333 213.316V213.063ZM940.676 213.443C940.676 215.659 941.133 217.393 942.049 218.646C942.964 219.899 944.229 220.525 945.843 220.525C947.963 220.525 949.51 219.573 950.486 217.67V208.691C949.486 206.849 947.951 205.927 945.879 205.927C944.241 205.927 942.964 206.56 942.049 207.824C941.133 209.089 940.676 210.962 940.676 213.443ZM506.215 266H502.873V238.25H506.215V266ZM523.649 266C523.456 265.615 523.3 264.928 523.179 263.94C521.625 265.554 519.771 266.361 517.615 266.361C515.688 266.361 514.104 265.819 512.863 264.735C511.635 263.639 511.021 262.254 511.021 260.58C511.021 258.545 511.791 256.967 513.333 255.847C514.887 254.715 517.067 254.148 519.873 254.148H523.125V252.613C523.125 251.444 522.776 250.517 522.077 249.831C521.379 249.132 520.349 248.783 518.988 248.783C517.795 248.783 516.796 249.084 515.989 249.686C515.182 250.288 514.778 251.017 514.778 251.872H511.418C511.418 250.896 511.761 249.957 512.448 249.054C513.146 248.138 514.086 247.416 515.266 246.886C516.458 246.356 517.765 246.091 519.187 246.091C521.439 246.091 523.203 246.657 524.48 247.789C525.757 248.909 526.419 250.457 526.467 252.432V261.429C526.467 263.224 526.696 264.651 527.154 265.711V266H523.649ZM518.103 263.453C519.15 263.453 520.144 263.182 521.083 262.64C522.023 262.098 522.703 261.393 523.125 260.526V256.515H520.505C516.41 256.515 514.363 257.714 514.363 260.11C514.363 261.158 514.712 261.977 515.411 262.567C516.109 263.158 517.007 263.453 518.103 263.453ZM548.255 256.443C548.255 259.43 547.569 261.833 546.196 263.651C544.823 265.458 542.98 266.361 540.667 266.361C538.198 266.361 536.289 265.488 534.94 263.742L534.778 266H531.707V238.25H535.049V248.602C536.398 246.928 538.259 246.091 540.631 246.091C543.004 246.091 544.865 246.988 546.214 248.783C547.575 250.577 548.255 253.034 548.255 256.154V256.443ZM544.913 256.063C544.913 253.787 544.473 252.029 543.594 250.788C542.715 249.548 541.45 248.927 539.8 248.927C537.596 248.927 536.012 249.951 535.049 251.999V260.454C536.073 262.501 537.668 263.525 539.836 263.525C541.438 263.525 542.685 262.905 543.576 261.664C544.467 260.424 544.913 258.557 544.913 256.063ZM551.598 256.045C551.598 254.13 551.971 252.408 552.718 250.878C553.477 249.349 554.524 248.168 555.861 247.337C557.21 246.506 558.746 246.091 560.468 246.091C563.13 246.091 565.28 247.012 566.918 248.855C568.568 250.698 569.393 253.149 569.393 256.208V256.443C569.393 258.346 569.026 260.056 568.291 261.574C567.568 263.079 566.527 264.254 565.166 265.097C563.817 265.94 562.263 266.361 560.504 266.361C557.855 266.361 555.705 265.44 554.055 263.597C552.417 261.754 551.598 259.315 551.598 256.28V256.045ZM554.958 256.443C554.958 258.611 555.458 260.351 556.458 261.664C557.469 262.977 558.818 263.633 560.504 263.633C562.203 263.633 563.552 262.971 564.551 261.646C565.551 260.309 566.051 258.442 566.051 256.045C566.051 253.902 565.539 252.167 564.515 250.842C563.503 249.505 562.154 248.837 560.468 248.837C558.818 248.837 557.487 249.493 556.476 250.806C555.464 252.119 554.958 253.998 554.958 256.443ZM583.033 249.451C582.527 249.367 581.979 249.325 581.389 249.325C579.197 249.325 577.71 250.258 576.927 252.125V266H573.584V246.452H576.836L576.891 248.71C577.987 246.964 579.54 246.091 581.552 246.091C582.202 246.091 582.696 246.175 583.033 246.344V249.451ZM597.468 266C597.276 265.615 597.119 264.928 596.999 263.94C595.445 265.554 593.59 266.361 591.434 266.361C589.507 266.361 587.923 265.819 586.683 264.735C585.454 263.639 584.84 262.254 584.84 260.58C584.84 258.545 585.611 256.967 587.152 255.847C588.706 254.715 590.886 254.148 593.692 254.148H596.944V252.613C596.944 251.444 596.595 250.517 595.896 249.831C595.198 249.132 594.168 248.783 592.807 248.783C591.615 248.783 590.615 249.084 589.808 249.686C589.001 250.288 588.598 251.017 588.598 251.872H585.237C585.237 250.896 585.581 249.957 586.267 249.054C586.966 248.138 587.905 247.416 589.085 246.886C590.278 246.356 591.585 246.091 593.006 246.091C595.258 246.091 597.023 246.657 598.299 247.789C599.576 248.909 600.238 250.457 600.287 252.432V261.429C600.287 263.224 600.515 264.651 600.973 265.711V266H597.468ZM591.922 263.453C592.97 263.453 593.963 263.182 594.903 262.64C595.842 262.098 596.523 261.393 596.944 260.526V256.515H594.325C590.23 256.515 588.182 257.714 588.182 260.11C588.182 261.158 588.531 261.977 589.23 262.567C589.929 263.158 590.826 263.453 591.922 263.453ZM610.061 241.719V246.452H613.71V249.036H610.061V261.158C610.061 261.941 610.223 262.531 610.548 262.929C610.874 263.314 611.428 263.507 612.21 263.507C612.596 263.507 613.126 263.435 613.8 263.29V266C612.921 266.241 612.066 266.361 611.235 266.361C609.741 266.361 608.615 265.91 607.856 265.006C607.098 264.103 606.718 262.82 606.718 261.158V249.036H603.159V246.452H606.718V241.719H610.061ZM616.384 256.045C616.384 254.13 616.757 252.408 617.504 250.878C618.263 249.349 619.311 248.168 620.647 247.337C621.996 246.506 623.532 246.091 625.254 246.091C627.916 246.091 630.066 247.012 631.704 248.855C633.354 250.698 634.179 253.149 634.179 256.208V256.443C634.179 258.346 633.812 260.056 633.077 261.574C632.354 263.079 631.313 264.254 629.952 265.097C628.603 265.94 627.049 266.361 625.291 266.361C622.641 266.361 620.491 265.44 618.841 263.597C617.203 261.754 616.384 259.315 616.384 256.28V256.045ZM619.744 256.443C619.744 258.611 620.244 260.351 621.244 261.664C622.255 262.977 623.604 263.633 625.291 263.633C626.989 263.633 628.338 262.971 629.337 261.646C630.337 260.309 630.837 258.442 630.837 256.045C630.837 253.902 630.325 252.167 629.301 250.842C628.29 249.505 626.941 248.837 625.254 248.837C623.604 248.837 622.273 249.493 621.262 250.806C620.25 252.119 619.744 253.998 619.744 256.443ZM647.819 249.451C647.313 249.367 646.765 249.325 646.175 249.325C643.983 249.325 642.496 250.258 641.713 252.125V266H638.371V246.452H641.623L641.677 248.71C642.773 246.964 644.326 246.091 646.338 246.091C646.988 246.091 647.482 246.175 647.819 246.344V249.451ZM657.629 261.104L662.182 246.452H665.759L657.9 269.017C656.684 272.269 654.751 273.895 652.101 273.895L651.469 273.841L650.222 273.606V270.896L651.125 270.968C652.258 270.968 653.137 270.739 653.763 270.282C654.402 269.824 654.925 268.987 655.335 267.771L656.076 265.783L649.102 246.452H652.751L657.629 261.104ZM681.676 258.575H678.659L678.424 239.695H681.929L681.676 258.575ZM678.297 264.32C678.297 263.778 678.46 263.326 678.785 262.965C679.122 262.591 679.616 262.405 680.267 262.405C680.917 262.405 681.411 262.591 681.748 262.965C682.085 263.326 682.254 263.778 682.254 264.32C682.254 264.862 682.085 265.313 681.748 265.675C681.411 266.024 680.917 266.199 680.267 266.199C679.616 266.199 679.122 266.024 678.785 265.675C678.46 265.313 678.297 264.862 678.297 264.32Z" fill="white"/>
</g>
<defs>
<linearGradient id="paint0_linear" x1="-47.5" y1="-16.0001" x2="1174.5" y2="541.5" gradientUnits="userSpaceOnUse">
<stop offset="0.411458" stop-color="#5024F8"/>
<stop offset="0.978042" stop-color="#3804FF"/>
<stop offset="1" stop-color="#492CB9" stop-opacity="0"/>
</linearGradient>
<clipPath id="clip0">
<rect width="1195" height="410" fill="white"/>
</clipPath>
</defs>
</svg>
