<svg width="1195" height="410" viewBox="0 0 1195 410" fill="none" xmlns="http://www.w3.org/2000/svg">
<g clip-path="url(#clip0)">
<rect width="1195" height="410" fill="url(#paint0_linear)" fill-opacity="0.86"/>
<path d="M299.55 149C299.55 299.221 177.771 421 27.5498 421C-122.672 421 -244.45 299.221 -244.45 149C-244.45 -1.22145 -122.672 -123 27.5498 -123C177.771 -123 299.55 -1.22145 299.55 149Z" fill="#5E97EC" fill-opacity="0.43"/>
<circle cx="1080" cy="461" r="272" fill="#5E97EC" fill-opacity="0.43"/>
<path d="M266.735 146.897L267.474 151.96L268.555 147.398L276.148 120.609H280.42L287.829 147.398L288.884 152.039L289.701 146.871L295.66 120.609H300.749L291.441 159H286.827L278.917 131.024L278.311 128.098L277.704 131.024L269.504 159H264.89L255.608 120.609H260.671L266.735 146.897ZM328.092 141.255H311.454V154.86H330.781V159H306.392V120.609H330.518V124.775H311.454V137.115H328.092V141.255ZM342.172 154.86H360.365V159H337.083V120.609H342.172V154.86ZM392.639 146.818C392.164 150.879 390.661 154.017 388.13 156.231C385.616 158.429 382.268 159.527 378.084 159.527C373.549 159.527 369.91 157.901 367.168 154.649C364.443 151.397 363.081 147.047 363.081 141.598V137.906C363.081 134.338 363.714 131.2 364.979 128.493C366.263 125.786 368.073 123.712 370.411 122.271C372.749 120.812 375.456 120.082 378.532 120.082C382.61 120.082 385.88 121.225 388.341 123.51C390.802 125.777 392.234 128.924 392.639 132.949H387.55C387.11 129.891 386.152 127.676 384.676 126.305C383.217 124.934 381.169 124.248 378.532 124.248C375.298 124.248 372.758 125.443 370.912 127.834C369.084 130.225 368.17 133.626 368.17 138.038V141.756C368.17 145.922 369.04 149.235 370.78 151.696C372.521 154.157 374.955 155.388 378.084 155.388C380.896 155.388 383.05 154.755 384.544 153.489C386.056 152.206 387.058 149.982 387.55 146.818H392.639ZM429.104 141.044C429.104 144.806 428.472 148.093 427.206 150.905C425.94 153.7 424.147 155.836 421.827 157.312C419.507 158.789 416.8 159.527 413.706 159.527C410.683 159.527 408.002 158.789 405.664 157.312C403.326 155.818 401.507 153.7 400.206 150.958C398.923 148.198 398.264 145.008 398.229 141.387V138.618C398.229 134.927 398.87 131.666 400.153 128.836C401.437 126.006 403.247 123.844 405.585 122.35C407.94 120.838 410.63 120.082 413.653 120.082C416.729 120.082 419.437 120.829 421.774 122.323C424.13 123.8 425.94 125.953 427.206 128.783C428.472 131.596 429.104 134.874 429.104 138.618V141.044ZM424.068 138.565C424.068 134.013 423.154 130.523 421.326 128.098C419.498 125.654 416.94 124.433 413.653 124.433C410.454 124.433 407.932 125.654 406.086 128.098C404.258 130.523 403.317 133.898 403.265 138.223V141.044C403.265 145.456 404.188 148.928 406.033 151.459C407.896 153.973 410.454 155.229 413.706 155.229C416.976 155.229 419.507 154.043 421.3 151.67C423.093 149.279 424.016 145.86 424.068 141.413V138.565ZM443.237 120.609L455.788 151.934L468.339 120.609H474.904V159H469.842V144.05L470.316 127.913L457.713 159H453.837L441.26 127.992L441.761 144.05V159H436.698V120.609H443.237ZM505.543 141.255H488.905V154.86H508.232V159H483.843V120.609H507.969V124.775H488.905V137.115H505.543V141.255ZM553.399 124.775H541.06V159H536.023V124.775H523.71V120.609H553.399V124.775ZM587.888 141.044C587.888 144.806 587.255 148.093 585.989 150.905C584.724 153.7 582.931 155.836 580.61 157.312C578.29 158.789 575.583 159.527 572.489 159.527C569.466 159.527 566.785 158.789 564.447 157.312C562.109 155.818 560.29 153.7 558.989 150.958C557.706 148.198 557.047 145.008 557.012 141.387V138.618C557.012 134.927 557.653 131.666 558.937 128.836C560.22 126.006 562.03 123.844 564.368 122.35C566.724 120.838 569.413 120.082 572.437 120.082C575.513 120.082 578.22 120.829 580.558 122.323C582.913 123.8 584.724 125.953 585.989 128.783C587.255 131.596 587.888 134.874 587.888 138.618V141.044ZM582.852 138.565C582.852 134.013 581.938 130.523 580.109 128.098C578.281 125.654 575.724 124.433 572.437 124.433C569.237 124.433 566.715 125.654 564.869 128.098C563.041 130.523 562.101 133.898 562.048 138.223V141.044C562.048 145.456 562.971 148.928 564.816 151.459C566.68 153.973 569.237 155.229 572.489 155.229C575.759 155.229 578.29 154.043 580.083 151.67C581.876 149.279 582.799 145.86 582.852 141.413V138.565ZM613.965 154.86H632.158V159H608.876V120.609H613.965V154.86ZM659.659 148.98H643.575L639.963 159H634.742L649.402 120.609H653.832L668.519 159H663.324L659.659 148.98ZM645.104 144.814H658.156L651.617 126.858L645.104 144.814ZM673.687 159V120.609H686.237C690.403 120.609 693.532 121.471 695.624 123.193C697.733 124.916 698.788 127.465 698.788 130.84C698.788 132.633 698.278 134.224 697.259 135.612C696.239 136.983 694.851 138.047 693.093 138.803C695.167 139.383 696.802 140.49 697.997 142.125C699.21 143.742 699.816 145.676 699.816 147.926C699.816 151.371 698.7 154.078 696.468 156.047C694.235 158.016 691.08 159 687.002 159H673.687ZM678.749 141.044V154.86H687.107C689.463 154.86 691.317 154.254 692.671 153.041C694.042 151.811 694.728 150.123 694.728 147.979C694.728 143.355 692.214 141.044 687.187 141.044H678.749ZM678.749 136.983H686.396C688.61 136.983 690.377 136.43 691.695 135.322C693.031 134.215 693.699 132.712 693.699 130.813C693.699 128.704 693.084 127.175 691.854 126.226C690.623 125.259 688.751 124.775 686.237 124.775H678.749V136.983ZM720.726 159V120.609H731.562C734.902 120.609 737.855 121.348 740.422 122.824C742.988 124.301 744.966 126.401 746.354 129.126C747.761 131.851 748.473 134.979 748.49 138.513V140.965C748.49 144.586 747.787 147.759 746.381 150.483C744.992 153.208 742.997 155.3 740.396 156.759C737.812 158.218 734.797 158.965 731.352 159H720.726ZM725.788 124.775V154.86H731.114C735.017 154.86 738.049 153.647 740.211 151.222C742.391 148.796 743.48 145.342 743.48 140.859V138.618C743.48 134.259 742.452 130.875 740.396 128.467C738.356 126.041 735.456 124.811 731.694 124.775H725.788ZM777.863 141.255H761.226V154.86H780.553V159H756.163V120.609H780.289V124.775H761.226V137.115H777.863V141.255ZM815.094 146.818C814.619 150.879 813.116 154.017 810.585 156.231C808.071 158.429 804.723 159.527 800.539 159.527C796.004 159.527 792.365 157.901 789.623 154.649C786.898 151.397 785.536 147.047 785.536 141.598V137.906C785.536 134.338 786.169 131.2 787.435 128.493C788.718 125.786 790.528 123.712 792.866 122.271C795.204 120.812 797.911 120.082 800.987 120.082C805.065 120.082 808.335 121.225 810.796 123.51C813.257 125.777 814.689 128.924 815.094 132.949H810.005C809.565 129.891 808.607 127.676 807.131 126.305C805.672 124.934 803.624 124.248 800.987 124.248C797.753 124.248 795.213 125.443 793.367 127.834C791.539 130.225 790.625 133.626 790.625 138.038V141.756C790.625 145.922 791.495 149.235 793.235 151.696C794.976 154.157 797.41 155.388 800.539 155.388C803.352 155.388 805.505 154.755 806.999 153.489C808.511 152.206 809.513 149.982 810.005 146.818H815.094ZM843.228 148.98H827.144L823.531 159H818.311L832.971 120.609H837.4L852.087 159H846.893L843.228 148.98ZM828.673 144.814H841.725L835.186 126.858L828.673 144.814ZM857.255 159V120.609H869.806C873.972 120.609 877.101 121.471 879.192 123.193C881.302 124.916 882.356 127.465 882.356 130.84C882.356 132.633 881.847 134.224 880.827 135.612C879.808 136.983 878.419 138.047 876.661 138.803C878.735 139.383 880.37 140.49 881.565 142.125C882.778 143.742 883.385 145.676 883.385 147.926C883.385 151.371 882.269 154.078 880.036 156.047C877.804 158.016 874.648 159 870.57 159H857.255ZM862.317 141.044V154.86H870.676C873.031 154.86 874.886 154.254 876.239 153.041C877.61 151.811 878.296 150.123 878.296 147.979C878.296 143.355 875.782 141.044 870.755 141.044H862.317ZM862.317 136.983H869.964C872.179 136.983 873.945 136.43 875.264 135.322C876.6 134.215 877.268 132.712 877.268 130.813C877.268 128.704 876.652 127.175 875.422 126.226C874.191 125.259 872.319 124.775 869.806 124.775H862.317V136.983ZM896.331 159H891.269V120.609H896.331V159ZM931.347 124.775H919.007V159H913.971V124.775H901.657V120.609H931.347V124.775ZM947.932 141.888C943.59 140.64 940.426 139.11 938.439 137.3C936.471 135.472 935.486 133.222 935.486 130.55C935.486 127.526 936.69 125.03 939.099 123.062C941.524 121.075 944.671 120.082 948.538 120.082C951.175 120.082 953.521 120.592 955.578 121.611C957.652 122.631 959.252 124.037 960.377 125.83C961.52 127.623 962.091 129.583 962.091 131.71H957.002C957.002 129.39 956.264 127.57 954.787 126.252C953.311 124.916 951.228 124.248 948.538 124.248C946.042 124.248 944.091 124.802 942.685 125.909C941.296 126.999 940.602 128.52 940.602 130.471C940.602 132.035 941.261 133.362 942.579 134.452C943.915 135.524 946.174 136.509 949.355 137.405C952.555 138.302 955.051 139.295 956.844 140.385C958.654 141.457 959.99 142.714 960.852 144.155C961.73 145.597 962.17 147.293 962.17 149.244C962.17 152.355 960.957 154.852 958.531 156.732C956.105 158.596 952.862 159.527 948.802 159.527C946.165 159.527 943.704 159.026 941.419 158.024C939.134 157.005 937.367 155.616 936.119 153.858C934.889 152.101 934.273 150.105 934.273 147.873H939.362C939.362 150.193 940.215 152.03 941.92 153.384C943.643 154.72 945.937 155.388 948.802 155.388C951.474 155.388 953.521 154.843 954.945 153.753C956.369 152.663 957.081 151.178 957.081 149.297C957.081 147.416 956.422 145.966 955.104 144.946C953.785 143.909 951.395 142.89 947.932 141.888Z" fill="white"/>
<path d="M281.977 198.592H272.962V223H270.74V198.592H261.743V196.695H281.977V198.592ZM291.498 223.361C289.836 223.361 288.33 222.952 286.981 222.133C285.645 221.314 284.603 220.176 283.856 218.718C283.109 217.249 282.736 215.605 282.736 213.786V213.009C282.736 211.13 283.097 209.438 283.82 207.933C284.555 206.427 285.572 205.247 286.873 204.392C288.174 203.524 289.583 203.091 291.101 203.091C293.473 203.091 295.352 203.904 296.737 205.53C298.134 207.144 298.833 209.354 298.833 212.16V213.371H284.886V213.786C284.886 216.002 285.518 217.851 286.783 219.333C288.059 220.802 289.661 221.537 291.588 221.537C292.745 221.537 293.762 221.326 294.642 220.904C295.533 220.483 296.34 219.808 297.062 218.881L298.417 219.911C296.828 222.211 294.521 223.361 291.498 223.361ZM291.101 204.934C289.475 204.934 288.102 205.53 286.981 206.722C285.873 207.915 285.199 209.516 284.958 211.528H296.683V211.293C296.623 209.414 296.087 207.884 295.075 206.704C294.063 205.524 292.739 204.934 291.101 204.934ZM314.75 218.032C314.75 216.96 314.316 216.099 313.449 215.448C312.594 214.798 311.299 214.292 309.564 213.931C307.83 213.557 306.481 213.136 305.518 212.666C304.566 212.184 303.855 211.6 303.386 210.914C302.928 210.227 302.699 209.396 302.699 208.42C302.699 206.879 303.344 205.608 304.632 204.608C305.921 203.597 307.571 203.091 309.583 203.091C311.763 203.091 313.509 203.633 314.822 204.717C316.147 205.789 316.809 207.192 316.809 208.926H314.641C314.641 207.782 314.159 206.831 313.196 206.072C312.244 205.313 311.04 204.934 309.583 204.934C308.161 204.934 307.017 205.253 306.15 205.891C305.295 206.517 304.867 207.336 304.867 208.348C304.867 209.324 305.222 210.083 305.933 210.625C306.656 211.154 307.963 211.642 309.854 212.088C311.757 212.534 313.178 213.009 314.117 213.515C315.069 214.021 315.773 214.629 316.231 215.34C316.689 216.05 316.917 216.912 316.917 217.923C316.917 219.573 316.249 220.892 314.912 221.88C313.587 222.868 311.853 223.361 309.709 223.361C307.433 223.361 305.584 222.813 304.163 221.717C302.753 220.609 302.049 219.212 302.049 217.526H304.217C304.301 218.791 304.831 219.778 305.807 220.489C306.794 221.187 308.095 221.537 309.709 221.537C311.215 221.537 312.431 221.205 313.358 220.543C314.286 219.881 314.75 219.043 314.75 218.032ZM325.156 198.448V203.452H329.203V205.223H325.156V218.249C325.156 219.333 325.348 220.139 325.734 220.669C326.131 221.199 326.788 221.464 327.703 221.464C328.064 221.464 328.649 221.404 329.456 221.284L329.546 223.054C328.98 223.259 328.209 223.361 327.233 223.361C325.752 223.361 324.674 222.934 324 222.079C323.325 221.211 322.988 219.941 322.988 218.267V205.223H319.393V203.452H322.988V198.448H325.156ZM333.231 227.914L331.949 226.975C333.045 225.505 333.611 223.982 333.647 222.404V219.604H335.761V221.862C335.761 224.367 334.918 226.384 333.231 227.914ZM357.332 223.361C355.67 223.361 354.164 222.952 352.815 222.133C351.479 221.314 350.437 220.176 349.69 218.718C348.943 217.249 348.57 215.605 348.57 213.786V213.009C348.57 211.13 348.931 209.438 349.654 207.933C350.389 206.427 351.406 205.247 352.707 204.392C354.008 203.524 355.417 203.091 356.935 203.091C359.307 203.091 361.186 203.904 362.571 205.53C363.968 207.144 364.667 209.354 364.667 212.16V213.371H350.72V213.786C350.72 216.002 351.352 217.851 352.617 219.333C353.893 220.802 355.495 221.537 357.422 221.537C358.579 221.537 359.596 221.326 360.476 220.904C361.367 220.483 362.174 219.808 362.896 218.881L364.251 219.911C362.662 222.211 360.355 223.361 357.332 223.361ZM356.935 204.934C355.309 204.934 353.936 205.53 352.815 206.722C351.707 207.915 351.033 209.516 350.792 211.528H362.517V211.293C362.457 209.414 361.921 207.884 360.909 206.704C359.897 205.524 358.573 204.934 356.935 204.934ZM375.019 211.383L380.294 203.452H382.86L376.229 213.045L383.149 223H380.602L375.037 214.726L369.473 223H366.925L373.827 213.045L367.196 203.452H369.744L375.019 211.383ZM402.588 213.425C402.588 216.472 401.914 218.893 400.565 220.688C399.216 222.47 397.409 223.361 395.145 223.361C392.471 223.361 390.424 222.422 389.002 220.543V230.516H386.853V203.452H388.858L388.966 206.216C390.375 204.133 392.417 203.091 395.091 203.091C397.427 203.091 399.258 203.976 400.583 205.747C401.92 207.517 402.588 209.974 402.588 213.118V213.425ZM400.42 213.045C400.42 210.552 399.909 208.583 398.885 207.138C397.861 205.692 396.434 204.97 394.603 204.97C393.278 204.97 392.14 205.289 391.188 205.927C390.237 206.566 389.508 207.493 389.002 208.709V218.086C389.52 219.206 390.261 220.061 391.225 220.651C392.188 221.242 393.326 221.537 394.639 221.537C396.458 221.537 397.873 220.814 398.885 219.369C399.909 217.911 400.42 215.804 400.42 213.045ZM414.964 223.361C413.302 223.361 411.796 222.952 410.447 222.133C409.11 221.314 408.069 220.176 407.322 218.718C406.575 217.249 406.202 215.605 406.202 213.786V213.009C406.202 211.13 406.563 209.438 407.286 207.933C408.02 206.427 409.038 205.247 410.339 204.392C411.64 203.524 413.049 203.091 414.566 203.091C416.939 203.091 418.818 203.904 420.203 205.53C421.6 207.144 422.299 209.354 422.299 212.16V213.371H408.352V213.786C408.352 216.002 408.984 217.851 410.249 219.333C411.525 220.802 413.127 221.537 415.054 221.537C416.21 221.537 417.228 221.326 418.107 220.904C418.999 220.483 419.806 219.808 420.528 218.881L421.883 219.911C420.293 222.211 417.987 223.361 414.964 223.361ZM414.566 204.934C412.94 204.934 411.567 205.53 410.447 206.722C409.339 207.915 408.665 209.516 408.424 211.528H420.149V211.293C420.089 209.414 419.553 207.884 418.541 206.704C417.529 205.524 416.204 204.934 414.566 204.934ZM435.542 205.295C435.084 205.211 434.596 205.168 434.078 205.168C432.729 205.168 431.585 205.548 430.646 206.307C429.718 207.053 429.056 208.143 428.658 209.577V223H426.508V203.452H428.622L428.658 206.56C429.802 204.247 431.639 203.091 434.168 203.091C434.771 203.091 435.246 203.169 435.596 203.326L435.542 205.295ZM441.395 223H439.227V203.452H441.395V223ZM438.848 197.797C438.848 197.388 438.98 197.045 439.245 196.768C439.51 196.479 439.871 196.334 440.329 196.334C440.787 196.334 441.148 196.479 441.413 196.768C441.69 197.045 441.829 197.388 441.829 197.797C441.829 198.207 441.69 198.55 441.413 198.827C441.148 199.104 440.787 199.243 440.329 199.243C439.871 199.243 439.51 199.104 439.245 198.827C438.98 198.55 438.848 198.207 438.848 197.797ZM449.254 203.452L449.326 206.632C450.049 205.451 450.952 204.566 452.036 203.976C453.12 203.386 454.325 203.091 455.649 203.091C458.733 203.091 460.69 204.355 461.521 206.885C462.22 205.668 463.153 204.735 464.321 204.084C465.49 203.422 466.778 203.091 468.188 203.091C472.379 203.091 474.517 205.379 474.601 209.956V223H472.433V210.119C472.421 208.372 472.042 207.077 471.295 206.234C470.56 205.391 469.356 204.97 467.682 204.97C466.128 204.994 464.815 205.5 463.743 206.487C462.671 207.463 462.075 208.655 461.955 210.064V223H459.787V209.956C459.775 208.282 459.377 207.035 458.594 206.216C457.823 205.385 456.631 204.97 455.017 204.97C453.656 204.97 452.488 205.361 451.512 206.144C450.537 206.915 449.814 208.065 449.344 209.595V223H447.176V203.452H449.254ZM487.663 223.361C486.001 223.361 484.495 222.952 483.146 222.133C481.81 221.314 480.768 220.176 480.021 218.718C479.274 217.249 478.901 215.605 478.901 213.786V213.009C478.901 211.13 479.262 209.438 479.985 207.933C480.72 206.427 481.737 205.247 483.038 204.392C484.339 203.524 485.748 203.091 487.266 203.091C489.638 203.091 491.517 203.904 492.902 205.53C494.299 207.144 494.998 209.354 494.998 212.16V213.371H481.051V213.786C481.051 216.002 481.683 217.851 482.948 219.333C484.224 220.802 485.826 221.537 487.753 221.537C488.91 221.537 489.927 221.326 490.807 220.904C491.698 220.483 492.505 219.808 493.228 218.881L494.583 219.911C492.993 222.211 490.686 223.361 487.663 223.361ZM487.266 204.934C485.64 204.934 484.267 205.53 483.146 206.722C482.038 207.915 481.364 209.516 481.123 211.528H492.848V211.293C492.788 209.414 492.252 207.884 491.24 206.704C490.229 205.524 488.904 204.934 487.266 204.934ZM501.267 203.452L501.339 206.794C502.074 205.59 502.989 204.675 504.085 204.048C505.181 203.41 506.392 203.091 507.717 203.091C509.812 203.091 511.372 203.681 512.396 204.861C513.42 206.042 513.938 207.812 513.95 210.173V223H511.8V210.155C511.788 208.408 511.414 207.108 510.68 206.252C509.957 205.397 508.795 204.97 507.193 204.97C505.856 204.97 504.67 205.391 503.634 206.234C502.61 207.065 501.851 208.192 501.357 209.613V223H499.208V203.452H501.267ZM522.911 198.448V203.452H526.958V205.223H522.911V218.249C522.911 219.333 523.103 220.139 523.489 220.669C523.886 221.199 524.543 221.464 525.458 221.464C525.819 221.464 526.403 221.404 527.21 221.284L527.301 223.054C526.735 223.259 525.964 223.361 524.988 223.361C523.507 223.361 522.429 222.934 521.754 222.079C521.08 221.211 520.743 219.941 520.743 218.267V205.223H517.147V203.452H520.743V198.448H522.911ZM553.913 208.655C552.865 207.391 552.1 206.264 551.618 205.277C551.148 204.277 550.914 203.29 550.914 202.314C550.914 200.471 551.462 199.014 552.558 197.942C553.654 196.87 555.123 196.334 556.966 196.334C558.64 196.334 559.995 196.822 561.031 197.797C562.067 198.761 562.584 199.989 562.584 201.483C562.584 203.217 561.585 204.922 559.585 206.596L556.695 208.836L563.921 217.255C565.017 215.484 565.565 213.479 565.565 211.239H567.571C567.571 214.226 566.8 216.749 565.258 218.809L568.854 223H566.252L563.976 220.362C563.024 221.302 561.922 222.036 560.669 222.566C559.429 223.096 558.116 223.361 556.731 223.361C554.226 223.361 552.238 222.723 550.769 221.446C549.3 220.158 548.565 218.441 548.565 216.297C548.565 215.021 548.938 213.816 549.685 212.684C550.444 211.54 551.769 210.257 553.66 208.836L553.913 208.655ZM556.731 221.537C557.827 221.537 558.887 221.308 559.911 220.85C560.946 220.38 561.874 219.718 562.693 218.863L555.34 210.335L555.087 210.064L554.256 210.697C551.895 212.624 550.715 214.491 550.715 216.297C550.715 217.875 551.257 219.146 552.341 220.109C553.425 221.061 554.888 221.537 556.731 221.537ZM553.082 202.242C553.082 203.711 553.895 205.445 555.521 207.445L557.887 205.638C558.658 205.084 559.29 204.476 559.784 203.813C560.278 203.151 560.525 202.374 560.525 201.483C560.525 200.543 560.2 199.761 559.549 199.134C558.899 198.496 558.032 198.177 556.948 198.177C555.767 198.177 554.828 198.556 554.129 199.315C553.431 200.074 553.082 201.049 553.082 202.242ZM580.326 213.045C580.326 210.01 581 207.595 582.349 205.801C583.71 203.994 585.553 203.091 587.877 203.091C590.515 203.091 592.527 204.133 593.912 206.216V195.25H596.062V223H594.038L593.948 220.398C592.563 222.374 590.527 223.361 587.841 223.361C585.589 223.361 583.77 222.458 582.385 220.651C581.012 218.833 580.326 216.382 580.326 213.298V213.045ZM582.512 213.425C582.512 215.918 583.012 217.887 584.011 219.333C585.011 220.766 586.42 221.482 588.239 221.482C590.901 221.482 592.792 220.308 593.912 217.959V208.782C592.792 206.24 590.913 204.97 588.275 204.97C586.456 204.97 585.041 205.686 584.029 207.12C583.018 208.541 582.512 210.643 582.512 213.425ZM604.173 223H602.005V203.452H604.173V223ZM601.626 197.797C601.626 197.388 601.758 197.045 602.023 196.768C602.288 196.479 602.65 196.334 603.107 196.334C603.565 196.334 603.926 196.479 604.191 196.768C604.468 197.045 604.607 197.388 604.607 197.797C604.607 198.207 604.468 198.55 604.191 198.827C603.926 199.104 603.565 199.243 603.107 199.243C602.65 199.243 602.288 199.104 602.023 198.827C601.758 198.55 601.626 198.207 601.626 197.797ZM621.77 218.032C621.77 216.96 621.336 216.099 620.469 215.448C619.614 214.798 618.319 214.292 616.585 213.931C614.851 213.557 613.502 213.136 612.538 212.666C611.587 212.184 610.876 211.6 610.406 210.914C609.949 210.227 609.72 209.396 609.72 208.42C609.72 206.879 610.364 205.608 611.653 204.608C612.942 203.597 614.592 203.091 616.603 203.091C618.783 203.091 620.529 203.633 621.842 204.717C623.167 205.789 623.83 207.192 623.83 208.926H621.662C621.662 207.782 621.18 206.831 620.216 206.072C619.265 205.313 618.06 204.934 616.603 204.934C615.182 204.934 614.038 205.253 613.17 205.891C612.315 206.517 611.888 207.336 611.888 208.348C611.888 209.324 612.243 210.083 612.954 210.625C613.676 211.154 614.983 211.642 616.874 212.088C618.777 212.534 620.198 213.009 621.138 213.515C622.089 214.021 622.794 214.629 623.251 215.34C623.709 216.05 623.938 216.912 623.938 217.923C623.938 219.573 623.27 220.892 621.933 221.88C620.608 222.868 618.873 223.361 616.729 223.361C614.453 223.361 612.604 222.813 611.183 221.717C609.774 220.609 609.069 219.212 609.069 217.526H611.237C611.322 218.791 611.852 219.778 612.827 220.489C613.815 221.187 615.116 221.537 616.729 221.537C618.235 221.537 619.451 221.205 620.379 220.543C621.306 219.881 621.77 219.043 621.77 218.032ZM636.042 221.537C637.548 221.537 638.807 221.115 639.818 220.272C640.842 219.417 641.396 218.315 641.48 216.966H643.558C643.498 218.158 643.125 219.248 642.438 220.236C641.751 221.211 640.836 221.976 639.692 222.53C638.56 223.084 637.343 223.361 636.042 223.361C633.477 223.361 631.442 222.47 629.936 220.688C628.443 218.905 627.696 216.508 627.696 213.497V212.847C627.696 210.92 628.033 209.215 628.708 207.734C629.382 206.252 630.346 205.108 631.598 204.301C632.863 203.494 634.338 203.091 636.024 203.091C638.168 203.091 639.933 203.729 641.318 205.006C642.715 206.283 643.462 207.963 643.558 210.046H641.48C641.384 208.517 640.83 207.282 639.818 206.343C638.819 205.403 637.554 204.934 636.024 204.934C634.073 204.934 632.556 205.638 631.472 207.047C630.4 208.457 629.864 210.432 629.864 212.973V213.605C629.864 216.099 630.4 218.044 631.472 219.441C632.556 220.838 634.079 221.537 636.042 221.537ZM646.702 212.937C646.702 211.058 647.063 209.366 647.786 207.86C648.52 206.355 649.55 205.187 650.875 204.355C652.212 203.512 653.723 203.091 655.41 203.091C658.011 203.091 660.119 204.006 661.733 205.837C663.347 207.656 664.154 210.07 664.154 213.082V213.533C664.154 215.424 663.786 217.128 663.052 218.646C662.329 220.152 661.305 221.314 659.98 222.133C658.656 222.952 657.144 223.361 655.446 223.361C652.856 223.361 650.749 222.452 649.123 220.633C647.509 218.803 646.702 216.382 646.702 213.371V212.937ZM648.87 213.533C648.87 215.87 649.472 217.791 650.676 219.296C651.893 220.79 653.483 221.537 655.446 221.537C657.397 221.537 658.975 220.79 660.179 219.296C661.396 217.791 662.004 215.81 662.004 213.353V212.937C662.004 211.444 661.727 210.076 661.173 208.836C660.619 207.595 659.842 206.638 658.842 205.963C657.843 205.277 656.698 204.934 655.41 204.934C653.483 204.934 651.911 205.692 650.694 207.21C649.478 208.715 648.87 210.691 648.87 213.136V213.533ZM674.434 220.019L680.377 203.452H682.6L675.301 223H673.548L666.213 203.452H668.436L674.434 220.019ZM693.476 223.361C691.813 223.361 690.308 222.952 688.959 222.133C687.622 221.314 686.58 220.176 685.833 218.718C685.087 217.249 684.713 215.605 684.713 213.786V213.009C684.713 211.13 685.075 209.438 685.797 207.933C686.532 206.427 687.55 205.247 688.851 204.392C690.151 203.524 691.561 203.091 693.078 203.091C695.451 203.091 697.33 203.904 698.715 205.53C700.112 207.144 700.811 209.354 700.811 212.16V213.371H686.863V213.786C686.863 216.002 687.496 217.851 688.76 219.333C690.037 220.802 691.639 221.537 693.566 221.537C694.722 221.537 695.74 221.326 696.619 220.904C697.51 220.483 698.317 219.808 699.04 218.881L700.395 219.911C698.805 222.211 696.499 223.361 693.476 223.361ZM693.078 204.934C691.452 204.934 690.079 205.53 688.959 206.722C687.851 207.915 687.176 209.516 686.936 211.528H698.661V211.293C698.6 209.414 698.064 207.884 697.053 206.704C696.041 205.524 694.716 204.934 693.078 204.934ZM714.053 205.295C713.596 205.211 713.108 205.168 712.59 205.168C711.241 205.168 710.097 205.548 709.157 206.307C708.23 207.053 707.567 208.143 707.17 209.577V223H705.02V203.452H707.134L707.17 206.56C708.314 204.247 710.151 203.091 712.68 203.091C713.282 203.091 713.758 203.169 714.107 203.326L714.053 205.295ZM725.291 212.937C725.291 211.058 725.652 209.366 726.375 207.86C727.109 206.355 728.139 205.187 729.464 204.355C730.801 203.512 732.312 203.091 733.999 203.091C736.6 203.091 738.708 204.006 740.322 205.837C741.936 207.656 742.743 210.07 742.743 213.082V213.533C742.743 215.424 742.375 217.128 741.641 218.646C740.918 220.152 739.894 221.314 738.569 222.133C737.244 222.952 735.733 223.361 734.035 223.361C731.445 223.361 729.337 222.452 727.711 220.633C726.097 218.803 725.291 216.382 725.291 213.371V212.937ZM727.458 213.533C727.458 215.87 728.061 217.791 729.265 219.296C730.482 220.79 732.071 221.537 734.035 221.537C735.986 221.537 737.564 220.79 738.768 219.296C739.985 217.791 740.593 215.81 740.593 213.353V212.937C740.593 211.444 740.316 210.076 739.762 208.836C739.208 207.595 738.431 206.638 737.431 205.963C736.431 205.277 735.287 204.934 733.999 204.934C732.071 204.934 730.5 205.692 729.283 207.21C728.067 208.715 727.458 210.691 727.458 213.136V213.533ZM759.797 220.525C758.497 222.416 756.419 223.361 753.564 223.361C751.481 223.361 749.897 222.759 748.813 221.555C747.729 220.338 747.175 218.544 747.151 216.171V203.452H749.301V215.9C749.301 219.622 750.806 221.482 753.817 221.482C756.949 221.482 758.93 220.188 759.761 217.598V203.452H761.929V223H759.833L759.797 220.525ZM776.599 205.295C776.141 205.211 775.654 205.168 775.136 205.168C773.787 205.168 772.643 205.548 771.703 206.307C770.776 207.053 770.113 208.143 769.716 209.577V223H767.566V203.452H769.68L769.716 206.56C770.86 204.247 772.697 203.091 775.226 203.091C775.828 203.091 776.304 203.169 776.653 203.326L776.599 205.295ZM800.736 218.032C800.736 216.96 800.302 216.099 799.435 215.448C798.58 214.798 797.285 214.292 795.551 213.931C793.816 213.557 792.467 213.136 791.504 212.666C790.552 212.184 789.842 211.6 789.372 210.914C788.914 210.227 788.686 209.396 788.686 208.42C788.686 206.879 789.33 205.608 790.619 204.608C791.907 203.597 793.557 203.091 795.569 203.091C797.749 203.091 799.495 203.633 800.808 204.717C802.133 205.789 802.795 207.192 802.795 208.926H800.627C800.627 207.782 800.146 206.831 799.182 206.072C798.231 205.313 797.026 204.934 795.569 204.934C794.148 204.934 793.003 205.253 792.136 205.891C791.281 206.517 790.854 207.336 790.854 208.348C790.854 209.324 791.209 210.083 791.919 210.625C792.642 211.154 793.949 211.642 795.84 212.088C797.743 212.534 799.164 213.009 800.104 213.515C801.055 214.021 801.76 214.629 802.217 215.34C802.675 216.05 802.904 216.912 802.904 217.923C802.904 219.573 802.235 220.892 800.898 221.88C799.574 222.868 797.839 223.361 795.695 223.361C793.419 223.361 791.57 222.813 790.149 221.717C788.74 220.609 788.035 219.212 788.035 217.526H790.203C790.287 218.791 790.817 219.778 791.793 220.489C792.781 221.187 794.081 221.537 795.695 221.537C797.201 221.537 798.417 221.205 799.345 220.543C800.272 219.881 800.736 219.043 800.736 218.032ZM815.352 223.361C813.689 223.361 812.184 222.952 810.835 222.133C809.498 221.314 808.456 220.176 807.709 218.718C806.963 217.249 806.589 215.605 806.589 213.786V213.009C806.589 211.13 806.951 209.438 807.673 207.933C808.408 206.427 809.426 205.247 810.727 204.392C812.027 203.524 813.437 203.091 814.954 203.091C817.327 203.091 819.206 203.904 820.591 205.53C821.988 207.144 822.687 209.354 822.687 212.16V213.371H808.739V213.786C808.739 216.002 809.372 217.851 810.636 219.333C811.913 220.802 813.515 221.537 815.442 221.537C816.598 221.537 817.616 221.326 818.495 220.904C819.386 220.483 820.193 219.808 820.916 218.881L822.271 219.911C820.681 222.211 818.375 223.361 815.352 223.361ZM814.954 204.934C813.328 204.934 811.955 205.53 810.835 206.722C809.727 207.915 809.052 209.516 808.812 211.528H820.537V211.293C820.476 209.414 819.94 207.884 818.929 206.704C817.917 205.524 816.592 204.934 814.954 204.934ZM829.317 223H827.149V195.25H829.317V223ZM836.76 223V205.223H833.526V203.452H836.76V201.085C836.76 199.086 837.266 197.55 838.278 196.479C839.302 195.407 840.723 194.871 842.542 194.871C843.361 194.871 844.125 194.973 844.836 195.178L844.673 196.984C844.071 196.84 843.415 196.768 842.704 196.768C841.512 196.768 840.584 197.141 839.922 197.888C839.259 198.622 838.928 199.67 838.928 201.031V203.452H843.589V205.223H838.928V223H836.76ZM863.679 221.537C865.185 221.537 866.443 221.115 867.455 220.272C868.479 219.417 869.033 218.315 869.117 216.966H871.195C871.135 218.158 870.761 219.248 870.075 220.236C869.388 221.211 868.473 221.976 867.329 222.53C866.196 223.084 864.98 223.361 863.679 223.361C861.114 223.361 859.078 222.47 857.573 220.688C856.079 218.905 855.333 216.508 855.333 213.497V212.847C855.333 210.92 855.67 209.215 856.344 207.734C857.019 206.252 857.982 205.108 859.235 204.301C860.5 203.494 861.975 203.091 863.661 203.091C865.805 203.091 867.569 203.729 868.955 205.006C870.352 206.283 871.098 207.963 871.195 210.046H869.117C869.021 208.517 868.467 207.282 867.455 206.343C866.455 205.403 865.191 204.934 863.661 204.934C861.71 204.934 860.192 205.638 859.108 207.047C858.036 208.457 857.5 210.432 857.5 212.973V213.605C857.5 216.099 858.036 218.044 859.108 219.441C860.192 220.838 861.716 221.537 863.679 221.537ZM888.105 220.525C886.804 222.416 884.727 223.361 881.872 223.361C879.788 223.361 878.205 222.759 877.121 221.555C876.037 220.338 875.483 218.544 875.458 216.171V203.452H877.608V215.9C877.608 219.622 879.114 221.482 882.125 221.482C885.257 221.482 887.238 220.188 888.069 217.598V203.452H890.237V223H888.141L888.105 220.525ZM904.907 205.295C904.449 205.211 903.961 205.168 903.443 205.168C902.094 205.168 900.95 205.548 900.011 206.307C899.083 207.053 898.421 208.143 898.023 209.577V223H895.874V203.452H897.987L898.023 206.56C899.168 204.247 901.004 203.091 903.534 203.091C904.136 203.091 904.612 203.169 904.961 203.326L904.907 205.295ZM919.956 223C919.739 222.386 919.601 221.476 919.541 220.272C918.782 221.26 917.812 222.024 916.632 222.566C915.464 223.096 914.223 223.361 912.91 223.361C911.031 223.361 909.508 222.837 908.339 221.79C907.183 220.742 906.605 219.417 906.605 217.815C906.605 215.912 907.394 214.406 908.972 213.298C910.562 212.19 912.772 211.636 915.602 211.636H919.522V209.414C919.522 208.017 919.089 206.921 918.222 206.126C917.367 205.319 916.114 204.916 914.464 204.916C912.958 204.916 911.712 205.301 910.724 206.072C909.736 206.843 909.243 207.77 909.243 208.854L907.075 208.836C907.075 207.282 907.797 205.939 909.243 204.807C910.688 203.663 912.465 203.091 914.572 203.091C916.752 203.091 918.469 203.639 919.721 204.735C920.986 205.819 921.636 207.336 921.672 209.288V218.538C921.672 220.429 921.871 221.844 922.269 222.783V223H919.956ZM913.163 221.446C914.608 221.446 915.897 221.097 917.029 220.398C918.174 219.7 919.005 218.766 919.522 217.598V213.298H915.656C913.5 213.322 911.814 213.72 910.598 214.491C909.381 215.25 908.773 216.297 908.773 217.634C908.773 218.73 909.176 219.64 909.983 220.362C910.802 221.085 911.862 221.446 913.163 221.446ZM930.814 198.448V203.452H934.861V205.223H930.814V218.249C930.814 219.333 931.007 220.139 931.392 220.669C931.79 221.199 932.446 221.464 933.361 221.464C933.723 221.464 934.307 221.404 935.114 221.284L935.204 223.054C934.638 223.259 933.867 223.361 932.892 223.361C931.41 223.361 930.332 222.934 929.658 222.079C928.983 221.211 928.646 219.941 928.646 218.267V205.223H925.051V203.452H928.646V198.448H930.814ZM946.911 223.361C945.249 223.361 943.743 222.952 942.395 222.133C941.058 221.314 940.016 220.176 939.269 218.718C938.522 217.249 938.149 215.605 938.149 213.786V213.009C938.149 211.13 938.51 209.438 939.233 207.933C939.968 206.427 940.985 205.247 942.286 204.392C943.587 203.524 944.996 203.091 946.514 203.091C948.886 203.091 950.765 203.904 952.15 205.53C953.548 207.144 954.246 209.354 954.246 212.16V213.371H940.299V213.786C940.299 216.002 940.931 217.851 942.196 219.333C943.472 220.802 945.074 221.537 947.001 221.537C948.158 221.537 949.175 221.326 950.055 220.904C950.946 220.483 951.753 219.808 952.476 218.881L953.831 219.911C952.241 222.211 949.934 223.361 946.911 223.361ZM946.514 204.934C944.888 204.934 943.515 205.53 942.395 206.722C941.286 207.915 940.612 209.516 940.371 211.528H952.096V211.293C952.036 209.414 951.5 207.884 950.488 206.704C949.477 205.524 948.152 204.934 946.514 204.934ZM957.588 213.045C957.588 210.01 958.263 207.595 959.612 205.801C960.973 203.994 962.816 203.091 965.14 203.091C967.778 203.091 969.789 204.133 971.174 206.216V195.25H973.324V223H971.301L971.21 220.398C969.825 222.374 967.79 223.361 965.104 223.361C962.852 223.361 961.033 222.458 959.648 220.651C958.275 218.833 957.588 216.382 957.588 213.298V213.045ZM959.774 213.425C959.774 215.918 960.274 217.887 961.274 219.333C962.274 220.766 963.683 221.482 965.501 221.482C968.163 221.482 970.054 220.308 971.174 217.959V208.782C970.054 206.24 968.175 204.97 965.538 204.97C963.719 204.97 962.304 205.686 961.292 207.12C960.28 208.541 959.774 210.643 959.774 213.425ZM533.245 266H531.077V238.25H533.245V266ZM551.474 266C551.257 265.386 551.118 264.476 551.058 263.272C550.299 264.26 549.33 265.024 548.149 265.566C546.981 266.096 545.741 266.361 544.428 266.361C542.549 266.361 541.025 265.837 539.857 264.79C538.701 263.742 538.123 262.417 538.123 260.815C538.123 258.912 538.911 257.406 540.489 256.298C542.079 255.19 544.289 254.636 547.12 254.636H551.04V252.414C551.04 251.017 550.606 249.921 549.739 249.126C548.884 248.319 547.632 247.916 545.981 247.916C544.476 247.916 543.229 248.301 542.242 249.072C541.254 249.843 540.76 250.77 540.76 251.854L538.592 251.836C538.592 250.282 539.315 248.939 540.76 247.807C542.206 246.663 543.982 246.091 546.09 246.091C548.27 246.091 549.986 246.639 551.239 247.735C552.503 248.819 553.154 250.336 553.19 252.288V261.538C553.19 263.429 553.389 264.844 553.786 265.783V266H551.474ZM544.681 264.446C546.126 264.446 547.415 264.097 548.547 263.398C549.691 262.7 550.522 261.766 551.04 260.598V256.298H547.174C545.018 256.322 543.332 256.72 542.115 257.491C540.899 258.25 540.291 259.297 540.291 260.634C540.291 261.73 540.694 262.64 541.501 263.362C542.32 264.085 543.38 264.446 544.681 264.446ZM574.707 256.425C574.707 259.472 574.033 261.893 572.684 263.688C571.335 265.47 569.522 266.361 567.246 266.361C564.524 266.361 562.464 265.35 561.067 263.326L560.977 266H558.953V238.25H561.103V249.289C562.476 247.157 564.512 246.091 567.209 246.091C569.522 246.091 571.347 246.976 572.684 248.747C574.033 250.505 574.707 252.956 574.707 256.1V256.425ZM572.539 256.045C572.539 253.468 572.039 251.481 571.04 250.083C570.04 248.674 568.631 247.97 566.812 247.97C565.427 247.97 564.253 248.313 563.289 249C562.326 249.674 561.597 250.668 561.103 251.98V260.797C562.187 263.254 564.102 264.482 566.848 264.482C568.631 264.482 570.022 263.778 571.021 262.369C572.033 260.959 572.539 258.852 572.539 256.045ZM578.302 255.937C578.302 254.058 578.664 252.366 579.386 250.86C580.121 249.355 581.151 248.187 582.476 247.355C583.812 246.512 585.324 246.091 587.01 246.091C589.612 246.091 591.72 247.006 593.333 248.837C594.947 250.656 595.754 253.07 595.754 256.082V256.533C595.754 258.424 595.387 260.128 594.652 261.646C593.93 263.152 592.906 264.314 591.581 265.133C590.256 265.952 588.745 266.361 587.046 266.361C584.457 266.361 582.349 265.452 580.723 263.633C579.109 261.803 578.302 259.382 578.302 256.371V255.937ZM580.47 256.533C580.47 258.87 581.072 260.791 582.277 262.296C583.493 263.79 585.083 264.537 587.046 264.537C588.998 264.537 590.575 263.79 591.78 262.296C592.996 260.791 593.604 258.81 593.604 256.353V255.937C593.604 254.444 593.327 253.076 592.773 251.836C592.219 250.595 591.443 249.638 590.443 248.963C589.443 248.277 588.299 247.934 587.01 247.934C585.083 247.934 583.511 248.692 582.295 250.21C581.078 251.715 580.47 253.691 580.47 256.136V256.533ZM609.268 248.295C608.81 248.211 608.323 248.168 607.805 248.168C606.456 248.168 605.312 248.548 604.372 249.307C603.445 250.053 602.782 251.143 602.385 252.577V266H600.235V246.452H602.349L602.385 249.56C603.529 247.247 605.366 246.091 607.895 246.091C608.497 246.091 608.973 246.169 609.322 246.326L609.268 248.295ZM624.317 266C624.101 265.386 623.962 264.476 623.902 263.272C623.143 264.26 622.174 265.024 620.993 265.566C619.825 266.096 618.584 266.361 617.271 266.361C615.393 266.361 613.869 265.837 612.701 264.79C611.544 263.742 610.966 262.417 610.966 260.815C610.966 258.912 611.755 257.406 613.333 256.298C614.923 255.19 617.133 254.636 619.963 254.636H623.884V252.414C623.884 251.017 623.45 249.921 622.583 249.126C621.728 248.319 620.475 247.916 618.825 247.916C617.32 247.916 616.073 248.301 615.085 249.072C614.098 249.843 613.604 250.77 613.604 251.854L611.436 251.836C611.436 250.282 612.159 248.939 613.604 247.807C615.049 246.663 616.826 246.091 618.934 246.091C621.114 246.091 622.83 246.639 624.083 247.735C625.347 248.819 625.998 250.336 626.034 252.288V261.538C626.034 263.429 626.232 264.844 626.63 265.783V266H624.317ZM617.524 264.446C618.97 264.446 620.258 264.097 621.391 263.398C622.535 262.7 623.366 261.766 623.884 260.598V256.298H620.018C617.862 256.322 616.175 256.72 614.959 257.491C613.743 258.25 613.134 259.297 613.134 260.634C613.134 261.73 613.538 262.64 614.345 263.362C615.164 264.085 616.224 264.446 617.524 264.446ZM635.175 241.448V246.452H639.222V248.223H635.175V261.249C635.175 262.333 635.368 263.139 635.753 263.669C636.151 264.199 636.807 264.464 637.723 264.464C638.084 264.464 638.668 264.404 639.475 264.284L639.565 266.054C638.999 266.259 638.229 266.361 637.253 266.361C635.771 266.361 634.694 265.934 634.019 265.079C633.345 264.211 633.007 262.941 633.007 261.267V248.223H629.412V246.452H633.007V241.448H635.175ZM642.149 255.937C642.149 254.058 642.51 252.366 643.233 250.86C643.968 249.355 644.997 248.187 646.322 247.355C647.659 246.512 649.171 246.091 650.857 246.091C653.458 246.091 655.566 247.006 657.18 248.837C658.794 250.656 659.601 253.07 659.601 256.082V256.533C659.601 258.424 659.234 260.128 658.499 261.646C657.776 263.152 656.753 264.314 655.428 265.133C654.103 265.952 652.591 266.361 650.893 266.361C648.304 266.361 646.196 265.452 644.57 263.633C642.956 261.803 642.149 259.382 642.149 256.371V255.937ZM644.317 256.533C644.317 258.87 644.919 260.791 646.124 262.296C647.34 263.79 648.93 264.537 650.893 264.537C652.844 264.537 654.422 263.79 655.626 262.296C656.843 260.791 657.451 258.81 657.451 256.353V255.937C657.451 254.444 657.174 253.076 656.62 251.836C656.066 250.595 655.289 249.638 654.29 248.963C653.29 248.277 652.146 247.934 650.857 247.934C648.93 247.934 647.358 248.692 646.142 250.21C644.925 251.715 644.317 253.691 644.317 256.136V256.533ZM673.115 248.295C672.657 248.211 672.169 248.168 671.651 248.168C670.302 248.168 669.158 248.548 668.219 249.307C667.291 250.053 666.629 251.143 666.231 252.577V266H664.082V246.452H666.195L666.231 249.56C667.376 247.247 669.212 246.091 671.742 246.091C672.344 246.091 672.82 246.169 673.169 246.326L673.115 248.295ZM683.069 262.893L688.778 246.452H691.109L682.762 269.324L682.329 270.336C681.257 272.709 679.601 273.895 677.36 273.895C676.842 273.895 676.288 273.811 675.698 273.642L675.68 271.854L676.8 271.962C677.86 271.962 678.715 271.697 679.366 271.167C680.028 270.649 680.588 269.752 681.046 268.475L682.003 265.837L674.632 246.452H676.999L683.069 262.893ZM705.779 258.683H703.773L703.665 239.695H705.905L705.779 258.683ZM703.412 264.735C703.412 264.326 703.545 263.983 703.81 263.706C704.075 263.417 704.436 263.272 704.894 263.272C705.351 263.272 705.713 263.417 705.978 263.706C706.255 263.983 706.393 264.326 706.393 264.735C706.393 265.133 706.255 265.47 705.978 265.747C705.713 266.012 705.351 266.145 704.894 266.145C704.436 266.145 704.075 266.012 703.81 265.747C703.545 265.47 703.412 265.133 703.412 264.735Z" fill="white"/>
<path d="M533.351 310.1C536.139 310.1 538.248 310.828 539.678 312.283C541.134 313.714 541.861 315.823 541.861 318.61V327.49C541.861 330.277 541.134 332.399 539.678 333.854C538.248 335.285 536.139 336 533.351 336H518.921V310.1H533.351ZM535.201 318.61C535.201 316.39 534.091 315.28 531.871 315.28H525.581V330.82H531.871C534.091 330.82 535.201 329.71 535.201 327.49V318.61ZM566.086 336H545.551V310.1H566.086V315.28H552.211V320.275H563.126V325.455H552.211V330.82H566.086V336ZM589.017 335.63C583.517 336.123 578.953 336.37 575.327 336.37C572.91 336.37 571.134 335.803 569.999 334.668C568.865 333.533 568.297 331.757 568.297 329.34V317.5C568.297 314.91 568.877 313.035 570.036 311.876C571.22 310.692 573.107 310.1 575.697 310.1H589.017V315.28H577.177C575.697 315.28 574.957 316.02 574.957 317.5V329.34C574.957 329.907 575.118 330.364 575.438 330.709C575.784 331.03 576.215 331.19 576.733 331.19C577.251 331.19 577.819 331.19 578.435 331.19C579.052 331.165 579.693 331.141 580.359 331.116C581.025 331.091 581.691 331.067 582.357 331.042C583.048 331.017 583.924 330.968 584.984 330.894C586.07 330.82 587.414 330.734 589.017 330.635V335.63ZM596.607 336H589.392L599.197 310.1H606.597L616.402 336H609.187L607.522 331.375H598.272L596.607 336ZM599.937 326.565H605.857L602.897 317.87L599.937 326.565ZM618.25 310.1H633.05C635.468 310.1 637.244 310.655 638.378 311.765C639.513 312.85 640.08 314.515 640.08 316.76C640.08 318.24 639.76 319.449 639.118 320.386C638.477 321.299 637.688 321.94 636.75 322.31C638.748 322.853 640.105 324.185 640.82 326.306C641.067 327.071 641.19 327.959 641.19 328.97C641.19 331.387 640.623 333.163 639.488 334.298C638.354 335.433 636.578 336 634.16 336H618.25V310.1ZM634.53 327.86C634.53 326.38 633.79 325.64 632.31 325.64H624.91V330.82H632.31C633.79 330.82 634.53 330.08 634.53 328.6V327.86ZM633.42 317.5C633.42 316.02 632.68 315.28 631.2 315.28H624.91V320.46H631.2C632.68 320.46 633.42 319.72 633.42 318.24V317.5Z" fill="white"/>
<path d="M670.43 336H657.11V330.82H660.44V315.28H657.11V310.1H670.43V315.28H667.1V330.82H670.43V336ZM686.337 336H679.677V315.28H671.907V310.1H694.107V315.28H686.337V336ZM695.924 330.635C702.683 331.005 707.259 331.19 709.651 331.19C710.219 331.19 710.663 331.03 710.983 330.709C711.329 330.364 711.501 329.907 711.501 329.34V326.01H702.991C700.401 326.01 698.514 325.43 697.33 324.271C696.171 323.087 695.591 321.2 695.591 318.61V317.5C695.591 314.91 696.171 313.035 697.33 311.876C698.514 310.692 700.401 310.1 702.991 310.1H715.978V315.28H704.471C702.991 315.28 702.251 316.02 702.251 317.5V318.24C702.251 319.72 702.991 320.46 704.471 320.46H711.131C713.549 320.46 715.325 321.027 716.459 322.162C717.594 323.297 718.161 325.073 718.161 327.49V329.34C718.161 331.757 717.594 333.533 716.459 334.668C715.325 335.803 713.549 336.37 711.131 336.37C709.873 336.37 708.541 336.345 707.135 336.296L703.731 336.148C701.215 336.025 698.613 335.852 695.924 335.63V330.635Z" fill="black"/>
<path d="M645.375 308.942C645.996 308.942 646.5 308.459 646.5 307.864C646.5 307.268 645.996 306.785 645.375 306.785C644.753 306.785 644.25 307.268 644.25 307.864C644.25 308.459 644.753 308.942 645.375 308.942Z" fill="black"/>
<path d="M644.25 304.627C645.493 304.627 646.5 303.662 646.5 302.47C646.5 301.279 645.493 300.313 644.25 300.313C643.007 300.313 642 301.279 642 302.47C642 303.662 643.007 304.627 644.25 304.627Z" fill="#040973"/>
<path d="M648.75 300.314C649.993 300.314 651 299.348 651 298.157C651 296.966 649.993 296 648.75 296C647.507 296 646.5 296.966 646.5 298.157C646.5 299.348 647.507 300.314 648.75 300.314Z" fill="black"/>
<path d="M649.875 306.785C649.253 306.785 648.75 306.302 648.75 305.707C648.75 305.111 649.253 304.628 649.875 304.628C650.496 304.628 651 305.111 651 305.707C651 306.302 650.496 306.785 649.875 306.785Z" fill="#040973"/>
<path d="M647.856 319.857C648.067 319.857 648.239 319.614 648.239 319.314C648.239 319.014 648.067 318.771 647.856 318.771C647.645 318.771 647.473 319.014 647.473 319.314C647.473 319.614 647.645 319.857 647.856 319.857Z" fill="black"/>
<path d="M647.637 321.252C647.637 320.865 647.418 320.554 647.145 320.554C646.872 320.554 646.653 320.865 646.653 321.252C646.653 320.748 646.352 320.322 645.997 320.322C645.641 320.322 645.341 320.748 645.341 321.252V332.38C645.341 333.66 646.079 334.707 646.981 334.707C647.883 334.707 648.621 333.66 648.621 332.38V321.252H647.637ZM646.571 325.052C646.325 325.052 646.106 324.742 646.106 324.393C646.106 324.044 646.325 323.734 646.571 323.734C646.817 323.734 647.036 324.044 647.036 324.393C647.036 324.742 646.817 325.052 646.571 325.052ZM647.446 327.999C647.254 327.999 647.118 327.805 647.118 327.534C647.118 327.262 647.254 327.068 647.446 327.068C647.637 327.068 647.774 327.262 647.774 327.534C647.774 327.766 647.637 327.999 647.446 327.999Z" fill="#040973"/>
<path d="M649.893 309.587H643.661C643.114 309.587 642.677 310.285 642.677 311.177C642.677 311.797 642.895 312.34 643.223 312.611V331.998C643.223 334.751 644.809 337 646.749 337C648.69 337 650.275 334.751 650.248 332.037V312.65C650.631 312.418 650.877 311.836 650.877 311.177C650.877 310.285 650.44 309.587 649.893 309.587ZM649.865 311.409H649.291V332.037C649.291 334.053 648.143 335.681 646.722 335.681C645.301 335.681 644.153 334.053 644.153 332.037V311.409H643.688C643.661 311.409 643.606 311.293 643.579 311.177C643.579 311.022 643.606 310.944 643.606 310.944H649.838C649.838 310.944 649.893 311.022 649.893 311.177C649.893 311.332 649.865 311.409 649.865 311.409Z" fill="black"/>
</g>
<defs>
<linearGradient id="paint0_linear" x1="-47.5" y1="-16.0001" x2="1174.5" y2="541.5" gradientUnits="userSpaceOnUse">
<stop offset="0.411458" stop-color="#5024F8"/>
<stop offset="0.978042" stop-color="#3804FF"/>
<stop offset="1" stop-color="#492CB9" stop-opacity="0"/>
</linearGradient>
<clipPath id="clip0">
<rect width="1195" height="410" fill="white"/>
</clipPath>
</defs>
</svg>
