<svg width="1195" height="410" viewBox="0 0 1195 410" fill="none" xmlns="http://www.w3.org/2000/svg">
<g clip-path="url(#clip0)">
<rect width="1195" height="410" fill="url(#paint0_linear)" fill-opacity="0.86"/>
<path d="M299.55 149C299.55 299.221 177.771 421 27.5498 421C-122.672 421 -244.45 299.221 -244.45 149C-244.45 -1.22145 -122.672 -123 27.5498 -123C177.771 -123 299.55 -1.22145 299.55 149Z" fill="#5E97EC" fill-opacity="0.43"/>
<circle cx="1080" cy="461" r="272" fill="#5E97EC" fill-opacity="0.43"/>
<path d="M240.735 146.897L241.474 151.96L242.555 147.398L250.148 120.609H254.42L261.829 147.398L262.884 152.039L263.701 146.871L269.66 120.609H274.749L265.441 159H260.827L252.917 131.024L252.311 128.098L251.704 131.024L243.504 159H238.89L229.608 120.609H234.671L240.735 146.897ZM302.092 141.255H285.454V154.86H304.781V159H280.392V120.609H304.518V124.775H285.454V137.115H302.092V141.255ZM316.172 154.86H334.365V159H311.083V120.609H316.172V154.86ZM366.639 146.818C366.164 150.879 364.661 154.017 362.13 156.231C359.616 158.429 356.268 159.527 352.084 159.527C347.549 159.527 343.91 157.901 341.168 154.649C338.443 151.397 337.081 147.047 337.081 141.598V137.906C337.081 134.338 337.714 131.2 338.979 128.493C340.263 125.786 342.073 123.712 344.411 122.271C346.749 120.812 349.456 120.082 352.532 120.082C356.61 120.082 359.88 121.225 362.341 123.51C364.802 125.777 366.234 128.924 366.639 132.949H361.55C361.11 129.891 360.152 127.676 358.676 126.305C357.217 124.934 355.169 124.248 352.532 124.248C349.298 124.248 346.758 125.443 344.912 127.834C343.084 130.225 342.17 133.626 342.17 138.038V141.756C342.17 145.922 343.04 149.235 344.78 151.696C346.521 154.157 348.955 155.388 352.084 155.388C354.896 155.388 357.05 154.755 358.544 153.489C360.056 152.206 361.058 149.982 361.55 146.818H366.639ZM403.104 141.044C403.104 144.806 402.472 148.093 401.206 150.905C399.94 153.7 398.147 155.836 395.827 157.312C393.507 158.789 390.8 159.527 387.706 159.527C384.683 159.527 382.002 158.789 379.664 157.312C377.326 155.818 375.507 153.7 374.206 150.958C372.923 148.198 372.264 145.008 372.229 141.387V138.618C372.229 134.927 372.87 131.666 374.153 128.836C375.437 126.006 377.247 123.844 379.585 122.35C381.94 120.838 384.63 120.082 387.653 120.082C390.729 120.082 393.437 120.829 395.774 122.323C398.13 123.8 399.94 125.953 401.206 128.783C402.472 131.596 403.104 134.874 403.104 138.618V141.044ZM398.068 138.565C398.068 134.013 397.154 130.523 395.326 128.098C393.498 125.654 390.94 124.433 387.653 124.433C384.454 124.433 381.932 125.654 380.086 128.098C378.258 130.523 377.317 133.898 377.265 138.223V141.044C377.265 145.456 378.188 148.928 380.033 151.459C381.896 153.973 384.454 155.229 387.706 155.229C390.976 155.229 393.507 154.043 395.3 151.67C397.093 149.279 398.016 145.86 398.068 141.413V138.565ZM417.237 120.609L429.788 151.934L442.339 120.609H448.904V159H443.842V144.05L444.316 127.913L431.713 159H427.837L415.26 127.992L415.761 144.05V159H410.698V120.609H417.237ZM479.543 141.255H462.905V154.86H482.232V159H457.843V120.609H481.969V124.775H462.905V137.115H479.543V141.255ZM527.399 124.775H515.06V159H510.023V124.775H497.71V120.609H527.399V124.775ZM561.888 141.044C561.888 144.806 561.255 148.093 559.989 150.905C558.724 153.7 556.931 155.836 554.61 157.312C552.29 158.789 549.583 159.527 546.489 159.527C543.466 159.527 540.785 158.789 538.447 157.312C536.109 155.818 534.29 153.7 532.989 150.958C531.706 148.198 531.047 145.008 531.012 141.387V138.618C531.012 134.927 531.653 131.666 532.937 128.836C534.22 126.006 536.03 123.844 538.368 122.35C540.724 120.838 543.413 120.082 546.437 120.082C549.513 120.082 552.22 120.829 554.558 122.323C556.913 123.8 558.724 125.953 559.989 128.783C561.255 131.596 561.888 134.874 561.888 138.618V141.044ZM556.852 138.565C556.852 134.013 555.938 130.523 554.109 128.098C552.281 125.654 549.724 124.433 546.437 124.433C543.237 124.433 540.715 125.654 538.869 128.098C537.041 130.523 536.101 133.898 536.048 138.223V141.044C536.048 145.456 536.971 148.928 538.816 151.459C540.68 153.973 543.237 155.229 546.489 155.229C549.759 155.229 552.29 154.043 554.083 151.67C555.876 149.279 556.799 145.86 556.852 141.413V138.565ZM587.965 154.86H606.158V159H582.876V120.609H587.965V154.86ZM633.659 148.98H617.575L613.963 159H608.742L623.402 120.609H627.832L642.519 159H637.324L633.659 148.98ZM619.104 144.814H632.156L625.617 126.858L619.104 144.814ZM647.687 159V120.609H660.237C664.403 120.609 667.532 121.471 669.624 123.193C671.733 124.916 672.788 127.465 672.788 130.84C672.788 132.633 672.278 134.224 671.259 135.612C670.239 136.983 668.851 138.047 667.093 138.803C669.167 139.383 670.802 140.49 671.997 142.125C673.21 143.742 673.816 145.676 673.816 147.926C673.816 151.371 672.7 154.078 670.468 156.047C668.235 158.016 665.08 159 661.002 159H647.687ZM652.749 141.044V154.86H661.107C663.463 154.86 665.317 154.254 666.671 153.041C668.042 151.811 668.728 150.123 668.728 147.979C668.728 143.355 666.214 141.044 661.187 141.044H652.749ZM652.749 136.983H660.396C662.61 136.983 664.377 136.43 665.695 135.322C667.031 134.215 667.699 132.712 667.699 130.813C667.699 128.704 667.084 127.175 665.854 126.226C664.623 125.259 662.751 124.775 660.237 124.775H652.749V136.983ZM694.726 159V120.609H705.562C708.902 120.609 711.855 121.348 714.422 122.824C716.988 124.301 718.966 126.401 720.354 129.126C721.761 131.851 722.473 134.979 722.49 138.513V140.965C722.49 144.586 721.787 147.759 720.381 150.483C718.992 153.208 716.997 155.3 714.396 156.759C711.812 158.218 708.797 158.965 705.352 159H694.726ZM699.788 124.775V154.86H705.114C709.017 154.86 712.049 153.647 714.211 151.222C716.391 148.796 717.48 145.342 717.48 140.859V138.618C717.48 134.259 716.452 130.875 714.396 128.467C712.356 126.041 709.456 124.811 705.694 124.775H699.788ZM751.863 141.255H735.226V154.86H754.553V159H730.163V120.609H754.289V124.775H735.226V137.115H751.863V141.255ZM789.094 146.818C788.619 150.879 787.116 154.017 784.585 156.231C782.071 158.429 778.723 159.527 774.539 159.527C770.004 159.527 766.365 157.901 763.623 154.649C760.898 151.397 759.536 147.047 759.536 141.598V137.906C759.536 134.338 760.169 131.2 761.435 128.493C762.718 125.786 764.528 123.712 766.866 122.271C769.204 120.812 771.911 120.082 774.987 120.082C779.065 120.082 782.335 121.225 784.796 123.51C787.257 125.777 788.689 128.924 789.094 132.949H784.005C783.565 129.891 782.607 127.676 781.131 126.305C779.672 124.934 777.624 124.248 774.987 124.248C771.753 124.248 769.213 125.443 767.367 127.834C765.539 130.225 764.625 133.626 764.625 138.038V141.756C764.625 145.922 765.495 149.235 767.235 151.696C768.976 154.157 771.41 155.388 774.539 155.388C777.352 155.388 779.505 154.755 780.999 153.489C782.511 152.206 783.513 149.982 784.005 146.818H789.094ZM817.228 148.98H801.144L797.531 159H792.311L806.971 120.609H811.4L826.087 159H820.893L817.228 148.98ZM802.673 144.814H815.725L809.186 126.858L802.673 144.814ZM831.255 159V120.609H843.806C847.972 120.609 851.101 121.471 853.192 123.193C855.302 124.916 856.356 127.465 856.356 130.84C856.356 132.633 855.847 134.224 854.827 135.612C853.808 136.983 852.419 138.047 850.661 138.803C852.735 139.383 854.37 140.49 855.565 142.125C856.778 143.742 857.385 145.676 857.385 147.926C857.385 151.371 856.269 154.078 854.036 156.047C851.804 158.016 848.648 159 844.57 159H831.255ZM836.317 141.044V154.86H844.676C847.031 154.86 848.886 154.254 850.239 153.041C851.61 151.811 852.296 150.123 852.296 147.979C852.296 143.355 849.782 141.044 844.755 141.044H836.317ZM836.317 136.983H843.964C846.179 136.983 847.945 136.43 849.264 135.322C850.6 134.215 851.268 132.712 851.268 130.813C851.268 128.704 850.652 127.175 849.422 126.226C848.191 125.259 846.319 124.775 843.806 124.775H836.317V136.983ZM870.331 159H865.269V120.609H870.331V159ZM905.347 124.775H893.007V159H887.971V124.775H875.657V120.609H905.347V124.775ZM921.932 141.888C917.59 140.64 914.426 139.11 912.439 137.3C910.471 135.472 909.486 133.222 909.486 130.55C909.486 127.526 910.69 125.03 913.099 123.062C915.524 121.075 918.671 120.082 922.538 120.082C925.175 120.082 927.521 120.592 929.578 121.611C931.652 122.631 933.252 124.037 934.377 125.83C935.52 127.623 936.091 129.583 936.091 131.71H931.002C931.002 129.39 930.264 127.57 928.787 126.252C927.311 124.916 925.228 124.248 922.538 124.248C920.042 124.248 918.091 124.802 916.685 125.909C915.296 126.999 914.602 128.52 914.602 130.471C914.602 132.035 915.261 133.362 916.579 134.452C917.915 135.524 920.174 136.509 923.355 137.405C926.555 138.302 929.051 139.295 930.844 140.385C932.654 141.457 933.99 142.714 934.852 144.155C935.73 145.597 936.17 147.293 936.17 149.244C936.17 152.355 934.957 154.852 932.531 156.732C930.105 158.596 926.862 159.527 922.802 159.527C920.165 159.527 917.704 159.026 915.419 158.024C913.134 157.005 911.367 155.616 910.119 153.858C908.889 152.101 908.273 150.105 908.273 147.873H913.362C913.362 150.193 914.215 152.03 915.92 153.384C917.643 154.72 919.937 155.388 922.802 155.388C925.474 155.388 927.521 154.843 928.945 153.753C930.369 152.663 931.081 151.178 931.081 149.297C931.081 147.416 930.422 145.966 929.104 144.946C927.785 143.909 925.395 142.89 921.932 141.888Z" fill="white"/>
<path d="M255.977 198.592H246.962V223H244.74V198.592H235.743V196.695H255.977V198.592ZM265.498 223.361C263.836 223.361 262.33 222.952 260.981 222.133C259.645 221.314 258.603 220.176 257.856 218.718C257.109 217.249 256.736 215.605 256.736 213.786V213.009C256.736 211.13 257.097 209.438 257.82 207.933C258.555 206.427 259.572 205.247 260.873 204.392C262.174 203.524 263.583 203.091 265.101 203.091C267.473 203.091 269.352 203.904 270.737 205.53C272.134 207.144 272.833 209.354 272.833 212.16V213.371H258.886V213.786C258.886 216.002 259.518 217.851 260.783 219.333C262.059 220.802 263.661 221.537 265.588 221.537C266.745 221.537 267.762 221.326 268.642 220.904C269.533 220.483 270.34 219.808 271.062 218.881L272.417 219.911C270.828 222.211 268.521 223.361 265.498 223.361ZM265.101 204.934C263.475 204.934 262.102 205.53 260.981 206.722C259.873 207.915 259.199 209.516 258.958 211.528H270.683V211.293C270.623 209.414 270.087 207.884 269.075 206.704C268.063 205.524 266.739 204.934 265.101 204.934ZM288.75 218.032C288.75 216.96 288.316 216.099 287.449 215.448C286.594 214.798 285.299 214.292 283.564 213.931C281.83 213.557 280.481 213.136 279.518 212.666C278.566 212.184 277.855 211.6 277.386 210.914C276.928 210.227 276.699 209.396 276.699 208.42C276.699 206.879 277.344 205.608 278.632 204.608C279.921 203.597 281.571 203.091 283.583 203.091C285.763 203.091 287.509 203.633 288.822 204.717C290.147 205.789 290.809 207.192 290.809 208.926H288.641C288.641 207.782 288.159 206.831 287.196 206.072C286.244 205.313 285.04 204.934 283.583 204.934C282.161 204.934 281.017 205.253 280.15 205.891C279.295 206.517 278.867 207.336 278.867 208.348C278.867 209.324 279.222 210.083 279.933 210.625C280.656 211.154 281.963 211.642 283.854 212.088C285.757 212.534 287.178 213.009 288.117 213.515C289.069 214.021 289.773 214.629 290.231 215.34C290.689 216.05 290.917 216.912 290.917 217.923C290.917 219.573 290.249 220.892 288.912 221.88C287.587 222.868 285.853 223.361 283.709 223.361C281.433 223.361 279.584 222.813 278.163 221.717C276.753 220.609 276.049 219.212 276.049 217.526H278.217C278.301 218.791 278.831 219.778 279.807 220.489C280.794 221.187 282.095 221.537 283.709 221.537C285.215 221.537 286.431 221.205 287.358 220.543C288.286 219.881 288.75 219.043 288.75 218.032ZM299.156 198.448V203.452H303.203V205.223H299.156V218.249C299.156 219.333 299.348 220.139 299.734 220.669C300.131 221.199 300.788 221.464 301.703 221.464C302.064 221.464 302.649 221.404 303.456 221.284L303.546 223.054C302.98 223.259 302.209 223.361 301.233 223.361C299.752 223.361 298.674 222.934 298 222.079C297.325 221.211 296.988 219.941 296.988 218.267V205.223H293.393V203.452H296.988V198.448H299.156ZM307.231 227.914L305.949 226.975C307.045 225.505 307.611 223.982 307.647 222.404V219.604H309.761V221.862C309.761 224.367 308.918 226.384 307.231 227.914ZM331.332 223.361C329.67 223.361 328.164 222.952 326.815 222.133C325.479 221.314 324.437 220.176 323.69 218.718C322.943 217.249 322.57 215.605 322.57 213.786V213.009C322.57 211.13 322.931 209.438 323.654 207.933C324.389 206.427 325.406 205.247 326.707 204.392C328.008 203.524 329.417 203.091 330.935 203.091C333.307 203.091 335.186 203.904 336.571 205.53C337.968 207.144 338.667 209.354 338.667 212.16V213.371H324.72V213.786C324.72 216.002 325.352 217.851 326.617 219.333C327.893 220.802 329.495 221.537 331.422 221.537C332.579 221.537 333.596 221.326 334.476 220.904C335.367 220.483 336.174 219.808 336.896 218.881L338.251 219.911C336.662 222.211 334.355 223.361 331.332 223.361ZM330.935 204.934C329.309 204.934 327.936 205.53 326.815 206.722C325.707 207.915 325.033 209.516 324.792 211.528H336.517V211.293C336.457 209.414 335.921 207.884 334.909 206.704C333.897 205.524 332.573 204.934 330.935 204.934ZM349.019 211.383L354.294 203.452H356.86L350.229 213.045L357.149 223H354.602L349.037 214.726L343.473 223H340.925L347.827 213.045L341.196 203.452H343.744L349.019 211.383ZM376.588 213.425C376.588 216.472 375.914 218.893 374.565 220.688C373.216 222.47 371.409 223.361 369.145 223.361C366.471 223.361 364.424 222.422 363.002 220.543V230.516H360.853V203.452H362.858L362.966 206.216C364.375 204.133 366.417 203.091 369.091 203.091C371.427 203.091 373.258 203.976 374.583 205.747C375.92 207.517 376.588 209.974 376.588 213.118V213.425ZM374.42 213.045C374.42 210.552 373.909 208.583 372.885 207.138C371.861 205.692 370.434 204.97 368.603 204.97C367.278 204.97 366.14 205.289 365.188 205.927C364.237 206.566 363.508 207.493 363.002 208.709V218.086C363.52 219.206 364.261 220.061 365.225 220.651C366.188 221.242 367.326 221.537 368.639 221.537C370.458 221.537 371.873 220.814 372.885 219.369C373.909 217.911 374.42 215.804 374.42 213.045ZM388.964 223.361C387.302 223.361 385.796 222.952 384.447 222.133C383.11 221.314 382.069 220.176 381.322 218.718C380.575 217.249 380.202 215.605 380.202 213.786V213.009C380.202 211.13 380.563 209.438 381.286 207.933C382.02 206.427 383.038 205.247 384.339 204.392C385.64 203.524 387.049 203.091 388.566 203.091C390.939 203.091 392.818 203.904 394.203 205.53C395.6 207.144 396.299 209.354 396.299 212.16V213.371H382.352V213.786C382.352 216.002 382.984 217.851 384.249 219.333C385.525 220.802 387.127 221.537 389.054 221.537C390.21 221.537 391.228 221.326 392.107 220.904C392.999 220.483 393.806 219.808 394.528 218.881L395.883 219.911C394.293 222.211 391.987 223.361 388.964 223.361ZM388.566 204.934C386.94 204.934 385.567 205.53 384.447 206.722C383.339 207.915 382.665 209.516 382.424 211.528H394.149V211.293C394.089 209.414 393.553 207.884 392.541 206.704C391.529 205.524 390.204 204.934 388.566 204.934ZM409.542 205.295C409.084 205.211 408.596 205.168 408.078 205.168C406.729 205.168 405.585 205.548 404.646 206.307C403.718 207.053 403.056 208.143 402.658 209.577V223H400.508V203.452H402.622L402.658 206.56C403.802 204.247 405.639 203.091 408.168 203.091C408.771 203.091 409.246 203.169 409.596 203.326L409.542 205.295ZM415.395 223H413.227V203.452H415.395V223ZM412.848 197.797C412.848 197.388 412.98 197.045 413.245 196.768C413.51 196.479 413.871 196.334 414.329 196.334C414.787 196.334 415.148 196.479 415.413 196.768C415.69 197.045 415.829 197.388 415.829 197.797C415.829 198.207 415.69 198.55 415.413 198.827C415.148 199.104 414.787 199.243 414.329 199.243C413.871 199.243 413.51 199.104 413.245 198.827C412.98 198.55 412.848 198.207 412.848 197.797ZM423.254 203.452L423.326 206.632C424.049 205.451 424.952 204.566 426.036 203.976C427.12 203.386 428.325 203.091 429.649 203.091C432.733 203.091 434.69 204.355 435.521 206.885C436.22 205.668 437.153 204.735 438.321 204.084C439.49 203.422 440.778 203.091 442.188 203.091C446.379 203.091 448.517 205.379 448.601 209.956V223H446.433V210.119C446.421 208.372 446.042 207.077 445.295 206.234C444.56 205.391 443.356 204.97 441.682 204.97C440.128 204.994 438.815 205.5 437.743 206.487C436.671 207.463 436.075 208.655 435.955 210.064V223H433.787V209.956C433.775 208.282 433.377 207.035 432.594 206.216C431.823 205.385 430.631 204.97 429.017 204.97C427.656 204.97 426.488 205.361 425.512 206.144C424.537 206.915 423.814 208.065 423.344 209.595V223H421.176V203.452H423.254ZM461.663 223.361C460.001 223.361 458.495 222.952 457.146 222.133C455.81 221.314 454.768 220.176 454.021 218.718C453.274 217.249 452.901 215.605 452.901 213.786V213.009C452.901 211.13 453.262 209.438 453.985 207.933C454.72 206.427 455.737 205.247 457.038 204.392C458.339 203.524 459.748 203.091 461.266 203.091C463.638 203.091 465.517 203.904 466.902 205.53C468.299 207.144 468.998 209.354 468.998 212.16V213.371H455.051V213.786C455.051 216.002 455.683 217.851 456.948 219.333C458.224 220.802 459.826 221.537 461.753 221.537C462.91 221.537 463.927 221.326 464.807 220.904C465.698 220.483 466.505 219.808 467.228 218.881L468.583 219.911C466.993 222.211 464.686 223.361 461.663 223.361ZM461.266 204.934C459.64 204.934 458.267 205.53 457.146 206.722C456.038 207.915 455.364 209.516 455.123 211.528H466.848V211.293C466.788 209.414 466.252 207.884 465.24 206.704C464.229 205.524 462.904 204.934 461.266 204.934ZM475.267 203.452L475.339 206.794C476.074 205.59 476.989 204.675 478.085 204.048C479.181 203.41 480.392 203.091 481.717 203.091C483.812 203.091 485.372 203.681 486.396 204.861C487.42 206.042 487.938 207.812 487.95 210.173V223H485.8V210.155C485.788 208.408 485.414 207.108 484.68 206.252C483.957 205.397 482.795 204.97 481.193 204.97C479.856 204.97 478.67 205.391 477.634 206.234C476.61 207.065 475.851 208.192 475.357 209.613V223H473.208V203.452H475.267ZM496.911 198.448V203.452H500.958V205.223H496.911V218.249C496.911 219.333 497.103 220.139 497.489 220.669C497.886 221.199 498.543 221.464 499.458 221.464C499.819 221.464 500.403 221.404 501.21 221.284L501.301 223.054C500.735 223.259 499.964 223.361 498.988 223.361C497.507 223.361 496.429 222.934 495.754 222.079C495.08 221.211 494.743 219.941 494.743 218.267V205.223H491.147V203.452H494.743V198.448H496.911ZM527.913 208.655C526.865 207.391 526.1 206.264 525.618 205.277C525.148 204.277 524.914 203.29 524.914 202.314C524.914 200.471 525.462 199.014 526.558 197.942C527.654 196.87 529.123 196.334 530.966 196.334C532.64 196.334 533.995 196.822 535.031 197.797C536.067 198.761 536.584 199.989 536.584 201.483C536.584 203.217 535.585 204.922 533.585 206.596L530.695 208.836L537.921 217.255C539.017 215.484 539.565 213.479 539.565 211.239H541.571C541.571 214.226 540.8 216.749 539.258 218.809L542.854 223H540.252L537.976 220.362C537.024 221.302 535.922 222.036 534.669 222.566C533.429 223.096 532.116 223.361 530.731 223.361C528.226 223.361 526.238 222.723 524.769 221.446C523.3 220.158 522.565 218.441 522.565 216.297C522.565 215.021 522.938 213.816 523.685 212.684C524.444 211.54 525.769 210.257 527.66 208.836L527.913 208.655ZM530.731 221.537C531.827 221.537 532.887 221.308 533.911 220.85C534.946 220.38 535.874 219.718 536.693 218.863L529.34 210.335L529.087 210.064L528.256 210.697C525.895 212.624 524.715 214.491 524.715 216.297C524.715 217.875 525.257 219.146 526.341 220.109C527.425 221.061 528.888 221.537 530.731 221.537ZM527.082 202.242C527.082 203.711 527.895 205.445 529.521 207.445L531.887 205.638C532.658 205.084 533.29 204.476 533.784 203.813C534.278 203.151 534.525 202.374 534.525 201.483C534.525 200.543 534.2 199.761 533.549 199.134C532.899 198.496 532.032 198.177 530.948 198.177C529.767 198.177 528.828 198.556 528.129 199.315C527.431 200.074 527.082 201.049 527.082 202.242ZM554.326 213.045C554.326 210.01 555 207.595 556.349 205.801C557.71 203.994 559.553 203.091 561.877 203.091C564.515 203.091 566.527 204.133 567.912 206.216V195.25H570.062V223H568.038L567.948 220.398C566.563 222.374 564.527 223.361 561.841 223.361C559.589 223.361 557.77 222.458 556.385 220.651C555.012 218.833 554.326 216.382 554.326 213.298V213.045ZM556.512 213.425C556.512 215.918 557.012 217.887 558.011 219.333C559.011 220.766 560.42 221.482 562.239 221.482C564.901 221.482 566.792 220.308 567.912 217.959V208.782C566.792 206.24 564.913 204.97 562.275 204.97C560.456 204.97 559.041 205.686 558.029 207.12C557.018 208.541 556.512 210.643 556.512 213.425ZM578.173 223H576.005V203.452H578.173V223ZM575.626 197.797C575.626 197.388 575.758 197.045 576.023 196.768C576.288 196.479 576.65 196.334 577.107 196.334C577.565 196.334 577.926 196.479 578.191 196.768C578.468 197.045 578.607 197.388 578.607 197.797C578.607 198.207 578.468 198.55 578.191 198.827C577.926 199.104 577.565 199.243 577.107 199.243C576.65 199.243 576.288 199.104 576.023 198.827C575.758 198.55 575.626 198.207 575.626 197.797ZM595.77 218.032C595.77 216.96 595.336 216.099 594.469 215.448C593.614 214.798 592.319 214.292 590.585 213.931C588.851 213.557 587.502 213.136 586.538 212.666C585.587 212.184 584.876 211.6 584.406 210.914C583.949 210.227 583.72 209.396 583.72 208.42C583.72 206.879 584.364 205.608 585.653 204.608C586.942 203.597 588.592 203.091 590.603 203.091C592.783 203.091 594.529 203.633 595.842 204.717C597.167 205.789 597.83 207.192 597.83 208.926H595.662C595.662 207.782 595.18 206.831 594.216 206.072C593.265 205.313 592.06 204.934 590.603 204.934C589.182 204.934 588.038 205.253 587.17 205.891C586.315 206.517 585.888 207.336 585.888 208.348C585.888 209.324 586.243 210.083 586.954 210.625C587.676 211.154 588.983 211.642 590.874 212.088C592.777 212.534 594.198 213.009 595.138 213.515C596.089 214.021 596.794 214.629 597.251 215.34C597.709 216.05 597.938 216.912 597.938 217.923C597.938 219.573 597.27 220.892 595.933 221.88C594.608 222.868 592.873 223.361 590.729 223.361C588.453 223.361 586.604 222.813 585.183 221.717C583.774 220.609 583.069 219.212 583.069 217.526H585.237C585.322 218.791 585.852 219.778 586.827 220.489C587.815 221.187 589.116 221.537 590.729 221.537C592.235 221.537 593.451 221.205 594.379 220.543C595.306 219.881 595.77 219.043 595.77 218.032ZM610.042 221.537C611.548 221.537 612.807 221.115 613.818 220.272C614.842 219.417 615.396 218.315 615.48 216.966H617.558C617.498 218.158 617.125 219.248 616.438 220.236C615.751 221.211 614.836 221.976 613.692 222.53C612.56 223.084 611.343 223.361 610.042 223.361C607.477 223.361 605.442 222.47 603.936 220.688C602.443 218.905 601.696 216.508 601.696 213.497V212.847C601.696 210.92 602.033 209.215 602.708 207.734C603.382 206.252 604.346 205.108 605.598 204.301C606.863 203.494 608.338 203.091 610.024 203.091C612.168 203.091 613.933 203.729 615.318 205.006C616.715 206.283 617.462 207.963 617.558 210.046H615.48C615.384 208.517 614.83 207.282 613.818 206.343C612.819 205.403 611.554 204.934 610.024 204.934C608.073 204.934 606.556 205.638 605.472 207.047C604.4 208.457 603.864 210.432 603.864 212.973V213.605C603.864 216.099 604.4 218.044 605.472 219.441C606.556 220.838 608.079 221.537 610.042 221.537ZM620.702 212.937C620.702 211.058 621.063 209.366 621.786 207.86C622.52 206.355 623.55 205.187 624.875 204.355C626.212 203.512 627.723 203.091 629.41 203.091C632.011 203.091 634.119 204.006 635.733 205.837C637.347 207.656 638.154 210.07 638.154 213.082V213.533C638.154 215.424 637.786 217.128 637.052 218.646C636.329 220.152 635.305 221.314 633.98 222.133C632.656 222.952 631.144 223.361 629.446 223.361C626.856 223.361 624.749 222.452 623.123 220.633C621.509 218.803 620.702 216.382 620.702 213.371V212.937ZM622.87 213.533C622.87 215.87 623.472 217.791 624.676 219.296C625.893 220.79 627.483 221.537 629.446 221.537C631.397 221.537 632.975 220.79 634.179 219.296C635.396 217.791 636.004 215.81 636.004 213.353V212.937C636.004 211.444 635.727 210.076 635.173 208.836C634.619 207.595 633.842 206.638 632.842 205.963C631.843 205.277 630.698 204.934 629.41 204.934C627.483 204.934 625.911 205.692 624.694 207.21C623.478 208.715 622.87 210.691 622.87 213.136V213.533ZM648.434 220.019L654.377 203.452H656.6L649.301 223H647.548L640.213 203.452H642.436L648.434 220.019ZM667.476 223.361C665.813 223.361 664.308 222.952 662.959 222.133C661.622 221.314 660.58 220.176 659.833 218.718C659.087 217.249 658.713 215.605 658.713 213.786V213.009C658.713 211.13 659.075 209.438 659.797 207.933C660.532 206.427 661.55 205.247 662.851 204.392C664.151 203.524 665.561 203.091 667.078 203.091C669.451 203.091 671.33 203.904 672.715 205.53C674.112 207.144 674.811 209.354 674.811 212.16V213.371H660.863V213.786C660.863 216.002 661.496 217.851 662.76 219.333C664.037 220.802 665.639 221.537 667.566 221.537C668.722 221.537 669.74 221.326 670.619 220.904C671.51 220.483 672.317 219.808 673.04 218.881L674.395 219.911C672.805 222.211 670.499 223.361 667.476 223.361ZM667.078 204.934C665.452 204.934 664.079 205.53 662.959 206.722C661.851 207.915 661.176 209.516 660.936 211.528H672.661V211.293C672.6 209.414 672.064 207.884 671.053 206.704C670.041 205.524 668.716 204.934 667.078 204.934ZM688.053 205.295C687.596 205.211 687.108 205.168 686.59 205.168C685.241 205.168 684.097 205.548 683.157 206.307C682.23 207.053 681.567 208.143 681.17 209.577V223H679.02V203.452H681.134L681.17 206.56C682.314 204.247 684.151 203.091 686.68 203.091C687.282 203.091 687.758 203.169 688.107 203.326L688.053 205.295ZM699.291 212.937C699.291 211.058 699.652 209.366 700.375 207.86C701.109 206.355 702.139 205.187 703.464 204.355C704.801 203.512 706.312 203.091 707.999 203.091C710.6 203.091 712.708 204.006 714.322 205.837C715.936 207.656 716.743 210.07 716.743 213.082V213.533C716.743 215.424 716.375 217.128 715.641 218.646C714.918 220.152 713.894 221.314 712.569 222.133C711.244 222.952 709.733 223.361 708.035 223.361C705.445 223.361 703.337 222.452 701.711 220.633C700.097 218.803 699.291 216.382 699.291 213.371V212.937ZM701.458 213.533C701.458 215.87 702.061 217.791 703.265 219.296C704.482 220.79 706.071 221.537 708.035 221.537C709.986 221.537 711.564 220.79 712.768 219.296C713.985 217.791 714.593 215.81 714.593 213.353V212.937C714.593 211.444 714.316 210.076 713.762 208.836C713.208 207.595 712.431 206.638 711.431 205.963C710.431 205.277 709.287 204.934 707.999 204.934C706.071 204.934 704.5 205.692 703.283 207.21C702.067 208.715 701.458 210.691 701.458 213.136V213.533ZM733.797 220.525C732.497 222.416 730.419 223.361 727.564 223.361C725.481 223.361 723.897 222.759 722.813 221.555C721.729 220.338 721.175 218.544 721.151 216.171V203.452H723.301V215.9C723.301 219.622 724.806 221.482 727.817 221.482C730.949 221.482 732.93 220.188 733.761 217.598V203.452H735.929V223H733.833L733.797 220.525ZM750.599 205.295C750.141 205.211 749.654 205.168 749.136 205.168C747.787 205.168 746.643 205.548 745.703 206.307C744.776 207.053 744.113 208.143 743.716 209.577V223H741.566V203.452H743.68L743.716 206.56C744.86 204.247 746.697 203.091 749.226 203.091C749.828 203.091 750.304 203.169 750.653 203.326L750.599 205.295ZM774.736 218.032C774.736 216.96 774.302 216.099 773.435 215.448C772.58 214.798 771.285 214.292 769.551 213.931C767.816 213.557 766.467 213.136 765.504 212.666C764.552 212.184 763.842 211.6 763.372 210.914C762.914 210.227 762.686 209.396 762.686 208.42C762.686 206.879 763.33 205.608 764.619 204.608C765.907 203.597 767.557 203.091 769.569 203.091C771.749 203.091 773.495 203.633 774.808 204.717C776.133 205.789 776.795 207.192 776.795 208.926H774.627C774.627 207.782 774.146 206.831 773.182 206.072C772.231 205.313 771.026 204.934 769.569 204.934C768.148 204.934 767.003 205.253 766.136 205.891C765.281 206.517 764.854 207.336 764.854 208.348C764.854 209.324 765.209 210.083 765.919 210.625C766.642 211.154 767.949 211.642 769.84 212.088C771.743 212.534 773.164 213.009 774.104 213.515C775.055 214.021 775.76 214.629 776.217 215.34C776.675 216.05 776.904 216.912 776.904 217.923C776.904 219.573 776.235 220.892 774.898 221.88C773.574 222.868 771.839 223.361 769.695 223.361C767.419 223.361 765.57 222.813 764.149 221.717C762.74 220.609 762.035 219.212 762.035 217.526H764.203C764.287 218.791 764.817 219.778 765.793 220.489C766.781 221.187 768.081 221.537 769.695 221.537C771.201 221.537 772.417 221.205 773.345 220.543C774.272 219.881 774.736 219.043 774.736 218.032ZM789.352 223.361C787.689 223.361 786.184 222.952 784.835 222.133C783.498 221.314 782.456 220.176 781.709 218.718C780.963 217.249 780.589 215.605 780.589 213.786V213.009C780.589 211.13 780.951 209.438 781.673 207.933C782.408 206.427 783.426 205.247 784.727 204.392C786.027 203.524 787.437 203.091 788.954 203.091C791.327 203.091 793.206 203.904 794.591 205.53C795.988 207.144 796.687 209.354 796.687 212.16V213.371H782.739V213.786C782.739 216.002 783.372 217.851 784.636 219.333C785.913 220.802 787.515 221.537 789.442 221.537C790.598 221.537 791.616 221.326 792.495 220.904C793.386 220.483 794.193 219.808 794.916 218.881L796.271 219.911C794.681 222.211 792.375 223.361 789.352 223.361ZM788.954 204.934C787.328 204.934 785.955 205.53 784.835 206.722C783.727 207.915 783.052 209.516 782.812 211.528H794.537V211.293C794.476 209.414 793.94 207.884 792.929 206.704C791.917 205.524 790.592 204.934 788.954 204.934ZM803.317 223H801.149V195.25H803.317V223ZM810.76 223V205.223H807.526V203.452H810.76V201.085C810.76 199.086 811.266 197.55 812.278 196.479C813.302 195.407 814.723 194.871 816.542 194.871C817.361 194.871 818.125 194.973 818.836 195.178L818.673 196.984C818.071 196.84 817.415 196.768 816.704 196.768C815.512 196.768 814.584 197.141 813.922 197.888C813.259 198.622 812.928 199.67 812.928 201.031V203.452H817.589V205.223H812.928V223H810.76ZM837.679 221.537C839.185 221.537 840.443 221.115 841.455 220.272C842.479 219.417 843.033 218.315 843.117 216.966H845.195C845.135 218.158 844.761 219.248 844.075 220.236C843.388 221.211 842.473 221.976 841.329 222.53C840.196 223.084 838.98 223.361 837.679 223.361C835.114 223.361 833.078 222.47 831.573 220.688C830.079 218.905 829.333 216.508 829.333 213.497V212.847C829.333 210.92 829.67 209.215 830.344 207.734C831.019 206.252 831.982 205.108 833.235 204.301C834.5 203.494 835.975 203.091 837.661 203.091C839.805 203.091 841.569 203.729 842.955 205.006C844.352 206.283 845.098 207.963 845.195 210.046H843.117C843.021 208.517 842.467 207.282 841.455 206.343C840.455 205.403 839.191 204.934 837.661 204.934C835.71 204.934 834.192 205.638 833.108 207.047C832.036 208.457 831.5 210.432 831.5 212.973V213.605C831.5 216.099 832.036 218.044 833.108 219.441C834.192 220.838 835.716 221.537 837.679 221.537ZM862.105 220.525C860.804 222.416 858.727 223.361 855.872 223.361C853.788 223.361 852.205 222.759 851.121 221.555C850.037 220.338 849.483 218.544 849.458 216.171V203.452H851.608V215.9C851.608 219.622 853.114 221.482 856.125 221.482C859.257 221.482 861.238 220.188 862.069 217.598V203.452H864.237V223H862.141L862.105 220.525ZM878.907 205.295C878.449 205.211 877.961 205.168 877.443 205.168C876.094 205.168 874.95 205.548 874.011 206.307C873.083 207.053 872.421 208.143 872.023 209.577V223H869.874V203.452H871.987L872.023 206.56C873.168 204.247 875.004 203.091 877.534 203.091C878.136 203.091 878.612 203.169 878.961 203.326L878.907 205.295ZM893.956 223C893.739 222.386 893.601 221.476 893.541 220.272C892.782 221.26 891.812 222.024 890.632 222.566C889.464 223.096 888.223 223.361 886.91 223.361C885.031 223.361 883.508 222.837 882.339 221.79C881.183 220.742 880.605 219.417 880.605 217.815C880.605 215.912 881.394 214.406 882.972 213.298C884.562 212.19 886.772 211.636 889.602 211.636H893.522V209.414C893.522 208.017 893.089 206.921 892.222 206.126C891.367 205.319 890.114 204.916 888.464 204.916C886.958 204.916 885.712 205.301 884.724 206.072C883.736 206.843 883.243 207.77 883.243 208.854L881.075 208.836C881.075 207.282 881.797 205.939 883.243 204.807C884.688 203.663 886.465 203.091 888.572 203.091C890.752 203.091 892.469 203.639 893.721 204.735C894.986 205.819 895.636 207.336 895.672 209.288V218.538C895.672 220.429 895.871 221.844 896.269 222.783V223H893.956ZM887.163 221.446C888.608 221.446 889.897 221.097 891.029 220.398C892.174 219.7 893.005 218.766 893.522 217.598V213.298H889.656C887.5 213.322 885.814 213.72 884.598 214.491C883.381 215.25 882.773 216.297 882.773 217.634C882.773 218.73 883.176 219.64 883.983 220.362C884.802 221.085 885.862 221.446 887.163 221.446ZM904.814 198.448V203.452H908.861V205.223H904.814V218.249C904.814 219.333 905.007 220.139 905.392 220.669C905.79 221.199 906.446 221.464 907.361 221.464C907.723 221.464 908.307 221.404 909.114 221.284L909.204 223.054C908.638 223.259 907.867 223.361 906.892 223.361C905.41 223.361 904.332 222.934 903.658 222.079C902.983 221.211 902.646 219.941 902.646 218.267V205.223H899.051V203.452H902.646V198.448H904.814ZM920.911 223.361C919.249 223.361 917.743 222.952 916.395 222.133C915.058 221.314 914.016 220.176 913.269 218.718C912.522 217.249 912.149 215.605 912.149 213.786V213.009C912.149 211.13 912.51 209.438 913.233 207.933C913.968 206.427 914.985 205.247 916.286 204.392C917.587 203.524 918.996 203.091 920.514 203.091C922.886 203.091 924.765 203.904 926.15 205.53C927.548 207.144 928.246 209.354 928.246 212.16V213.371H914.299V213.786C914.299 216.002 914.931 217.851 916.196 219.333C917.472 220.802 919.074 221.537 921.001 221.537C922.158 221.537 923.175 221.326 924.055 220.904C924.946 220.483 925.753 219.808 926.476 218.881L927.831 219.911C926.241 222.211 923.934 223.361 920.911 223.361ZM920.514 204.934C918.888 204.934 917.515 205.53 916.395 206.722C915.286 207.915 914.612 209.516 914.371 211.528H926.096V211.293C926.036 209.414 925.5 207.884 924.488 206.704C923.477 205.524 922.152 204.934 920.514 204.934ZM931.588 213.045C931.588 210.01 932.263 207.595 933.612 205.801C934.973 203.994 936.816 203.091 939.14 203.091C941.778 203.091 943.789 204.133 945.174 206.216V195.25H947.324V223H945.301L945.21 220.398C943.825 222.374 941.79 223.361 939.104 223.361C936.852 223.361 935.033 222.458 933.648 220.651C932.275 218.833 931.588 216.382 931.588 213.298V213.045ZM933.774 213.425C933.774 215.918 934.274 217.887 935.274 219.333C936.274 220.766 937.683 221.482 939.501 221.482C942.163 221.482 944.054 220.308 945.174 217.959V208.782C944.054 206.24 942.175 204.97 939.538 204.97C937.719 204.97 936.304 205.686 935.292 207.12C934.28 208.541 933.774 210.643 933.774 213.425ZM507.245 266H505.077V238.25H507.245V266ZM525.474 266C525.257 265.386 525.118 264.476 525.058 263.272C524.299 264.26 523.33 265.024 522.149 265.566C520.981 266.096 519.741 266.361 518.428 266.361C516.549 266.361 515.025 265.837 513.857 264.79C512.701 263.742 512.123 262.417 512.123 260.815C512.123 258.912 512.911 257.406 514.489 256.298C516.079 255.19 518.289 254.636 521.12 254.636H525.04V252.414C525.04 251.017 524.606 249.921 523.739 249.126C522.884 248.319 521.632 247.916 519.981 247.916C518.476 247.916 517.229 248.301 516.242 249.072C515.254 249.843 514.76 250.77 514.76 251.854L512.592 251.836C512.592 250.282 513.315 248.939 514.76 247.807C516.206 246.663 517.982 246.091 520.09 246.091C522.27 246.091 523.986 246.639 525.239 247.735C526.503 248.819 527.154 250.336 527.19 252.288V261.538C527.19 263.429 527.389 264.844 527.786 265.783V266H525.474ZM518.681 264.446C520.126 264.446 521.415 264.097 522.547 263.398C523.691 262.7 524.522 261.766 525.04 260.598V256.298H521.174C519.018 256.322 517.332 256.72 516.115 257.491C514.899 258.25 514.291 259.297 514.291 260.634C514.291 261.73 514.694 262.64 515.501 263.362C516.32 264.085 517.38 264.446 518.681 264.446ZM548.707 256.425C548.707 259.472 548.033 261.893 546.684 263.688C545.335 265.47 543.522 266.361 541.246 266.361C538.524 266.361 536.464 265.35 535.067 263.326L534.977 266H532.953V238.25H535.103V249.289C536.476 247.157 538.512 246.091 541.209 246.091C543.522 246.091 545.347 246.976 546.684 248.747C548.033 250.505 548.707 252.956 548.707 256.1V256.425ZM546.539 256.045C546.539 253.468 546.039 251.481 545.04 250.083C544.04 248.674 542.631 247.97 540.812 247.97C539.427 247.97 538.253 248.313 537.289 249C536.326 249.674 535.597 250.668 535.103 251.98V260.797C536.187 263.254 538.102 264.482 540.848 264.482C542.631 264.482 544.022 263.778 545.021 262.369C546.033 260.959 546.539 258.852 546.539 256.045ZM552.302 255.937C552.302 254.058 552.664 252.366 553.386 250.86C554.121 249.355 555.151 248.187 556.476 247.355C557.812 246.512 559.324 246.091 561.01 246.091C563.612 246.091 565.72 247.006 567.333 248.837C568.947 250.656 569.754 253.07 569.754 256.082V256.533C569.754 258.424 569.387 260.128 568.652 261.646C567.93 263.152 566.906 264.314 565.581 265.133C564.256 265.952 562.745 266.361 561.046 266.361C558.457 266.361 556.349 265.452 554.723 263.633C553.109 261.803 552.302 259.382 552.302 256.371V255.937ZM554.47 256.533C554.47 258.87 555.072 260.791 556.277 262.296C557.493 263.79 559.083 264.537 561.046 264.537C562.998 264.537 564.575 263.79 565.78 262.296C566.996 260.791 567.604 258.81 567.604 256.353V255.937C567.604 254.444 567.327 253.076 566.773 251.836C566.219 250.595 565.443 249.638 564.443 248.963C563.443 248.277 562.299 247.934 561.01 247.934C559.083 247.934 557.511 248.692 556.295 250.21C555.078 251.715 554.47 253.691 554.47 256.136V256.533ZM583.268 248.295C582.81 248.211 582.323 248.168 581.805 248.168C580.456 248.168 579.312 248.548 578.372 249.307C577.445 250.053 576.782 251.143 576.385 252.577V266H574.235V246.452H576.349L576.385 249.56C577.529 247.247 579.366 246.091 581.895 246.091C582.497 246.091 582.973 246.169 583.322 246.326L583.268 248.295ZM598.317 266C598.101 265.386 597.962 264.476 597.902 263.272C597.143 264.26 596.174 265.024 594.993 265.566C593.825 266.096 592.584 266.361 591.271 266.361C589.393 266.361 587.869 265.837 586.701 264.79C585.544 263.742 584.966 262.417 584.966 260.815C584.966 258.912 585.755 257.406 587.333 256.298C588.923 255.19 591.133 254.636 593.963 254.636H597.884V252.414C597.884 251.017 597.45 249.921 596.583 249.126C595.728 248.319 594.475 247.916 592.825 247.916C591.32 247.916 590.073 248.301 589.085 249.072C588.098 249.843 587.604 250.77 587.604 251.854L585.436 251.836C585.436 250.282 586.159 248.939 587.604 247.807C589.049 246.663 590.826 246.091 592.934 246.091C595.114 246.091 596.83 246.639 598.083 247.735C599.347 248.819 599.998 250.336 600.034 252.288V261.538C600.034 263.429 600.232 264.844 600.63 265.783V266H598.317ZM591.524 264.446C592.97 264.446 594.258 264.097 595.391 263.398C596.535 262.7 597.366 261.766 597.884 260.598V256.298H594.018C591.862 256.322 590.175 256.72 588.959 257.491C587.743 258.25 587.134 259.297 587.134 260.634C587.134 261.73 587.538 262.64 588.345 263.362C589.164 264.085 590.224 264.446 591.524 264.446ZM609.175 241.448V246.452H613.222V248.223H609.175V261.249C609.175 262.333 609.368 263.139 609.753 263.669C610.151 264.199 610.807 264.464 611.723 264.464C612.084 264.464 612.668 264.404 613.475 264.284L613.565 266.054C612.999 266.259 612.229 266.361 611.253 266.361C609.771 266.361 608.694 265.934 608.019 265.079C607.345 264.211 607.007 262.941 607.007 261.267V248.223H603.412V246.452H607.007V241.448H609.175ZM616.149 255.937C616.149 254.058 616.51 252.366 617.233 250.86C617.968 249.355 618.997 248.187 620.322 247.355C621.659 246.512 623.171 246.091 624.857 246.091C627.458 246.091 629.566 247.006 631.18 248.837C632.794 250.656 633.601 253.07 633.601 256.082V256.533C633.601 258.424 633.234 260.128 632.499 261.646C631.776 263.152 630.753 264.314 629.428 265.133C628.103 265.952 626.591 266.361 624.893 266.361C622.304 266.361 620.196 265.452 618.57 263.633C616.956 261.803 616.149 259.382 616.149 256.371V255.937ZM618.317 256.533C618.317 258.87 618.919 260.791 620.124 262.296C621.34 263.79 622.93 264.537 624.893 264.537C626.844 264.537 628.422 263.79 629.626 262.296C630.843 260.791 631.451 258.81 631.451 256.353V255.937C631.451 254.444 631.174 253.076 630.62 251.836C630.066 250.595 629.289 249.638 628.29 248.963C627.29 248.277 626.146 247.934 624.857 247.934C622.93 247.934 621.358 248.692 620.142 250.21C618.925 251.715 618.317 253.691 618.317 256.136V256.533ZM647.115 248.295C646.657 248.211 646.169 248.168 645.651 248.168C644.302 248.168 643.158 248.548 642.219 249.307C641.291 250.053 640.629 251.143 640.231 252.577V266H638.082V246.452H640.195L640.231 249.56C641.376 247.247 643.212 246.091 645.742 246.091C646.344 246.091 646.82 246.169 647.169 246.326L647.115 248.295ZM657.069 262.893L662.778 246.452H665.109L656.762 269.324L656.329 270.336C655.257 272.709 653.601 273.895 651.36 273.895C650.842 273.895 650.288 273.811 649.698 273.642L649.68 271.854L650.8 271.962C651.86 271.962 652.715 271.697 653.366 271.167C654.028 270.649 654.588 269.752 655.046 268.475L656.003 265.837L648.632 246.452H650.999L657.069 262.893ZM679.779 258.683H677.773L677.665 239.695H679.905L679.779 258.683ZM677.412 264.735C677.412 264.326 677.545 263.983 677.81 263.706C678.075 263.417 678.436 263.272 678.894 263.272C679.351 263.272 679.713 263.417 679.978 263.706C680.255 263.983 680.393 264.326 680.393 264.735C680.393 265.133 680.255 265.47 679.978 265.747C679.713 266.012 679.351 266.145 678.894 266.145C678.436 266.145 678.075 266.012 677.81 265.747C677.545 265.47 677.412 265.133 677.412 264.735Z" fill="white"/>
</g>
<defs>
<linearGradient id="paint0_linear" x1="-47.5" y1="-16.0001" x2="1174.5" y2="541.5" gradientUnits="userSpaceOnUse">
<stop offset="0.411458" stop-color="#5024F8"/>
<stop offset="0.978042" stop-color="#3804FF"/>
<stop offset="1" stop-color="#492CB9" stop-opacity="0"/>
</linearGradient>
<clipPath id="clip0">
<rect width="1195" height="410" fill="white"/>
</clipPath>
</defs>
</svg>
