<svg width="1195" height="410" viewBox="0 0 1195 410" fill="none" xmlns="http://www.w3.org/2000/svg">
<g clip-path="url(#clip0)">
<rect width="1195" height="410" fill="#291A63"/>
<path d="M601.5 477.5L-113 52L-6.5 501L601.5 477.5Z" fill="#291A63"/>
<path d="M563 441.5L-16 -106L-9.5 113.5L491 412.5L563 441.5Z" fill="#0F0837"/>
<path d="M228.5 192L23 -53L-68.5 -8.5L228.5 192Z" fill="url(#paint0_radial)"/>
<path d="M600 477L178.5 76.5L794 477H600Z" fill="url(#paint1_radial)" fill-opacity="0.97"/>
<path d="M743 448.5L336.5 178L904 448.5H743Z" fill="url(#paint2_radial)"/>
<path d="M284.812 105V82.25H291.812C293.812 82.25 295.599 82.7031 297.172 83.6094C298.755 84.5052 299.99 85.7865 300.875 87.4531C301.76 89.1094 302.203 90.9948 302.203 93.1094V94.1562C302.203 96.2708 301.766 98.151 300.891 99.7969C300.026 101.443 298.802 102.719 297.219 103.625C295.635 104.531 293.849 104.99 291.859 105H284.812ZM289.5 86.0469V101.234H291.766C293.599 101.234 295 100.635 295.969 99.4375C296.938 98.2396 297.432 96.526 297.453 94.2969V93.0938C297.453 90.7812 296.974 89.0312 296.016 87.8438C295.057 86.6458 293.656 86.0469 291.812 86.0469H289.5ZM313.109 105.312C310.63 105.312 308.609 104.552 307.047 103.031C305.495 101.51 304.719 99.4844 304.719 96.9531V96.5156C304.719 94.8177 305.047 93.3021 305.703 91.9688C306.359 90.625 307.286 89.5938 308.484 88.875C309.693 88.1458 311.068 87.7812 312.609 87.7812C314.922 87.7812 316.74 88.5104 318.062 89.9688C319.396 91.4271 320.062 93.4948 320.062 96.1719V98.0156H309.297C309.443 99.1198 309.88 100.005 310.609 100.672C311.349 101.339 312.281 101.672 313.406 101.672C315.146 101.672 316.505 101.042 317.484 99.7812L319.703 102.266C319.026 103.224 318.109 103.974 316.953 104.516C315.797 105.047 314.516 105.312 313.109 105.312ZM312.594 91.4375C311.698 91.4375 310.969 91.7396 310.406 92.3438C309.854 92.9479 309.5 93.8125 309.344 94.9375H315.625V94.5781C315.604 93.5781 315.333 92.8073 314.812 92.2656C314.292 91.7135 313.552 91.4375 312.594 91.4375ZM331.797 100.328C331.797 99.776 331.521 99.3438 330.969 99.0312C330.427 98.7083 329.552 98.4219 328.344 98.1719C324.323 97.3281 322.312 95.6198 322.312 93.0469C322.312 91.5469 322.932 90.2969 324.172 89.2969C325.422 88.2865 327.052 87.7812 329.062 87.7812C331.208 87.7812 332.922 88.2865 334.203 89.2969C335.495 90.3073 336.141 91.6198 336.141 93.2344H331.625C331.625 92.5885 331.417 92.0573 331 91.6406C330.583 91.2135 329.932 91 329.047 91C328.286 91 327.698 91.1719 327.281 91.5156C326.865 91.8594 326.656 92.2969 326.656 92.8281C326.656 93.3281 326.891 93.7344 327.359 94.0469C327.839 94.349 328.641 94.6146 329.766 94.8438C330.891 95.0625 331.839 95.3125 332.609 95.5938C334.995 96.4688 336.188 97.9844 336.188 100.141C336.188 101.682 335.526 102.932 334.203 103.891C332.88 104.839 331.172 105.312 329.078 105.312C327.661 105.312 326.401 105.062 325.297 104.562C324.203 104.052 323.344 103.359 322.719 102.484C322.094 101.599 321.781 100.646 321.781 99.625H326.062C326.104 100.427 326.401 101.042 326.953 101.469C327.505 101.896 328.245 102.109 329.172 102.109C330.036 102.109 330.688 101.948 331.125 101.625C331.573 101.292 331.797 100.859 331.797 100.328ZM343.875 105H339.344V88.0938H343.875V105ZM339.078 83.7188C339.078 83.0417 339.302 82.4844 339.75 82.0469C340.208 81.6094 340.828 81.3906 341.609 81.3906C342.38 81.3906 342.995 81.6094 343.453 82.0469C343.911 82.4844 344.141 83.0417 344.141 83.7188C344.141 84.4062 343.906 84.9688 343.438 85.4062C342.979 85.8438 342.37 86.0625 341.609 86.0625C340.849 86.0625 340.234 85.8438 339.766 85.4062C339.307 84.9688 339.078 84.4062 339.078 83.7188ZM346.953 96.4219C346.953 93.8281 347.568 91.7396 348.797 90.1562C350.036 88.5729 351.703 87.7812 353.797 87.7812C355.651 87.7812 357.094 88.4167 358.125 89.6875L358.312 88.0938H362.406V104.438C362.406 105.917 362.068 107.203 361.391 108.297C360.724 109.391 359.781 110.224 358.562 110.797C357.344 111.37 355.917 111.656 354.281 111.656C353.042 111.656 351.833 111.406 350.656 110.906C349.479 110.417 348.589 109.781 347.984 109L349.984 106.25C351.109 107.51 352.474 108.141 354.078 108.141C355.276 108.141 356.208 107.818 356.875 107.172C357.542 106.536 357.875 105.63 357.875 104.453V103.547C356.833 104.724 355.464 105.312 353.766 105.312C351.734 105.312 350.089 104.521 348.828 102.938C347.578 101.344 346.953 99.2344 346.953 96.6094V96.4219ZM351.469 96.75C351.469 98.2812 351.776 99.4844 352.391 100.359C353.005 101.224 353.849 101.656 354.922 101.656C356.297 101.656 357.281 101.141 357.875 100.109V93C357.271 91.9688 356.297 91.4531 354.953 91.4531C353.87 91.4531 353.016 91.8958 352.391 92.7812C351.776 93.6667 351.469 94.9896 351.469 96.75ZM370.047 88.0938L370.188 90.0469C371.396 88.5365 373.016 87.7812 375.047 87.7812C376.839 87.7812 378.172 88.3073 379.047 89.3594C379.922 90.4115 380.37 91.9844 380.391 94.0781V105H375.875V94.1875C375.875 93.2292 375.667 92.5365 375.25 92.1094C374.833 91.6719 374.141 91.4531 373.172 91.4531C371.901 91.4531 370.948 91.9948 370.312 93.0781V105H365.797V88.0938H370.047ZM396.781 96.9844V105H392.094V82.25H400.969C402.677 82.25 404.177 82.5625 405.469 83.1875C406.771 83.8125 407.771 84.7031 408.469 85.8594C409.167 87.0052 409.516 88.3125 409.516 89.7812C409.516 92.0104 408.75 93.7708 407.219 95.0625C405.698 96.3438 403.589 96.9844 400.891 96.9844H396.781ZM396.781 93.1875H400.969C402.208 93.1875 403.151 92.8958 403.797 92.3125C404.453 91.7292 404.781 90.8958 404.781 89.8125C404.781 88.6979 404.453 87.7969 403.797 87.1094C403.141 86.4219 402.234 86.0677 401.078 86.0469H396.781V93.1875ZM421.953 92.3281C421.339 92.2448 420.797 92.2031 420.328 92.2031C418.62 92.2031 417.5 92.7812 416.969 93.9375V105H412.453V88.0938H416.719L416.844 90.1094C417.75 88.5573 419.005 87.7812 420.609 87.7812C421.109 87.7812 421.578 87.849 422.016 87.9844L421.953 92.3281ZM422.875 96.3906C422.875 94.7135 423.198 93.2188 423.844 91.9062C424.49 90.5938 425.417 89.5781 426.625 88.8594C427.844 88.1406 429.255 87.7812 430.859 87.7812C433.141 87.7812 435 88.4792 436.438 89.875C437.885 91.2708 438.693 93.1667 438.859 95.5625L438.891 96.7188C438.891 99.3125 438.167 101.396 436.719 102.969C435.271 104.531 433.328 105.312 430.891 105.312C428.453 105.312 426.505 104.531 425.047 102.969C423.599 101.406 422.875 99.2812 422.875 96.5938V96.3906ZM427.391 96.7188C427.391 98.3229 427.693 99.5521 428.297 100.406C428.901 101.25 429.766 101.672 430.891 101.672C431.984 101.672 432.839 101.255 433.453 100.422C434.068 99.5781 434.375 98.2344 434.375 96.3906C434.375 94.8177 434.068 93.599 433.453 92.7344C432.839 91.8698 431.974 91.4375 430.859 91.4375C429.755 91.4375 428.901 91.8698 428.297 92.7344C427.693 93.5885 427.391 94.9167 427.391 96.7188ZM442.906 105V91.4062H440.391V88.0938H442.906V86.6562C442.906 84.7604 443.448 83.2917 444.531 82.25C445.625 81.1979 447.151 80.6719 449.109 80.6719C449.734 80.6719 450.5 80.776 451.406 80.9844L451.359 84.4844C450.984 84.3906 450.526 84.3438 449.984 84.3438C448.286 84.3438 447.438 85.1406 447.438 86.7344V88.0938H450.797V91.4062H447.438V105H442.906ZM460.547 105.312C458.068 105.312 456.047 104.552 454.484 103.031C452.932 101.51 452.156 99.4844 452.156 96.9531V96.5156C452.156 94.8177 452.484 93.3021 453.141 91.9688C453.797 90.625 454.724 89.5938 455.922 88.875C457.13 88.1458 458.505 87.7812 460.047 87.7812C462.359 87.7812 464.177 88.5104 465.5 89.9688C466.833 91.4271 467.5 93.4948 467.5 96.1719V98.0156H456.734C456.88 99.1198 457.318 100.005 458.047 100.672C458.786 101.339 459.719 101.672 460.844 101.672C462.583 101.672 463.943 101.042 464.922 99.7812L467.141 102.266C466.464 103.224 465.547 103.974 464.391 104.516C463.234 105.047 461.953 105.312 460.547 105.312ZM460.031 91.4375C459.135 91.4375 458.406 91.7396 457.844 92.3438C457.292 92.9479 456.938 93.8125 456.781 94.9375H463.062V94.5781C463.042 93.5781 462.771 92.8073 462.25 92.2656C461.729 91.7135 460.99 91.4375 460.031 91.4375ZM479.234 100.328C479.234 99.776 478.958 99.3438 478.406 99.0312C477.865 98.7083 476.99 98.4219 475.781 98.1719C471.76 97.3281 469.75 95.6198 469.75 93.0469C469.75 91.5469 470.37 90.2969 471.609 89.2969C472.859 88.2865 474.49 87.7812 476.5 87.7812C478.646 87.7812 480.359 88.2865 481.641 89.2969C482.932 90.3073 483.578 91.6198 483.578 93.2344H479.062C479.062 92.5885 478.854 92.0573 478.438 91.6406C478.021 91.2135 477.37 91 476.484 91C475.724 91 475.135 91.1719 474.719 91.5156C474.302 91.8594 474.094 92.2969 474.094 92.8281C474.094 93.3281 474.328 93.7344 474.797 94.0469C475.276 94.349 476.078 94.6146 477.203 94.8438C478.328 95.0625 479.276 95.3125 480.047 95.5938C482.432 96.4688 483.625 97.9844 483.625 100.141C483.625 101.682 482.964 102.932 481.641 103.891C480.318 104.839 478.609 105.312 476.516 105.312C475.099 105.312 473.839 105.062 472.734 104.562C471.641 104.052 470.781 103.359 470.156 102.484C469.531 101.599 469.219 100.646 469.219 99.625H473.5C473.542 100.427 473.839 101.042 474.391 101.469C474.943 101.896 475.682 102.109 476.609 102.109C477.474 102.109 478.125 101.948 478.562 101.625C479.01 101.292 479.234 100.859 479.234 100.328ZM495.703 100.328C495.703 99.776 495.427 99.3438 494.875 99.0312C494.333 98.7083 493.458 98.4219 492.25 98.1719C488.229 97.3281 486.219 95.6198 486.219 93.0469C486.219 91.5469 486.839 90.2969 488.078 89.2969C489.328 88.2865 490.958 87.7812 492.969 87.7812C495.115 87.7812 496.828 88.2865 498.109 89.2969C499.401 90.3073 500.047 91.6198 500.047 93.2344H495.531C495.531 92.5885 495.323 92.0573 494.906 91.6406C494.49 91.2135 493.839 91 492.953 91C492.193 91 491.604 91.1719 491.188 91.5156C490.771 91.8594 490.562 92.2969 490.562 92.8281C490.562 93.3281 490.797 93.7344 491.266 94.0469C491.745 94.349 492.547 94.6146 493.672 94.8438C494.797 95.0625 495.745 95.3125 496.516 95.5938C498.901 96.4688 500.094 97.9844 500.094 100.141C500.094 101.682 499.432 102.932 498.109 103.891C496.786 104.839 495.078 105.312 492.984 105.312C491.568 105.312 490.307 105.062 489.203 104.562C488.109 104.052 487.25 103.359 486.625 102.484C486 101.599 485.688 100.646 485.688 99.625H489.969C490.01 100.427 490.307 101.042 490.859 101.469C491.411 101.896 492.151 102.109 493.078 102.109C493.943 102.109 494.594 101.948 495.031 101.625C495.479 101.292 495.703 100.859 495.703 100.328ZM507.781 105H503.25V88.0938H507.781V105ZM502.984 83.7188C502.984 83.0417 503.208 82.4844 503.656 82.0469C504.115 81.6094 504.734 81.3906 505.516 81.3906C506.286 81.3906 506.901 81.6094 507.359 82.0469C507.818 82.4844 508.047 83.0417 508.047 83.7188C508.047 84.4062 507.812 84.9688 507.344 85.4062C506.885 85.8438 506.276 86.0625 505.516 86.0625C504.755 86.0625 504.141 85.8438 503.672 85.4062C503.214 84.9688 502.984 84.4062 502.984 83.7188ZM510.812 96.3906C510.812 94.7135 511.135 93.2188 511.781 91.9062C512.427 90.5938 513.354 89.5781 514.562 88.8594C515.781 88.1406 517.193 87.7812 518.797 87.7812C521.078 87.7812 522.938 88.4792 524.375 89.875C525.823 91.2708 526.63 93.1667 526.797 95.5625L526.828 96.7188C526.828 99.3125 526.104 101.396 524.656 102.969C523.208 104.531 521.266 105.312 518.828 105.312C516.391 105.312 514.443 104.531 512.984 102.969C511.536 101.406 510.812 99.2812 510.812 96.5938V96.3906ZM515.328 96.7188C515.328 98.3229 515.63 99.5521 516.234 100.406C516.839 101.25 517.703 101.672 518.828 101.672C519.922 101.672 520.776 101.255 521.391 100.422C522.005 99.5781 522.312 98.2344 522.312 96.3906C522.312 94.8177 522.005 93.599 521.391 92.7344C520.776 91.8698 519.911 91.4375 518.797 91.4375C517.693 91.4375 516.839 91.8698 516.234 92.7344C515.63 93.5885 515.328 94.9167 515.328 96.7188ZM533.766 88.0938L533.906 90.0469C535.115 88.5365 536.734 87.7812 538.766 87.7812C540.557 87.7812 541.891 88.3073 542.766 89.3594C543.641 90.4115 544.089 91.9844 544.109 94.0781V105H539.594V94.1875C539.594 93.2292 539.385 92.5365 538.969 92.1094C538.552 91.6719 537.859 91.4531 536.891 91.4531C535.62 91.4531 534.667 91.9948 534.031 93.0781V105H529.516V88.0938H533.766ZM557.344 105C557.135 104.594 556.984 104.089 556.891 103.484C555.797 104.703 554.375 105.312 552.625 105.312C550.969 105.312 549.594 104.833 548.5 103.875C547.417 102.917 546.875 101.708 546.875 100.25C546.875 98.4583 547.536 97.0833 548.859 96.125C550.193 95.1667 552.115 94.6823 554.625 94.6719H556.703V93.7031C556.703 92.9219 556.5 92.2969 556.094 91.8281C555.698 91.3594 555.068 91.125 554.203 91.125C553.443 91.125 552.844 91.3073 552.406 91.6719C551.979 92.0365 551.766 92.5365 551.766 93.1719H547.25C547.25 92.1927 547.552 91.2865 548.156 90.4531C548.76 89.6198 549.615 88.9688 550.719 88.5C551.823 88.0208 553.062 87.7812 554.438 87.7812C556.521 87.7812 558.172 88.3073 559.391 89.3594C560.62 90.401 561.234 91.8698 561.234 93.7656V101.094C561.245 102.698 561.469 103.911 561.906 104.734V105H557.344ZM553.609 101.859C554.276 101.859 554.891 101.714 555.453 101.422C556.016 101.12 556.432 100.719 556.703 100.219V97.3125H555.016C552.755 97.3125 551.552 98.0938 551.406 99.6562L551.391 99.9219C551.391 100.484 551.589 100.948 551.984 101.312C552.38 101.677 552.922 101.859 553.609 101.859ZM569.469 105H564.938V81H569.469V105ZM585.938 105H581.406V81H585.938V105ZM588.969 96.3906C588.969 94.7135 589.292 93.2188 589.938 91.9062C590.583 90.5938 591.51 89.5781 592.719 88.8594C593.938 88.1406 595.349 87.7812 596.953 87.7812C599.234 87.7812 601.094 88.4792 602.531 89.875C603.979 91.2708 604.786 93.1667 604.953 95.5625L604.984 96.7188C604.984 99.3125 604.26 101.396 602.812 102.969C601.365 104.531 599.422 105.312 596.984 105.312C594.547 105.312 592.599 104.531 591.141 102.969C589.693 101.406 588.969 99.2812 588.969 96.5938V96.3906ZM593.484 96.7188C593.484 98.3229 593.786 99.5521 594.391 100.406C594.995 101.25 595.859 101.672 596.984 101.672C598.078 101.672 598.932 101.255 599.547 100.422C600.161 99.5781 600.469 98.2344 600.469 96.3906C600.469 94.8177 600.161 93.599 599.547 92.7344C598.932 91.8698 598.068 91.4375 596.953 91.4375C595.849 91.4375 594.995 91.8698 594.391 92.7344C593.786 93.5885 593.484 94.9167 593.484 96.7188ZM607.109 96.4219C607.109 93.8281 607.724 91.7396 608.953 90.1562C610.193 88.5729 611.859 87.7812 613.953 87.7812C615.807 87.7812 617.25 88.4167 618.281 89.6875L618.469 88.0938H622.562V104.438C622.562 105.917 622.224 107.203 621.547 108.297C620.88 109.391 619.938 110.224 618.719 110.797C617.5 111.37 616.073 111.656 614.438 111.656C613.198 111.656 611.99 111.406 610.812 110.906C609.635 110.417 608.745 109.781 608.141 109L610.141 106.25C611.266 107.51 612.63 108.141 614.234 108.141C615.432 108.141 616.365 107.818 617.031 107.172C617.698 106.536 618.031 105.63 618.031 104.453V103.547C616.99 104.724 615.62 105.312 613.922 105.312C611.891 105.312 610.245 104.521 608.984 102.938C607.734 101.344 607.109 99.2344 607.109 96.6094V96.4219ZM611.625 96.75C611.625 98.2812 611.932 99.4844 612.547 100.359C613.161 101.224 614.005 101.656 615.078 101.656C616.453 101.656 617.438 101.141 618.031 100.109V93C617.427 91.9688 616.453 91.4531 615.109 91.4531C614.026 91.4531 613.172 91.8958 612.547 92.7812C611.932 93.6667 611.625 94.9896 611.625 96.75ZM625.344 96.3906C625.344 94.7135 625.667 93.2188 626.312 91.9062C626.958 90.5938 627.885 89.5781 629.094 88.8594C630.312 88.1406 631.724 87.7812 633.328 87.7812C635.609 87.7812 637.469 88.4792 638.906 89.875C640.354 91.2708 641.161 93.1667 641.328 95.5625L641.359 96.7188C641.359 99.3125 640.635 101.396 639.188 102.969C637.74 104.531 635.797 105.312 633.359 105.312C630.922 105.312 628.974 104.531 627.516 102.969C626.068 101.406 625.344 99.2812 625.344 96.5938V96.3906ZM629.859 96.7188C629.859 98.3229 630.161 99.5521 630.766 100.406C631.37 101.25 632.234 101.672 633.359 101.672C634.453 101.672 635.307 101.255 635.922 100.422C636.536 99.5781 636.844 98.2344 636.844 96.3906C636.844 94.8177 636.536 93.599 635.922 92.7344C635.307 91.8698 634.443 91.4375 633.328 91.4375C632.224 91.4375 631.37 91.8698 630.766 92.7344C630.161 93.5885 629.859 94.9167 629.859 96.7188ZM653.297 100.328C653.297 99.776 653.021 99.3438 652.469 99.0312C651.927 98.7083 651.052 98.4219 649.844 98.1719C645.823 97.3281 643.812 95.6198 643.812 93.0469C643.812 91.5469 644.432 90.2969 645.672 89.2969C646.922 88.2865 648.552 87.7812 650.562 87.7812C652.708 87.7812 654.422 88.2865 655.703 89.2969C656.995 90.3073 657.641 91.6198 657.641 93.2344H653.125C653.125 92.5885 652.917 92.0573 652.5 91.6406C652.083 91.2135 651.432 91 650.547 91C649.786 91 649.198 91.1719 648.781 91.5156C648.365 91.8594 648.156 92.2969 648.156 92.8281C648.156 93.3281 648.391 93.7344 648.859 94.0469C649.339 94.349 650.141 94.6146 651.266 94.8438C652.391 95.0625 653.339 95.3125 654.109 95.5938C656.495 96.4688 657.688 97.9844 657.688 100.141C657.688 101.682 657.026 102.932 655.703 103.891C654.38 104.839 652.672 105.312 650.578 105.312C649.161 105.312 647.901 105.062 646.797 104.562C645.703 104.052 644.844 103.359 644.219 102.484C643.594 101.599 643.281 100.646 643.281 99.625H647.562C647.604 100.427 647.901 101.042 648.453 101.469C649.005 101.896 649.745 102.109 650.672 102.109C651.536 102.109 652.188 101.948 652.625 101.625C653.073 101.292 653.297 100.859 653.297 100.328ZM669.812 105V91.4062H667.297V88.0938H669.812V86.6562C669.812 84.7604 670.354 83.2917 671.438 82.25C672.531 81.1979 674.057 80.6719 676.016 80.6719C676.641 80.6719 677.406 80.776 678.312 80.9844L678.266 84.4844C677.891 84.3906 677.432 84.3438 676.891 84.3438C675.193 84.3438 674.344 85.1406 674.344 86.7344V88.0938H677.703V91.4062H674.344V105H669.812ZM679.344 96.3906C679.344 94.7135 679.667 93.2188 680.312 91.9062C680.958 90.5938 681.885 89.5781 683.094 88.8594C684.312 88.1406 685.724 87.7812 687.328 87.7812C689.609 87.7812 691.469 88.4792 692.906 89.875C694.354 91.2708 695.161 93.1667 695.328 95.5625L695.359 96.7188C695.359 99.3125 694.635 101.396 693.188 102.969C691.74 104.531 689.797 105.312 687.359 105.312C684.922 105.312 682.974 104.531 681.516 102.969C680.068 101.406 679.344 99.2812 679.344 96.5938V96.3906ZM683.859 96.7188C683.859 98.3229 684.161 99.5521 684.766 100.406C685.37 101.25 686.234 101.672 687.359 101.672C688.453 101.672 689.307 101.255 689.922 100.422C690.536 99.5781 690.844 98.2344 690.844 96.3906C690.844 94.8177 690.536 93.599 689.922 92.7344C689.307 91.8698 688.443 91.4375 687.328 91.4375C686.224 91.4375 685.37 91.8698 684.766 92.7344C684.161 93.5885 683.859 94.9167 683.859 96.7188ZM707.641 92.3281C707.026 92.2448 706.484 92.2031 706.016 92.2031C704.307 92.2031 703.188 92.7812 702.656 93.9375V105H698.141V88.0938H702.406L702.531 90.1094C703.438 88.5573 704.693 87.7812 706.297 87.7812C706.797 87.7812 707.266 87.849 707.703 87.9844L707.641 92.3281ZM724.109 98.6094L727.234 88.0938H732.078L725.281 107.625L724.906 108.516C723.896 110.724 722.229 111.828 719.906 111.828C719.25 111.828 718.583 111.729 717.906 111.531V108.109L718.594 108.125C719.448 108.125 720.083 107.995 720.5 107.734C720.927 107.474 721.26 107.042 721.5 106.438L722.031 105.047L716.109 88.0938H720.969L724.109 98.6094ZM732.906 96.3906C732.906 94.7135 733.229 93.2188 733.875 91.9062C734.521 90.5938 735.448 89.5781 736.656 88.8594C737.875 88.1406 739.286 87.7812 740.891 87.7812C743.172 87.7812 745.031 88.4792 746.469 89.875C747.917 91.2708 748.724 93.1667 748.891 95.5625L748.922 96.7188C748.922 99.3125 748.198 101.396 746.75 102.969C745.302 104.531 743.359 105.312 740.922 105.312C738.484 105.312 736.536 104.531 735.078 102.969C733.63 101.406 732.906 99.2812 732.906 96.5938V96.3906ZM737.422 96.7188C737.422 98.3229 737.724 99.5521 738.328 100.406C738.932 101.25 739.797 101.672 740.922 101.672C742.016 101.672 742.87 101.255 743.484 100.422C744.099 99.5781 744.406 98.2344 744.406 96.3906C744.406 94.8177 744.099 93.599 743.484 92.7344C742.87 91.8698 742.005 91.4375 740.891 91.4375C739.786 91.4375 738.932 91.8698 738.328 92.7344C737.724 93.5885 737.422 94.9167 737.422 96.7188ZM761.828 103.281C760.714 104.635 759.172 105.312 757.203 105.312C755.391 105.312 754.005 104.792 753.047 103.75C752.099 102.708 751.615 101.182 751.594 99.1719V88.0938H756.109V99.0156C756.109 100.776 756.911 101.656 758.516 101.656C760.047 101.656 761.099 101.125 761.672 100.062V88.0938H766.203V105H761.953L761.828 103.281ZM779.109 92.3281C778.495 92.2448 777.953 92.2031 777.484 92.2031C775.776 92.2031 774.656 92.7812 774.125 93.9375V105H769.609V88.0938H773.875L774 90.1094C774.906 88.5573 776.161 87.7812 777.766 87.7812C778.266 87.7812 778.734 87.849 779.172 87.9844L779.109 92.3281ZM804.5 96.7031C804.5 99.4115 803.922 101.526 802.766 103.047C801.609 104.557 799.995 105.312 797.922 105.312C796.089 105.312 794.625 104.609 793.531 103.203L793.328 105H789.266V81H793.781V89.6094C794.823 88.3906 796.193 87.7812 797.891 87.7812C799.953 87.7812 801.568 88.5417 802.734 90.0625C803.911 91.5729 804.5 93.7031 804.5 96.4531V96.7031ZM799.984 96.375C799.984 94.6667 799.714 93.4219 799.172 92.6406C798.63 91.849 797.823 91.4531 796.75 91.4531C795.312 91.4531 794.323 92.0417 793.781 93.2188V99.8906C794.333 101.078 795.333 101.672 796.781 101.672C798.24 101.672 799.198 100.953 799.656 99.5156C799.875 98.8281 799.984 97.7812 799.984 96.375ZM816.797 92.3281C816.182 92.2448 815.641 92.2031 815.172 92.2031C813.464 92.2031 812.344 92.7812 811.812 93.9375V105H807.297V88.0938H811.562L811.688 90.1094C812.594 88.5573 813.849 87.7812 815.453 87.7812C815.953 87.7812 816.422 87.849 816.859 87.9844L816.797 92.3281ZM828.312 105C828.104 104.594 827.953 104.089 827.859 103.484C826.766 104.703 825.344 105.312 823.594 105.312C821.938 105.312 820.562 104.833 819.469 103.875C818.385 102.917 817.844 101.708 817.844 100.25C817.844 98.4583 818.505 97.0833 819.828 96.125C821.161 95.1667 823.083 94.6823 825.594 94.6719H827.672V93.7031C827.672 92.9219 827.469 92.2969 827.062 91.8281C826.667 91.3594 826.036 91.125 825.172 91.125C824.411 91.125 823.812 91.3073 823.375 91.6719C822.948 92.0365 822.734 92.5365 822.734 93.1719H818.219C818.219 92.1927 818.521 91.2865 819.125 90.4531C819.729 89.6198 820.583 88.9688 821.688 88.5C822.792 88.0208 824.031 87.7812 825.406 87.7812C827.49 87.7812 829.141 88.3073 830.359 89.3594C831.589 90.401 832.203 91.8698 832.203 93.7656V101.094C832.214 102.698 832.438 103.911 832.875 104.734V105H828.312ZM824.578 101.859C825.245 101.859 825.859 101.714 826.422 101.422C826.984 101.12 827.401 100.719 827.672 100.219V97.3125H825.984C823.724 97.3125 822.521 98.0938 822.375 99.6562L822.359 99.9219C822.359 100.484 822.557 100.948 822.953 101.312C823.349 101.677 823.891 101.859 824.578 101.859ZM839.828 88.0938L839.969 90.0469C841.177 88.5365 842.797 87.7812 844.828 87.7812C846.62 87.7812 847.953 88.3073 848.828 89.3594C849.703 90.4115 850.151 91.9844 850.172 94.0781V105H845.656V94.1875C845.656 93.2292 845.448 92.5365 845.031 92.1094C844.615 91.6719 843.922 91.4531 842.953 91.4531C841.682 91.4531 840.729 91.9948 840.094 93.0781V105H835.578V88.0938H839.828ZM852.906 96.4219C852.906 93.7865 853.495 91.6875 854.672 90.125C855.859 88.5625 857.479 87.7812 859.531 87.7812C861.177 87.7812 862.536 88.3958 863.609 89.625V81H868.141V105H864.062L863.844 103.203C862.719 104.609 861.271 105.312 859.5 105.312C857.51 105.312 855.911 104.531 854.703 102.969C853.505 101.396 852.906 99.2135 852.906 96.4219ZM857.422 96.75C857.422 98.3333 857.698 99.5469 858.25 100.391C858.802 101.234 859.604 101.656 860.656 101.656C862.052 101.656 863.036 101.068 863.609 99.8906V93.2188C863.047 92.0417 862.073 91.4531 860.688 91.4531C858.51 91.4531 857.422 93.2188 857.422 96.75ZM884.375 105H879.844V88.0938H884.375V105ZM879.578 83.7188C879.578 83.0417 879.802 82.4844 880.25 82.0469C880.708 81.6094 881.328 81.3906 882.109 81.3906C882.88 81.3906 883.495 81.6094 883.953 82.0469C884.411 82.4844 884.641 83.0417 884.641 83.7188C884.641 84.4062 884.406 84.9688 883.938 85.4062C883.479 85.8438 882.87 86.0625 882.109 86.0625C881.349 86.0625 880.734 85.8438 880.266 85.4062C879.807 84.9688 879.578 84.4062 879.578 83.7188ZM892.266 88.0938L892.406 90.0469C893.615 88.5365 895.234 87.7812 897.266 87.7812C899.057 87.7812 900.391 88.3073 901.266 89.3594C902.141 90.4115 902.589 91.9844 902.609 94.0781V105H898.094V94.1875C898.094 93.2292 897.885 92.5365 897.469 92.1094C897.052 91.6719 896.359 91.4531 895.391 91.4531C894.12 91.4531 893.167 91.9948 892.531 93.0781V105H888.016V88.0938H892.266ZM923.812 105C923.604 104.594 923.453 104.089 923.359 103.484C922.266 104.703 920.844 105.312 919.094 105.312C917.438 105.312 916.062 104.833 914.969 103.875C913.885 102.917 913.344 101.708 913.344 100.25C913.344 98.4583 914.005 97.0833 915.328 96.125C916.661 95.1667 918.583 94.6823 921.094 94.6719H923.172V93.7031C923.172 92.9219 922.969 92.2969 922.562 91.8281C922.167 91.3594 921.536 91.125 920.672 91.125C919.911 91.125 919.312 91.3073 918.875 91.6719C918.448 92.0365 918.234 92.5365 918.234 93.1719H913.719C913.719 92.1927 914.021 91.2865 914.625 90.4531C915.229 89.6198 916.083 88.9688 917.188 88.5C918.292 88.0208 919.531 87.7812 920.906 87.7812C922.99 87.7812 924.641 88.3073 925.859 89.3594C927.089 90.401 927.703 91.8698 927.703 93.7656V101.094C927.714 102.698 927.938 103.911 928.375 104.734V105H923.812ZM920.078 101.859C920.745 101.859 921.359 101.714 921.922 101.422C922.484 101.12 922.901 100.719 923.172 100.219V97.3125H921.484C919.224 97.3125 918.021 98.0938 917.875 99.6562L917.859 99.9219C917.859 100.484 918.057 100.948 918.453 101.312C918.849 101.677 919.391 101.859 920.078 101.859ZM940.375 105V91.4062H937.859V88.0938H940.375V86.6562C940.375 84.7604 940.917 83.2917 942 82.25C943.094 81.1979 944.62 80.6719 946.578 80.6719C947.203 80.6719 947.969 80.776 948.875 80.9844L948.828 84.4844C948.453 84.3906 947.995 84.3438 947.453 84.3438C945.755 84.3438 944.906 85.1406 944.906 86.7344V88.0938H948.266V91.4062H944.906V105H940.375ZM958.016 105.312C955.536 105.312 953.516 104.552 951.953 103.031C950.401 101.51 949.625 99.4844 949.625 96.9531V96.5156C949.625 94.8177 949.953 93.3021 950.609 91.9688C951.266 90.625 952.193 89.5938 953.391 88.875C954.599 88.1458 955.974 87.7812 957.516 87.7812C959.828 87.7812 961.646 88.5104 962.969 89.9688C964.302 91.4271 964.969 93.4948 964.969 96.1719V98.0156H954.203C954.349 99.1198 954.786 100.005 955.516 100.672C956.255 101.339 957.188 101.672 958.312 101.672C960.052 101.672 961.411 101.042 962.391 99.7812L964.609 102.266C963.932 103.224 963.016 103.974 961.859 104.516C960.703 105.047 959.422 105.312 958.016 105.312ZM957.5 91.4375C956.604 91.4375 955.875 91.7396 955.312 92.3438C954.76 92.9479 954.406 93.8125 954.25 94.9375H960.531V94.5781C960.51 93.5781 960.24 92.8073 959.719 92.2656C959.198 91.7135 958.458 91.4375 957.5 91.4375ZM982.25 98.8594L984.469 88.0938H988.828L984.516 105H980.734L977.531 94.3594L974.328 105H970.562L966.25 88.0938H970.609L972.812 98.8438L975.906 88.0938H979.172L982.25 98.8594ZM1008.2 100.328C1008.2 99.776 1007.93 99.3438 1007.38 99.0312C1006.83 98.7083 1005.96 98.4219 1004.75 98.1719C1000.73 97.3281 998.719 95.6198 998.719 93.0469C998.719 91.5469 999.339 90.2969 1000.58 89.2969C1001.83 88.2865 1003.46 87.7812 1005.47 87.7812C1007.61 87.7812 1009.33 88.2865 1010.61 89.2969C1011.9 90.3073 1012.55 91.6198 1012.55 93.2344H1008.03C1008.03 92.5885 1007.82 92.0573 1007.41 91.6406C1006.99 91.2135 1006.34 91 1005.45 91C1004.69 91 1004.1 91.1719 1003.69 91.5156C1003.27 91.8594 1003.06 92.2969 1003.06 92.8281C1003.06 93.3281 1003.3 93.7344 1003.77 94.0469C1004.24 94.349 1005.05 94.6146 1006.17 94.8438C1007.3 95.0625 1008.24 95.3125 1009.02 95.5938C1011.4 96.4688 1012.59 97.9844 1012.59 100.141C1012.59 101.682 1011.93 102.932 1010.61 103.891C1009.29 104.839 1007.58 105.312 1005.48 105.312C1004.07 105.312 1002.81 105.062 1001.7 104.562C1000.61 104.052 999.75 103.359 999.125 102.484C998.5 101.599 998.188 100.646 998.188 99.625H1002.47C1002.51 100.427 1002.81 101.042 1003.36 101.469C1003.91 101.896 1004.65 102.109 1005.58 102.109C1006.44 102.109 1007.09 101.948 1007.53 101.625C1007.98 101.292 1008.2 100.859 1008.2 100.328ZM1023.3 105.312C1020.82 105.312 1018.8 104.552 1017.23 103.031C1015.68 101.51 1014.91 99.4844 1014.91 96.9531V96.5156C1014.91 94.8177 1015.23 93.3021 1015.89 91.9688C1016.55 90.625 1017.47 89.5938 1018.67 88.875C1019.88 88.1458 1021.26 87.7812 1022.8 87.7812C1025.11 87.7812 1026.93 88.5104 1028.25 89.9688C1029.58 91.4271 1030.25 93.4948 1030.25 96.1719V98.0156H1019.48C1019.63 99.1198 1020.07 100.005 1020.8 100.672C1021.54 101.339 1022.47 101.672 1023.59 101.672C1025.33 101.672 1026.69 101.042 1027.67 99.7812L1029.89 102.266C1029.21 103.224 1028.3 103.974 1027.14 104.516C1025.98 105.047 1024.7 105.312 1023.3 105.312ZM1022.78 91.4375C1021.89 91.4375 1021.16 91.7396 1020.59 92.3438C1020.04 92.9479 1019.69 93.8125 1019.53 94.9375H1025.81V94.5781C1025.79 93.5781 1025.52 92.8073 1025 92.2656C1024.48 91.7135 1023.74 91.4375 1022.78 91.4375ZM1039.86 101.672C1040.69 101.672 1041.37 101.443 1041.89 100.984C1042.41 100.526 1042.68 99.9167 1042.7 99.1562H1046.94C1046.93 100.302 1046.61 101.354 1046 102.312C1045.39 103.26 1044.54 104 1043.47 104.531C1042.41 105.052 1041.23 105.312 1039.94 105.312C1037.52 105.312 1035.61 104.547 1034.22 103.016C1032.82 101.474 1032.12 99.349 1032.12 96.6406V96.3438C1032.12 93.7396 1032.82 91.6615 1034.2 90.1094C1035.59 88.5573 1037.49 87.7812 1039.91 87.7812C1042.02 87.7812 1043.71 88.3854 1044.98 89.5938C1046.27 90.7917 1046.92 92.3906 1046.94 94.3906H1042.7C1042.68 93.5156 1042.41 92.8073 1041.89 92.2656C1041.37 91.7135 1040.68 91.4375 1039.83 91.4375C1038.78 91.4375 1037.98 91.8229 1037.44 92.5938C1036.91 93.3542 1036.64 94.5938 1036.64 96.3125V96.7812C1036.64 98.5208 1036.91 99.7708 1037.44 100.531C1037.97 101.292 1038.78 101.672 1039.86 101.672ZM1048.81 96.3906C1048.81 94.7135 1049.14 93.2188 1049.78 91.9062C1050.43 90.5938 1051.35 89.5781 1052.56 88.8594C1053.78 88.1406 1055.19 87.7812 1056.8 87.7812C1059.08 87.7812 1060.94 88.4792 1062.38 89.875C1063.82 91.2708 1064.63 93.1667 1064.8 95.5625L1064.83 96.7188C1064.83 99.3125 1064.1 101.396 1062.66 102.969C1061.21 104.531 1059.27 105.312 1056.83 105.312C1054.39 105.312 1052.44 104.531 1050.98 102.969C1049.54 101.406 1048.81 99.2812 1048.81 96.5938V96.3906ZM1053.33 96.7188C1053.33 98.3229 1053.63 99.5521 1054.23 100.406C1054.84 101.25 1055.7 101.672 1056.83 101.672C1057.92 101.672 1058.78 101.255 1059.39 100.422C1060.01 99.5781 1060.31 98.2344 1060.31 96.3906C1060.31 94.8177 1060.01 93.599 1059.39 92.7344C1058.78 91.8698 1057.91 91.4375 1056.8 91.4375C1055.69 91.4375 1054.84 91.8698 1054.23 92.7344C1053.63 93.5885 1053.33 94.9167 1053.33 96.7188ZM1071.77 88.0938L1071.91 90.0469C1073.11 88.5365 1074.73 87.7812 1076.77 87.7812C1078.56 87.7812 1079.89 88.3073 1080.77 89.3594C1081.64 90.4115 1082.09 91.9844 1082.11 94.0781V105H1077.59V94.1875C1077.59 93.2292 1077.39 92.5365 1076.97 92.1094C1076.55 91.6719 1075.86 91.4531 1074.89 91.4531C1073.62 91.4531 1072.67 91.9948 1072.03 93.0781V105H1067.52V88.0938H1071.77ZM1084.84 96.4219C1084.84 93.7865 1085.43 91.6875 1086.61 90.125C1087.8 88.5625 1089.42 87.7812 1091.47 87.7812C1093.11 87.7812 1094.47 88.3958 1095.55 89.625V81H1100.08V105H1096L1095.78 103.203C1094.66 104.609 1093.21 105.312 1091.44 105.312C1089.45 105.312 1087.85 104.531 1086.64 102.969C1085.44 101.396 1084.84 99.2135 1084.84 96.4219ZM1089.36 96.75C1089.36 98.3333 1089.64 99.5469 1090.19 100.391C1090.74 101.234 1091.54 101.656 1092.59 101.656C1093.99 101.656 1094.97 101.068 1095.55 99.8906V93.2188C1094.98 92.0417 1094.01 91.4531 1092.62 91.4531C1090.45 91.4531 1089.36 93.2188 1089.36 96.75ZM1112.73 100.328C1112.73 99.776 1112.46 99.3438 1111.91 99.0312C1111.36 98.7083 1110.49 98.4219 1109.28 98.1719C1105.26 97.3281 1103.25 95.6198 1103.25 93.0469C1103.25 91.5469 1103.87 90.2969 1105.11 89.2969C1106.36 88.2865 1107.99 87.7812 1110 87.7812C1112.15 87.7812 1113.86 88.2865 1115.14 89.2969C1116.43 90.3073 1117.08 91.6198 1117.08 93.2344H1112.56C1112.56 92.5885 1112.35 92.0573 1111.94 91.6406C1111.52 91.2135 1110.87 91 1109.98 91C1109.22 91 1108.64 91.1719 1108.22 91.5156C1107.8 91.8594 1107.59 92.2969 1107.59 92.8281C1107.59 93.3281 1107.83 93.7344 1108.3 94.0469C1108.78 94.349 1109.58 94.6146 1110.7 94.8438C1111.83 95.0625 1112.78 95.3125 1113.55 95.5938C1115.93 96.4688 1117.12 97.9844 1117.12 100.141C1117.12 101.682 1116.46 102.932 1115.14 103.891C1113.82 104.839 1112.11 105.312 1110.02 105.312C1108.6 105.312 1107.34 105.062 1106.23 104.562C1105.14 104.052 1104.28 103.359 1103.66 102.484C1103.03 101.599 1102.72 100.646 1102.72 99.625H1107C1107.04 100.427 1107.34 101.042 1107.89 101.469C1108.44 101.896 1109.18 102.109 1110.11 102.109C1110.97 102.109 1111.62 101.948 1112.06 101.625C1112.51 101.292 1112.73 100.859 1112.73 100.328ZM1132.61 98.0156H1128.86L1128.33 82.25H1133.14L1132.61 98.0156ZM1130.73 100.484C1131.49 100.484 1132.1 100.708 1132.56 101.156C1133.03 101.604 1133.27 102.177 1133.27 102.875C1133.27 103.562 1133.03 104.13 1132.56 104.578C1132.1 105.026 1131.49 105.25 1130.73 105.25C1129.98 105.25 1129.38 105.026 1128.91 104.578C1128.45 104.13 1128.22 103.562 1128.22 102.875C1128.22 102.188 1128.45 101.62 1128.91 101.172C1129.38 100.714 1129.98 100.484 1130.73 100.484Z" fill="white"/>
<path d="M463.47 162V145.648H468.086C469.508 145.648 470.766 145.963 471.859 146.592C472.952 147.221 473.795 148.115 474.386 149.276C474.985 150.436 475.288 151.769 475.296 153.274V154.318C475.296 155.861 474.996 157.212 474.397 158.373C473.806 159.533 472.956 160.424 471.848 161.045C470.748 161.667 469.464 161.985 467.996 162H463.47ZM465.626 147.423V160.237H467.895C469.557 160.237 470.849 159.72 471.77 158.687C472.698 157.654 473.162 156.183 473.162 154.273V153.319C473.162 151.462 472.724 150.021 471.848 148.995C470.98 147.962 469.744 147.438 468.142 147.423H465.626ZM477.688 155.812C477.688 154.622 477.92 153.551 478.384 152.6C478.856 151.649 479.507 150.916 480.338 150.399C481.177 149.882 482.132 149.624 483.202 149.624C484.857 149.624 486.193 150.197 487.211 151.342C488.237 152.488 488.75 154.011 488.75 155.913V156.059C488.75 157.242 488.522 158.305 488.065 159.249C487.616 160.184 486.968 160.914 486.122 161.438C485.284 161.963 484.318 162.225 483.225 162.225C481.577 162.225 480.241 161.652 479.215 160.506C478.197 159.361 477.688 157.845 477.688 155.958V155.812ZM479.777 156.059C479.777 157.407 480.088 158.489 480.709 159.305C481.338 160.121 482.176 160.529 483.225 160.529C484.28 160.529 485.119 160.117 485.74 159.293C486.362 158.462 486.672 157.302 486.672 155.812C486.672 154.479 486.354 153.401 485.718 152.578C485.089 151.747 484.25 151.331 483.202 151.331C482.176 151.331 481.349 151.739 480.72 152.555C480.091 153.371 479.777 154.539 479.777 156.059ZM502.114 159.136L504.45 149.849H506.528L502.99 162H501.306L498.352 152.791L495.477 162H493.792L490.266 149.849H492.333L494.725 158.945L497.555 149.849H499.228L502.114 159.136ZM510.616 149.849L510.683 151.376C511.611 150.208 512.824 149.624 514.322 149.624C516.89 149.624 518.185 151.073 518.208 153.97V162H516.13V153.959C516.122 153.083 515.92 152.435 515.523 152.016C515.134 151.597 514.524 151.387 513.693 151.387C513.019 151.387 512.428 151.567 511.918 151.926C511.409 152.286 511.013 152.757 510.728 153.341V162H508.65V149.849H510.616ZM523.598 162H521.521V144.75H523.598V162ZM526.383 155.812C526.383 154.622 526.615 153.551 527.08 152.6C527.551 151.649 528.203 150.916 529.034 150.399C529.872 149.882 530.827 149.624 531.897 149.624C533.552 149.624 534.889 150.197 535.907 151.342C536.932 152.488 537.445 154.011 537.445 155.913V156.059C537.445 157.242 537.217 158.305 536.76 159.249C536.311 160.184 535.663 160.914 534.817 161.438C533.979 161.963 533.013 162.225 531.92 162.225C530.273 162.225 528.936 161.652 527.911 160.506C526.892 159.361 526.383 157.845 526.383 155.958V155.812ZM528.472 156.059C528.472 157.407 528.783 158.489 529.404 159.305C530.033 160.121 530.872 160.529 531.92 160.529C532.976 160.529 533.814 160.117 534.436 159.293C535.057 158.462 535.368 157.302 535.368 155.812C535.368 154.479 535.049 153.401 534.413 152.578C533.784 151.747 532.946 151.331 531.897 151.331C530.872 151.331 530.044 151.739 529.416 152.555C528.787 153.371 528.472 154.539 528.472 156.059ZM547.553 162C547.433 161.76 547.336 161.334 547.261 160.72C546.295 161.723 545.142 162.225 543.802 162.225C542.604 162.225 541.619 161.888 540.848 161.214C540.084 160.533 539.703 159.672 539.703 158.631C539.703 157.366 540.182 156.385 541.14 155.688C542.106 154.985 543.461 154.633 545.206 154.633H547.227V153.678C547.227 152.952 547.01 152.375 546.576 151.949C546.141 151.514 545.501 151.297 544.655 151.297C543.914 151.297 543.293 151.485 542.791 151.859C542.289 152.233 542.039 152.686 542.039 153.218H539.95C539.95 152.611 540.163 152.027 540.59 151.466C541.024 150.897 541.608 150.448 542.342 150.118C543.083 149.789 543.895 149.624 544.779 149.624C546.179 149.624 547.276 149.976 548.069 150.68C548.863 151.376 549.275 152.338 549.305 153.566V159.159C549.305 160.274 549.447 161.161 549.731 161.82V162H547.553ZM544.105 160.417C544.756 160.417 545.374 160.248 545.958 159.911C546.542 159.574 546.965 159.136 547.227 158.597V156.104H545.599C543.053 156.104 541.78 156.849 541.78 158.339C541.78 158.99 541.997 159.499 542.432 159.866C542.866 160.233 543.424 160.417 544.105 160.417ZM552.056 155.823C552.056 153.959 552.498 152.462 553.381 151.331C554.265 150.193 555.422 149.624 556.852 149.624C558.274 149.624 559.401 150.111 560.232 151.084V144.75H562.31V162H560.4L560.299 160.697C559.468 161.715 558.312 162.225 556.829 162.225C555.422 162.225 554.272 161.648 553.381 160.495C552.498 159.342 552.056 157.837 552.056 155.98V155.823ZM554.134 156.059C554.134 157.437 554.418 158.515 554.987 159.293C555.556 160.072 556.342 160.461 557.346 160.461C558.663 160.461 559.625 159.87 560.232 158.687V153.105C559.611 151.96 558.656 151.387 557.368 151.387C556.35 151.387 555.556 151.78 554.987 152.566C554.418 153.353 554.134 154.517 554.134 156.059ZM570.811 157.609C570.811 156.823 571.028 156.1 571.462 155.441C571.904 154.783 572.743 154.015 573.978 153.139C573.252 152.256 572.765 151.544 572.518 151.005C572.271 150.466 572.147 149.931 572.147 149.399C572.147 148.157 572.514 147.183 573.248 146.479C573.982 145.776 574.978 145.424 576.235 145.424C577.358 145.424 578.287 145.753 579.021 146.412C579.754 147.063 580.121 147.887 580.121 148.883C580.121 149.542 579.953 150.152 579.616 150.713C579.286 151.267 578.706 151.851 577.875 152.465L576.673 153.353L580.312 157.699C580.821 156.725 581.076 155.644 581.076 154.453H582.951C582.951 156.362 582.491 157.946 581.57 159.204L583.906 162H581.413L580.323 160.708C579.769 161.203 579.118 161.581 578.369 161.843C577.628 162.097 576.872 162.225 576.101 162.225C574.506 162.225 573.226 161.802 572.26 160.956C571.294 160.11 570.811 158.994 570.811 157.609ZM576.101 160.529C577.201 160.529 578.208 160.11 579.122 159.271L575.135 154.498L574.764 154.768C573.514 155.688 572.889 156.636 572.889 157.609C572.889 158.492 573.173 159.2 573.742 159.731C574.319 160.263 575.105 160.529 576.101 160.529ZM574.225 149.332C574.225 150.051 574.667 150.949 575.55 152.027L576.875 151.095C577.385 150.736 577.733 150.395 577.92 150.073C578.107 149.744 578.201 149.347 578.201 148.883C578.201 148.381 578.014 147.966 577.639 147.636C577.265 147.299 576.793 147.131 576.224 147.131C575.61 147.131 575.124 147.34 574.764 147.76C574.405 148.172 574.225 148.696 574.225 149.332ZM598.337 158.777C598.337 158.215 598.124 157.781 597.697 157.474C597.278 157.16 596.54 156.89 595.484 156.666C594.436 156.441 593.601 156.171 592.98 155.857C592.366 155.542 591.909 155.168 591.61 154.734C591.318 154.3 591.172 153.783 591.172 153.184C591.172 152.188 591.591 151.346 592.43 150.657C593.276 149.968 594.354 149.624 595.664 149.624C597.042 149.624 598.157 149.98 599.011 150.691C599.872 151.402 600.302 152.312 600.302 153.42H598.213C598.213 152.851 597.97 152.361 597.483 151.949C597.004 151.537 596.398 151.331 595.664 151.331C594.908 151.331 594.316 151.496 593.89 151.825C593.463 152.155 593.25 152.585 593.25 153.117C593.25 153.618 593.448 153.996 593.845 154.251C594.242 154.506 594.957 154.749 595.99 154.981C597.03 155.213 597.873 155.49 598.517 155.812C599.16 156.134 599.636 156.523 599.943 156.98C600.257 157.429 600.415 157.979 600.415 158.631C600.415 159.716 599.98 160.589 599.112 161.248C598.243 161.899 597.117 162.225 595.731 162.225C594.758 162.225 593.897 162.052 593.148 161.708C592.4 161.364 591.812 160.884 591.385 160.271C590.966 159.649 590.756 158.979 590.756 158.26H592.834C592.871 158.957 593.148 159.511 593.665 159.922C594.189 160.327 594.878 160.529 595.731 160.529C596.518 160.529 597.146 160.372 597.618 160.057C598.097 159.735 598.337 159.308 598.337 158.777ZM610.623 162C610.503 161.76 610.406 161.334 610.331 160.72C609.365 161.723 608.212 162.225 606.872 162.225C605.674 162.225 604.69 161.888 603.918 161.214C603.155 160.533 602.773 159.672 602.773 158.631C602.773 157.366 603.252 156.385 604.21 155.688C605.176 154.985 606.531 154.633 608.276 154.633H610.297V153.678C610.297 152.952 610.08 152.375 609.646 151.949C609.212 151.514 608.572 151.297 607.726 151.297C606.984 151.297 606.363 151.485 605.861 151.859C605.36 152.233 605.109 152.686 605.109 153.218H603.02C603.02 152.611 603.233 152.027 603.66 151.466C604.094 150.897 604.678 150.448 605.412 150.118C606.153 149.789 606.966 149.624 607.849 149.624C609.249 149.624 610.346 149.976 611.14 150.68C611.933 151.376 612.345 152.338 612.375 153.566V159.159C612.375 160.274 612.517 161.161 612.802 161.82V162H610.623ZM607.175 160.417C607.827 160.417 608.444 160.248 609.028 159.911C609.612 159.574 610.035 159.136 610.297 158.597V156.104H608.669C606.123 156.104 604.851 156.849 604.851 158.339C604.851 158.99 605.068 159.499 605.502 159.866C605.936 160.233 606.494 160.417 607.175 160.417ZM619.461 159.181L622.471 149.849H624.594L620.236 162H618.653L614.25 149.849H616.373L619.461 159.181ZM631.478 162.225C629.831 162.225 628.491 161.686 627.458 160.607C626.424 159.522 625.908 158.073 625.908 156.261V155.879C625.908 154.674 626.136 153.6 626.593 152.656C627.057 151.705 627.701 150.964 628.524 150.433C629.355 149.894 630.254 149.624 631.22 149.624C632.799 149.624 634.027 150.144 634.903 151.185C635.779 152.226 636.217 153.716 636.217 155.655V156.52H627.985C628.015 157.717 628.363 158.687 629.03 159.428C629.704 160.162 630.557 160.529 631.59 160.529C632.324 160.529 632.945 160.379 633.455 160.08C633.964 159.78 634.409 159.383 634.791 158.889L636.06 159.877C635.042 161.442 633.514 162.225 631.478 162.225ZM631.22 151.331C630.381 151.331 629.677 151.638 629.108 152.252C628.539 152.858 628.188 153.712 628.053 154.812H634.14V154.655C634.08 153.6 633.795 152.784 633.286 152.207C632.777 151.623 632.088 151.331 631.22 151.331ZM646.415 151.32C647.335 150.189 648.533 149.624 650.008 149.624C652.576 149.624 653.872 151.073 653.894 153.97V162H651.816V153.959C651.809 153.083 651.607 152.435 651.21 152.016C650.821 151.597 650.21 151.387 649.379 151.387C648.706 151.387 648.114 151.567 647.605 151.926C647.096 152.286 646.699 152.757 646.415 153.341V162H644.337V144.75H646.415V151.32ZM659.262 162H657.185V149.849H659.262V162ZM657.016 146.625C657.016 146.289 657.117 146.004 657.319 145.772C657.529 145.54 657.836 145.424 658.24 145.424C658.645 145.424 658.951 145.54 659.161 145.772C659.371 146.004 659.476 146.289 659.476 146.625C659.476 146.962 659.371 147.243 659.161 147.468C658.951 147.692 658.645 147.805 658.24 147.805C657.836 147.805 657.529 147.692 657.319 147.468C657.117 147.243 657.016 146.962 657.016 146.625ZM662.104 155.823C662.104 153.929 662.542 152.424 663.417 151.309C664.293 150.186 665.454 149.624 666.899 149.624C668.381 149.624 669.538 150.148 670.369 151.196L670.47 149.849H672.368V161.708C672.368 163.28 671.9 164.519 670.964 165.425C670.036 166.331 668.786 166.784 667.213 166.784C666.337 166.784 665.48 166.597 664.642 166.223C663.803 165.848 663.163 165.335 662.721 164.684L663.799 163.438C664.69 164.538 665.78 165.088 667.067 165.088C668.078 165.088 668.864 164.804 669.426 164.235C669.995 163.666 670.279 162.865 670.279 161.832V160.787C669.448 161.745 668.314 162.225 666.876 162.225C665.454 162.225 664.301 161.652 663.417 160.506C662.542 159.361 662.104 157.8 662.104 155.823ZM664.192 156.059C664.192 157.429 664.473 158.507 665.035 159.293C665.596 160.072 666.382 160.461 667.393 160.461C668.703 160.461 669.665 159.866 670.279 158.676V153.128C669.643 151.967 668.688 151.387 667.416 151.387C666.405 151.387 665.615 151.78 665.046 152.566C664.477 153.353 664.192 154.517 664.192 156.059ZM677.59 151.32C678.511 150.189 679.709 149.624 681.184 149.624C683.752 149.624 685.047 151.073 685.07 153.97V162H682.992V153.959C682.985 153.083 682.783 152.435 682.386 152.016C681.996 151.597 681.386 151.387 680.555 151.387C679.881 151.387 679.29 151.567 678.781 151.926C678.272 152.286 677.875 152.757 677.59 153.341V162H675.513V144.75H677.59V151.32ZM699.759 151.713C699.445 151.66 699.104 151.634 698.737 151.634C697.375 151.634 696.45 152.215 695.963 153.375V162H693.886V149.849H695.907L695.941 151.252C696.622 150.167 697.588 149.624 698.838 149.624C699.243 149.624 699.55 149.676 699.759 149.781V151.713ZM706.498 162.225C704.85 162.225 703.51 161.686 702.477 160.607C701.444 159.522 700.927 158.073 700.927 156.261V155.879C700.927 154.674 701.156 153.6 701.612 152.656C702.076 151.705 702.72 150.964 703.544 150.433C704.375 149.894 705.273 149.624 706.239 149.624C707.819 149.624 709.047 150.144 709.923 151.185C710.799 152.226 711.237 153.716 711.237 155.655V156.52H703.005C703.035 157.717 703.383 158.687 704.049 159.428C704.723 160.162 705.577 160.529 706.61 160.529C707.344 160.529 707.965 160.379 708.474 160.08C708.983 159.78 709.429 159.383 709.811 158.889L711.08 159.877C710.061 161.442 708.534 162.225 706.498 162.225ZM706.239 151.331C705.401 151.331 704.697 151.638 704.128 152.252C703.559 152.858 703.207 153.712 703.072 154.812H709.159V154.655C709.099 153.6 708.815 152.784 708.306 152.207C707.797 151.623 707.108 151.331 706.239 151.331ZM720.727 158.777C720.727 158.215 720.513 157.781 720.086 157.474C719.667 157.16 718.93 156.89 717.874 156.666C716.826 156.441 715.991 156.171 715.37 155.857C714.756 155.542 714.299 155.168 714 154.734C713.708 154.3 713.562 153.783 713.562 153.184C713.562 152.188 713.981 151.346 714.819 150.657C715.665 149.968 716.743 149.624 718.054 149.624C719.431 149.624 720.547 149.98 721.4 150.691C722.261 151.402 722.692 152.312 722.692 153.42H720.603C720.603 152.851 720.36 152.361 719.873 151.949C719.394 151.537 718.787 151.331 718.054 151.331C717.298 151.331 716.706 151.496 716.279 151.825C715.853 152.155 715.639 152.585 715.639 153.117C715.639 153.618 715.838 153.996 716.234 154.251C716.631 154.506 717.346 154.749 718.379 154.981C719.42 155.213 720.262 155.49 720.906 155.812C721.55 156.134 722.026 156.523 722.333 156.98C722.647 157.429 722.804 157.979 722.804 158.631C722.804 159.716 722.37 160.589 721.501 161.248C720.633 161.899 719.506 162.225 718.121 162.225C717.148 162.225 716.287 162.052 715.538 161.708C714.789 161.364 714.202 160.884 713.775 160.271C713.356 159.649 713.146 158.979 713.146 158.26H715.224C715.261 158.957 715.538 159.511 716.055 159.922C716.579 160.327 717.268 160.529 718.121 160.529C718.907 160.529 719.536 160.372 720.008 160.057C720.487 159.735 720.727 159.308 720.727 158.777ZM724.96 155.812C724.96 154.622 725.193 153.551 725.657 152.6C726.128 151.649 726.78 150.916 727.611 150.399C728.449 149.882 729.404 149.624 730.475 149.624C732.129 149.624 733.466 150.197 734.484 151.342C735.51 152.488 736.022 154.011 736.022 155.913V156.059C736.022 157.242 735.794 158.305 735.337 159.249C734.888 160.184 734.241 160.914 733.395 161.438C732.556 161.963 731.59 162.225 730.497 162.225C728.85 162.225 727.514 161.652 726.488 160.506C725.47 159.361 724.96 157.845 724.96 155.958V155.812ZM727.049 156.059C727.049 157.407 727.36 158.489 727.981 159.305C728.61 160.121 729.449 160.529 730.497 160.529C731.553 160.529 732.391 160.117 733.013 159.293C733.634 158.462 733.945 157.302 733.945 155.812C733.945 154.479 733.627 153.401 732.99 152.578C732.361 151.747 731.523 151.331 730.475 151.331C729.449 151.331 728.622 151.739 727.993 152.555C727.364 153.371 727.049 154.539 727.049 156.059ZM740.885 162H738.808V144.75H740.885V162ZM751.723 160.798C750.914 161.749 749.727 162.225 748.163 162.225C746.867 162.225 745.879 161.85 745.198 161.102C744.524 160.345 744.183 159.23 744.176 157.755V149.849H746.253V157.699C746.253 159.541 747.002 160.461 748.5 160.461C750.087 160.461 751.142 159.87 751.667 158.687V149.849H753.744V162H751.768L751.723 160.798ZM759.73 146.906V149.849H761.999V151.455H759.73V158.99C759.73 159.477 759.831 159.844 760.033 160.091C760.235 160.33 760.58 160.45 761.066 160.45C761.306 160.45 761.635 160.405 762.055 160.315V162C761.508 162.15 760.977 162.225 760.46 162.225C759.532 162.225 758.832 161.944 758.36 161.382C757.888 160.821 757.652 160.023 757.652 158.99V151.455H755.44V149.849H757.652V146.906H759.73ZM766.693 162H764.615V149.849H766.693V162ZM764.447 146.625C764.447 146.289 764.548 146.004 764.75 145.772C764.96 145.54 765.267 145.424 765.671 145.424C766.075 145.424 766.382 145.54 766.592 145.772C766.801 146.004 766.906 146.289 766.906 146.625C766.906 146.962 766.801 147.243 766.592 147.468C766.382 147.692 766.075 147.805 765.671 147.805C765.267 147.805 764.96 147.692 764.75 147.468C764.548 147.243 764.447 146.962 764.447 146.625ZM769.478 155.812C769.478 154.622 769.71 153.551 770.174 152.6C770.646 151.649 771.297 150.916 772.128 150.399C772.967 149.882 773.922 149.624 774.992 149.624C776.647 149.624 777.983 150.197 779.001 151.342C780.027 152.488 780.54 154.011 780.54 155.913V156.059C780.54 157.242 780.312 158.305 779.855 159.249C779.406 160.184 778.758 160.914 777.912 161.438C777.074 161.963 776.108 162.225 775.015 162.225C773.368 162.225 772.031 161.652 771.005 160.506C769.987 159.361 769.478 157.845 769.478 155.958V155.812ZM771.567 156.059C771.567 157.407 771.878 158.489 772.499 159.305C773.128 160.121 773.966 160.529 775.015 160.529C776.07 160.529 776.909 160.117 777.53 159.293C778.152 158.462 778.462 157.302 778.462 155.812C778.462 154.479 778.144 153.401 777.508 152.578C776.879 151.747 776.04 151.331 774.992 151.331C773.966 151.331 773.139 151.739 772.51 152.555C771.881 153.371 771.567 154.539 771.567 156.059ZM785.111 149.849L785.178 151.376C786.107 150.208 787.319 149.624 788.817 149.624C791.385 149.624 792.68 151.073 792.703 153.97V162H790.625V153.959C790.618 153.083 790.415 152.435 790.019 152.016C789.629 151.597 789.019 151.387 788.188 151.387C787.514 151.387 786.923 151.567 786.414 151.926C785.904 152.286 785.508 152.757 785.223 153.341V162H783.146V149.849H785.111ZM803.798 162H801.721V144.75H803.798V162ZM806.583 155.812C806.583 154.622 806.816 153.551 807.28 152.6C807.751 151.649 808.403 150.916 809.234 150.399C810.072 149.882 811.027 149.624 812.098 149.624C813.752 149.624 815.089 150.197 816.107 151.342C817.133 152.488 817.646 154.011 817.646 155.913V156.059C817.646 157.242 817.417 158.305 816.96 159.249C816.511 160.184 815.864 160.914 815.018 161.438C814.179 161.963 813.213 162.225 812.12 162.225C810.473 162.225 809.137 161.652 808.111 160.506C807.093 159.361 806.583 157.845 806.583 155.958V155.812ZM808.672 156.059C808.672 157.407 808.983 158.489 809.604 159.305C810.233 160.121 811.072 160.529 812.12 160.529C813.176 160.529 814.014 160.117 814.636 159.293C815.257 158.462 815.568 157.302 815.568 155.812C815.568 154.479 815.25 153.401 814.613 152.578C813.984 151.747 813.146 151.331 812.098 151.331C811.072 151.331 810.245 151.739 809.616 152.555C808.987 153.371 808.672 154.539 808.672 156.059ZM819.757 155.823C819.757 153.929 820.195 152.424 821.071 151.309C821.947 150.186 823.107 149.624 824.552 149.624C826.035 149.624 827.191 150.148 828.022 151.196L828.124 149.849H830.021V161.708C830.021 163.28 829.554 164.519 828.618 165.425C827.689 166.331 826.439 166.784 824.867 166.784C823.991 166.784 823.133 166.597 822.295 166.223C821.456 165.848 820.816 165.335 820.375 164.684L821.453 163.438C822.344 164.538 823.433 165.088 824.721 165.088C825.731 165.088 826.518 164.804 827.079 164.235C827.648 163.666 827.933 162.865 827.933 161.832V160.787C827.102 161.745 825.967 162.225 824.53 162.225C823.107 162.225 821.954 161.652 821.071 160.506C820.195 159.361 819.757 157.8 819.757 155.823ZM821.846 156.059C821.846 157.429 822.126 158.507 822.688 159.293C823.25 160.072 824.036 160.461 825.046 160.461C826.357 160.461 827.319 159.866 827.933 158.676V153.128C827.296 151.967 826.342 151.387 825.069 151.387C824.058 151.387 823.268 151.78 822.699 152.566C822.13 153.353 821.846 154.517 821.846 156.059ZM832.616 155.812C832.616 154.622 832.848 153.551 833.312 152.6C833.784 151.649 834.435 150.916 835.266 150.399C836.105 149.882 837.059 149.624 838.13 149.624C839.785 149.624 841.121 150.197 842.139 151.342C843.165 152.488 843.678 154.011 843.678 155.913V156.059C843.678 157.242 843.449 158.305 842.993 159.249C842.543 160.184 841.896 160.914 841.05 161.438C840.211 161.963 839.245 162.225 838.152 162.225C836.505 162.225 835.169 161.652 834.143 160.506C833.125 159.361 832.616 157.845 832.616 155.958V155.812ZM834.705 156.059C834.705 157.407 835.015 158.489 835.637 159.305C836.266 160.121 837.104 160.529 838.152 160.529C839.208 160.529 840.047 160.117 840.668 159.293C841.289 158.462 841.6 157.302 841.6 155.812C841.6 154.479 841.282 153.401 840.646 152.578C840.017 151.747 839.178 151.331 838.13 151.331C837.104 151.331 836.277 151.739 835.648 152.555C835.019 153.371 834.705 154.539 834.705 156.059ZM853.358 158.777C853.358 158.215 853.145 157.781 852.718 157.474C852.299 157.16 851.562 156.89 850.506 156.666C849.458 156.441 848.623 156.171 848.001 155.857C847.388 155.542 846.931 155.168 846.631 154.734C846.339 154.3 846.193 153.783 846.193 153.184C846.193 152.188 846.613 151.346 847.451 150.657C848.297 149.968 849.375 149.624 850.686 149.624C852.063 149.624 853.179 149.98 854.032 150.691C854.893 151.402 855.324 152.312 855.324 153.42H853.235C853.235 152.851 852.992 152.361 852.505 151.949C852.026 151.537 851.419 151.331 850.686 151.331C849.929 151.331 849.338 151.496 848.911 151.825C848.484 152.155 848.271 152.585 848.271 153.117C848.271 153.618 848.469 153.996 848.866 154.251C849.263 154.506 849.978 154.749 851.011 154.981C852.052 155.213 852.894 155.49 853.538 155.812C854.182 156.134 854.657 156.523 854.964 156.98C855.279 157.429 855.436 157.979 855.436 158.631C855.436 159.716 855.002 160.589 854.133 161.248C853.265 161.899 852.138 162.225 850.753 162.225C849.78 162.225 848.919 162.052 848.17 161.708C847.421 161.364 846.833 160.884 846.407 160.271C845.987 159.649 845.778 158.979 845.778 158.26H847.855C847.893 158.957 848.17 159.511 848.687 159.922C849.211 160.327 849.899 160.529 850.753 160.529C851.539 160.529 852.168 160.372 852.64 160.057C853.119 159.735 853.358 159.308 853.358 158.777ZM866.105 162H864.027V149.849H866.105V162ZM863.859 146.625C863.859 146.289 863.96 146.004 864.162 145.772C864.372 145.54 864.679 145.424 865.083 145.424C865.487 145.424 865.794 145.54 866.004 145.772C866.214 146.004 866.318 146.289 866.318 146.625C866.318 146.962 866.214 147.243 866.004 147.468C865.794 147.692 865.487 147.805 865.083 147.805C864.679 147.805 864.372 147.692 864.162 147.468C863.96 147.243 863.859 146.962 863.859 146.625ZM871.406 149.849L871.473 151.376C872.402 150.208 873.614 149.624 875.112 149.624C877.68 149.624 878.975 151.073 878.998 153.97V162H876.92V153.959C876.912 153.083 876.71 152.435 876.313 152.016C875.924 151.597 875.314 151.387 874.483 151.387C873.809 151.387 873.218 151.567 872.708 151.926C872.199 152.286 871.803 152.757 871.518 153.341V162H869.44V149.849H871.406ZM890.318 155.599V162H888.162V145.648H894.192C895.982 145.648 897.382 146.105 898.393 147.019C899.411 147.932 899.92 149.141 899.92 150.646C899.92 152.233 899.422 153.457 898.426 154.318C897.438 155.172 896.019 155.599 894.17 155.599H890.318ZM890.318 153.835H894.192C895.345 153.835 896.229 153.566 896.843 153.027C897.457 152.48 897.764 151.694 897.764 150.668C897.764 149.695 897.457 148.917 896.843 148.333C896.229 147.749 895.387 147.445 894.316 147.423H890.318V153.835ZM915.238 162H913.071L904.839 149.399V162H902.671V145.648H904.839L913.093 158.305V145.648H915.238V162ZM931.141 159.855C930.587 160.649 929.812 161.244 928.816 161.641C927.828 162.03 926.675 162.225 925.357 162.225C924.024 162.225 922.841 161.914 921.808 161.292C920.775 160.664 919.974 159.773 919.405 158.62C918.843 157.467 918.555 156.13 918.54 154.61V153.184C918.54 150.721 919.113 148.812 920.258 147.457C921.411 146.101 923.028 145.424 925.11 145.424C926.817 145.424 928.191 145.862 929.231 146.738C930.272 147.606 930.909 148.842 931.141 150.444H928.984C928.58 148.28 927.292 147.198 925.121 147.198C923.676 147.198 922.579 147.707 921.831 148.726C921.089 149.736 920.715 151.204 920.708 153.128V154.464C920.708 156.299 921.127 157.759 921.965 158.844C922.804 159.922 923.938 160.461 925.368 160.461C926.177 160.461 926.884 160.372 927.491 160.192C928.097 160.012 928.599 159.709 928.996 159.282V155.61H925.211V153.858H931.141V159.855ZM934.353 165.257L933.173 164.448C933.877 163.467 934.244 162.457 934.274 161.416V159.541H936.307V161.169C936.307 161.925 936.119 162.681 935.745 163.438C935.378 164.194 934.914 164.8 934.353 165.257ZM946.111 145.648H948.278V157.227C948.278 158.792 947.807 160.016 946.863 160.899C945.927 161.783 944.677 162.225 943.112 162.225C941.488 162.225 940.222 161.809 939.316 160.978C938.41 160.147 937.958 158.983 937.958 157.485H940.114C940.114 158.421 940.368 159.151 940.877 159.675C941.394 160.199 942.139 160.461 943.112 160.461C944.003 160.461 944.722 160.181 945.269 159.619C945.823 159.058 946.103 158.271 946.111 157.261V145.648ZM954.107 155.599V162H951.951V145.648H957.981C959.771 145.648 961.171 146.105 962.182 147.019C963.2 147.932 963.709 149.141 963.709 150.646C963.709 152.233 963.211 153.457 962.215 154.318C961.227 155.172 959.808 155.599 957.959 155.599H954.107ZM954.107 153.835H957.981C959.134 153.835 960.018 153.566 960.632 153.027C961.246 152.48 961.553 151.694 961.553 150.668C961.553 149.695 961.246 148.917 960.632 148.333C960.018 147.749 959.176 147.445 958.105 147.423H954.107V153.835ZM975.703 154.442H968.617V160.237H976.849V162H966.46V145.648H976.736V147.423H968.617V152.679H975.703V154.442ZM991.605 159.855C991.051 160.649 990.277 161.244 989.281 161.641C988.292 162.03 987.139 162.225 985.822 162.225C984.489 162.225 983.306 161.914 982.273 161.292C981.24 160.664 980.439 159.773 979.87 158.62C979.308 157.467 979.02 156.13 979.005 154.61V153.184C979.005 150.721 979.578 148.812 980.723 147.457C981.876 146.101 983.493 145.424 985.575 145.424C987.282 145.424 988.656 145.862 989.696 146.738C990.737 147.606 991.373 148.842 991.605 150.444H989.449C989.045 148.28 987.757 147.198 985.586 147.198C984.141 147.198 983.044 147.707 982.295 148.726C981.554 149.736 981.18 151.204 981.172 153.128V154.464C981.172 156.299 981.592 157.759 982.43 158.844C983.269 159.922 984.403 160.461 985.833 160.461C986.642 160.461 987.349 160.372 987.956 160.192C988.562 160.012 989.064 159.709 989.46 159.282V155.61H985.676V153.858H991.605V159.855ZM994.817 165.257L993.638 164.448C994.342 163.467 994.709 162.457 994.739 161.416V159.541H996.771V161.169C996.771 161.925 996.584 162.681 996.21 163.438C995.843 164.194 995.379 164.8 994.817 165.257ZM1004.54 154.711C1002.69 154.18 1001.35 153.528 1000.5 152.757C999.661 151.979 999.242 151.02 999.242 149.882C999.242 148.595 999.755 147.531 1000.78 146.693C1001.81 145.847 1003.15 145.424 1004.8 145.424C1005.92 145.424 1006.92 145.641 1007.8 146.075C1008.68 146.509 1009.36 147.108 1009.84 147.872C1010.33 148.636 1010.57 149.471 1010.57 150.376H1008.41C1008.41 149.388 1008.09 148.613 1007.46 148.052C1006.83 147.483 1005.95 147.198 1004.8 147.198C1003.74 147.198 1002.91 147.434 1002.31 147.906C1001.72 148.37 1001.42 149.018 1001.42 149.849C1001.42 150.515 1001.7 151.08 1002.26 151.544C1002.83 152.001 1003.79 152.42 1005.15 152.802C1006.51 153.184 1007.58 153.607 1008.34 154.071C1009.11 154.528 1009.68 155.063 1010.05 155.677C1010.42 156.291 1010.61 157.014 1010.61 157.845C1010.61 159.17 1010.09 160.233 1009.06 161.034C1008.02 161.828 1006.64 162.225 1004.91 162.225C1003.79 162.225 1002.74 162.011 1001.77 161.584C1000.8 161.15 1000.04 160.559 999.512 159.81C998.988 159.061 998.726 158.212 998.726 157.261H1000.89C1000.89 158.249 1001.26 159.031 1001.98 159.608C1002.72 160.177 1003.69 160.461 1004.91 160.461C1006.05 160.461 1006.92 160.229 1007.53 159.765C1008.14 159.301 1008.44 158.668 1008.44 157.867C1008.44 157.066 1008.16 156.448 1007.6 156.014C1007.04 155.572 1006.02 155.138 1004.54 154.711ZM1018.79 159.136L1023.47 145.648H1025.82L1019.76 162H1017.85L1011.8 145.648H1014.15L1018.79 159.136ZM1039.94 159.855C1039.39 160.649 1038.61 161.244 1037.62 161.641C1036.63 162.03 1035.48 162.225 1034.16 162.225C1032.83 162.225 1031.64 161.914 1030.61 161.292C1029.58 160.664 1028.77 159.773 1028.21 158.62C1027.64 157.467 1027.36 156.13 1027.34 154.61V153.184C1027.34 150.721 1027.91 148.812 1029.06 147.457C1030.21 146.101 1031.83 145.424 1033.91 145.424C1035.62 145.424 1036.99 145.862 1038.03 146.738C1039.07 147.606 1039.71 148.842 1039.94 150.444H1037.79C1037.38 148.28 1036.09 147.198 1033.92 147.198C1032.48 147.198 1031.38 147.707 1030.63 148.726C1029.89 149.736 1029.52 151.204 1029.51 153.128V154.464C1029.51 156.299 1029.93 157.759 1030.77 158.844C1031.6 159.922 1032.74 160.461 1034.17 160.461C1034.98 160.461 1035.69 160.372 1036.29 160.192C1036.9 160.012 1037.4 159.709 1037.8 159.282V155.61H1034.01V153.858H1039.94V159.855ZM1058.27 154.779H1051.41V162H1049.25V145.648H1059.38V147.423H1051.41V153.016H1058.27V154.779ZM1060.84 155.812C1060.84 154.622 1061.07 153.551 1061.54 152.6C1062.01 151.649 1062.66 150.916 1063.49 150.399C1064.33 149.882 1065.28 149.624 1066.36 149.624C1068.01 149.624 1069.35 150.197 1070.36 151.342C1071.39 152.488 1071.9 154.011 1071.9 155.913V156.059C1071.9 157.242 1071.67 158.305 1071.22 159.249C1070.77 160.184 1070.12 160.914 1069.28 161.438C1068.44 161.963 1067.47 162.225 1066.38 162.225C1064.73 162.225 1063.39 161.652 1062.37 160.506C1061.35 159.361 1060.84 157.845 1060.84 155.958V155.812ZM1062.93 156.059C1062.93 157.407 1063.24 158.489 1063.86 159.305C1064.49 160.121 1065.33 160.529 1066.38 160.529C1067.43 160.529 1068.27 160.117 1068.89 159.293C1069.51 158.462 1069.83 157.302 1069.83 155.812C1069.83 154.479 1069.51 153.401 1068.87 152.578C1068.24 151.747 1067.4 151.331 1066.36 151.331C1065.33 151.331 1064.5 151.739 1063.87 152.555C1063.24 153.371 1062.93 154.539 1062.93 156.059ZM1080.38 151.713C1080.07 151.66 1079.73 151.634 1079.36 151.634C1078 151.634 1077.07 152.215 1076.59 153.375V162H1074.51V149.849H1076.53L1076.56 151.252C1077.25 150.167 1078.21 149.624 1079.46 149.624C1079.87 149.624 1080.17 149.676 1080.38 149.781V151.713ZM1084.26 149.849L1084.31 151.196C1085.2 150.148 1086.41 149.624 1087.92 149.624C1089.62 149.624 1090.77 150.275 1091.39 151.578C1091.79 150.994 1092.32 150.522 1092.96 150.163C1093.61 149.804 1094.38 149.624 1095.26 149.624C1097.93 149.624 1099.28 151.035 1099.33 153.858V162H1097.25V153.981C1097.25 153.113 1097.05 152.465 1096.66 152.039C1096.26 151.604 1095.59 151.387 1094.66 151.387C1093.89 151.387 1093.24 151.619 1092.74 152.083C1092.23 152.54 1091.93 153.158 1091.85 153.937V162H1089.76V154.038C1089.76 152.271 1088.9 151.387 1087.17 151.387C1085.8 151.387 1084.87 151.967 1084.37 153.128V162H1082.29V149.849H1084.26ZM1109.97 162C1109.85 161.76 1109.76 161.334 1109.68 160.72C1108.72 161.723 1107.56 162.225 1106.22 162.225C1105.03 162.225 1104.04 161.888 1103.27 161.214C1102.51 160.533 1102.12 159.672 1102.12 158.631C1102.12 157.366 1102.6 156.385 1103.56 155.688C1104.53 154.985 1105.88 154.633 1107.63 154.633H1109.65V153.678C1109.65 152.952 1109.43 152.375 1109 151.949C1108.56 151.514 1107.92 151.297 1107.08 151.297C1106.34 151.297 1105.71 151.485 1105.21 151.859C1104.71 152.233 1104.46 152.686 1104.46 153.218H1102.37C1102.37 152.611 1102.58 152.027 1103.01 151.466C1103.45 150.897 1104.03 150.448 1104.76 150.118C1105.5 149.789 1106.32 149.624 1107.2 149.624C1108.6 149.624 1109.7 149.976 1110.49 150.68C1111.28 151.376 1111.7 152.338 1111.73 153.566V159.159C1111.73 160.274 1111.87 161.161 1112.15 161.82V162H1109.97ZM1106.53 160.417C1107.18 160.417 1107.8 160.248 1108.38 159.911C1108.96 159.574 1109.39 159.136 1109.65 158.597V156.104H1108.02C1105.47 156.104 1104.2 156.849 1104.2 158.339C1104.2 158.99 1104.42 159.499 1104.85 159.866C1105.29 160.233 1105.85 160.417 1106.53 160.417ZM1117.8 146.906V149.849H1120.07V151.455H1117.8V158.99C1117.8 159.477 1117.9 159.844 1118.11 160.091C1118.31 160.33 1118.65 160.45 1119.14 160.45C1119.38 160.45 1119.71 160.405 1120.13 160.315V162C1119.58 162.15 1119.05 162.225 1118.53 162.225C1117.6 162.225 1116.9 161.944 1116.43 161.382C1115.96 160.821 1115.72 160.023 1115.72 158.99V151.455H1113.51V149.849H1115.72V146.906H1117.8ZM1122.55 160.911C1122.55 160.551 1122.66 160.252 1122.87 160.012C1123.08 159.773 1123.41 159.653 1123.83 159.653C1124.26 159.653 1124.58 159.773 1124.8 160.012C1125.02 160.252 1125.14 160.551 1125.14 160.911C1125.14 161.255 1125.02 161.543 1124.8 161.775C1124.58 162.007 1124.26 162.124 1123.83 162.124C1123.41 162.124 1123.08 162.007 1122.87 161.775C1122.66 161.543 1122.55 161.255 1122.55 160.911Z" fill="#EFEDED"/>
</g>
<defs>
<radialGradient id="paint0_radial" cx="0" cy="0" r="1" gradientUnits="userSpaceOnUse" gradientTransform="translate(80 69.5) rotate(47.3592) scale(377.915 458.126)">
<stop stop-color="white"/>
<stop offset="0.390625" stop-color="white" stop-opacity="0.609375"/>
<stop offset="0.53125" stop-color="white" stop-opacity="0.46875"/>
<stop offset="0.697917" stop-color="white" stop-opacity="0.302083"/>
<stop offset="1" stop-color="white" stop-opacity="0"/>
</radialGradient>
<radialGradient id="paint1_radial" cx="0" cy="0" r="1" gradientUnits="userSpaceOnUse" gradientTransform="translate(370 196) rotate(46.0309) scale(550.218 845.591)">
<stop stop-color="white"/>
<stop offset="0.661458" stop-color="white" stop-opacity="0.338542"/>
<stop offset="0.999761" stop-color="#FCFCFC" stop-opacity="0"/>
</radialGradient>
<radialGradient id="paint2_radial" cx="0" cy="0" r="1" gradientUnits="userSpaceOnUse" gradientTransform="translate(620.25 313.25) rotate(49.361) scale(288.274 604.788)">
<stop stop-color="#170F34"/>
<stop offset="1" stop-color="#170F34" stop-opacity="0"/>
</radialGradient>
<clipPath id="clip0">
<rect width="1195" height="410" fill="white"/>
</clipPath>
</defs>
</svg>
