<svg width="50" height="41" viewBox="0 0 50 41" fill="none" xmlns="http://www.w3.org/2000/svg">
<path d="M17.1226 22.1064C17.9562 21.6026 18.51 20.7183 18.51 19.7091C18.51 18.1392 17.1725 16.8669 15.5231 16.8669C13.8733 16.8669 12.5358 18.1392 12.5358 19.7091C12.5358 20.7183 13.0905 21.6026 13.9232 22.1064C11.4447 22.7697 9.62695 24.9353 9.62695 27.5058C9.62695 30.6044 21.4185 30.6044 21.4185 27.5058C21.4185 24.9353 19.6011 22.77 17.1226 22.1064Z" fill="white"/>
<path d="M39.8125 21.6949L34.1106 16.2693V12.6909C34.1106 12.2452 33.731 11.8831 33.2613 11.8831C32.7925 11.8831 32.4129 12.2452 32.4129 12.6909V14.6542L28.3902 10.8272C28.0593 10.5119 27.5219 10.5119 27.1914 10.8272L21.4785 16.2634C21.9663 16.5556 22.3592 16.9745 22.6072 17.4728L27.7915 12.5393L38.6141 22.8372C38.7788 22.9943 38.9967 23.074 39.2133 23.074C39.4296 23.074 39.6479 22.9954 39.813 22.8372C40.1439 22.5208 40.1439 22.0098 39.8125 21.6949Z" fill="white"/>
<path d="M37.3851 22.6213L28.391 14.0629C28.2313 13.9109 28.0163 13.8257 27.7914 13.8257C27.5665 13.8257 27.3511 13.9109 27.1918 14.0629L22.8493 18.1947C22.8803 18.3588 22.8993 18.5276 22.8993 18.7C22.8993 19.0695 22.8258 19.4284 22.688 19.7599C23.9058 20.6025 24.6737 21.9695 24.6737 23.4581C24.6737 23.9772 24.4282 25.1502 22.3619 25.716C22.5286 26.2905 22.6186 26.8909 22.6186 27.5063C22.6186 28.3576 22.1948 29.0248 21.5098 29.5388H24.3654C24.9337 29.5388 25.4821 29.3102 25.87 28.9105C26.2224 28.5484 26.4163 28.0784 26.4163 27.5868V24.5192C26.4163 23.7747 27.0159 23.153 27.7905 23.0828C28.5651 23.1531 29.1647 23.775 29.1647 24.5192V27.5868C29.1647 28.0784 29.3591 28.5484 29.7107 28.9105C30.0977 29.3102 30.6461 29.5388 31.2153 29.5388H35.6056C36.7355 29.5388 37.6562 28.6635 37.6562 27.5868V23.4091C37.6562 23.2869 37.6442 23.1629 37.6182 23.0396C37.5861 22.8805 37.5052 22.7356 37.3851 22.6213Z" fill="white"/>
<path d="M18.2705 21.905C19.6154 22.5031 20.6883 23.5248 21.3371 24.7649C22.5351 24.5748 23.4738 24.1397 23.4738 23.4581C23.4738 21.8897 22.3646 20.5684 20.8522 20.1631C21.3606 19.8549 21.6993 19.3157 21.6993 18.6996C21.6993 17.7419 20.8827 16.9656 19.8766 16.9656C19.2704 16.9656 18.7352 17.2479 18.4038 17.6802C18.8466 18.2484 19.1119 18.9486 19.1119 19.708C19.1115 20.5267 18.8082 21.2983 18.2705 21.905Z" fill="white"/>
</svg>
