<svg width="1214" height="1109" viewBox="0 0 1214 1109" fill="none" xmlns="http://www.w3.org/2000/svg">
<ellipse cx="535.216" cy="578.528" rx="412.487" ry="420.855" transform="rotate(70.3126 535.216 578.528)" fill="#F7FEFF"/>
<circle cx="728.549" cy="485.452" r="379.724" transform="rotate(70.3126 728.549 485.452)" fill="#DCF1FF"/>
<g clip-path="url(#clip0)">
<path d="M316.191 659.806C316.191 669.32 310.527 672.643 303.542 672.643C303.379 672.643 303.218 672.641 303.057 672.637C302.733 672.63 302.412 672.616 302.096 672.593C295.791 672.148 290.893 668.654 290.893 659.806C290.893 650.649 302.606 639.095 303.489 638.237L303.491 638.236C303.524 638.203 303.542 638.186 303.542 638.186C303.542 638.186 316.191 650.29 316.191 659.806Z" fill="#3F3D56"/>
<path d="M303.08 671.187L307.707 664.731L303.069 671.896L303.056 672.637C302.733 672.63 302.412 672.616 302.095 672.593L302.594 663.074L302.59 663L302.599 662.986L302.646 662.087L297.996 654.903L302.66 661.412L302.671 661.603L303.048 654.411L299.068 646.989L303.097 653.147L303.489 638.237L303.491 638.186V638.236L303.425 649.994L307.388 645.333L303.409 651.007L303.304 657.446L307.004 651.267L303.288 658.395L303.23 661.974L308.602 653.372L303.21 663.224L303.08 671.187Z" fill="#F2F2F2"/>
<path d="M476.897 604.788C473.517 592.536 454.752 583.505 440.111 581.174V575.289C440.382 575.188 440.651 575.084 440.918 574.977C440.841 573.801 440.605 572.641 440.215 571.528C446.469 568.989 451.87 564.723 455.785 559.229C459.905 554.922 463.01 549.75 464.873 544.091C466.736 538.431 467.309 532.428 466.552 526.519C465.794 520.61 463.724 514.945 460.493 509.938C457.263 504.93 452.953 500.707 447.879 497.576C449.27 496.7 450.351 495.409 450.969 493.886C451.587 492.363 451.711 490.685 451.323 489.088C450.935 487.491 450.055 486.056 448.806 484.986C447.558 483.915 446.005 483.263 444.366 483.121C445.704 479.965 445.944 476.452 445.046 473.144C444.149 469.836 442.167 466.924 439.417 464.874C436.666 462.825 433.307 461.755 429.877 461.838C426.446 461.92 423.143 463.15 420.494 465.329C422.831 464.088 425.449 463.471 428.094 463.54C430.739 463.609 433.322 464.361 435.59 465.722C437.858 467.083 439.735 469.008 441.038 471.308C442.34 473.609 443.025 476.207 443.024 478.85C443.024 478.984 443.016 479.117 443.013 479.25C442.946 477.034 442.397 474.858 441.406 472.873C440.414 470.889 439.002 469.144 437.269 467.758C435.535 466.372 433.521 465.378 431.365 464.847C429.209 464.315 426.964 464.257 424.783 464.677C422.603 465.097 420.54 465.986 418.738 467.28C416.935 468.575 415.435 470.246 414.342 472.176C413.25 474.107 412.59 476.252 412.408 478.462C412.227 480.673 412.529 482.896 413.292 484.979C412.121 485.232 411.026 485.755 410.094 486.507C409.162 487.259 408.42 488.219 407.926 489.31C407.433 490.4 407.202 491.591 407.253 492.787C407.304 493.983 407.634 495.15 408.218 496.195C402.67 499.106 397.884 503.278 394.244 508.375C390.605 513.471 388.214 519.35 387.264 525.537C386.314 531.725 386.832 538.049 388.775 544C390.719 549.951 394.034 555.364 398.454 559.802C402.178 564.814 407.159 568.756 412.895 571.232V581.043C398.098 583.154 378.613 592.352 375.208 604.907C372.241 615.847 369.074 627.862 367.498 634.916C381.005 644.396 409.348 649.962 427.11 649.962C443.986 649.962 471.57 644.938 484.68 636.307C483.26 628.555 479.993 616.013 476.897 604.788ZM449.839 491.613C449.839 491.752 449.833 491.89 449.826 492.028C449.727 490.298 449.043 488.652 447.887 487.36C446.73 486.069 445.169 485.207 443.459 484.915C443.607 484.664 443.749 484.409 443.884 484.149C445.576 484.536 447.086 485.485 448.168 486.841C449.249 488.197 449.838 489.879 449.839 491.613V491.613Z" fill="url(#paint0_linear)"/>
<path d="M427.081 647.283C443.477 647.283 470.275 642.402 483.011 634.016C481.631 626.486 478.457 614.301 475.449 603.396C471.619 589.507 447.441 579.879 433.018 579.879H419.12C404.652 579.879 380.44 589.563 376.657 603.511C373.775 614.14 370.698 625.812 369.167 632.666C382.29 641.875 409.825 647.283 427.081 647.283Z" fill="#F2B616"/>
<path d="M426.818 571.144C448.3 571.144 465.714 553.75 465.714 532.294C465.714 510.837 448.3 493.444 426.818 493.444C405.336 493.444 387.921 510.837 387.921 532.294C387.921 553.75 405.336 571.144 426.818 571.144Z" fill="#F55F44"/>
<path d="M416.315 559.298H436.666C437.474 559.298 438.248 559.619 438.819 560.189C439.39 560.759 439.711 561.533 439.711 562.34V583.123C439.711 584.763 439.388 586.387 438.76 587.902C438.131 589.417 437.21 590.794 436.049 591.953C434.888 593.113 433.51 594.033 431.993 594.66C430.476 595.288 428.85 595.611 427.209 595.611H425.773C424.131 595.611 422.505 595.288 420.989 594.66C419.472 594.033 418.093 593.113 416.932 591.953C415.771 590.794 414.851 589.417 414.222 587.902C413.594 586.387 413.271 584.763 413.271 583.123V562.34C413.271 561.94 413.349 561.545 413.502 561.176C413.655 560.807 413.88 560.472 414.162 560.189C414.445 559.907 414.781 559.683 415.15 559.53C415.52 559.377 415.916 559.298 416.315 559.298V559.298Z" fill="#FDA57D"/>
<path opacity="0.05" d="M427.712 576.894C432.091 576.897 436.431 576.062 440.495 574.434C440.287 571.227 438.865 568.22 436.519 566.022C434.172 563.825 431.076 562.601 427.859 562.599H426.775C423.611 562.6 420.562 563.782 418.227 565.914C415.892 568.046 414.439 570.972 414.154 574.119C418.438 575.955 423.051 576.899 427.712 576.894V576.894Z" fill="black"/>
<path d="M426.886 573.593C445.892 573.593 461.298 558.205 461.298 539.222C461.298 520.24 445.892 504.852 426.886 504.852C407.881 504.852 392.475 520.24 392.475 539.222C392.475 558.205 407.881 573.593 426.886 573.593Z" fill="#FDA57D"/>
<path d="M415.231 501.71C419.344 501.71 422.679 498.379 422.679 494.27C422.679 490.162 419.344 486.831 415.231 486.831C411.117 486.831 407.782 490.162 407.782 494.27C407.782 498.379 411.117 501.71 415.231 501.71Z" fill="#F55F44"/>
<path d="M441.714 501.71C445.828 501.71 449.162 498.379 449.162 494.27C449.162 490.162 445.828 486.831 441.714 486.831C437.6 486.831 434.266 490.162 434.266 494.27C434.266 498.379 437.6 501.71 441.714 501.71Z" fill="#F55F44"/>
<path d="M427.645 496.75C435.872 496.75 442.541 490.089 442.541 481.871C442.541 473.654 435.872 466.992 427.645 466.992C419.418 466.992 412.748 473.654 412.748 481.871C412.748 490.089 419.418 496.75 427.645 496.75Z" fill="#F55F44"/>
<path d="M443.369 485.178C441.888 485.175 440.44 485.616 439.212 486.443C440.921 485.834 442.794 485.868 444.479 486.541C446.164 487.213 447.545 488.477 448.363 490.095C449.181 491.713 449.379 493.573 448.92 495.327C448.46 497.08 447.376 498.606 445.87 499.617C447.523 499.029 448.915 497.877 449.801 496.363C450.686 494.85 451.007 493.072 450.708 491.345C450.409 489.618 449.508 488.052 448.165 486.923C446.822 485.795 445.124 485.177 443.369 485.178V485.178Z" fill="#F55F44"/>
<path d="M430.127 464.513C426.67 464.507 423.319 465.709 420.653 467.909C423.914 466.178 427.701 465.718 431.282 466.618C434.863 467.518 437.981 469.715 440.032 472.781C442.083 475.848 442.92 479.566 442.382 483.215C441.844 486.863 439.968 490.182 437.118 492.527C440.054 490.969 442.383 488.476 443.735 485.443C445.088 482.41 445.386 479.013 444.582 475.792C443.778 472.57 441.918 469.71 439.299 467.666C436.68 465.622 433.451 464.512 430.127 464.513V464.513Z" fill="#F55F44"/>
<path d="M401.989 508.322C401.989 508.322 406.127 535.6 458.265 520.721L432.61 498.403L401.989 508.322Z" fill="#F55F44"/>
<path d="M314.456 664.538H293.033C289.049 664.538 285.819 667.763 285.819 671.743V672.57C285.819 676.549 289.049 679.775 293.033 679.775H314.456C318.44 679.775 321.67 676.549 321.67 672.57V671.743C321.67 667.763 318.44 664.538 314.456 664.538Z" fill="#F2B616"/>
<g opacity="0.7">
<path opacity="0.7" d="M563.275 654.804V649.313H535.789V674.707C535.789 676.127 536.354 677.489 537.359 678.493C538.364 679.496 539.727 680.06 541.149 680.06H557.915C559.336 680.06 560.7 679.496 561.705 678.493C562.71 677.489 563.275 676.127 563.275 674.707V669.079C565.17 669.079 566.988 668.327 568.328 666.989C569.668 665.65 570.421 663.835 570.421 661.942C570.421 660.049 569.668 658.233 568.328 656.895C566.988 655.556 565.17 654.804 563.275 654.804V654.804ZM563.275 666.334V657.549C564.44 657.551 565.558 658.014 566.381 658.837C567.205 659.661 567.668 660.778 567.668 661.942C567.668 663.106 567.205 664.222 566.381 665.046C565.558 665.87 564.44 666.333 563.275 666.334V666.334Z" fill="url(#paint1_linear)"/>
</g>
<path d="M562.39 655.663C561.1 655.663 559.838 656.046 558.765 656.762C557.692 657.478 556.856 658.496 556.362 659.687C555.868 660.877 555.739 662.188 555.991 663.452C556.242 664.716 556.864 665.877 557.776 666.789C558.689 667.7 559.851 668.321 561.117 668.572C562.383 668.824 563.695 668.695 564.887 668.201C566.079 667.708 567.098 666.873 567.815 665.801C568.532 664.729 568.915 663.469 568.915 662.18C568.915 661.325 568.746 660.477 568.418 659.687C568.09 658.896 567.61 658.177 567.004 657.572C566.398 656.967 565.679 656.487 564.887 656.16C564.095 655.832 563.247 655.663 562.39 655.663ZM562.39 666.191C561.596 666.191 560.82 665.956 560.159 665.515C559.499 665.074 558.984 664.448 558.68 663.715C558.377 662.982 558.297 662.176 558.452 661.398C558.607 660.62 558.989 659.906 559.551 659.345C560.112 658.784 560.828 658.402 561.607 658.247C562.386 658.092 563.193 658.172 563.927 658.475C564.66 658.779 565.287 659.293 565.729 659.952C566.17 660.612 566.405 661.387 566.405 662.18C566.405 663.244 565.982 664.264 565.229 665.016C564.476 665.768 563.455 666.191 562.39 666.191Z" fill="#6C63FF"/>
<path opacity="0.1" d="M562.39 655.663C561.1 655.663 559.838 656.046 558.765 656.762C557.692 657.478 556.856 658.496 556.362 659.687C555.868 660.877 555.739 662.188 555.991 663.452C556.242 664.716 556.864 665.877 557.776 666.789C558.689 667.7 559.851 668.321 561.117 668.572C562.383 668.824 563.695 668.695 564.887 668.201C566.079 667.708 567.098 666.873 567.815 665.801C568.532 664.729 568.915 663.469 568.915 662.18C568.915 661.325 568.746 660.477 568.418 659.687C568.09 658.896 567.61 658.177 567.004 657.572C566.398 656.967 565.679 656.487 564.887 656.16C564.095 655.832 563.247 655.663 562.39 655.663ZM562.39 666.191C561.596 666.191 560.82 665.956 560.159 665.515C559.499 665.074 558.984 664.448 558.68 663.715C558.377 662.982 558.297 662.176 558.452 661.398C558.607 660.62 558.989 659.906 559.551 659.345C560.112 658.784 560.828 658.402 561.607 658.247C562.386 658.092 563.193 658.172 563.927 658.475C564.66 658.779 565.287 659.293 565.729 659.952C566.17 660.612 566.405 661.387 566.405 662.18C566.405 663.244 565.982 664.264 565.229 665.016C564.476 665.768 563.455 666.191 562.39 666.191Z" fill="black"/>
<path d="M537.295 650.65H562.39V673.81C562.39 675.113 561.872 676.363 560.95 677.285C560.027 678.206 558.776 678.724 557.471 678.724H542.214C540.91 678.724 539.658 678.206 538.736 677.285C537.813 676.363 537.295 675.113 537.295 673.81V650.65Z" fill="#6C63FF"/>
<path d="M588.74 678.724H263V689.752H588.74V678.724Z" fill="#E0E0E0"/>
<g opacity="0.7">
<path opacity="0.7" d="M487.818 599.049H363.922C359.882 599.049 356.606 602.321 356.606 606.357V671.416C356.606 675.452 359.882 678.724 363.922 678.724H487.818C491.858 678.724 495.134 675.452 495.134 671.416V606.357C495.134 602.321 491.858 599.049 487.818 599.049Z" fill="url(#paint2_linear)"/>
</g>
<path d="M479.085 600.519H372.656C365.178 600.519 359.116 606.574 359.116 614.043V665.2C359.116 672.669 365.178 678.724 372.656 678.724H479.085C486.563 678.724 492.625 672.669 492.625 665.2V614.043C492.625 606.574 486.563 600.519 479.085 600.519Z" fill="#535461"/>
<path d="M425.87 644.133C428.365 644.133 430.387 642.113 430.387 639.621C430.387 637.13 428.365 635.11 425.87 635.11C423.375 635.11 421.353 637.13 421.353 639.621C421.353 642.113 423.375 644.133 425.87 644.133Z" fill="white"/>
<path d="M574.938 689.752H276.803V694.264H574.938V689.752Z" fill="#E0E0E0"/>
<path opacity="0.1" d="M574.938 689.752H276.803V691.256H574.938V689.752Z" fill="black"/>
<path opacity="0.1" d="M557.873 650.65V673.836C557.873 675.132 557.358 676.375 556.44 677.292C555.522 678.209 554.277 678.724 552.979 678.724H555.489C556.787 678.724 558.032 678.209 558.949 677.292C559.867 676.375 560.383 675.132 560.383 673.836V650.65H557.873Z" fill="black"/>
<path d="M542.246 631.963C542.032 631.97 541.821 632.024 541.63 632.121C541.438 632.218 541.27 632.356 541.138 632.525C540.809 633.121 541.406 633.793 541.95 634.203C542.956 634.959 544.016 635.703 544.699 636.759C545.383 637.815 545.598 639.289 544.85 640.301C543.875 641.622 541.547 641.907 541.321 643.533C541.177 644.578 542.081 645.469 542.996 645.993C545.257 647.286 548.171 647.631 549.808 649.655C550.486 648.264 552.001 647.459 553.511 647.116C555.021 646.773 556.59 646.798 558.121 646.565C558.371 646.561 558.617 646.497 558.838 646.38C559.059 646.263 559.249 646.096 559.393 645.891C559.821 645.024 558.601 643.983 559.022 643.112C559.343 642.449 560.284 642.501 560.972 642.235C562.091 641.803 562.553 640.364 562.235 639.208C561.917 638.053 561.02 637.149 560.076 636.409C557.533 634.413 554.475 633.239 551.382 632.395C549.944 632.002 548.255 631.386 546.761 631.327C545.319 631.269 543.674 631.719 542.246 631.963Z" fill="#EEEEEE"/>
<path opacity="0.1" d="M698.347 405H479.133V555.008H698.347V405Z" fill="#535461"/>
<g opacity="0.5">
<path opacity="0.5" d="M548.454 419.774H501.392C500.138 419.774 499.121 420.789 499.121 422.041V465.059C499.121 466.312 500.138 467.327 501.392 467.327H548.454C549.708 467.327 550.724 466.312 550.724 465.059V422.041C550.724 420.789 549.708 419.774 548.454 419.774Z" fill="url(#paint3_linear)"/>
</g>
<path d="M547.893 420.142H502.021C500.768 420.142 499.751 421.158 499.751 422.41V464.275C499.751 465.527 500.768 466.542 502.021 466.542H547.893C549.147 466.542 550.164 465.527 550.164 464.275V422.41C550.164 421.158 549.147 420.142 547.893 420.142Z" fill="#F5F5F5"/>
<path d="M509.867 427.785H505.906C504.652 427.785 503.636 428.8 503.636 430.053V433.16C503.636 434.412 504.652 435.427 505.906 435.427H509.867C511.121 435.427 512.138 434.412 512.138 433.16V430.053C512.138 428.8 511.121 427.785 509.867 427.785Z" fill="#6C63FF"/>
<path d="M548.084 427.785H515.09C514.868 427.785 514.688 427.965 514.688 428.186V428.232C514.688 428.454 514.868 428.634 515.09 428.634H548.084C548.306 428.634 548.486 428.454 548.486 428.232V428.186C548.486 427.965 548.306 427.785 548.084 427.785Z" fill="#E0E0E0"/>
<path d="M548.084 430.332H515.09C514.868 430.332 514.688 430.512 514.688 430.734V430.78C514.688 431.002 514.868 431.181 515.09 431.181H548.084C548.306 431.181 548.486 431.002 548.486 430.78V430.734C548.486 430.512 548.306 430.332 548.084 430.332Z" fill="#E0E0E0"/>
<path d="M548.083 439.579H503.187C502.965 439.579 502.785 439.759 502.785 439.98V440.026C502.785 440.248 502.965 440.428 503.187 440.428H548.083C548.305 440.428 548.485 440.248 548.485 440.026V439.98C548.485 439.759 548.305 439.579 548.083 439.579Z" fill="#E0E0E0"/>
<path d="M548.083 442.126H503.187C502.965 442.126 502.785 442.306 502.785 442.528V442.574C502.785 442.796 502.965 442.975 503.187 442.975H548.083C548.305 442.975 548.485 442.796 548.485 442.574V442.528C548.485 442.306 548.305 442.126 548.083 442.126Z" fill="#E0E0E0"/>
<path d="M548.083 445.523H503.187C502.965 445.523 502.785 445.703 502.785 445.924V445.971C502.785 446.192 502.965 446.372 503.187 446.372H548.083C548.305 446.372 548.485 446.192 548.485 445.971V445.924C548.485 445.703 548.305 445.523 548.083 445.523Z" fill="#E0E0E0"/>
<path d="M528.739 448.07H503.187C502.965 448.07 502.785 448.25 502.785 448.472V448.518C502.785 448.74 502.965 448.92 503.187 448.92H528.739C528.961 448.92 529.141 448.74 529.141 448.518V448.472C529.141 448.25 528.961 448.07 528.739 448.07Z" fill="#E0E0E0"/>
<path d="M548.083 451.459H503.187C502.965 451.459 502.785 451.639 502.785 451.86V451.906C502.785 452.128 502.965 452.308 503.187 452.308H548.083C548.305 452.308 548.485 452.128 548.485 451.906V451.86C548.485 451.639 548.305 451.459 548.083 451.459Z" fill="#E0E0E0"/>
<path d="M548.083 454.006H503.187C502.965 454.006 502.785 454.186 502.785 454.408V454.454C502.785 454.676 502.965 454.856 503.187 454.856H548.083C548.305 454.856 548.485 454.676 548.485 454.454V454.408C548.485 454.186 548.305 454.006 548.083 454.006Z" fill="#E0E0E0"/>
<path d="M548.083 457.403H503.187C502.965 457.403 502.785 457.583 502.785 457.804V457.851C502.785 458.072 502.965 458.252 503.187 458.252H548.083C548.305 458.252 548.485 458.072 548.485 457.851V457.804C548.485 457.583 548.305 457.403 548.083 457.403Z" fill="#E0E0E0"/>
<path d="M528.739 459.95H503.187C502.965 459.95 502.785 460.13 502.785 460.352V460.398C502.785 460.62 502.965 460.8 503.187 460.8H528.739C528.961 460.8 529.141 460.62 529.141 460.398V460.352C529.141 460.13 528.961 459.95 528.739 459.95Z" fill="#E0E0E0"/>
<g opacity="0.5">
<path opacity="0.5" d="M556.241 430.762H509.179C507.925 430.762 506.908 431.778 506.908 433.03V476.048C506.908 477.3 507.925 478.316 509.179 478.316H556.241C557.495 478.316 558.511 477.3 558.511 476.048V433.03C558.511 431.778 557.495 430.762 556.241 430.762Z" fill="url(#paint4_linear)"/>
</g>
<path d="M555.682 431.131H509.81C508.556 431.131 507.539 432.146 507.539 433.399V475.263C507.539 476.516 508.556 477.531 509.81 477.531H555.682C556.935 477.531 557.952 476.516 557.952 475.263V433.399C557.952 432.146 556.935 431.131 555.682 431.131Z" fill="white"/>
<path d="M517.655 438.774H513.694C512.44 438.774 511.424 439.789 511.424 441.041V444.148C511.424 445.401 512.44 446.416 513.694 446.416H517.655C518.909 446.416 519.926 445.401 519.926 444.148V441.041C519.926 439.789 518.909 438.774 517.655 438.774Z" fill="#6C63FF"/>
<path d="M555.871 438.774H522.878C522.656 438.774 522.476 438.953 522.476 439.175V439.221C522.476 439.443 522.656 439.623 522.878 439.623H555.871C556.093 439.623 556.273 439.443 556.273 439.221V439.175C556.273 438.953 556.093 438.774 555.871 438.774Z" fill="#E0E0E0"/>
<path d="M555.871 441.321H522.878C522.656 441.321 522.476 441.501 522.476 441.723V441.769C522.476 441.99 522.656 442.17 522.878 442.17H555.871C556.093 442.17 556.273 441.99 556.273 441.769V441.723C556.273 441.501 556.093 441.321 555.871 441.321Z" fill="#E0E0E0"/>
<path d="M555.871 450.568H510.975C510.753 450.568 510.573 450.747 510.573 450.969V451.015C510.573 451.237 510.753 451.417 510.975 451.417H555.871C556.093 451.417 556.273 451.237 556.273 451.015V450.969C556.273 450.747 556.093 450.568 555.871 450.568Z" fill="#E0E0E0"/>
<path d="M555.871 453.115H510.975C510.753 453.115 510.573 453.295 510.573 453.517V453.563C510.573 453.784 510.753 453.964 510.975 453.964H555.871C556.093 453.964 556.273 453.784 556.273 453.563V453.517C556.273 453.295 556.093 453.115 555.871 453.115Z" fill="#E0E0E0"/>
<path d="M555.871 456.512H510.975C510.753 456.512 510.573 456.691 510.573 456.913V456.959C510.573 457.181 510.753 457.361 510.975 457.361H555.871C556.093 457.361 556.273 457.181 556.273 456.959V456.913C556.273 456.691 556.093 456.512 555.871 456.512Z" fill="#E0E0E0"/>
<path d="M536.527 459.059H510.975C510.753 459.059 510.573 459.239 510.573 459.461V459.507C510.573 459.729 510.753 459.908 510.975 459.908H536.527C536.749 459.908 536.929 459.729 536.929 459.507V459.461C536.929 459.239 536.749 459.059 536.527 459.059Z" fill="#E0E0E0"/>
<path d="M555.871 462.448H510.975C510.753 462.448 510.573 462.627 510.573 462.849V462.895C510.573 463.117 510.753 463.297 510.975 463.297H555.871C556.093 463.297 556.273 463.117 556.273 462.895V462.849C556.273 462.627 556.093 462.448 555.871 462.448Z" fill="#E0E0E0"/>
<path d="M555.871 464.995H510.975C510.753 464.995 510.573 465.175 510.573 465.397V465.443C510.573 465.665 510.753 465.844 510.975 465.844H555.871C556.093 465.844 556.273 465.665 556.273 465.443V465.397C556.273 465.175 556.093 464.995 555.871 464.995Z" fill="#E0E0E0"/>
<path d="M555.871 468.392H510.975C510.753 468.392 510.573 468.572 510.573 468.793V468.839C510.573 469.061 510.753 469.241 510.975 469.241H555.871C556.093 469.241 556.273 469.061 556.273 468.839V468.793C556.273 468.572 556.093 468.392 555.871 468.392Z" fill="#E0E0E0"/>
<path d="M536.527 470.939H510.975C510.753 470.939 510.573 471.119 510.573 471.341V471.387C510.573 471.609 510.753 471.789 510.975 471.789H536.527C536.749 471.789 536.929 471.609 536.929 471.387V471.341C536.929 471.119 536.749 470.939 536.527 470.939Z" fill="#E0E0E0"/>
<path d="M608.26 437.956H579.839V465.231H608.26V437.956Z" fill="url(#paint5_linear)"/>
<path d="M607.815 438.624H580.285V464.674H607.815V438.624Z" fill="#F5F5F5"/>
<g opacity="0.6">
<path opacity="0.6" d="M599.233 454.098H589.313V455.434H599.233V454.098Z" fill="#6C63FF"/>
</g>
<path d="M602.521 456.547H585.579V457.883H602.521V456.547Z" fill="#BDBDBD"/>
<g opacity="0.5">
<path opacity="0.5" d="M683.255 414.091H621.278V486.823H683.255V414.091Z" fill="url(#paint6_linear)"/>
</g>
<path d="M681.937 415.262H623.184V485.213H681.937V415.262Z" fill="white"/>
<path d="M673.292 445.952H631.975V447.708H673.292V445.952Z" fill="#E0E0E0"/>
<path d="M673.292 457.513H631.975V459.269H673.292V457.513Z" fill="#E0E0E0"/>
<path d="M673.292 460.586H631.975V462.343H673.292V460.586Z" fill="#E0E0E0"/>
<path d="M649.41 454.44H631.975V456.196H649.41V454.44Z" fill="#E0E0E0"/>
<path opacity="0.6" d="M673.292 454.44H660.252V456.196H673.292V454.44Z" fill="#3AD29F"/>
<path d="M659.52 467.757H646.479V469.513H659.52V467.757Z" fill="#6C63FF"/>
<g opacity="0.5">
<path opacity="0.5" d="M621.943 507.278H585.118V537.489H621.943V507.278Z" fill="url(#paint7_linear)"/>
</g>
<path d="M621.442 507.85H585.547V536.989H621.442V507.85Z" fill="#F2F2F2"/>
<path d="M621.442 507.85H585.547V514.349H621.442V507.85Z" fill="#6C63FF"/>
<path opacity="0.1" d="M621.442 507.85H585.547V514.349H621.442V507.85Z" fill="black"/>
<path d="M618.582 516.706H588.407V520.491H618.582V516.706Z" fill="#E0E0E0"/>
<path d="M610.431 523.348H588.407V524.633H610.431V523.348Z" fill="#E0E0E0"/>
<path d="M602.708 525.562H588.407V526.847H602.708V525.562Z" fill="#E0E0E0"/>
<path d="M607.285 527.776H588.407V529.061H607.285V527.776Z" fill="#E0E0E0"/>
<path d="M610.431 529.99H588.407V531.275H610.431V529.99Z" fill="#E0E0E0"/>
<path d="M595.772 532.204H588.407V533.489H595.772V532.204Z" fill="#E0E0E0"/>
<g opacity="0.5">
<path opacity="0.5" d="M607.703 496.198H562.06V533.643H607.703V496.198Z" fill="url(#paint8_linear)"/>
</g>
<path d="M607.083 496.906H562.592V533.023H607.083V496.906Z" fill="white"/>
<path d="M607.083 496.906H562.592V504.962H607.083V496.906Z" fill="#6C63FF"/>
<path d="M603.538 507.883H566.137V512.575H603.538V507.883Z" fill="#F5F5F5"/>
<path d="M593.434 516.115H566.137V517.709H593.434V516.115Z" fill="#E0E0E0"/>
<path d="M583.862 518.86H566.137V520.453H583.862V518.86Z" fill="#E0E0E0"/>
<path d="M589.535 521.604H566.137V523.197H589.535V521.604Z" fill="#E0E0E0"/>
<path d="M593.434 524.348H566.137V525.941H593.434V524.348Z" fill="#E0E0E0"/>
<path d="M575.265 527.092H566.137V528.686H575.265V527.092Z" fill="#E0E0E0"/>
<path d="M578.722 509.476H568.087V510.893H578.722V509.476Z" fill="#69F0AE"/>
<path opacity="0.1" d="M499.822 595.635C503.225 595.635 505.984 592.879 505.984 589.48C505.984 586.081 503.225 583.325 499.822 583.325C496.418 583.325 493.659 586.081 493.659 589.48C493.659 592.879 496.418 595.635 499.822 595.635Z" fill="#535461"/>
<path opacity="0.1" d="M511.267 575.85C514.671 575.85 517.43 573.095 517.43 569.695C517.43 566.296 514.671 563.54 511.267 563.54C507.864 563.54 505.104 566.296 505.104 569.695C505.104 573.095 507.864 575.85 511.267 575.85Z" fill="#535461"/>
</g>
<defs>
<linearGradient id="paint0_linear" x1="426.089" y1="649.962" x2="426.089" y2="461.833" gradientUnits="userSpaceOnUse">
<stop stop-color="#808080" stop-opacity="0.25"/>
<stop offset="0.53514" stop-color="#808080" stop-opacity="0.12"/>
<stop offset="1" stop-color="#808080" stop-opacity="0.1"/>
</linearGradient>
<linearGradient id="paint1_linear" x1="26286.5" y1="22443.2" x2="26286.5" y2="20567.3" gradientUnits="userSpaceOnUse">
<stop stop-color="#808080" stop-opacity="0.25"/>
<stop offset="0.53514" stop-color="#808080" stop-opacity="0.12"/>
<stop offset="1" stop-color="#808080" stop-opacity="0.1"/>
</linearGradient>
<linearGradient id="paint2_linear" x1="45073.7" y1="43875.1" x2="45073.7" y2="31278.5" gradientUnits="userSpaceOnUse">
<stop stop-color="#808080" stop-opacity="0.25"/>
<stop offset="0.53514" stop-color="#808080" stop-opacity="0.12"/>
<stop offset="1" stop-color="#808080" stop-opacity="0.1"/>
</linearGradient>
<linearGradient id="paint3_linear" x1="27287.5" y1="6301.08" x2="27287.5" y2="1813.84" gradientUnits="userSpaceOnUse">
<stop stop-color="#808080" stop-opacity="0.25"/>
<stop offset="0.53514" stop-color="#808080" stop-opacity="0.12"/>
<stop offset="1" stop-color="#808080" stop-opacity="0.1"/>
</linearGradient>
<linearGradient id="paint4_linear" x1="28091.8" y1="7348.99" x2="28091.8" y2="2861.76" gradientUnits="userSpaceOnUse">
<stop stop-color="#808080" stop-opacity="0.25"/>
<stop offset="0.53514" stop-color="#808080" stop-opacity="0.12"/>
<stop offset="1" stop-color="#808080" stop-opacity="0.1"/>
</linearGradient>
<linearGradient id="paint5_linear" x1="19228.1" y1="3697.73" x2="19228.1" y2="2221.61" gradientUnits="userSpaceOnUse">
<stop stop-color="#808080" stop-opacity="0.25"/>
<stop offset="0.53514" stop-color="#808080" stop-opacity="0.12"/>
<stop offset="1" stop-color="#808080" stop-opacity="0.1"/>
</linearGradient>
<linearGradient id="paint6_linear" x1="48436.9" y1="12223.1" x2="48436.9" y2="1726.2" gradientUnits="userSpaceOnUse">
<stop stop-color="#808080" stop-opacity="0.25"/>
<stop offset="0.53514" stop-color="#808080" stop-opacity="0.12"/>
<stop offset="1" stop-color="#808080" stop-opacity="0.1"/>
</linearGradient>
<linearGradient id="paint7_linear" x1="25439" y1="8449.68" x2="25439" y2="6638.64" gradientUnits="userSpaceOnUse">
<stop stop-color="#808080" stop-opacity="0.25"/>
<stop offset="0.53514" stop-color="#808080" stop-opacity="0.12"/>
<stop offset="1" stop-color="#808080" stop-opacity="0.1"/>
</linearGradient>
<linearGradient id="paint8_linear" x1="29680.9" y1="10054.8" x2="29680.9" y2="7272.54" gradientUnits="userSpaceOnUse">
<stop stop-color="#808080" stop-opacity="0.25"/>
<stop offset="0.53514" stop-color="#808080" stop-opacity="0.12"/>
<stop offset="1" stop-color="#808080" stop-opacity="0.1"/>
</linearGradient>
<clipPath id="clip0">
<rect x="263" y="405" width="435.348" height="289.264" fill="white"/>
</clipPath>
</defs>
</svg>
