<svg width="49" height="40" viewBox="0 0 49 40" fill="none" xmlns="http://www.w3.org/2000/svg">
<path d="M24.6794 30.6708C25.1457 30.6708 25.5238 30.3072 25.5238 29.8587C25.5238 29.4101 25.1457 29.0465 24.6794 29.0465C24.213 29.0465 23.835 29.4101 23.835 29.8587C23.835 30.3072 24.213 30.6708 24.6794 30.6708Z" fill="white"/>
<path d="M29.6326 8.34805H19.8907C18.4754 8.34805 17.3242 9.45537 17.3242 10.8164V29.7626C17.3242 31.1236 18.4756 32.2309 19.8907 32.2309H29.6327C31.0478 32.2309 32.1992 31.1236 32.1992 29.7626V10.8164C32.199 9.45537 31.0478 8.34805 29.6326 8.34805ZM18.9797 13.178H30.5436V26.4352H18.9797V13.178ZM19.8907 9.94024H29.6327C30.135 9.94024 30.5437 10.3333 30.5437 10.8164V11.5858H18.9797V10.8164C18.9797 10.3333 19.3883 9.94024 19.8907 9.94024ZM29.6326 30.6387H19.8907C19.3884 30.6387 18.9797 30.2457 18.9797 29.7626V28.0273H30.5436V29.7626C30.5436 30.2457 30.135 30.6387 29.6326 30.6387Z" fill="white"/>
</svg>
