<svg width="50" height="41" viewBox="0 0 50 41" fill="none" xmlns="http://www.w3.org/2000/svg">
<path d="M36.9497 28.7904L33.6434 23.4704C33.5014 23.242 33.2449 23.1021 32.9682 23.1021H31.069L28.8932 21.0096L29.1467 20.7658C31.2976 21.3179 33.6348 20.7292 35.2223 19.2024C36.9299 17.56 37.509 15.0832 36.6976 12.8924C36.504 12.3697 35.8086 12.2188 35.4004 12.6113L32.1827 15.7063L30.3286 15.3496L29.9578 13.5664L33.1754 10.4718C33.5833 10.0796 33.427 9.4106 32.8833 9.22426C30.6056 8.44348 28.0306 9.00036 26.323 10.6426C25.2018 11.7208 24.568 13.1585 24.4938 14.6386L19.1897 9.5373C18.2701 8.65288 16.772 8.65252 15.8528 9.53721L13.6276 11.6769C12.7075 12.5619 12.7075 14.0018 13.6276 14.8868L19.9938 21.0096L17.9157 23.0082C17.8337 23.0011 17.7479 22.9965 17.658 22.9965C15.0555 22.9965 12.9383 25.0328 12.9383 27.5357C12.9383 30.0387 15.0555 32.075 17.658 32.075C20.2604 32.075 22.3777 30.0387 22.3777 27.5357C22.3777 27.4493 22.3729 27.3666 22.3655 27.2878L25.556 24.2193L27.7316 26.3119V28.1382C27.7316 28.4044 27.877 28.651 28.1146 28.7876L33.6462 31.9678C33.9554 32.1456 34.351 32.0987 34.606 31.8534L36.8307 29.7136C37.0855 29.4684 37.1346 29.088 36.9497 28.7904ZM14.74 13.8169C14.4333 13.5219 14.4333 13.0418 14.7399 12.7468L16.9654 10.607C17.2699 10.314 17.7724 10.314 18.0773 10.6072C24.7561 17.0306 24.3457 16.6487 24.4571 16.7168L23.331 17.7999L17.4276 12.1221C17.1204 11.8267 16.6223 11.8267 16.3151 12.1221C16.0079 12.4175 16.0079 12.8965 16.3151 13.192L22.2186 18.8698L21.1062 19.9397L14.74 13.8169ZM25.0003 22.6138C25.0001 22.6139 24.9999 22.6141 24.9997 22.6143C24.9996 22.6144 24.9994 22.6146 24.9993 22.6148L20.9802 26.4801C20.8059 26.6478 20.7234 26.8844 20.7574 27.1193C20.7838 27.2981 20.8044 27.424 20.8044 27.5356C20.8044 29.2043 19.3929 30.5618 17.658 30.5618C15.923 30.5618 14.5116 29.2042 14.5116 27.5356C14.5116 25.867 15.9231 24.5095 17.658 24.5095C17.76 24.5095 17.8753 24.5252 18.0087 24.5436C18.2964 24.5826 18.5394 24.548 18.7554 24.3404L26.145 17.2333C26.3599 17.0266 26.4318 16.7195 26.3298 16.4443C25.7208 14.8014 26.1548 12.944 27.4353 11.7126C28.392 10.7926 29.7121 10.3277 31.0307 10.3946L28.5476 12.7826C28.3616 12.9615 28.2808 13.2179 28.3324 13.466L28.8887 16.1408C28.951 16.4403 29.1944 16.6743 29.5058 16.7343L32.2869 17.2693C32.5448 17.3188 32.8115 17.2413 32.9974 17.0624L35.4805 14.674C35.5506 15.9426 35.0665 17.2124 34.1098 18.1324C32.8296 19.3639 30.8985 19.7812 29.1901 19.1955C28.9039 19.0972 28.5846 19.1665 28.3698 19.3731L25.0003 22.6138ZM33.9271 30.3665L29.3047 27.7091V25.9986C29.3047 25.7979 29.2218 25.6055 29.0744 25.4636L26.6683 23.1494L27.7807 22.0795L30.1869 24.3935C30.3345 24.5354 30.5345 24.6151 30.7431 24.6151H32.5219L35.2848 29.0606L33.9271 30.3665Z" fill="white"/>
</svg>
