<svg width="50" height="41" viewBox="0 0 50 41" fill="none" xmlns="http://www.w3.org/2000/svg">
<path d="M16.0633 23.3259C16.0739 23.3225 16.0845 23.3193 16.0952 23.3164L18.9362 22.5373L20.9528 20.6872V20.1898C19.9878 19.2628 19.3798 17.9822 19.3798 16.5699V13.5475C19.3797 10.7327 21.75 8.42889 24.6917 8.42889C27.6263 8.42889 30.0138 10.7251 30.0138 13.5475V16.57C30.0138 17.9823 29.4058 19.2628 28.4408 20.1899V20.6872L30.4445 22.5348L33.2321 23.3178C33.2413 23.3203 33.2504 23.3231 33.2594 23.326C34.4831 23.7182 35.1994 24.9636 34.8981 26.1677L33.554 32.797C33.4833 33.1462 33.1651 33.3885 32.8086 33.3885C32.7875 33.3885 32.7662 33.3872 32.7449 33.3855C32.7256 33.387 32.7065 33.3884 32.6869 33.3884H16.5877C16.2268 33.3884 15.9156 33.1443 15.843 32.8044L14.4256 26.1716C14.1216 24.9663 14.8382 23.7187 16.0633 23.3259ZM20.3545 23.2537L22.5289 26.3907L23.7143 25.2507L21.5636 22.1333L20.3545 23.2537ZM24.6918 9.89137C23.4502 9.89137 22.346 10.4669 21.6518 11.3549C22.365 12.2655 23.4924 12.8163 24.6918 12.8163H28.4168C28.0635 11.1495 26.5276 9.89137 24.6918 9.89137ZM28.5034 16.57V14.2787H24.6917C23.2857 14.2787 21.9504 13.7381 20.9671 12.814C20.9167 13.051 20.8902 13.2964 20.8902 13.5475V16.57C20.8902 18.586 22.5955 20.2261 24.6917 20.2261C26.7879 20.2261 28.5034 18.586 28.5034 16.57ZM27.8199 22.1333L25.6691 25.2507L26.8544 26.3907L29.0288 23.2537L27.8199 22.1333ZM25.452 31.9258H32.1814C32.1871 31.898 33.4105 25.8608 33.4178 25.8333C33.5399 25.3635 33.2645 24.8756 32.7901 24.7171L30.3225 24.024L27.6052 27.9441C27.3396 28.3274 26.7746 28.3823 26.435 28.0556L25.452 27.1101V31.9258H25.452ZM26.5153 21.379C25.9462 21.5792 25.332 21.6886 24.6917 21.6886C24.0514 21.6886 23.4372 21.5792 22.8681 21.379L24.6917 24.0222L26.5153 21.379ZM15.9121 25.8634L17.2076 31.9258H23.9416V27.1101L22.9484 28.0556C22.6092 28.382 22.0441 28.3277 21.7782 27.9441L19.0608 24.0238L16.5305 24.7178C16.1151 24.8576 15.7836 25.2681 15.9121 25.8634Z" fill="white"/>
</svg>
